<svg width="102" height="59" viewBox="0 0 102 59" fill="none" xmlns="http://www.w3.org/2000/svg">
<path d="M0.53782 11.3501L2.15128 5.94903C2.25293 5.5407 2.8085 4.89365 3.22692 4.86881H10.2186C10.5766 4.84007 10.9362 4.84007 11.2942 4.86881H15.5968C15.9119 4.90067 15.9932 5.12428 16.1346 5.40892L16.6724 6.48914C16.8959 6.82524 17.0766 7.18814 17.2102 7.56936L17.7481 9.72979C17.8083 10.0895 17.9229 10.2699 18.2859 10.2699C18.4188 10.2436 18.5409 10.1782 18.6367 10.0821C18.7324 9.98588 18.7975 9.86325 18.8237 9.72979V7.02925C18.8237 6.03112 18.274 5.17559 17.7481 4.3287C17.251 3.48904 16.5411 2.79674 15.6908 2.32234C14.8405 1.84795 13.8802 1.60841 12.9077 1.62815H11.832C11.5798 1.62815 11.4722 1.26736 11.2942 1.08804C10.3963 0.325766 9.24107 -0.0609458 8.0673 0.00782147H7.52948C5.78555 0.0176086 4.09009 0.585169 2.6891 1.62815C2.29236 1.94771 1.93166 2.30994 1.61346 2.70837V3.24848C0.785755 4.29197 0 5.15507 0 6.48914V11.3501C0 11.4679 0.420575 11.3501 0.53782 11.3501C0.504475 11.4743 0.665821 11.3501 0.53782 11.3501Z" fill="white"/>
<path d="M9.68144 50.2377V38.8954C9.65856 38.6825 9.69709 38.4675 9.79244 38.276C9.88779 38.0845 10.0359 37.9245 10.2193 37.8152C10.7192 37.4608 11.0932 36.9552 11.2867 36.3722C11.4802 35.7892 11.4831 35.1593 11.2949 34.5745C11.1996 34.085 10.9269 33.6483 10.5295 33.349C10.1321 33.0496 9.63831 32.909 9.14362 32.9542C7.98408 32.9445 6.80357 33.4641 6.45452 34.5745C6.26722 35.1594 6.27052 35.7889 6.46397 36.3718C6.65741 36.9546 7.03091 37.4602 7.53016 37.8152C7.71605 37.9218 7.86634 38.0812 7.96206 38.2735C8.05778 38.4657 8.09464 38.6822 8.06798 38.8954C8.04862 42.5444 8.06798 46.0486 8.06798 49.6976V50.2377L2.68978 39.9756C2.08151 38.6945 1.65233 37.4868 1.07632 36.1949C0.951121 35.8458 0.951121 35.4638 1.07632 35.1147C2.98741 32.4181 4.10554 29.2366 4.30324 25.9328C4.32314 25.8437 4.26237 26.0144 4.30324 25.9328H13.4462C13.7436 27.3371 13.6419 28.3703 13.984 29.7136C14.5584 31.6582 15.4686 33.4864 16.6731 35.1147C16.7691 35.2783 16.8198 35.4648 16.8198 35.6548C16.8198 35.8447 16.7691 36.0312 16.6731 36.1949" fill="white"/>
<path d="M14.522 24.3125V25.3927C14.3558 25.8 13.8826 26.5134 13.4464 26.4729H4.84126C4.57312 26.4258 4.32597 26.2968 4.13348 26.1035C3.941 25.9102 3.81254 25.662 3.76562 25.3927V24.3125H14.522Z" fill="white"/>
<path d="M9.14258 26.4747L11.2939 25.3945V27.555L9.14258 26.4747Z" fill="#FFFCF8"/>
<path d="M8.60636 26.4747L6.45508 27.555V25.3945L8.60636 26.4747Z" fill="#FFFCF8"/>
<path d="M8.60563 51.3163C8.23345 51.2374 7.19008 52.4089 7.52999 53.4767C8.02317 55.0695 11.4071 55.5729 12.3704 55.6372C15.7167 55.8635 16.8235 54.4203 19.8998 55.097C21.8812 55.5243 22.4061 56.2351 22.5889 56.7174C22.8041 57.3002 22.3614 58.1924 22.5889 58.3377C22.8164 58.483 23.4946 57.8192 23.6646 57.2575C23.7369 56.964 23.7248 56.6559 23.6296 56.369C23.5344 56.0822 23.36 55.8284 23.1268 55.6372C22.5352 55.0565 21.7688 54.7427 20.4377 54.5569C18.4219 54.262 17.1855 54.5569 15.0595 54.5569C13.9608 54.5662 12.8689 54.3835 11.8325 54.0168C10.0233 53.5534 9.27091 53.1375 9.14345 52.9366C8.65242 52.1378 8.86539 51.3714 8.60563 51.3163Z" fill="white"/>
<path d="M41.5202 14.606C41.0402 14.534 40.5362 14.36 40.0082 14.084V13.4H44.5442V14.084C44.3402 14.216 44.1242 14.324 43.8962 14.408C43.6682 14.492 43.4462 14.558 43.2302 14.606L40.0442 26L38.1722 26.216L35.3822 17.504L32.6642 26L30.7742 26.216L27.2642 14.606C27.0122 14.558 26.7782 14.492 26.5622 14.408C26.3462 14.312 26.1422 14.204 25.9502 14.084V13.4H31.7822V14.084C31.5782 14.192 31.3442 14.294 31.0802 14.39C30.8282 14.474 30.5642 14.546 30.2882 14.606L31.9622 20.96L32.3402 23.3H32.3762L33.0062 20.87L35.4002 13.4H36.4622L39.0182 20.78L39.6302 23.12H39.6662L40.0802 20.744L41.5202 14.606ZM49.0839 24.794C49.3599 24.854 49.6059 24.932 49.8219 25.028C50.0379 25.124 50.2479 25.22 50.4519 25.316V26H44.9079V25.316C45.1719 25.172 45.4239 25.064 45.6639 24.992C45.9039 24.908 46.1439 24.842 46.3839 24.794V14.606C45.7839 14.474 45.2919 14.3 44.9079 14.084V13.4H46.8159C47.0559 13.4 47.3259 13.394 47.6259 13.382C47.9379 13.37 48.2619 13.358 48.5979 13.346C48.9339 13.322 49.2759 13.304 49.6239 13.292C49.9719 13.268 50.3079 13.256 50.6319 13.256C51.2919 13.256 51.8979 13.334 52.4499 13.49C53.0139 13.634 53.4939 13.856 53.8899 14.156C54.2979 14.456 54.6099 14.834 54.8259 15.29C55.0539 15.734 55.1679 16.256 55.1679 16.856C55.1679 17.72 54.9579 18.428 54.5379 18.98C54.1179 19.532 53.5419 19.946 52.8099 20.222C53.2899 20.978 53.7999 21.752 54.3399 22.544C54.8799 23.324 55.4499 24.08 56.0499 24.812L56.9139 25.388V26H53.9079L53.1339 25.406C52.5819 24.746 52.0899 23.984 51.6579 23.12C51.2379 22.244 50.8659 21.386 50.5419 20.546H49.0839V24.794ZM49.9839 14.426C49.6119 14.426 49.3119 14.462 49.0839 14.534V19.556H50.1459C50.7579 19.556 51.2799 19.34 51.7119 18.908C52.1439 18.464 52.3599 17.81 52.3599 16.946C52.3599 16.502 52.2999 16.124 52.1799 15.812C52.0599 15.488 51.8919 15.224 51.6759 15.02C51.4599 14.816 51.2079 14.666 50.9199 14.57C50.6319 14.474 50.3199 14.426 49.9839 14.426ZM63.2546 26H57.6386V25.316C58.1186 25.052 58.6046 24.878 59.0966 24.794V14.606C58.8566 14.57 58.6046 14.504 58.3406 14.408C58.0766 14.312 57.8426 14.204 57.6386 14.084V13.4H63.2546V14.084C63.0386 14.216 62.7986 14.33 62.5346 14.426C62.2826 14.51 62.0366 14.57 61.7966 14.606V24.794C62.0366 24.842 62.2826 24.908 62.5346 24.992C62.7986 25.076 63.0386 25.184 63.2546 25.316V26ZM72.8859 26H66.6939V25.316C66.9339 25.22 67.2039 25.124 67.5039 25.028C67.8159 24.92 68.1279 24.842 68.4399 24.794V14.57H66.3519L65.1999 17.648H64.4619C64.4139 17.408 64.3659 17.102 64.3179 16.73C64.2699 16.358 64.2279 15.974 64.1919 15.578C64.1559 15.182 64.1259 14.792 64.1019 14.408C64.0779 14.012 64.0659 13.676 64.0659 13.4H75.5139C75.5139 13.688 75.5019 14.024 75.4779 14.408C75.4539 14.792 75.4239 15.182 75.3879 15.578C75.3519 15.974 75.3099 16.358 75.2619 16.73C75.2139 17.09 75.1659 17.396 75.1179 17.648H74.3799L73.2279 14.57H71.1399V24.794C71.4519 24.854 71.7579 24.926 72.0579 25.01C72.3699 25.094 72.6459 25.196 72.8859 25.316V26ZM85.6122 13.4C85.5882 13.94 85.5462 14.498 85.4862 15.074C85.4262 15.65 85.3482 16.19 85.2522 16.694H84.5142L83.6862 14.57H80.3202V18.98H82.5162L83.3082 17.594H83.8842C83.9442 18.182 83.9742 18.836 83.9742 19.556C83.9742 20.276 83.9442 20.948 83.8842 21.572H83.3082L82.5162 20.15H80.3202V24.83H83.8302L84.7842 22.544H85.5222C85.5702 22.772 85.6182 23.03 85.6662 23.318C85.7142 23.606 85.7502 23.906 85.7742 24.218C85.8102 24.518 85.8342 24.824 85.8462 25.136C85.8702 25.448 85.8822 25.736 85.8822 26H76.1442V25.316C76.3482 25.208 76.5762 25.106 76.8282 25.01C77.0802 24.914 77.3442 24.842 77.6202 24.794V14.606C77.3802 14.558 77.1222 14.492 76.8462 14.408C76.5822 14.312 76.3482 14.204 76.1442 14.084V13.4H85.6122ZM91.1835 24.794C91.4595 24.854 91.7055 24.932 91.9215 25.028C92.1375 25.124 92.3475 25.22 92.5515 25.316V26H87.0075V25.316C87.2715 25.172 87.5235 25.064 87.7635 24.992C88.0035 24.908 88.2435 24.842 88.4835 24.794V14.606C87.8835 14.474 87.3915 14.3 87.0075 14.084V13.4H88.9155C89.1555 13.4 89.4255 13.394 89.7255 13.382C90.0375 13.37 90.3615 13.358 90.6975 13.346C91.0335 13.322 91.3755 13.304 91.7235 13.292C92.0715 13.268 92.4075 13.256 92.7315 13.256C93.3915 13.256 93.9975 13.334 94.5495 13.49C95.1135 13.634 95.5935 13.856 95.9895 14.156C96.3975 14.456 96.7095 14.834 96.9255 15.29C97.1535 15.734 97.2675 16.256 97.2675 16.856C97.2675 17.72 97.0575 18.428 96.6375 18.98C96.2175 19.532 95.6415 19.946 94.9095 20.222C95.3895 20.978 95.8995 21.752 96.4395 22.544C96.9795 23.324 97.5495 24.08 98.1495 24.812L99.0135 25.388V26H96.0075L95.2335 25.406C94.6815 24.746 94.1895 23.984 93.7575 23.12C93.3375 22.244 92.9655 21.386 92.6415 20.546H91.1835V24.794ZM92.0835 14.426C91.7115 14.426 91.4115 14.462 91.1835 14.534V19.556H92.2455C92.8575 19.556 93.3795 19.34 93.8115 18.908C94.2435 18.464 94.4595 17.81 94.4595 16.946C94.4595 16.502 94.3995 16.124 94.2795 15.812C94.1595 15.488 93.9915 15.224 93.7755 15.02C93.5595 14.816 93.3075 14.666 93.0195 14.57C92.7315 14.474 92.4195 14.426 92.0835 14.426ZM46.8024 39.606C46.3224 39.534 45.8184 39.36 45.2904 39.084V38.4H49.8264V39.084C49.6224 39.216 49.4064 39.324 49.1784 39.408C48.9504 39.492 48.7284 39.558 48.5124 39.606L45.3264 51L43.4544 51.216L40.6644 42.504L37.9464 51L36.0564 51.216L32.5464 39.606C32.2944 39.558 32.0604 39.492 31.8444 39.408C31.6284 39.312 31.4244 39.204 31.2324 39.084V38.4H37.0644V39.084C36.8604 39.192 36.6264 39.294 36.3624 39.39C36.1104 39.474 35.8464 39.546 35.5704 39.606L37.2444 45.96L37.6224 48.3H37.6584L38.2884 45.87L40.6824 38.4H41.7444L44.3004 45.78L44.9124 48.12H44.9484L45.3624 45.744L46.8024 39.606ZM50.5321 44.7C50.5321 43.764 50.6641 42.9 50.9281 42.108C51.1921 41.304 51.5821 40.614 52.0981 40.038C52.6141 39.45 53.2501 38.994 54.0061 38.67C54.7621 38.346 55.6321 38.184 56.6161 38.184C57.6001 38.184 58.4701 38.346 59.2261 38.67C59.9821 38.994 60.6121 39.45 61.1161 40.038C61.6321 40.614 62.0221 41.304 62.2861 42.108C62.5501 42.9 62.6821 43.764 62.6821 44.7C62.6821 45.636 62.5501 46.506 62.2861 47.31C62.0221 48.102 61.6321 48.792 61.1161 49.38C60.6121 49.956 59.9821 50.406 59.2261 50.73C58.4701 51.054 57.6001 51.216 56.6161 51.216C55.6321 51.216 54.7621 51.054 54.0061 50.73C53.2501 50.406 52.6141 49.956 52.0981 49.38C51.5821 48.792 51.1921 48.102 50.9281 47.31C50.6641 46.506 50.5321 45.636 50.5321 44.7ZM53.5921 44.7C53.5921 45.468 53.6521 46.182 53.7721 46.842C53.8921 47.49 54.0781 48.054 54.3301 48.534C54.5941 49.002 54.9241 49.374 55.3201 49.65C55.7281 49.914 56.2141 50.046 56.7781 50.046C57.2941 50.046 57.7321 49.914 58.0921 49.65C58.4521 49.374 58.7461 49.002 58.9741 48.534C59.2021 48.054 59.3641 47.49 59.4601 46.842C59.5681 46.182 59.6221 45.468 59.6221 44.7C59.6221 43.932 59.5621 43.224 59.4421 42.576C59.3341 41.916 59.1541 41.352 58.9021 40.884C58.6621 40.404 58.3381 40.032 57.9301 39.768C57.5341 39.492 57.0481 39.354 56.4721 39.354C55.9201 39.354 55.4581 39.492 55.0861 39.768C54.7141 40.032 54.4141 40.404 54.1861 40.884C53.9701 41.352 53.8141 41.916 53.7181 42.576C53.6341 43.224 53.5921 43.932 53.5921 44.7ZM67.9364 49.794C68.2124 49.854 68.4584 49.932 68.6744 50.028C68.8904 50.124 69.1004 50.22 69.3044 50.316V51H63.7604V50.316C64.0244 50.172 64.2764 50.064 64.5164 49.992C64.7564 49.908 64.9964 49.842 65.2364 49.794V39.606C64.6364 39.474 64.1444 39.3 63.7604 39.084V38.4H65.6684C65.9084 38.4 66.1784 38.394 66.4784 38.382C66.7904 38.37 67.1144 38.358 67.4504 38.346C67.7864 38.322 68.1284 38.304 68.4764 38.292C68.8244 38.268 69.1604 38.256 69.4844 38.256C70.1444 38.256 70.7504 38.334 71.3024 38.49C71.8664 38.634 72.3464 38.856 72.7424 39.156C73.1504 39.456 73.4624 39.834 73.6784 40.29C73.9064 40.734 74.0204 41.256 74.0204 41.856C74.0204 42.72 73.8104 43.428 73.3904 43.98C72.9704 44.532 72.3944 44.946 71.6624 45.222C72.1424 45.978 72.6524 46.752 73.1924 47.544C73.7324 48.324 74.3024 49.08 74.9024 49.812L75.7664 50.388V51H72.7604L71.9864 50.406C71.4344 49.746 70.9424 48.984 70.5104 48.12C70.0904 47.244 69.7184 46.386 69.3944 45.546H67.9364V49.794ZM68.8364 39.426C68.4644 39.426 68.1644 39.462 67.9364 39.534V44.556H68.9984C69.6104 44.556 70.1324 44.34 70.5644 43.908C70.9964 43.464 71.2124 42.81 71.2124 41.946C71.2124 41.502 71.1524 41.124 71.0324 40.812C70.9124 40.488 70.7444 40.224 70.5284 40.02C70.3124 39.816 70.0604 39.666 69.7724 39.57C69.4844 39.474 69.1724 39.426 68.8364 39.426ZM83.1332 38.4H87.9572V39.084C87.7532 39.216 87.5192 39.33 87.2552 39.426C86.9912 39.51 86.7512 39.57 86.5352 39.606L83.1152 43.944C83.3912 44.328 83.7152 44.766 84.0872 45.258C84.4592 45.738 84.8552 46.242 85.2752 46.77C85.6952 47.286 86.1272 47.814 86.5712 48.354C87.0152 48.882 87.4472 49.386 87.8672 49.866L88.7312 50.388V51H85.5992L84.8792 50.496C84.5912 50.136 84.2852 49.74 83.9612 49.308C83.6492 48.864 83.3372 48.408 83.0252 47.94C82.7132 47.46 82.4072 46.98 82.1072 46.5C81.8072 46.02 81.5252 45.552 81.2612 45.096H80.4872V49.794C80.7512 49.842 80.9912 49.914 81.2072 50.01C81.4232 50.106 81.6092 50.208 81.7652 50.316V51H76.3112V50.316C76.5512 50.196 76.7972 50.094 77.0492 50.01C77.3012 49.914 77.5472 49.842 77.7872 49.794V39.606C77.5112 39.57 77.2412 39.504 76.9772 39.408C76.7252 39.312 76.5032 39.204 76.3112 39.084V38.4H81.7652V39.084C81.6092 39.18 81.4172 39.276 81.1892 39.372C80.9732 39.468 80.7392 39.546 80.4872 39.606V44.178L81.5492 43.926L84.4472 39.606C84.2072 39.558 83.9672 39.486 83.7272 39.39C83.4992 39.282 83.3012 39.18 83.1332 39.084V38.4ZM91.5565 49.506C91.6885 49.638 91.8745 49.764 92.1145 49.884C92.3545 49.992 92.6725 50.046 93.0685 50.046C93.7285 50.046 94.2745 49.878 94.7065 49.542C95.1505 49.194 95.3725 48.714 95.3725 48.102C95.3725 47.658 95.2285 47.286 94.9405 46.986C94.6645 46.686 94.3105 46.41 93.8785 46.158C93.4465 45.906 92.9845 45.66 92.4925 45.42C92.0005 45.168 91.5385 44.874 91.1065 44.538C90.6745 44.202 90.3145 43.806 90.0265 43.35C89.7505 42.882 89.6125 42.306 89.6125 41.622C89.6125 41.034 89.7205 40.524 89.9365 40.092C90.1525 39.66 90.4465 39.306 90.8185 39.03C91.2025 38.742 91.6525 38.532 92.1685 38.4C92.6845 38.256 93.2425 38.184 93.8425 38.184C94.5745 38.184 95.2525 38.238 95.8765 38.346C96.5125 38.442 97.0825 38.598 97.5865 38.814C97.5745 39.054 97.5505 39.33 97.5145 39.642C97.4905 39.954 97.4545 40.266 97.4065 40.578C97.3585 40.878 97.3045 41.166 97.2445 41.442C97.1965 41.706 97.1485 41.928 97.1005 42.108H96.3625L95.5345 39.642C95.3905 39.57 95.1745 39.504 94.8865 39.444C94.6105 39.384 94.3225 39.354 94.0225 39.354C93.5185 39.354 93.0925 39.486 92.7445 39.75C92.3965 40.014 92.2225 40.398 92.2225 40.902C92.2225 41.358 92.3665 41.748 92.6545 42.072C92.9425 42.384 93.3025 42.672 93.7345 42.936C94.1665 43.2 94.6345 43.464 95.1385 43.728C95.6545 43.98 96.1285 44.274 96.5605 44.61C96.9925 44.946 97.3525 45.342 97.6405 45.798C97.9285 46.242 98.0725 46.794 98.0725 47.454C98.0725 48.654 97.6645 49.584 96.8485 50.244C96.0445 50.892 94.8565 51.216 93.2845 51.216C92.9005 51.216 92.5105 51.192 92.1145 51.144C91.7305 51.096 91.3645 51.03 91.0165 50.946C90.6685 50.862 90.3565 50.772 90.0805 50.676C89.8165 50.58 89.6185 50.478 89.4865 50.37C89.4985 50.094 89.5285 49.8 89.5765 49.488C89.6245 49.164 89.6725 48.846 89.7205 48.534C89.7805 48.21 89.8405 47.904 89.9005 47.616C89.9605 47.328 90.0205 47.076 90.0805 46.86H90.8185L91.5565 49.506Z" fill="white"/>
</svg>
