<svg width="102" height="59" viewBox="0 0 102 59" fill="none" xmlns="http://www.w3.org/2000/svg">
<path d="M0.53782 11.3501L2.15128 5.94903C2.25293 5.5407 2.8085 4.89365 3.22692 4.86881H10.2186C10.5766 4.84007 10.9362 4.84007 11.2942 4.86881H15.5968C15.9119 4.90067 15.9932 5.12428 16.1346 5.40892L16.6724 6.48914C16.8959 6.82524 17.0766 7.18814 17.2102 7.56936L17.7481 9.72979C17.8083 10.0895 17.9229 10.2699 18.2859 10.2699C18.4188 10.2436 18.5409 10.1782 18.6367 10.0821C18.7324 9.98588 18.7975 9.86325 18.8237 9.72979V7.02925C18.8237 6.03112 18.274 5.17559 17.7481 4.3287C17.251 3.48904 16.5411 2.79674 15.6908 2.32234C14.8405 1.84795 13.8802 1.60841 12.9077 1.62815H11.832C11.5798 1.62815 11.4722 1.26736 11.2942 1.08804C10.3963 0.325766 9.24107 -0.0609458 8.0673 0.00782147H7.52948C5.78555 0.0176086 4.09009 0.585169 2.6891 1.62815C2.29236 1.94771 1.93166 2.30994 1.61346 2.70837V3.24848C0.785755 4.29197 0 5.15507 0 6.48914V11.3501C0 11.4679 0.420575 11.3501 0.53782 11.3501C0.504475 11.4743 0.665821 11.3501 0.53782 11.3501Z" fill="#191919"/>
<path d="M9.68144 50.2377V38.8954C9.65856 38.6825 9.69709 38.4675 9.79244 38.276C9.88779 38.0845 10.0359 37.9245 10.2193 37.8152C10.7192 37.4608 11.0932 36.9552 11.2867 36.3722C11.4802 35.7892 11.4831 35.1593 11.2949 34.5745C11.1996 34.085 10.9269 33.6483 10.5295 33.349C10.1321 33.0496 9.63831 32.909 9.14362 32.9542C7.98408 32.9445 6.80357 33.4641 6.45452 34.5745C6.26722 35.1594 6.27052 35.7889 6.46397 36.3718C6.65741 36.9546 7.03091 37.4602 7.53016 37.8152C7.71605 37.9218 7.86634 38.0812 7.96206 38.2735C8.05778 38.4657 8.09464 38.6822 8.06798 38.8954C8.04862 42.5444 8.06798 46.0486 8.06798 49.6976V50.2377L2.68978 39.9756C2.08151 38.6945 1.65233 37.4868 1.07632 36.1949C0.951121 35.8458 0.951121 35.4638 1.07632 35.1147C2.98741 32.4181 4.10554 29.2366 4.30324 25.9328C4.32314 25.8437 4.26237 26.0144 4.30324 25.9328H13.4462C13.7436 27.3371 13.6419 28.3703 13.984 29.7136C14.5584 31.6582 15.4686 33.4864 16.6731 35.1147C16.7691 35.2783 16.8198 35.4648 16.8198 35.6548C16.8198 35.8447 16.7691 36.0312 16.6731 36.1949" fill="#191919"/>
<path d="M14.522 24.3125V25.3927C14.3558 25.8 13.8826 26.5134 13.4464 26.4729H4.84126C4.57312 26.4258 4.32597 26.2968 4.13348 26.1035C3.941 25.9102 3.81254 25.662 3.76562 25.3927V24.3125H14.522Z" fill="#191919"/>
<path d="M9.14258 26.4747L11.2939 25.3945V27.555L9.14258 26.4747Z" fill="#FFFCF8"/>
<path d="M8.60636 26.4747L6.45508 27.555V25.3945L8.60636 26.4747Z" fill="#FFFCF8"/>
<path d="M8.60563 51.3163C8.23345 51.2374 7.19008 52.4089 7.52999 53.4767C8.02317 55.0695 11.4071 55.5729 12.3704 55.6372C15.7167 55.8635 16.8235 54.4203 19.8998 55.097C21.8812 55.5243 22.4061 56.2351 22.5889 56.7174C22.8041 57.3002 22.3614 58.1924 22.5889 58.3377C22.8164 58.483 23.4946 57.8192 23.6646 57.2575C23.7369 56.964 23.7248 56.6559 23.6296 56.369C23.5344 56.0822 23.36 55.8284 23.1268 55.6372C22.5352 55.0565 21.7688 54.7427 20.4377 54.5569C18.4219 54.262 17.1855 54.5569 15.0595 54.5569C13.9608 54.5662 12.8689 54.3835 11.8325 54.0168C10.0233 53.5534 9.27091 53.1375 9.14345 52.9366C8.65242 52.1378 8.86539 51.3714 8.60563 51.3163Z" fill="#191919"/>
<path d="M41.5202 8.606C41.0402 8.534 40.5362 8.36 40.0082 8.084V7.4H44.5442V8.084C44.3402 8.216 44.1242 8.324 43.8962 8.408C43.6682 8.492 43.4462 8.558 43.2302 8.606L40.0442 20L38.1722 20.216L35.3822 11.504L32.6642 20L30.7742 20.216L27.2642 8.606C27.0122 8.558 26.7782 8.492 26.5622 8.408C26.3462 8.312 26.1422 8.204 25.9502 8.084V7.4H31.7822V8.084C31.5782 8.192 31.3442 8.294 31.0802 8.39C30.8282 8.474 30.5642 8.546 30.2882 8.606L31.9622 14.96L32.3402 17.3H32.3762L33.0062 14.87L35.4002 7.4H36.4622L39.0182 14.78L39.6302 17.12H39.6662L40.0802 14.744L41.5202 8.606ZM49.0839 18.794C49.3599 18.854 49.6059 18.932 49.8219 19.028C50.0379 19.124 50.2479 19.22 50.4519 19.316V20H44.9079V19.316C45.1719 19.172 45.4239 19.064 45.6639 18.992C45.9039 18.908 46.1439 18.842 46.3839 18.794V8.606C45.7839 8.474 45.2919 8.3 44.9079 8.084V7.4H46.8159C47.0559 7.4 47.3259 7.394 47.6259 7.382C47.9379 7.37 48.2619 7.358 48.5979 7.346C48.9339 7.322 49.2759 7.304 49.6239 7.292C49.9719 7.268 50.3079 7.256 50.6319 7.256C51.2919 7.256 51.8979 7.334 52.4499 7.49C53.0139 7.634 53.4939 7.856 53.8899 8.156C54.2979 8.456 54.6099 8.834 54.8259 9.29C55.0539 9.734 55.1679 10.256 55.1679 10.856C55.1679 11.72 54.9579 12.428 54.5379 12.98C54.1179 13.532 53.5419 13.946 52.8099 14.222C53.2899 14.978 53.7999 15.752 54.3399 16.544C54.8799 17.324 55.4499 18.08 56.0499 18.812L56.9139 19.388V20H53.9079L53.1339 19.406C52.5819 18.746 52.0899 17.984 51.6579 17.12C51.2379 16.244 50.8659 15.386 50.5419 14.546H49.0839V18.794ZM49.9839 8.426C49.6119 8.426 49.3119 8.462 49.0839 8.534V13.556H50.1459C50.7579 13.556 51.2799 13.34 51.7119 12.908C52.1439 12.464 52.3599 11.81 52.3599 10.946C52.3599 10.502 52.2999 10.124 52.1799 9.812C52.0599 9.488 51.8919 9.224 51.6759 9.02C51.4599 8.816 51.2079 8.666 50.9199 8.57C50.6319 8.474 50.3199 8.426 49.9839 8.426ZM63.2546 20H57.6386V19.316C58.1186 19.052 58.6046 18.878 59.0966 18.794V8.606C58.8566 8.57 58.6046 8.504 58.3406 8.408C58.0766 8.312 57.8426 8.204 57.6386 8.084V7.4H63.2546V8.084C63.0386 8.216 62.7986 8.33 62.5346 8.426C62.2826 8.51 62.0366 8.57 61.7966 8.606V18.794C62.0366 18.842 62.2826 18.908 62.5346 18.992C62.7986 19.076 63.0386 19.184 63.2546 19.316V20ZM72.8859 20H66.6939V19.316C66.9339 19.22 67.2039 19.124 67.5039 19.028C67.8159 18.92 68.1279 18.842 68.4399 18.794V8.57H66.3519L65.1999 11.648H64.4619C64.4139 11.408 64.3659 11.102 64.3179 10.73C64.2699 10.358 64.2279 9.974 64.1919 9.578C64.1559 9.182 64.1259 8.792 64.1019 8.408C64.0779 8.012 64.0659 7.676 64.0659 7.4H75.5139C75.5139 7.688 75.5019 8.024 75.4779 8.408C75.4539 8.792 75.4239 9.182 75.3879 9.578C75.3519 9.974 75.3099 10.358 75.2619 10.73C75.2139 11.09 75.1659 11.396 75.1179 11.648H74.3799L73.2279 8.57H71.1399V18.794C71.4519 18.854 71.7579 18.926 72.0579 19.01C72.3699 19.094 72.6459 19.196 72.8859 19.316V20ZM85.6122 7.4C85.5882 7.94 85.5462 8.498 85.4862 9.074C85.4262 9.65 85.3482 10.19 85.2522 10.694H84.5142L83.6862 8.57H80.3202V12.98H82.5162L83.3082 11.594H83.8842C83.9442 12.182 83.9742 12.836 83.9742 13.556C83.9742 14.276 83.9442 14.948 83.8842 15.572H83.3082L82.5162 14.15H80.3202V18.83H83.8302L84.7842 16.544H85.5222C85.5702 16.772 85.6182 17.03 85.6662 17.318C85.7142 17.606 85.7502 17.906 85.7742 18.218C85.8102 18.518 85.8342 18.824 85.8462 19.136C85.8702 19.448 85.8822 19.736 85.8822 20H76.1442V19.316C76.3482 19.208 76.5762 19.106 76.8282 19.01C77.0802 18.914 77.3442 18.842 77.6202 18.794V8.606C77.3802 8.558 77.1222 8.492 76.8462 8.408C76.5822 8.312 76.3482 8.204 76.1442 8.084V7.4H85.6122ZM91.1835 18.794C91.4595 18.854 91.7055 18.932 91.9215 19.028C92.1375 19.124 92.3475 19.22 92.5515 19.316V20H87.0075V19.316C87.2715 19.172 87.5235 19.064 87.7635 18.992C88.0035 18.908 88.2435 18.842 88.4835 18.794V8.606C87.8835 8.474 87.3915 8.3 87.0075 8.084V7.4H88.9155C89.1555 7.4 89.4255 7.394 89.7255 7.382C90.0375 7.37 90.3615 7.358 90.6975 7.346C91.0335 7.322 91.3755 7.304 91.7235 7.292C92.0715 7.268 92.4075 7.256 92.7315 7.256C93.3915 7.256 93.9975 7.334 94.5495 7.49C95.1135 7.634 95.5935 7.856 95.9895 8.156C96.3975 8.456 96.7095 8.834 96.9255 9.29C97.1535 9.734 97.2675 10.256 97.2675 10.856C97.2675 11.72 97.0575 12.428 96.6375 12.98C96.2175 13.532 95.6415 13.946 94.9095 14.222C95.3895 14.978 95.8995 15.752 96.4395 16.544C96.9795 17.324 97.5495 18.08 98.1495 18.812L99.0135 19.388V20H96.0075L95.2335 19.406C94.6815 18.746 94.1895 17.984 93.7575 17.12C93.3375 16.244 92.9655 15.386 92.6415 14.546H91.1835V18.794ZM92.0835 8.426C91.7115 8.426 91.4115 8.462 91.1835 8.534V13.556H92.2455C92.8575 13.556 93.3795 13.34 93.8115 12.908C94.2435 12.464 94.4595 11.81 94.4595 10.946C94.4595 10.502 94.3995 10.124 94.2795 9.812C94.1595 9.488 93.9915 9.224 93.7755 9.02C93.5595 8.816 93.3075 8.666 93.0195 8.57C92.7315 8.474 92.4195 8.426 92.0835 8.426ZM46.8024 33.606C46.3224 33.534 45.8184 33.36 45.2904 33.084V32.4H49.8264V33.084C49.6224 33.216 49.4064 33.324 49.1784 33.408C48.9504 33.492 48.7284 33.558 48.5124 33.606L45.3264 45L43.4544 45.216L40.6644 36.504L37.9464 45L36.0564 45.216L32.5464 33.606C32.2944 33.558 32.0604 33.492 31.8444 33.408C31.6284 33.312 31.4244 33.204 31.2324 33.084V32.4H37.0644V33.084C36.8604 33.192 36.6264 33.294 36.3624 33.39C36.1104 33.474 35.8464 33.546 35.5704 33.606L37.2444 39.96L37.6224 42.3H37.6584L38.2884 39.87L40.6824 32.4H41.7444L44.3004 39.78L44.9124 42.12H44.9484L45.3624 39.744L46.8024 33.606ZM50.5321 38.7C50.5321 37.764 50.6641 36.9 50.9281 36.108C51.1921 35.304 51.5821 34.614 52.0981 34.038C52.6141 33.45 53.2501 32.994 54.0061 32.67C54.7621 32.346 55.6321 32.184 56.6161 32.184C57.6001 32.184 58.4701 32.346 59.2261 32.67C59.9821 32.994 60.6121 33.45 61.1161 34.038C61.6321 34.614 62.0221 35.304 62.2861 36.108C62.5501 36.9 62.6821 37.764 62.6821 38.7C62.6821 39.636 62.5501 40.506 62.2861 41.31C62.0221 42.102 61.6321 42.792 61.1161 43.38C60.6121 43.956 59.9821 44.406 59.2261 44.73C58.4701 45.054 57.6001 45.216 56.6161 45.216C55.6321 45.216 54.7621 45.054 54.0061 44.73C53.2501 44.406 52.6141 43.956 52.0981 43.38C51.5821 42.792 51.1921 42.102 50.9281 41.31C50.6641 40.506 50.5321 39.636 50.5321 38.7ZM53.5921 38.7C53.5921 39.468 53.6521 40.182 53.7721 40.842C53.8921 41.49 54.0781 42.054 54.3301 42.534C54.5941 43.002 54.9241 43.374 55.3201 43.65C55.7281 43.914 56.2141 44.046 56.7781 44.046C57.2941 44.046 57.7321 43.914 58.0921 43.65C58.4521 43.374 58.7461 43.002 58.9741 42.534C59.2021 42.054 59.3641 41.49 59.4601 40.842C59.5681 40.182 59.6221 39.468 59.6221 38.7C59.6221 37.932 59.5621 37.224 59.4421 36.576C59.3341 35.916 59.1541 35.352 58.9021 34.884C58.6621 34.404 58.3381 34.032 57.9301 33.768C57.5341 33.492 57.0481 33.354 56.4721 33.354C55.9201 33.354 55.4581 33.492 55.0861 33.768C54.7141 34.032 54.4141 34.404 54.1861 34.884C53.9701 35.352 53.8141 35.916 53.7181 36.576C53.6341 37.224 53.5921 37.932 53.5921 38.7ZM67.9364 43.794C68.2124 43.854 68.4584 43.932 68.6744 44.028C68.8904 44.124 69.1004 44.22 69.3044 44.316V45H63.7604V44.316C64.0244 44.172 64.2764 44.064 64.5164 43.992C64.7564 43.908 64.9964 43.842 65.2364 43.794V33.606C64.6364 33.474 64.1444 33.3 63.7604 33.084V32.4H65.6684C65.9084 32.4 66.1784 32.394 66.4784 32.382C66.7904 32.37 67.1144 32.358 67.4504 32.346C67.7864 32.322 68.1284 32.304 68.4764 32.292C68.8244 32.268 69.1604 32.256 69.4844 32.256C70.1444 32.256 70.7504 32.334 71.3024 32.49C71.8664 32.634 72.3464 32.856 72.7424 33.156C73.1504 33.456 73.4624 33.834 73.6784 34.29C73.9064 34.734 74.0204 35.256 74.0204 35.856C74.0204 36.72 73.8104 37.428 73.3904 37.98C72.9704 38.532 72.3944 38.946 71.6624 39.222C72.1424 39.978 72.6524 40.752 73.1924 41.544C73.7324 42.324 74.3024 43.08 74.9024 43.812L75.7664 44.388V45H72.7604L71.9864 44.406C71.4344 43.746 70.9424 42.984 70.5104 42.12C70.0904 41.244 69.7184 40.386 69.3944 39.546H67.9364V43.794ZM68.8364 33.426C68.4644 33.426 68.1644 33.462 67.9364 33.534V38.556H68.9984C69.6104 38.556 70.1324 38.34 70.5644 37.908C70.9964 37.464 71.2124 36.81 71.2124 35.946C71.2124 35.502 71.1524 35.124 71.0324 34.812C70.9124 34.488 70.7444 34.224 70.5284 34.02C70.3124 33.816 70.0604 33.666 69.7724 33.57C69.4844 33.474 69.1724 33.426 68.8364 33.426ZM83.1332 32.4H87.9572V33.084C87.7532 33.216 87.5192 33.33 87.2552 33.426C86.9912 33.51 86.7512 33.57 86.5352 33.606L83.1152 37.944C83.3912 38.328 83.7152 38.766 84.0872 39.258C84.4592 39.738 84.8552 40.242 85.2752 40.77C85.6952 41.286 86.1272 41.814 86.5712 42.354C87.0152 42.882 87.4472 43.386 87.8672 43.866L88.7312 44.388V45H85.5992L84.8792 44.496C84.5912 44.136 84.2852 43.74 83.9612 43.308C83.6492 42.864 83.3372 42.408 83.0252 41.94C82.7132 41.46 82.4072 40.98 82.1072 40.5C81.8072 40.02 81.5252 39.552 81.2612 39.096H80.4872V43.794C80.7512 43.842 80.9912 43.914 81.2072 44.01C81.4232 44.106 81.6092 44.208 81.7652 44.316V45H76.3112V44.316C76.5512 44.196 76.7972 44.094 77.0492 44.01C77.3012 43.914 77.5472 43.842 77.7872 43.794V33.606C77.5112 33.57 77.2412 33.504 76.9772 33.408C76.7252 33.312 76.5032 33.204 76.3112 33.084V32.4H81.7652V33.084C81.6092 33.18 81.4172 33.276 81.1892 33.372C80.9732 33.468 80.7392 33.546 80.4872 33.606V38.178L81.5492 37.926L84.4472 33.606C84.2072 33.558 83.9672 33.486 83.7272 33.39C83.4992 33.282 83.3012 33.18 83.1332 33.084V32.4ZM91.5565 43.506C91.6885 43.638 91.8745 43.764 92.1145 43.884C92.3545 43.992 92.6725 44.046 93.0685 44.046C93.7285 44.046 94.2745 43.878 94.7065 43.542C95.1505 43.194 95.3725 42.714 95.3725 42.102C95.3725 41.658 95.2285 41.286 94.9405 40.986C94.6645 40.686 94.3105 40.41 93.8785 40.158C93.4465 39.906 92.9845 39.66 92.4925 39.42C92.0005 39.168 91.5385 38.874 91.1065 38.538C90.6745 38.202 90.3145 37.806 90.0265 37.35C89.7505 36.882 89.6125 36.306 89.6125 35.622C89.6125 35.034 89.7205 34.524 89.9365 34.092C90.1525 33.66 90.4465 33.306 90.8185 33.03C91.2025 32.742 91.6525 32.532 92.1685 32.4C92.6845 32.256 93.2425 32.184 93.8425 32.184C94.5745 32.184 95.2525 32.238 95.8765 32.346C96.5125 32.442 97.0825 32.598 97.5865 32.814C97.5745 33.054 97.5505 33.33 97.5145 33.642C97.4905 33.954 97.4545 34.266 97.4065 34.578C97.3585 34.878 97.3045 35.166 97.2445 35.442C97.1965 35.706 97.1485 35.928 97.1005 36.108H96.3625L95.5345 33.642C95.3905 33.57 95.1745 33.504 94.8865 33.444C94.6105 33.384 94.3225 33.354 94.0225 33.354C93.5185 33.354 93.0925 33.486 92.7445 33.75C92.3965 34.014 92.2225 34.398 92.2225 34.902C92.2225 35.358 92.3665 35.748 92.6545 36.072C92.9425 36.384 93.3025 36.672 93.7345 36.936C94.1665 37.2 94.6345 37.464 95.1385 37.728C95.6545 37.98 96.1285 38.274 96.5605 38.61C96.9925 38.946 97.3525 39.342 97.6405 39.798C97.9285 40.242 98.0725 40.794 98.0725 41.454C98.0725 42.654 97.6645 43.584 96.8485 44.244C96.0445 44.892 94.8565 45.216 93.2845 45.216C92.9005 45.216 92.5105 45.192 92.1145 45.144C91.7305 45.096 91.3645 45.03 91.0165 44.946C90.6685 44.862 90.3565 44.772 90.0805 44.676C89.8165 44.58 89.6185 44.478 89.4865 44.37C89.4985 44.094 89.5285 43.8 89.5765 43.488C89.6245 43.164 89.6725 42.846 89.7205 42.534C89.7805 42.21 89.8405 41.904 89.9005 41.616C89.9605 41.328 90.0205 41.076 90.0805 40.86H90.8185L91.5565 43.506Z" fill="black"/>
</svg>
