<svg width="315" height="315" viewBox="0 0 315 315" fill="none" xmlns="http://www.w3.org/2000/svg">
<mask id="mask0_1_1180" style="mask-type:alpha" maskUnits="userSpaceOnUse" x="16" y="16" width="283" height="283">
<circle cx="157.218" cy="157.219" r="141" transform="rotate(-97.04 157.218 157.219)" fill="#C4C4C4"/>
</mask>
<g mask="url(#mask0_1_1180)">
<path d="M58.7662 337.442C52.3993 306.691 37.5643 279.413 31.0389 248.44C26.4201 226.541 18.6394 205.637 15.2104 183.5C5.96402 123.884 0.330795 63.4184 -7.01006 3.56692" stroke="#D8D8D8" stroke-width="0.75" stroke-miterlimit="10"/>
<path d="M63.5586 336.921C56.7818 306.522 43.6604 278.761 37.0153 248.205C32.1627 225.882 23.4479 205.083 19.9205 182.394C10.7009 123.158 5.28744 62.5139 -1.60729 2.92974" stroke="#D8D8D8" stroke-width="0.75" stroke-miterlimit="10"/>
<path d="M67.4063 336.567C60.8185 306.719 50.312 277.94 43.311 248.174C37.8742 225.036 27.2295 204.193 23.5472 180.576C19.564 154.931 21.0312 129.117 18.1285 103.409C14.3088 69.6221 7.73992 36.175 3.78882 2.30393" stroke="#D8D8D8" stroke-width="0.75" stroke-miterlimit="10"/>
<path d="M70.4737 336.371C64.4753 307.135 57.3084 277.168 49.8657 248.312C43.5672 224.072 30.179 203.125 26.2793 178.074C22.3285 152.364 26.9494 126.876 24.8381 101.13C22.0797 67.6156 13.2882 34.9367 9.17139 1.59995" stroke="#D8D8D8" stroke-width="0.75" stroke-miterlimit="10"/>
<path d="M72.9238 336.289C67.7857 307.411 64.1012 276.923 56.6267 248.626C49.8294 222.875 32.3281 201.992 28.3305 175.17C24.4545 149.25 32.8129 124.327 31.7995 98.4969C30.5015 65.467 19.0061 33.5754 14.5843 0.95143" stroke="#D8D8D8" stroke-width="0.75" stroke-miterlimit="10"/>
<path d="M74.9298 336.303C70.8739 307.866 71.8704 276.608 63.5389 249.041C55.3297 221.893 33.8896 200.61 29.8304 171.901C26.1433 145.635 38.5889 121.497 38.9213 95.5511C39.3265 63.258 24.7715 31.966 19.9638 0.296461" stroke="#D8D8D8" stroke-width="0.75" stroke-miterlimit="10"/>
<path d="M76.6503 336.372C73.7737 308.102 79.8458 276.741 70.5328 249.467C60.8259 221.042 34.9404 198.928 31.0563 168.374C27.6479 141.589 44.3637 118.416 46.1835 92.3565C48.3462 60.9144 30.5979 30.1175 25.3668 -0.411558" stroke="#D8D8D8" stroke-width="0.75" stroke-miterlimit="10"/>
<path d="M78.263 336.455C76.6071 308.034 88.003 277.436 77.5777 249.967C66.3036 220.275 36.2632 197.152 32.1262 164.795C28.6662 137.675 50.1714 115.099 53.4845 89.1372C57.4194 58.6652 36.3935 28.2528 30.7674 -1.06868" stroke="#D8D8D8" stroke-width="0.75" stroke-miterlimit="10"/>
<path d="M79.9139 336.546C79.4805 307.662 96.2559 278.607 84.5975 250.453C71.8477 219.664 37.4159 195.25 33.279 161.261C29.8766 133.71 55.9354 111.781 60.7752 85.9427C66.315 56.391 42.19 26.4218 36.1876 -1.70455" stroke="#D8D8D8" stroke-width="0.75" stroke-miterlimit="10"/>
<path d="M81.7802 336.616C82.5 307.115 104.483 280.087 91.54 250.914C77.4533 219.171 38.727 193.353 34.6232 157.918C31.3766 129.915 61.7843 108.608 67.9324 82.9205C74.8752 54.1225 47.8767 24.7904 41.5404 -2.36778" stroke="#D8D8D8" stroke-width="0.75" stroke-miterlimit="10"/>
<path d="M84.0461 336.538C85.7641 306.39 112.524 281.573 98.3784 251.228C83.1606 218.648 40.482 191.504 36.4532 154.801C33.3264 126.299 67.67 105.695 74.9889 80.1047C83.082 51.8095 53.5457 23.3046 46.9515 -3.08615" stroke="#D8D8D8" stroke-width="0.75" stroke-miterlimit="10"/>
<path d="M86.8505 336.395C89.2851 305.604 120.265 282.977 105.025 251.437C97.2829 235.415 83.8842 220.666 72.9698 206.86C61.3422 192.174 40.982 172.048 38.8968 152.143C35.8403 123.069 73.6047 103.321 81.8154 77.6917C90.795 49.6396 59.1188 22.1648 52.354 -3.73134" stroke="#D8D8D8" stroke-width="0.75" stroke-miterlimit="10"/>
<path d="M90.3704 336.1C93.1036 304.708 127.464 284.162 111.427 251.471C103.351 235.027 89.1439 219.854 77.7535 205.783C65.7466 190.963 44.2199 170.366 42.1415 150.028C39.1084 120.245 79.554 101.648 88.3927 75.7995C97.9242 47.7297 64.6142 21.303 57.7882 -4.35381" stroke="#D8D8D8" stroke-width="0.75" stroke-miterlimit="10"/>
<path d="M94.758 335.64C97.2465 303.654 133.969 284.932 117.523 251.304C109.343 234.591 94.4596 219.078 82.7941 204.901C70.4873 189.936 48.4918 169.296 46.3891 148.598C43.2891 117.947 85.5136 100.863 94.523 74.4396C104.205 46.0388 69.8652 20.7368 63.1324 -5.06249" stroke="#D8D8D8" stroke-width="0.75" stroke-miterlimit="10"/>
<path d="M100.098 335.082C102.631 303.211 139.23 284.303 122.731 250.893C114.441 234.113 99.7491 218.516 88.1112 204.154C75.926 189.114 53.9915 168.315 51.72 147.719C48.3397 117.001 91.1245 100.211 100.085 73.8036C109.831 45.1027 75.1619 20.315 68.5399 -5.72977" stroke="#D8D8D8" stroke-width="0.75" stroke-miterlimit="10"/>
<path d="M105.902 335.006C108.626 303.616 142.717 283.012 126.558 250.478C118.202 233.645 104.454 217.941 93.1337 203.218C81.4908 188 59.8737 166.507 57.5347 146.261C54.0616 116.261 96.5218 99.1278 105.495 73.4746C115.53 44.7481 80.5375 19.7081 73.897 -6.40488" stroke="#D8D8D8" stroke-width="0.75" stroke-miterlimit="10"/>
<path d="M112.021 335.421C114.45 304.258 144.934 282.095 129.633 250.31C121.488 233.31 108.742 217.403 97.9352 202.102C86.9416 186.512 66.0573 164.264 63.8346 144.225C60.5862 114.902 102.184 98.2885 111.17 73.3088C121.468 44.6708 85.9722 18.9875 79.3291 -7.06469" stroke="#D8D8D8" stroke-width="0.75" stroke-miterlimit="10"/>
<path d="M118.415 336.222C120.115 305.2 146.126 281.412 131.975 250.211C124.192 233.036 112.594 216.714 102.485 200.864C92.2016 184.743 72.456 161.679 70.4774 141.741C67.6883 113.036 107.939 97.5968 116.937 73.2807C127.463 44.7757 91.3534 18.2816 84.6954 -7.72845" stroke="#D8D8D8" stroke-width="0.75" stroke-miterlimit="10"/>
<path d="M125.012 337.324C125.679 306.419 146.566 280.877 133.879 250.19C126.681 232.701 116.252 215.973 106.988 199.534C97.5402 182.756 79.1403 158.921 77.5909 138.951C75.4001 110.767 114.035 97.1689 122.892 73.3438C133.493 44.9605 96.8141 17.6097 90.0953 -8.40294" stroke="#D8D8D8" stroke-width="0.75" stroke-miterlimit="10"/>
<path d="M131.743 338.65C131.192 307.916 146.547 280.497 135.429 250.272C128.877 232.461 119.727 215.242 111.449 198.218C102.925 180.681 86.1497 156.132 85.0594 136.044C83.5661 107.633 121.217 97.6531 128.976 73.5101C138.489 43.9009 102.596 18.0955 95.5139 -9.06129" stroke="#D8D8D8" stroke-width="0.75" stroke-miterlimit="10"/>
<path d="M138.55 340.066C136.745 311.25 146.286 282.686 138.092 254.356C131.288 230.833 120.531 208.271 111.357 185.625C105.192 170.385 93.9198 150.497 93.7773 133.678C93.5503 104.425 129.412 97.2556 136.039 71.207C143.241 42.8707 107.733 16.4333 100.915 -9.72832" stroke="#D8D8D8" stroke-width="0.75" stroke-miterlimit="10"/>
<path d="M145.378 341.521C142.333 312.536 146.406 283.104 139.32 254.608C133.349 230.73 124.543 207.484 116.825 184.144C111.568 168.258 101.747 148.13 101.908 131.072C102.168 102.827 135.716 96.6691 142.198 71.5653C149.502 43.3272 113.133 15.7065 106.304 -10.3832" stroke="#D8D8D8" stroke-width="0.75" stroke-miterlimit="10"/>
<path d="M152.15 342.89C147.919 313.608 146.764 283.855 140.713 254.848C135.706 230.619 128.729 206.764 122.558 182.82C118.27 166.291 109.961 146.087 110.381 128.765C111.006 101.594 142.13 96.0373 148.368 71.9006C155.674 43.6725 118.625 15.118 111.704 -11.0612" stroke="#D8D8D8" stroke-width="0.75" stroke-miterlimit="10"/>
<path d="M158.818 344.102C153.516 314.388 147.518 284.83 142.463 255.075C138.307 230.56 133.331 206.176 128.644 181.766C125.359 164.629 118.623 144.513 119.192 126.931C119.995 100.796 148.677 95.4601 154.529 72.1874C161.684 43.8064 124.114 14.5404 117.099 -11.748" stroke="#D8D8D8" stroke-width="0.75" stroke-miterlimit="10"/>
<path d="M165.312 345.062C159.165 314.868 148.83 285.846 144.738 255.237C141.433 230.515 138.346 205.767 135.151 181.032C132.877 163.357 127.702 143.562 128.317 125.692C129.242 100.549 155.32 94.9309 160.646 72.4588C167.519 43.6693 129.627 14.2416 122.498 -12.3956" stroke="#D8D8D8" stroke-width="0.75" stroke-miterlimit="10"/>
<path d="M171.567 345.679C164.899 315.026 150.91 286.767 147.724 255.331C143.457 213.276 136.476 167.436 137.799 125.196C138.549 101.001 162.104 94.4452 166.713 72.6157C172.927 43.1418 135.224 14.1845 127.92 -13.0557" stroke="#D8D8D8" stroke-width="0.75" stroke-miterlimit="10"/>
<path d="M177.53 345.833C171.108 316.106 154.657 289.532 151.834 258.998C147.794 215.354 146.892 168.803 147.378 125.004C147.641 101.434 170.561 92.4367 172.928 70.3199C176.112 40.2127 140.739 14.3733 133.328 -13.7304" stroke="#D8D8D8" stroke-width="0.75" stroke-miterlimit="10"/>
<path d="M183.126 345.463C177.17 315.427 158.881 289.634 156.658 258.744C153.524 215.169 158.012 170.331 157.573 126.635C157.345 103.489 177.303 92.0465 178.641 70.0869C180.551 38.8776 146.375 14.7443 138.686 -14.393" stroke="#D8D8D8" stroke-width="0.75" stroke-miterlimit="10"/>
<path d="M188.485 344.449C182.089 314.689 165.02 287.839 162.809 257.209C159.736 214.785 162.455 170.71 162.612 128.17C162.688 105.036 181.995 91.2661 183.184 69.073C184.835 38.2987 152.025 13.634 144.078 -15.0584" stroke="#D8D8D8" stroke-width="0.75" stroke-miterlimit="10"/>
<path d="M193.77 342.797C187.065 311.835 171.779 282.86 169.808 250.992C167.364 211.453 166.825 170.46 167.357 130.866C167.662 107.805 184.336 92.2038 186.36 70.079C189.216 38.783 157.599 13.175 149.473 -15.7471" stroke="#D8D8D8" stroke-width="0.75" stroke-miterlimit="10"/>
<path d="M199.011 340.618C192.676 309.469 180.512 279.262 177.811 247.514C174.611 210.104 171.642 171.124 171.671 133.588C171.688 109.816 187.218 91.4848 188.813 68.4154C190.921 37.4334 162.697 12.5349 154.887 -16.3557" stroke="#D8D8D8" stroke-width="0.75" stroke-miterlimit="10"/>
<path d="M204.205 338.025C192.24 271.489 177.309 204.514 175.812 136.586C175.271 111.805 189.435 90.7304 190.505 66.4361C191.86 35.9602 167.489 11.6641 160.267 -17.0371" stroke="#D8D8D8" stroke-width="0.75" stroke-miterlimit="10"/>
<path d="M209.369 335.13C204.559 302.957 200.869 270.625 195.644 238.513C190.366 206.136 181.651 172.531 179.923 139.766C178.563 113.827 190.351 89.9119 191.695 64.2436C193.233 34.924 171.977 10.1525 165.663 -17.7238" stroke="#D8D8D8" stroke-width="0.75" stroke-miterlimit="10"/>
<path d="M214.507 332.046C210.74 299.341 212.075 265.684 205.143 233.451C198.746 203.68 186.876 173.407 184.155 143.051C181.727 115.884 191.594 89.0627 192.571 61.9687C193.545 33.6356 176.419 8.93842 171.062 -18.3708" stroke="#D8D8D8" stroke-width="0.75" stroke-miterlimit="10"/>
<path d="M219.65 328.87C217.004 295.946 223.611 260.267 214.812 228.174C207.341 200.884 192.316 174.355 188.642 146.233C184.934 117.844 193.029 88.0972 193.316 59.5771C193.6 32.2564 180.85 7.583 176.451 -19.0588" stroke="#D8D8D8" stroke-width="0.75" stroke-miterlimit="10"/>
<path d="M224.782 325.719C223.239 292.004 235.509 252.411 223.482 220.213C214.796 196.962 196.655 174.325 192.874 149.662C188.564 121.206 194.265 89.3671 194.182 60.5499C194.104 33.0724 185.394 7.33582 181.851 -19.7239" stroke="#D8D8D8" stroke-width="0.75" stroke-miterlimit="10"/>
<path d="M229.932 322.703C229.384 288.724 245.914 247.649 232.882 215.393C224.061 193.569 202.753 176.049 198.278 152.46C192.616 122.931 196.48 88.5379 195.425 58.3699C194.495 31.9143 189.864 5.91592 187.25 -20.392" stroke="#D8D8D8" stroke-width="0.75" stroke-miterlimit="10"/>
<path d="M235.11 319.937C235.359 286.706 256.675 242.037 241.982 210.933C232.425 190.662 209.488 177.403 204.384 154.758C197.507 124.2 199.279 87.7182 197.171 56.2896C195.429 30.5188 194.519 4.70579 192.657 -21.0603" stroke="#D8D8D8" stroke-width="0.75" stroke-miterlimit="10"/>
<path d="M240.324 317.53C241.078 285.042 266.514 237.103 250.645 207.001C240.529 187.827 216.905 178.562 211.366 156.384C203.433 124.788 202.875 86.9814 199.612 54.3554C197.065 28.8351 199.412 3.77859 198.036 -21.725" stroke="#D8D8D8" stroke-width="0.75" stroke-miterlimit="10"/>
<path d="M245.586 315.584C246.226 293.922 251.78 274.848 257.122 253.976C261.209 238.115 267.25 219.152 258.71 203.762C248.408 185.205 225.196 179.275 219.38 157.232C210.719 124.466 207.488 86.4659 202.993 52.6821C199.564 27.039 204.629 3.1078 203.45 -22.3496" stroke="#D8D8D8" stroke-width="0.75" stroke-miterlimit="10"/>
<path d="M250.907 314.209C251.448 292.156 257.579 273.182 263.388 252.091C267.671 236.68 274.253 216.712 265.953 201.394C255.956 182.94 234.191 179.26 228.476 157.053C219.701 122.952 213.266 86.0218 207.392 51.1891C203.021 25.2593 210.147 2.59507 208.784 -23.0512" stroke="#D8D8D8" stroke-width="0.75" stroke-miterlimit="10"/>
<path d="M256.264 313.527C256.726 291.404 262.952 272.468 268.877 251.342C273.172 236.021 279.725 215.815 271.838 200.416C262.357 181.898 241.909 178.357 236.408 156.255C227.729 121.628 219.481 85.6776 212.744 50.5484C207.742 24.4043 215.672 2.12449 214.183 -23.7179" stroke="#D8D8D8" stroke-width="0.75" stroke-miterlimit="10"/>
<path d="M261.763 313.515C262.317 291.642 268.167 272.601 273.753 251.578C277.887 236.105 284.112 216.262 276.399 200.801C267.215 182.398 247.557 177.511 241.891 155.942C232.95 121.891 224.574 86.7027 217.407 52.1608C211.838 25.3411 220.569 2.2166 219.618 -24.4176" stroke="#D8D8D8" stroke-width="0.75" stroke-miterlimit="10"/>
<path d="M267.296 314.09C268.005 280.993 295.186 233.474 280.324 202.059C271.624 183.666 253.149 177.01 247.382 156.009C238.252 122.878 229.28 89.1433 221.396 55.6571C214.842 27.7904 225.156 2.79776 225.021 -25.0557" stroke="#D8D8D8" stroke-width="0.75" stroke-miterlimit="10"/>
<path d="M272.867 315.144C273.242 281.625 297.77 235.955 283.764 203.97C275.722 185.517 258.785 176.716 252.887 156.285C243.661 124.335 233.752 92.4789 224.983 60.3917C217.105 31.5196 229.583 3.39836 230.405 -25.7623" stroke="#D8D8D8" stroke-width="0.75" stroke-miterlimit="10"/>
<path d="M278.485 316.559C278.315 282.544 299.77 239.086 286.825 206.386C279.517 188.003 264.872 176.22 258.439 156.842C248.407 126.603 238.137 96.3944 228.463 66.0312C219.042 36.4932 234.02 3.82104 235.811 -26.3862" stroke="#D8D8D8" stroke-width="0.75" stroke-miterlimit="10"/>
<path d="M284.12 318.22C283.317 283.729 301.344 242.539 289.627 209.173C283.143 190.699 270.325 176.402 264.001 157.505C254.345 128.681 242.59 100.479 232.056 71.965C221.076 42.2064 238.593 3.81996 241.209 -27.0534" stroke="#D8D8D8" stroke-width="0.75" stroke-miterlimit="10"/>
<path d="M289.769 320C288.153 285.7 301.841 248.209 292.952 214.575C287.791 195.061 275.26 178.038 269.059 158.581C259.918 129.926 244.294 103.441 234.865 74.9013C224.984 44.9868 243.44 3.17971 246.593 -27.7499" stroke="#D8D8D8" stroke-width="0.75" stroke-miterlimit="10"/>
<path d="M295.433 321.87C293.063 287.582 303.304 251.474 295.496 217.697C290.938 198.007 280.761 178.829 274.537 159.517C265.701 132.103 249.287 107.217 239.458 80.1678C233.503 63.774 238.978 46.5834 242.315 29.8784C246.193 10.4466 249.796 -8.67915 252.007 -28.3887" stroke="#D8D8D8" stroke-width="0.75" stroke-miterlimit="10"/>
<path d="M301.082 323.639C297.988 289.531 304.908 254.428 298.11 220.677C294.089 200.679 286.226 179.765 280.038 160.337C271.654 134.057 252.316 110.701 244.973 84.2008C235.676 50.6976 253.449 5.56908 257.395 -29.0556" stroke="#D8D8D8" stroke-width="0.75" stroke-miterlimit="10"/>
<path d="M306.718 325.222C303.007 291.422 306.826 256.994 300.933 223.383C297.051 202.305 291.921 181.476 285.572 161.006C277.71 135.205 258.927 112.425 251.697 86.5157C242.177 52.4255 259.043 5.58514 262.784 -29.7196" stroke="#D8D8D8" stroke-width="0.75" stroke-miterlimit="10"/>
<path d="M312.278 326.51C305.391 271.157 306.175 215.652 291.104 161.42C283.936 135.604 266.659 112.457 259.849 86.6071C250.678 51.7483 265.061 5.60761 268.144 -30.3815" stroke="#D8D8D8" stroke-width="0.75" stroke-miterlimit="10"/>
<path d="M317.867 327.38C310.524 272.406 310.413 215.127 297.321 161.004C290.766 133.953 274.669 108.776 268.956 81.5212C261.64 46.7558 271.875 4.3114 273.603 -31.0571" stroke="#D8D8D8" stroke-width="0.75" stroke-miterlimit="10"/>
<path d="M323.374 327.74C315.964 272.391 312.994 215.869 302.774 160.928C297.422 132.116 285.934 104.284 281.125 75.376C275.366 40.8212 279.425 3.27073 278.983 -31.7189" stroke="#D8D8D8" stroke-width="0.75" stroke-miterlimit="10"/>
<path d="M328.811 327.471C313.879 207.537 298.072 87.7004 284.371 -32.3857" stroke="#D8D8D8" stroke-width="0.75" stroke-miterlimit="10"/>
</g>
</svg>
