<svg width="473" height="483" viewBox="0 0 473 483" fill="none" xmlns="http://www.w3.org/2000/svg">
<path d="M435.625 277.898C432.02 248.7 405.427 227.953 376.228 231.559C347.03 235.164 326.283 261.758 329.889 290.956C333.494 320.154 360.087 340.901 389.286 337.295C418.484 333.69 439.231 307.097 435.625 277.898Z" fill="#1C1C1C"/>
<path d="M292.195 58.1214C266.852 38.3499 230.28 42.8663 210.508 68.2091C190.737 93.5519 195.253 130.124 220.596 149.896C245.939 169.667 282.511 165.151 302.283 139.808C322.054 114.465 317.538 77.8929 292.195 58.1214Z" stroke="#D9D9D9" stroke-miterlimit="10"/>
<path d="M251.621 104.602L261.178 103.421" stroke="#D9D9D9" stroke-miterlimit="10"/>
<path d="M255.815 99.2356L256.996 108.793" stroke="#D9D9D9" stroke-miterlimit="10"/>
<path d="M383.484 222.581L302.196 192.678" stroke="#D9D9D9" stroke-miterlimit="10"/>
<path d="M387.101 217.944L305.813 188.042" stroke="#D9D9D9" stroke-miterlimit="10"/>
<path d="M390.722 213.315L309.433 183.403" stroke="#D9D9D9" stroke-miterlimit="10"/>
<path d="M394.343 208.675L313.054 178.762" stroke="#D9D9D9" stroke-miterlimit="10"/>
<path d="M397.96 204.034L316.671 174.122" stroke="#D9D9D9" stroke-miterlimit="10"/>
<path d="M401.577 199.401L320.288 169.489" stroke="#D9D9D9" stroke-miterlimit="10"/>
<path d="M405.198 194.761L323.909 164.848" stroke="#D9D9D9" stroke-miterlimit="10"/>
<path d="M408.816 190.124L327.527 160.211" stroke="#D9D9D9" stroke-miterlimit="10"/>
<path d="M412.427 185.485L331.149 155.581" stroke="#D9D9D9" stroke-miterlimit="10"/>
<path d="M416.044 180.844L334.766 150.94" stroke="#D9D9D9" stroke-miterlimit="10"/>
<path d="M419.663 176.206L338.376 146.303" stroke="#D9D9D9" stroke-miterlimit="10"/>
<path d="M423.28 171.569L341.993 141.667" stroke="#D9D9D9" stroke-miterlimit="10"/>
<path d="M426.902 166.94L345.613 137.028" stroke="#D9D9D9" stroke-miterlimit="10"/>
<path d="M430.519 162.3L349.23 132.387" stroke="#D9D9D9" stroke-miterlimit="10"/>
<path d="M434.14 157.663L352.851 127.75" stroke="#D9D9D9" stroke-miterlimit="10"/>
<path d="M437.757 153.022L356.468 123.11" stroke="#D9D9D9" stroke-miterlimit="10"/>
<path d="M118.388 463.77C118.316 463.189 117.787 462.776 117.206 462.848C116.625 462.92 116.212 463.449 116.284 464.03C116.355 464.611 116.885 465.024 117.466 464.952C118.047 464.88 118.459 464.351 118.388 463.77Z" fill="white"/>
<path d="M126.929 462.716C126.857 462.135 126.328 461.722 125.747 461.794C125.166 461.865 124.753 462.394 124.825 462.975C124.896 463.556 125.426 463.969 126.007 463.898C126.588 463.826 127 463.297 126.929 462.716Z" fill="white"/>
<path d="M135.485 461.657C135.414 461.076 134.884 460.663 134.303 460.735C133.722 460.807 133.31 461.336 133.381 461.917C133.453 462.498 133.982 462.911 134.563 462.839C135.144 462.767 135.557 462.238 135.485 461.657Z" fill="white"/>
<path d="M142.85 459.692C143.061 459.666 143.274 459.704 143.463 459.801C143.651 459.898 143.807 460.049 143.908 460.236C144.01 460.422 144.054 460.634 144.033 460.845C144.013 461.056 143.93 461.257 143.795 461.42C143.659 461.583 143.478 461.702 143.274 461.762C143.071 461.821 142.854 461.818 142.652 461.753C142.45 461.687 142.273 461.563 142.142 461.396C142.012 461.228 141.935 461.026 141.921 460.814C141.903 460.544 141.989 460.277 142.162 460.068C142.335 459.859 142.581 459.725 142.85 459.692Z" fill="white"/>
<path d="M151.397 458.634C151.607 458.607 151.822 458.643 152.012 458.739C152.201 458.834 152.358 458.985 152.461 459.17C152.565 459.356 152.61 459.569 152.591 459.78C152.572 459.992 152.489 460.193 152.354 460.358C152.22 460.522 152.039 460.642 151.835 460.702C151.631 460.762 151.414 460.76 151.211 460.695C151.009 460.63 150.831 460.506 150.7 460.338C150.569 460.171 150.491 459.968 150.477 459.756C150.457 459.486 150.541 459.22 150.712 459.011C150.884 458.802 151.129 458.667 151.397 458.634Z" fill="white"/>
<path d="M66.2666 463.395C66.1948 462.814 65.6657 462.401 65.0847 462.473C64.5036 462.545 64.0908 463.074 64.1626 463.655C64.2343 464.236 64.7635 464.649 65.3445 464.577C65.9255 464.505 66.3383 463.976 66.2666 463.395Z" fill="white"/>
<path d="M74.8135 462.341C74.7417 461.76 74.2125 461.347 73.6315 461.419C73.0505 461.49 72.6377 462.019 72.7094 462.6C72.7812 463.181 73.3104 463.594 73.8914 463.523C74.4724 463.451 74.8852 462.922 74.8135 462.341Z" fill="white"/>
<path d="M83.3564 461.282C83.2847 460.701 82.7555 460.288 82.1745 460.36C81.5935 460.432 81.1807 460.961 81.2524 461.542C81.3242 462.123 81.8533 462.536 82.4343 462.464C83.0153 462.392 83.4282 461.863 83.3564 461.282Z" fill="white"/>
<path d="M91.9111 460.227C91.8394 459.646 91.3102 459.233 90.7292 459.305C90.1482 459.377 89.7353 459.906 89.8071 460.487C89.8788 461.068 90.408 461.481 90.989 461.409C91.57 461.337 91.9829 460.808 91.9111 460.227Z" fill="white"/>
<path d="M99.2762 458.249C99.4205 458.216 99.57 458.215 99.715 458.244C99.86 458.272 99.9973 458.331 100.118 458.417C100.239 458.502 100.341 458.611 100.417 458.738C100.493 458.865 100.541 459.006 100.56 459.153C100.578 459.3 100.565 459.449 100.522 459.59C100.479 459.732 100.407 459.863 100.311 459.975C100.214 460.087 100.095 460.177 99.9616 460.241C99.828 460.304 99.6826 460.339 99.5348 460.343C99.2715 460.349 99.0152 460.258 98.8157 460.086C98.6162 459.914 98.4878 459.674 98.4555 459.413C98.4233 459.152 98.4894 458.888 98.6411 458.672C98.7928 458.457 99.0192 458.306 99.2762 458.249Z" fill="white"/>
<path d="M107.831 457.192C108.039 457.166 108.25 457.203 108.437 457.297C108.624 457.391 108.78 457.539 108.883 457.721C108.986 457.904 109.033 458.113 109.018 458.322C109.002 458.531 108.925 458.731 108.796 458.896C108.668 459.061 108.492 459.185 108.293 459.25C108.094 459.316 107.88 459.321 107.678 459.266C107.476 459.21 107.295 459.095 107.158 458.936C107.021 458.778 106.934 458.582 106.909 458.374C106.89 458.236 106.9 458.095 106.936 457.96C106.973 457.825 107.036 457.699 107.122 457.589C107.208 457.479 107.314 457.387 107.436 457.319C107.558 457.251 107.692 457.208 107.831 457.192Z" fill="white"/>
<path d="M117.56 457.059C117.488 456.478 116.959 456.066 116.378 456.137C115.797 456.209 115.384 456.738 115.456 457.319C115.527 457.9 116.056 458.313 116.637 458.241C117.218 458.17 117.631 457.64 117.56 457.059Z" fill="white"/>
<path d="M126.103 456.005C126.031 455.424 125.502 455.011 124.921 455.083C124.34 455.154 123.927 455.683 123.999 456.264C124.07 456.845 124.599 457.258 125.18 457.187C125.761 457.115 126.174 456.586 126.103 456.005Z" fill="white"/>
<path d="M134.657 454.95C134.585 454.369 134.056 453.956 133.475 454.028C132.894 454.1 132.481 454.629 132.553 455.21C132.625 455.791 133.154 456.204 133.735 456.132C134.316 456.06 134.729 455.531 134.657 454.95Z" fill="white"/>
<path d="M142.022 452.969C142.23 452.944 142.441 452.98 142.629 453.074C142.816 453.169 142.971 453.316 143.074 453.499C143.178 453.681 143.225 453.89 143.209 454.099C143.194 454.308 143.117 454.508 142.988 454.673C142.859 454.839 142.684 454.962 142.485 455.028C142.286 455.094 142.072 455.099 141.87 455.043C141.667 454.987 141.486 454.873 141.35 454.714C141.213 454.555 141.126 454.359 141.1 454.151C141.066 453.872 141.143 453.591 141.316 453.369C141.489 453.148 141.743 453.004 142.022 452.969Z" fill="white"/>
<path d="M150.567 451.916C150.775 451.888 150.987 451.923 151.175 452.016C151.364 452.109 151.52 452.255 151.625 452.437C151.73 452.62 151.779 452.829 151.764 453.038C151.75 453.248 151.674 453.448 151.546 453.615C151.417 453.781 151.242 453.905 151.043 453.972C150.844 454.039 150.629 454.044 150.427 453.989C150.224 453.933 150.043 453.819 149.905 453.66C149.768 453.501 149.681 453.305 149.655 453.097C149.636 452.959 149.646 452.819 149.682 452.685C149.718 452.551 149.78 452.426 149.865 452.316C149.95 452.206 150.055 452.114 150.176 452.046C150.296 451.977 150.429 451.933 150.567 451.916Z" fill="white"/>
<path d="M64.257 455.754C64.4637 455.729 64.6735 455.765 64.8599 455.858C65.0463 455.951 65.2011 456.097 65.3051 456.278C65.409 456.458 65.4575 456.665 65.4443 456.873C65.4312 457.081 65.3571 457.281 65.2312 457.447C65.1054 457.613 64.9334 457.738 64.7367 457.807C64.5401 457.876 64.3275 457.885 64.1255 457.834C63.9236 457.783 63.7412 457.673 63.6013 457.519C63.4613 457.364 63.3699 457.172 63.3385 456.966C63.3172 456.826 63.3242 456.683 63.3591 456.546C63.394 456.408 63.4561 456.279 63.5417 456.166C63.6273 456.053 63.7347 455.959 63.8576 455.888C63.9805 455.817 64.1163 455.772 64.257 455.754Z" fill="white"/>
<path d="M72.7997 454.7C73.0065 454.674 73.2162 454.71 73.4026 454.803C73.589 454.896 73.7439 455.042 73.8478 455.223C73.9518 455.404 74.0002 455.611 73.9871 455.819C73.9739 456.027 73.8998 456.226 73.7739 456.392C73.6481 456.558 73.4761 456.683 73.2794 456.752C73.0828 456.821 72.8702 456.83 72.6683 456.779C72.4663 456.728 72.284 456.618 72.144 456.464C72.004 456.31 71.9127 456.117 71.8813 455.911C71.8613 455.771 71.8693 455.629 71.9048 455.492C71.9402 455.355 72.0024 455.227 72.0878 455.114C72.1732 455.001 72.2801 454.907 72.4023 454.836C72.5245 454.765 72.6595 454.718 72.7997 454.7Z" fill="white"/>
<path d="M81.3456 453.642C81.5544 453.605 81.7696 453.63 81.9636 453.716C82.1577 453.802 82.3215 453.944 82.4339 454.124C82.5463 454.304 82.6021 454.513 82.5941 454.725C82.5862 454.937 82.5148 455.142 82.3893 455.313C82.2637 455.484 82.0897 455.613 81.8898 455.684C81.69 455.755 81.4734 455.765 81.268 455.711C81.0627 455.658 80.8782 455.544 80.7383 455.385C80.5983 455.225 80.5094 455.027 80.4831 454.817C80.4494 454.548 80.5201 454.276 80.6805 454.058C80.8409 453.84 81.079 453.691 81.3456 453.642Z" fill="white"/>
<path d="M89.9015 452.586C90.1083 452.561 90.318 452.597 90.5044 452.69C90.6908 452.783 90.8457 452.929 90.9496 453.11C91.0536 453.29 91.102 453.497 91.0889 453.705C91.0757 453.913 91.0016 454.113 90.8757 454.279C90.7499 454.445 90.5779 454.57 90.3812 454.639C90.1846 454.708 89.972 454.717 89.7701 454.666C89.5681 454.615 89.3858 454.505 89.2458 454.351C89.1058 454.196 89.0144 454.004 88.9831 453.798C88.9617 453.658 88.9687 453.515 89.0036 453.378C89.0385 453.24 89.1006 453.111 89.1862 452.998C89.2719 452.885 89.3793 452.791 89.5021 452.72C89.625 452.649 89.7608 452.604 89.9015 452.586Z" fill="white"/>
<path d="M98.4472 451.529C98.6559 451.491 98.8712 451.517 99.0652 451.603C99.2592 451.688 99.423 451.831 99.5354 452.01C99.6478 452.19 99.7037 452.4 99.6957 452.612C99.6878 452.824 99.6164 453.029 99.4908 453.2C99.3653 453.37 99.1913 453.5 98.9914 453.571C98.7915 453.642 98.5749 453.651 98.3696 453.598C98.1643 453.545 97.9798 453.431 97.8398 453.271C97.6999 453.112 97.611 452.914 97.5846 452.704C97.5534 452.435 97.6251 452.165 97.7851 451.947C97.9451 451.729 98.1816 451.58 98.4472 451.529Z" fill="white"/>
<path d="M106.999 450.473C107.206 450.448 107.416 450.484 107.602 450.577C107.788 450.67 107.943 450.816 108.047 450.996C108.151 451.177 108.2 451.384 108.187 451.592C108.173 451.8 108.099 451.999 107.973 452.166C107.848 452.332 107.676 452.457 107.479 452.526C107.282 452.595 107.07 452.604 106.868 452.553C106.666 452.501 106.483 452.392 106.343 452.237C106.203 452.083 106.112 451.891 106.081 451.685C106.059 451.545 106.066 451.402 106.101 451.264C106.136 451.127 106.198 450.998 106.284 450.885C106.37 450.772 106.477 450.677 106.6 450.607C106.723 450.536 106.858 450.49 106.999 450.473Z" fill="white"/>
<path d="M115.544 449.417C115.751 449.394 115.96 449.432 116.145 449.526C116.33 449.62 116.484 449.767 116.586 449.948C116.689 450.129 116.736 450.336 116.721 450.544C116.707 450.751 116.632 450.95 116.506 451.115C116.379 451.28 116.207 451.404 116.011 451.472C115.814 451.54 115.602 451.549 115.4 451.497C115.199 451.446 115.017 451.336 114.878 451.182C114.738 451.028 114.647 450.836 114.616 450.63C114.594 450.489 114.602 450.345 114.637 450.207C114.672 450.069 114.735 449.94 114.822 449.826C114.909 449.713 115.017 449.618 115.141 449.548C115.266 449.478 115.403 449.433 115.544 449.417Z" fill="white"/>
<path d="M80.5175 446.935C80.7267 446.897 80.9424 446.923 81.1367 447.009C81.331 447.096 81.4949 447.238 81.6071 447.419C81.7193 447.599 81.7746 447.809 81.7659 448.022C81.7571 448.234 81.6848 448.439 81.5582 448.61C81.4315 448.781 81.2565 448.909 81.0558 448.979C80.8551 449.049 80.638 449.057 80.4327 449.002C80.2273 448.947 80.0433 448.832 79.9044 448.671C79.7655 448.51 79.6782 448.311 79.6538 448.1C79.6204 447.832 79.6915 447.562 79.8523 447.345C80.0132 447.128 80.2514 446.981 80.5175 446.935Z" fill="white"/>
<path d="M89.0743 445.875C89.2828 445.85 89.4942 445.886 89.6817 445.981C89.8693 446.076 90.0245 446.224 90.1276 446.407C90.2307 446.59 90.2772 446.8 90.261 447.009C90.2448 447.218 90.1668 447.418 90.0368 447.583C89.9068 447.748 89.7307 447.871 89.5308 447.936C89.331 448.001 89.1164 448.004 88.9144 447.947C88.7123 447.89 88.5318 447.773 88.3959 447.613C88.26 447.453 88.1747 447.256 88.151 447.047C88.1265 446.909 88.1316 446.766 88.1659 446.63C88.2002 446.493 88.263 446.365 88.3502 446.255C88.4374 446.144 88.5469 446.053 88.6717 445.988C88.7965 445.922 88.9337 445.884 89.0743 445.875Z" fill="white"/>
<path d="M97.6191 444.822C97.8282 444.784 98.044 444.81 98.2383 444.896C98.4325 444.982 98.5964 445.125 98.7086 445.306C98.8208 445.486 98.8762 445.696 98.8674 445.909C98.8587 446.121 98.7863 446.326 98.6597 446.497C98.5331 446.667 98.3581 446.796 98.1574 446.866C97.9567 446.936 97.7396 446.944 97.5342 446.889C97.3289 446.834 97.1448 446.719 97.0059 446.558C96.867 446.397 96.7797 446.198 96.7553 445.987C96.7244 445.719 96.7965 445.45 96.9569 445.234C97.1174 445.017 97.3541 444.87 97.6191 444.822Z" fill="white"/>
<path d="M106.172 443.766C106.38 443.74 106.592 443.777 106.779 443.872C106.967 443.966 107.122 444.115 107.225 444.298C107.328 444.481 107.375 444.69 107.359 444.9C107.342 445.109 107.264 445.309 107.134 445.474C107.004 445.639 106.828 445.762 106.628 445.826C106.429 445.891 106.214 445.895 106.012 445.838C105.81 445.78 105.629 445.664 105.494 445.504C105.358 445.344 105.272 445.147 105.249 444.938C105.224 444.799 105.229 444.657 105.264 444.52C105.298 444.384 105.361 444.256 105.448 444.145C105.535 444.035 105.645 443.944 105.769 443.878C105.894 443.813 106.031 443.775 106.172 443.766Z" fill="white"/>
<path d="M114.719 442.712C114.982 442.705 115.238 442.796 115.438 442.968C115.637 443.14 115.766 443.38 115.798 443.641C115.83 443.903 115.764 444.167 115.612 444.382C115.461 444.597 115.234 444.748 114.977 444.806C114.833 444.838 114.683 444.84 114.538 444.811C114.393 444.782 114.256 444.723 114.135 444.638C114.014 444.553 113.913 444.443 113.837 444.316C113.761 444.189 113.712 444.048 113.694 443.901C113.676 443.754 113.688 443.606 113.731 443.464C113.774 443.323 113.846 443.192 113.943 443.079C114.039 442.967 114.158 442.877 114.292 442.814C114.425 442.75 114.571 442.715 114.719 442.712Z" fill="white"/>
<path d="M80.8681 441.126C80.7964 440.545 80.2672 440.132 79.6862 440.204C79.1052 440.275 78.6924 440.805 78.7641 441.386C78.8359 441.967 79.365 442.379 79.946 442.308C80.5271 442.236 80.9399 441.707 80.8681 441.126Z" fill="white"/>
<path d="M89.4228 440.071C89.3511 439.49 88.8219 439.077 88.2409 439.149C87.6599 439.221 87.2471 439.75 87.3188 440.331C87.3906 440.912 87.9197 441.325 88.5007 441.253C89.0818 441.181 89.4946 440.652 89.4228 440.071Z" fill="white"/>
<path d="M96.7871 438.103C96.9962 438.065 97.2119 438.091 97.4062 438.177C97.6005 438.264 97.7644 438.406 97.8766 438.587C97.9888 438.767 98.0441 438.977 98.0354 439.19C98.0267 439.402 97.9543 439.607 97.8277 439.778C97.7011 439.948 97.526 440.077 97.3253 440.147C97.1246 440.217 96.9075 440.225 96.7022 440.17C96.4969 440.115 96.3128 440 96.1739 439.839C96.035 439.678 95.9477 439.479 95.9233 439.268C95.8924 439 95.9645 438.731 96.1249 438.515C96.2853 438.299 96.5221 438.151 96.7871 438.103Z" fill="white"/>
<path d="M105.344 437.047C105.552 437.022 105.764 437.058 105.951 437.153C106.139 437.248 106.294 437.396 106.397 437.579C106.5 437.762 106.547 437.971 106.531 438.181C106.514 438.39 106.436 438.59 106.306 438.755C106.176 438.92 106 439.043 105.8 439.108C105.601 439.172 105.386 439.176 105.184 439.119C104.982 439.061 104.801 438.945 104.665 438.785C104.53 438.625 104.444 438.428 104.42 438.219C104.396 438.081 104.401 437.938 104.435 437.802C104.47 437.665 104.533 437.537 104.62 437.427C104.707 437.316 104.816 437.225 104.941 437.16C105.066 437.094 105.203 437.056 105.344 437.047Z" fill="white"/>
<path d="M115.067 436.903C114.996 436.322 114.466 435.909 113.885 435.981C113.304 436.053 112.892 436.582 112.963 437.163C113.035 437.744 113.564 438.157 114.145 438.085C114.726 438.013 115.139 437.484 115.067 436.903Z" fill="white"/>
<path d="M123.614 435.848C123.542 435.267 123.013 434.855 122.432 434.926C121.851 434.998 121.438 435.527 121.51 436.108C121.582 436.689 122.111 437.102 122.692 437.03C123.273 436.959 123.686 436.429 123.614 435.848Z" fill="white"/>
<path d="M132.167 434.79C132.095 434.209 131.566 433.796 130.985 433.868C130.404 433.94 129.991 434.469 130.063 435.05C130.135 435.631 130.664 436.044 131.245 435.972C131.826 435.9 132.239 435.371 132.167 434.79Z" fill="white"/>
<path d="M156.179 149.627C151.369 110.678 115.895 83.0025 76.9451 87.8124C37.9956 92.6224 10.3201 128.096 15.1301 167.046C19.9401 205.995 55.4141 233.671 94.3636 228.861C133.313 224.051 160.989 188.577 156.179 149.627Z" fill="#D83838"/>
<path d="M397.436 284.364C365.692 259.599 319.882 265.256 295.117 297C270.352 328.744 276.009 374.553 307.753 399.319C339.497 424.084 385.306 418.427 410.072 386.683C434.837 354.939 429.18 309.129 397.436 284.364Z" stroke="#D9D9D9" stroke-width="2" stroke-miterlimit="10"/>
<path d="M397.735 296.314C370.629 275.167 331.512 279.997 310.364 307.104C289.217 334.21 294.048 373.328 321.154 394.475C348.26 415.622 387.378 410.792 408.525 383.685C429.672 356.579 424.842 317.461 397.735 296.314Z" stroke="#D9D9D9" stroke-width="1.8" stroke-miterlimit="10"/>
<path d="M417.511 342.625C414.019 314.342 388.259 294.246 359.976 297.738C331.693 301.231 311.597 326.99 315.089 355.274C318.582 383.557 344.342 403.653 372.625 400.16C400.908 396.668 421.004 370.908 417.511 342.625Z" stroke="#D9D9D9" stroke-width="1.6" stroke-miterlimit="10"/>
<path d="M413.791 347.486C411.02 325.046 390.582 309.101 368.142 311.872C345.702 314.643 329.758 335.081 332.529 357.521C335.3 379.961 355.738 395.906 378.178 393.135C400.618 390.364 416.563 369.926 413.791 347.486Z" stroke="#D9D9D9" stroke-width="1.4" stroke-miterlimit="10"/>
<path d="M410.078 352.346C408.028 335.743 392.907 323.946 376.304 325.996C359.702 328.047 347.905 343.168 349.955 359.771C352.005 376.373 367.127 388.17 383.729 386.12C400.332 384.069 412.129 368.948 410.078 352.346Z" stroke="#D9D9D9" stroke-width="1.2" stroke-miterlimit="10"/>
<path d="M406.37 357.221C405.04 346.456 395.236 338.807 384.471 340.136C373.706 341.466 366.056 351.27 367.386 362.035C368.715 372.801 378.52 380.45 389.285 379.12C400.05 377.791 407.699 367.986 406.37 357.221Z" stroke="#D9D9D9" stroke-miterlimit="10"/>
<mask id="mask0_1_898" style="mask-type:alpha" maskUnits="userSpaceOnUse" x="45" y="127" width="283" height="283">
<circle cx="186.312" cy="268.766" r="141" transform="rotate(-97.04 186.312 268.766)" fill="#C4C4C4"/>
</mask>
<g mask="url(#mask0_1_898)">
<path d="M87.8595 448.989C81.4925 418.238 66.6575 390.96 60.1321 359.987C55.5133 338.088 47.7326 317.184 44.3037 295.047C35.0573 235.431 29.4241 174.965 22.0832 115.114" stroke="#D8D8D8" stroke-width="0.75" stroke-miterlimit="10"/>
<path d="M92.6518 448.468C85.875 418.069 72.7537 390.308 66.1086 359.752C61.256 337.429 52.5411 316.63 49.0138 293.941C39.7941 234.705 34.3807 174.061 27.486 114.477" stroke="#D8D8D8" stroke-width="0.75" stroke-miterlimit="10"/>
<path d="M96.4996 448.114C89.9118 418.266 79.4053 389.487 72.4043 359.721C66.9675 336.583 56.3227 315.74 52.6404 292.123C48.6573 266.478 50.1245 240.664 47.2218 214.956C43.402 181.169 36.8332 147.722 32.8821 113.851" stroke="#D8D8D8" stroke-width="0.75" stroke-miterlimit="10"/>
<path d="M99.5669 447.918C93.5686 418.682 86.4017 388.715 78.959 359.859C72.6605 335.619 59.2723 314.672 55.3726 289.621C51.4218 263.911 56.0427 238.423 53.9314 212.677C51.173 179.163 42.3815 146.484 38.2647 113.147" stroke="#D8D8D8" stroke-width="0.75" stroke-miterlimit="10"/>
<path d="M102.017 447.836C96.879 418.958 93.1945 388.47 85.72 360.173C78.9227 334.422 61.4213 313.539 57.4238 286.717C53.5477 260.797 61.9062 235.874 60.8927 210.044C59.5947 177.014 48.0994 145.122 43.6776 112.498" stroke="#D8D8D8" stroke-width="0.75" stroke-miterlimit="10"/>
<path d="M104.023 447.85C99.9671 419.413 100.964 388.155 92.6322 360.588C84.4229 333.44 62.9828 312.157 58.9236 283.448C55.2366 257.182 67.6821 233.044 68.0146 207.098C68.4197 174.805 53.8648 143.513 49.0571 111.843" stroke="#D8D8D8" stroke-width="0.75" stroke-miterlimit="10"/>
<path d="M105.744 447.919C102.867 419.649 108.939 388.288 99.6261 361.014C89.9191 332.589 64.0336 310.475 60.1496 279.921C56.7411 253.136 73.457 229.963 75.2768 203.903C77.4395 172.461 59.6912 141.664 54.46 111.135" stroke="#D8D8D8" stroke-width="0.75" stroke-miterlimit="10"/>
<path d="M107.356 448.002C105.7 419.58 117.096 388.983 106.671 361.514C95.3968 331.822 65.3564 308.699 61.2195 276.342C57.7595 249.222 79.2647 226.646 82.5777 200.684C86.5127 170.212 65.4868 139.8 59.8607 110.478" stroke="#D8D8D8" stroke-width="0.75" stroke-miterlimit="10"/>
<path d="M109.007 448.093C108.574 419.209 125.349 390.154 113.691 362C100.941 331.211 66.5092 306.797 62.3722 272.808C58.9699 245.257 85.0287 223.328 89.8684 197.49C95.4083 167.938 71.2833 137.969 65.2808 109.842" stroke="#D8D8D8" stroke-width="0.75" stroke-miterlimit="10"/>
<path d="M110.873 448.163C111.593 418.662 133.576 391.634 120.633 362.461C106.547 330.718 67.8203 304.9 63.7164 269.465C60.4698 241.462 90.8776 220.155 97.0257 194.468C103.968 165.67 76.9699 136.337 70.6336 109.179" stroke="#D8D8D8" stroke-width="0.75" stroke-miterlimit="10"/>
<path d="M113.139 448.085C114.857 417.937 141.617 393.12 127.472 362.775C112.254 330.195 69.5753 303.051 65.5465 266.348C62.4197 237.846 96.7633 217.242 104.082 191.652C112.175 163.356 82.6389 134.852 76.0447 108.461" stroke="#D8D8D8" stroke-width="0.75" stroke-miterlimit="10"/>
<path d="M115.944 447.942C118.378 417.151 149.359 394.524 134.118 362.984C126.376 346.962 112.977 332.213 102.063 318.407C90.4355 303.721 70.0753 283.595 67.99 263.69C64.9335 234.616 102.698 214.868 110.909 189.239C119.888 161.187 88.2121 133.712 81.4472 107.816" stroke="#D8D8D8" stroke-width="0.75" stroke-miterlimit="10"/>
<path d="M119.464 447.647C122.197 416.255 156.558 395.709 140.52 363.018C132.444 346.574 118.237 331.401 106.847 317.33C94.8399 302.51 73.3132 281.913 71.2348 261.575C68.2017 231.792 108.647 213.195 117.486 187.347C127.017 159.277 93.7075 132.85 86.8815 107.193" stroke="#D8D8D8" stroke-width="0.75" stroke-miterlimit="10"/>
<path d="M123.851 447.187C126.34 415.201 163.062 396.479 146.616 362.851C138.436 346.138 123.553 330.625 111.887 316.448C99.5805 301.483 77.585 280.843 75.4824 260.145C72.3823 229.494 114.607 212.41 123.616 185.987C133.298 157.586 98.9584 132.284 92.2257 106.485" stroke="#D8D8D8" stroke-width="0.75" stroke-miterlimit="10"/>
<path d="M129.192 446.629C131.725 414.758 168.323 395.85 151.824 362.44C143.535 345.66 128.842 330.063 117.204 315.701C105.019 300.661 83.0848 279.862 80.8133 259.266C77.433 228.548 120.218 211.758 129.179 185.351C138.925 156.65 104.255 131.862 97.6332 105.817" stroke="#D8D8D8" stroke-width="0.75" stroke-miterlimit="10"/>
<path d="M134.996 446.553C137.719 415.163 171.811 394.559 155.651 362.025C147.295 345.192 133.547 329.488 122.227 314.765C110.584 299.547 88.967 278.054 86.6279 257.808C83.1548 227.808 125.615 210.675 134.589 185.022C144.624 156.295 109.631 131.255 102.99 105.142" stroke="#D8D8D8" stroke-width="0.75" stroke-miterlimit="10"/>
<path d="M141.114 446.968C143.543 415.805 174.027 393.642 158.726 361.857C150.581 344.857 137.835 328.95 127.028 313.649C116.035 298.059 95.1506 275.811 92.9279 255.772C89.6795 226.449 131.277 209.835 140.263 184.856C150.561 156.218 115.065 130.535 108.422 104.482" stroke="#D8D8D8" stroke-width="0.75" stroke-miterlimit="10"/>
<path d="M147.508 447.769C149.209 416.747 175.219 392.959 161.069 361.758C153.285 344.583 141.687 328.261 131.578 312.411C121.295 296.29 101.549 273.226 99.5707 253.288C96.7816 224.583 137.033 209.144 146.03 184.828C156.556 156.323 120.447 129.829 113.789 103.819" stroke="#D8D8D8" stroke-width="0.75" stroke-miterlimit="10"/>
<path d="M154.105 448.871C154.772 417.966 175.659 392.424 162.972 361.737C155.775 344.248 145.346 327.52 136.081 311.081C126.633 294.303 108.234 270.468 106.684 250.498C104.493 222.314 143.128 208.716 151.985 184.891C162.586 156.507 125.907 129.157 119.189 103.144" stroke="#D8D8D8" stroke-width="0.75" stroke-miterlimit="10"/>
<path d="M160.836 450.197C160.285 419.463 175.641 392.044 164.522 361.819C157.97 344.008 148.821 326.789 140.542 309.765C132.018 292.228 115.243 267.679 114.153 247.591C112.659 219.18 150.31 209.2 158.07 185.057C167.582 155.448 131.689 129.642 124.607 102.486" stroke="#D8D8D8" stroke-width="0.75" stroke-miterlimit="10"/>
<path d="M167.643 451.613C165.838 422.797 175.379 394.233 167.185 365.903C160.381 342.38 149.625 319.818 140.45 297.172C134.286 281.932 123.013 262.044 122.871 245.225C122.644 215.972 158.505 208.803 165.133 182.754C172.334 154.418 136.826 127.98 130.008 101.819" stroke="#D8D8D8" stroke-width="0.75" stroke-miterlimit="10"/>
<path d="M174.472 453.068C171.426 424.083 175.5 394.651 168.414 366.155C162.442 342.277 153.637 319.031 145.918 295.691C140.661 279.805 130.84 259.677 131.001 242.619C131.261 214.374 164.809 208.216 171.291 183.112C178.596 154.874 142.226 127.253 135.397 101.164" stroke="#D8D8D8" stroke-width="0.75" stroke-miterlimit="10"/>
<path d="M181.243 454.437C177.012 425.155 175.857 395.402 169.806 366.395C164.799 342.166 157.823 318.311 151.652 294.367C147.363 277.838 139.055 257.634 139.475 240.312C140.099 213.141 171.223 207.584 177.462 183.448C184.767 155.219 147.718 126.665 140.797 100.486" stroke="#D8D8D8" stroke-width="0.75" stroke-miterlimit="10"/>
<path d="M187.911 455.649C182.609 425.935 176.611 396.377 171.556 366.622C167.4 342.107 162.424 317.723 157.737 293.313C154.452 276.176 147.716 256.06 148.285 238.478C149.088 212.343 177.77 207.007 183.622 183.734C190.778 155.353 153.208 126.087 146.193 99.799" stroke="#D8D8D8" stroke-width="0.75" stroke-miterlimit="10"/>
<path d="M194.405 456.609C188.258 426.415 177.923 397.393 173.831 366.784C170.526 342.062 167.44 317.314 164.244 292.579C161.97 274.904 156.795 255.109 157.41 237.239C158.335 212.096 184.413 206.478 189.739 184.006C196.612 155.216 158.72 125.789 151.592 99.1514" stroke="#D8D8D8" stroke-width="0.75" stroke-miterlimit="10"/>
<path d="M200.66 457.226C193.993 426.573 180.004 398.314 176.817 366.878C172.55 324.823 165.57 278.983 166.892 236.743C167.643 212.548 191.197 205.992 195.806 184.163C202.021 154.689 164.317 125.732 157.014 98.4913" stroke="#D8D8D8" stroke-width="0.75" stroke-miterlimit="10"/>
<path d="M206.624 457.38C200.202 427.653 183.751 401.079 180.927 370.545C176.888 326.901 175.985 280.35 176.471 236.551C176.734 212.981 199.654 203.984 202.021 181.867C205.205 151.76 169.832 125.92 162.422 97.8166" stroke="#D8D8D8" stroke-width="0.75" stroke-miterlimit="10"/>
<path d="M212.219 457.01C206.263 426.974 187.974 401.181 185.751 370.291C182.617 326.716 187.105 281.878 186.667 238.182C186.438 215.036 206.396 203.594 207.735 181.634C209.644 150.425 175.469 126.291 167.779 97.154" stroke="#D8D8D8" stroke-width="0.75" stroke-miterlimit="10"/>
<path d="M217.578 455.996C211.182 426.236 194.113 399.386 191.902 368.756C188.83 326.332 191.548 282.257 191.706 239.717C191.781 216.583 211.089 202.813 212.278 180.62C213.928 149.846 181.118 125.181 173.171 96.4886" stroke="#D8D8D8" stroke-width="0.75" stroke-miterlimit="10"/>
<path d="M222.864 454.344C216.158 423.382 200.872 394.407 198.901 362.539C196.457 323 195.919 282.007 196.45 242.413C196.756 219.352 213.429 203.751 215.453 181.626C218.309 150.33 186.692 124.722 178.566 95.7999" stroke="#D8D8D8" stroke-width="0.75" stroke-miterlimit="10"/>
<path d="M228.105 452.165C221.769 421.016 209.605 390.809 206.904 359.061C203.705 321.651 200.735 282.671 200.764 245.135C200.781 221.363 216.311 203.032 217.906 179.962C220.015 148.98 191.79 124.082 183.981 95.1913" stroke="#D8D8D8" stroke-width="0.75" stroke-miterlimit="10"/>
<path d="M233.298 449.572C221.333 383.036 206.402 316.061 204.906 248.133C204.364 223.352 218.528 202.277 219.599 177.983C220.954 147.507 196.582 123.211 189.36 94.5099" stroke="#D8D8D8" stroke-width="0.75" stroke-miterlimit="10"/>
<path d="M238.462 446.677C233.653 414.504 229.962 382.172 224.737 350.06C219.459 317.683 210.745 284.078 209.016 251.313C207.657 225.374 219.444 201.459 220.788 175.791C222.327 146.471 201.07 121.699 194.756 93.8232" stroke="#D8D8D8" stroke-width="0.75" stroke-miterlimit="10"/>
<path d="M243.6 443.593C239.834 410.888 241.169 377.231 234.236 344.998C227.839 315.227 215.969 284.954 213.248 254.598C210.82 227.431 220.687 200.61 221.664 173.516C222.639 145.183 205.513 120.485 200.155 93.1761" stroke="#D8D8D8" stroke-width="0.75" stroke-miterlimit="10"/>
<path d="M248.743 440.417C246.098 407.493 252.705 371.814 243.905 339.721C236.434 312.431 221.409 285.902 217.735 257.78C214.027 229.391 222.123 199.644 222.409 171.124C222.693 143.803 209.943 119.13 205.544 92.4882" stroke="#D8D8D8" stroke-width="0.75" stroke-miterlimit="10"/>
<path d="M253.876 437.266C252.332 403.551 264.602 363.958 252.575 331.76C243.89 308.509 225.748 285.872 221.967 261.209C217.657 232.753 223.358 200.914 223.275 172.097C223.197 144.619 214.487 118.883 210.944 91.8231" stroke="#D8D8D8" stroke-width="0.75" stroke-miterlimit="10"/>
<path d="M259.026 434.25C258.477 400.271 275.007 359.196 261.976 326.94C253.154 305.116 231.846 287.596 227.372 264.007C221.71 234.478 225.574 200.085 224.518 169.917C223.589 143.461 218.957 117.463 216.343 91.155" stroke="#D8D8D8" stroke-width="0.75" stroke-miterlimit="10"/>
<path d="M264.203 431.484C264.452 398.253 285.768 353.584 271.075 322.48C261.519 302.209 238.581 288.95 233.477 266.305C226.6 235.747 228.372 199.265 226.264 167.837C224.522 142.066 223.612 116.253 221.75 90.4867" stroke="#D8D8D8" stroke-width="0.75" stroke-miterlimit="10"/>
<path d="M269.417 429.077C270.171 396.589 295.608 348.65 279.739 318.548C269.622 299.374 245.999 290.109 240.459 267.931C232.526 236.335 231.969 198.528 228.705 165.902C226.158 140.382 228.505 115.326 227.129 89.822" stroke="#D8D8D8" stroke-width="0.75" stroke-miterlimit="10"/>
<path d="M274.679 427.131C275.319 405.469 280.873 386.395 286.215 365.523C290.302 349.662 296.344 330.699 287.803 315.309C277.501 296.752 254.289 290.822 248.474 268.779C239.813 236.013 236.581 198.013 232.086 164.229C228.658 138.586 233.723 114.655 232.544 89.1974" stroke="#D8D8D8" stroke-width="0.75" stroke-miterlimit="10"/>
<path d="M280 425.756C280.541 403.703 286.672 384.729 292.481 363.638C296.764 348.227 303.347 328.259 295.047 312.941C285.05 294.487 263.284 290.807 257.57 268.6C248.794 234.499 242.359 197.569 236.486 162.736C232.115 136.806 239.241 114.142 237.877 88.4958" stroke="#D8D8D8" stroke-width="0.75" stroke-miterlimit="10"/>
<path d="M285.357 425.074C285.819 402.951 292.045 384.015 297.971 362.889C302.265 347.568 308.818 327.362 300.931 311.963C291.45 293.445 271.002 289.904 265.502 267.802C256.822 233.175 248.574 197.225 241.838 162.095C236.836 135.951 244.765 113.671 243.276 87.8291" stroke="#D8D8D8" stroke-width="0.75" stroke-miterlimit="10"/>
<path d="M290.857 425.062C291.41 403.189 297.26 384.148 302.846 363.125C306.981 347.652 313.206 327.809 305.493 312.348C296.308 293.945 276.651 289.057 270.984 267.489C262.044 233.438 253.668 198.25 246.5 163.708C240.931 136.888 249.663 113.764 248.711 87.1294" stroke="#D8D8D8" stroke-width="0.75" stroke-miterlimit="10"/>
<path d="M296.39 425.637C297.099 392.54 324.279 345.021 309.417 313.606C300.717 295.213 282.242 288.557 276.475 267.556C267.345 234.425 258.373 200.69 250.49 167.204C243.935 139.337 254.249 114.345 254.115 86.4913" stroke="#D8D8D8" stroke-width="0.75" stroke-miterlimit="10"/>
<path d="M301.961 426.691C302.335 393.172 326.863 347.502 312.857 315.517C304.815 297.064 287.878 288.263 281.98 267.832C272.755 235.882 262.846 204.026 254.077 171.939C246.199 143.067 258.676 114.945 259.498 85.7847" stroke="#D8D8D8" stroke-width="0.75" stroke-miterlimit="10"/>
<path d="M307.578 428.106C307.408 394.091 328.864 350.633 315.918 317.933C308.61 299.55 293.965 287.767 287.532 268.389C277.5 238.15 267.23 207.941 257.556 177.578C248.135 148.04 263.113 115.368 264.905 85.1608" stroke="#D8D8D8" stroke-width="0.75" stroke-miterlimit="10"/>
<path d="M313.213 429.767C312.41 395.276 330.438 354.086 318.72 320.72C312.237 302.246 299.418 287.949 293.094 269.052C283.439 240.228 271.683 212.026 261.149 183.512C250.169 153.753 267.687 115.367 270.302 84.4936" stroke="#D8D8D8" stroke-width="0.75" stroke-miterlimit="10"/>
<path d="M318.862 431.547C317.246 397.247 330.934 359.756 322.045 326.122C316.885 306.608 304.354 289.585 298.152 270.128C289.011 241.473 273.388 214.988 263.959 186.448C254.078 156.534 272.533 114.727 275.686 83.7971" stroke="#D8D8D8" stroke-width="0.75" stroke-miterlimit="10"/>
<path d="M324.526 433.417C322.156 399.129 332.398 363.021 324.589 329.243C320.031 309.554 309.854 290.376 303.63 271.064C294.794 243.65 278.38 218.764 268.551 191.715C262.597 175.321 268.071 158.13 271.409 141.425C275.286 121.994 278.889 102.868 281.1 83.1583" stroke="#D8D8D8" stroke-width="0.75" stroke-miterlimit="10"/>
<path d="M330.175 435.186C327.081 401.078 334.001 365.975 327.203 332.224C323.182 312.226 315.32 291.312 309.132 271.884C300.748 245.604 281.409 222.248 274.066 195.748C264.77 162.245 282.543 117.116 286.489 82.4914" stroke="#D8D8D8" stroke-width="0.75" stroke-miterlimit="10"/>
<path d="M335.811 436.769C332.1 402.969 335.92 368.541 330.026 334.93C326.144 313.852 321.014 293.023 314.665 272.553C306.803 246.752 288.02 223.972 280.79 198.063C271.27 163.972 288.136 117.132 291.877 81.8274" stroke="#D8D8D8" stroke-width="0.75" stroke-miterlimit="10"/>
<path d="M341.371 438.057C334.485 382.704 335.268 327.199 320.198 272.967C313.029 247.151 295.752 224.004 288.943 198.154C279.771 163.295 294.154 117.155 297.237 81.1655" stroke="#D8D8D8" stroke-width="0.75" stroke-miterlimit="10"/>
<path d="M346.961 438.927C339.618 383.953 339.507 326.674 326.414 272.551C319.86 245.5 303.763 220.323 298.049 193.068C290.733 158.303 300.968 115.858 302.696 80.4899" stroke="#D8D8D8" stroke-width="0.75" stroke-miterlimit="10"/>
<path d="M352.467 439.287C345.057 383.938 342.088 327.416 331.867 272.475C326.515 243.663 315.028 215.831 310.218 186.923C304.46 152.368 308.518 114.818 308.076 79.8281" stroke="#D8D8D8" stroke-width="0.75" stroke-miterlimit="10"/>
<path d="M357.904 439.018C342.972 319.084 327.165 199.247 313.464 79.1613" stroke="#D8D8D8" stroke-width="0.75" stroke-miterlimit="10"/>
</g>
</svg>
