<svg width="514" height="439" viewBox="0 0 514 439" fill="none" xmlns="http://www.w3.org/2000/svg">
<path d="M149.757 184.305C144.947 145.356 109.473 117.68 70.5237 122.49C31.5743 127.3 3.89873 162.774 8.70872 201.724C13.5187 240.673 48.9928 268.349 87.9422 263.539C126.892 258.729 154.567 223.255 149.757 184.305Z" fill="#D83838"/>
<path d="M285.774 92.7994C260.431 73.0279 223.859 77.5443 204.088 102.887C184.316 128.23 188.832 164.802 214.175 184.574C239.518 204.345 276.09 199.829 295.862 174.486C315.634 149.143 311.117 112.571 285.774 92.7994Z" stroke="#D9D9D9" stroke-miterlimit="10"/>
<g opacity="0.3" clip-path="url(#clip0_1911_4)">
<path d="M242.135 304.716C197.099 304.716 139.22 241.603 111.372 161.107C91.9522 104.99 91.3241 52.6274 109.719 24.4613C117.619 12.4043 128.824 5.47447 142.179 4.41597C187.678 0.843519 247.953 65.2137 276.611 147.893C296.031 204.026 296.659 256.389 278.264 284.539C270.381 296.596 259.159 303.526 245.821 304.584C244.598 304.667 243.309 304.716 242.135 304.716ZM145.881 5.22638C144.658 5.22638 143.468 5.22638 142.261 5.35869C129.039 6.40066 118.363 12.9998 110.529 24.9741C92.2662 52.8921 92.9273 104.941 112.182 160.81C139.914 240.925 197.396 303.774 242.053 303.79C243.259 303.79 244.466 303.79 245.656 303.641C258.878 302.599 269.571 296 277.405 284.026C295.667 256.108 295.006 204.059 275.669 148.19C248.019 68.075 190.521 5.22638 145.881 5.22638Z" fill="black"/>
<path d="M251.573 307.247C208.9 307.247 150.277 249.84 115.917 172.172C90.3164 114.285 83.9038 56.729 99.6212 25.5197C105.852 13.1154 115.058 5.47434 127.007 2.79501C169.978 -6.8969 235.145 53.2393 272.133 136.762C297.75 194.649 304.146 252.205 288.445 283.414C282.214 295.818 272.992 303.459 261.06 306.155C257.947 306.864 254.765 307.23 251.573 307.247ZM136.527 2.69578C133.381 2.68533 130.244 3.02369 127.172 3.70467C115.52 6.31784 106.53 13.8101 100.415 25.9332C84.8458 56.911 91.2419 114.169 116.743 171.792C150.955 249.112 209.197 306.304 251.457 306.304C254.603 306.315 257.74 305.977 260.812 305.295C272.463 302.682 281.471 295.19 287.569 283.067C303.155 252.089 296.742 194.847 271.24 137.208C237.029 59.888 178.853 2.69578 136.527 2.69578Z" fill="black"/>
<path d="M260.795 308.669C220.105 308.669 161.383 257.084 121.503 183.253C89.4235 123.911 76.8794 63.1131 89.5227 28.381C94.1338 15.712 101.769 7.17784 112.248 3.04306C152.194 -12.7849 221.328 42.2573 266.497 125.747C298.56 185.105 311.12 245.887 298.477 280.619C293.866 293.304 286.214 301.822 275.752 305.973L275.57 305.527L275.752 305.973C270.98 307.806 265.906 308.72 260.795 308.669ZM127.288 1.24031C122.261 1.19538 117.271 2.09872 112.578 3.90309C102.381 7.95517 94.9106 16.2909 90.3987 28.7117C77.8545 63.2123 90.3987 123.696 122.313 182.823C161.978 256.356 220.402 307.776 260.696 307.776C265.723 307.829 270.715 306.926 275.405 305.113C285.602 301.078 293.073 292.725 297.585 280.305C310.145 245.821 297.585 185.32 265.67 126.193C225.955 52.6604 167.598 1.24031 127.288 1.24031Z" fill="black"/>
<path d="M269.654 309C230.633 309 172.457 263.303 128.147 194.235C89.9195 134.695 70.9627 71.5151 79.8543 33.3098C82.9119 20.1778 89.0766 10.7174 98.1996 5.19335C134.56 -16.7044 207.032 32.4333 259.853 114.748C298.064 174.289 317.021 237.485 308.146 275.674C305.088 288.806 298.907 298.266 289.784 303.79C283.679 307.344 276.714 309.147 269.654 309ZM118.462 0.893176C111.504 0.729877 104.638 2.50498 98.6293 6.02031C89.7211 11.379 83.7548 20.6409 80.6972 33.5248C71.8716 71.5648 90.7789 134.413 128.874 193.739C181.414 275.624 253.358 324.63 289.189 302.897L289.42 303.311L289.189 302.897C298.08 297.538 304.063 288.277 307.121 275.393C315.946 237.435 297.039 174.504 258.944 115.195C214.915 46.4915 157.086 0.893176 118.462 0.893176Z" fill="black"/>
<path d="M277.752 308.272C275.736 308.272 273.653 308.157 271.505 307.942C232.864 303.807 179.597 263.385 135.766 204.969C75.7392 124.92 52.9977 37.1634 85.0606 9.32807C92.9772 2.46435 103.555 -0.31422 116.462 1.05852C155.087 5.17676 208.354 45.5983 252.184 104.014C312.228 184.064 334.969 271.82 302.89 299.655C296.329 305.395 287.933 308.272 277.752 308.272ZM110.248 1.68701C100.332 1.68701 92.0682 4.48211 85.6887 10.0558C53.9729 37.5768 76.7805 124.754 136.527 204.423C180.192 262.641 233.211 302.914 271.604 306.966C284.264 308.322 294.593 305.609 302.312 298.928L302.609 299.275L302.312 298.928C334.027 271.407 311.22 184.229 251.474 104.56C207.792 46.3426 154.773 6.06986 116.396 2.01778C114.354 1.79569 112.302 1.68527 110.248 1.68701Z" fill="black"/>
<path d="M284.925 306.436C247.573 306.436 192.521 270.795 144.311 215.306C77.6565 138.598 45.6762 48.9061 73.0784 15.3813C79.8546 7.11178 89.6057 2.77854 102.233 2.58007C139.568 1.98467 195.132 37.7587 243.739 93.694C310.394 170.402 342.39 260.094 315.038 293.619L314.674 293.321L315.038 293.619C308.278 301.888 298.51 306.238 285.9 306.42L284.925 306.436ZM103.075 3.50626H102.183C89.9031 3.68819 80.3339 7.88912 73.7395 15.9602C46.6678 49.1542 78.6977 138.35 145.022 214.677C193.447 270.414 248.747 306.073 285.817 305.477C298.097 305.279 307.666 301.078 314.244 293.007C341.316 259.813 309.286 170.617 242.979 94.3059C194.934 39.0322 140.163 3.50626 103.075 3.50626Z" fill="black"/>
<path d="M290.891 303.592C255.093 303.592 202.437 273.722 153.715 225.114C81.1437 152.772 40.1064 62.2698 62.2695 23.3367C67.8888 13.4133 77.0449 7.59151 89.4569 5.90452C125.106 1.05857 182.01 31.6724 234.368 83.8864C306.956 156.228 347.976 246.73 325.83 285.663C320.194 295.587 311.055 301.409 298.626 303.096C296.062 303.434 293.478 303.599 290.891 303.592ZM97.142 6.33453C94.5996 6.32908 92.0597 6.49485 89.5395 6.83071C77.425 8.48462 68.5003 14.1906 63.0958 23.7998C41.1476 62.3855 82.1022 152.391 154.393 224.452C202.917 272.928 255.325 302.699 290.842 302.699C293.384 302.705 295.924 302.539 298.444 302.202C310.575 300.549 319.483 294.843 324.888 285.233C346.853 246.648 305.898 156.642 233.591 84.5975C185.067 36.138 132.676 6.33453 97.142 6.33453Z" fill="black"/>
<path d="M295.469 299.87C261.241 299.87 211.643 275.508 163.747 234.243C86.0686 167.31 36.272 77.1218 52.8488 33.1278C57.2451 21.5505 65.7897 13.9756 78.2512 10.8001C111.868 2.21626 169.151 27.3392 224.237 74.7568C301.915 141.707 351.711 231.878 335.151 275.872C330.755 287.45 322.21 295.024 309.749 298.217C305.075 299.356 300.279 299.911 295.469 299.87ZM92.5804 10.0558C87.8305 10.0147 83.0942 10.5704 78.4826 11.7097C66.3351 14.8025 58.0053 22.1293 53.6917 33.4752C37.1644 77.0722 86.8785 166.83 164.325 233.598C219.163 280.834 276.132 305.874 309.484 297.357C321.632 294.264 329.961 286.937 334.275 275.608L334.721 275.773L334.275 275.608C350.802 231.994 301.088 142.236 223.642 75.4845C175.911 34.3517 126.56 10.0558 92.5804 10.0558Z" fill="black"/>
<path d="M297.998 295.455C286.131 295.455 272.447 292.924 257.391 287.896C231.558 279.279 202.851 263.6 174.44 242.596C92.4319 181.963 34.3881 93.2144 44.9821 44.6887C47.9735 31.077 55.9066 21.7821 68.5665 17.0188C83.8873 11.2632 105.307 12.6855 130.527 21.1039C156.359 29.7374 185.067 45.3999 213.494 66.4045C295.486 127.004 353.53 215.786 342.87 264.328C339.878 277.923 331.945 287.218 319.285 291.981C312.452 294.397 305.244 295.573 297.998 295.455ZM89.7544 14.5379C82.6824 14.3915 75.6412 15.5117 68.9632 17.8457C56.6338 22.4932 48.8825 31.5732 45.9737 44.8376C35.3797 93.0325 93.2583 181.384 175.002 241.785C231.327 283.464 287.933 302.798 319.021 291.121C331.367 286.474 339.101 277.41 342.01 264.129C352.604 215.935 294.726 127.583 212.998 67.1819C167.581 33.6075 122.032 14.5379 89.7544 14.5379Z" fill="black"/>
<path d="M298.361 290.575C268.133 290.575 227.806 276.385 185.612 250.021C100.266 196.683 34.4704 110.481 38.9659 57.9199C40.3046 42.4227 47.7584 30.8453 60.534 24.4447C90.1674 9.55953 144.509 22.7908 202.371 59.028C287.734 112.333 353.513 198.502 349.084 251.13H348.621H349.084C347.761 266.627 340.308 278.204 327.516 284.605C319.434 288.624 309.6 290.575 298.361 290.575ZM89.6054 19.3507C78.5156 19.3507 68.8141 21.2857 60.9141 25.2386C48.2873 31.5731 41.2301 42.5716 39.9079 57.9199C35.4456 110.216 101.059 196.021 186.108 249.195C228.17 275.475 268.315 289.616 298.328 289.616C309.418 289.616 319.12 287.698 327.036 283.728C339.68 277.394 346.77 266.395 348.075 251.014C352.554 198.717 286.924 112.929 201.875 59.7392C159.83 33.4916 119.685 19.3507 89.6054 19.3507Z" fill="black"/>
<path d="M296.477 285.366C269.009 285.366 234.07 275.442 197.165 256.406C109.455 211.155 36.586 128.691 34.7185 72.5736C34.1235 54.8436 40.7509 41.1493 53.8901 32.7639C81.1601 15.4806 133.634 23.0886 190.835 52.6109C278.529 97.8618 351.414 180.326 353.282 236.443C353.86 254.173 347.233 267.867 334.11 276.269C324.425 282.372 311.583 285.366 296.477 285.366ZM91.5392 24.5606C76.6647 24.5606 63.9552 27.5045 54.4024 33.5578C41.5607 41.6785 35.082 55.1579 35.6605 72.557C37.528 128.36 110.182 210.46 197.628 255.579C254.515 284.936 306.708 292.544 333.631 275.426C346.472 267.288 352.951 253.809 352.373 236.426C350.505 180.607 277.868 98.5069 190.405 53.3882C153.616 34.4509 118.826 24.5606 91.5227 24.5606H91.5392Z" fill="black"/>
<path d="M291.535 280.503C267.951 280.503 239.574 274.185 208.899 261.665C119.9 225.279 40.6846 147.645 32.3383 88.6495C29.4956 68.6042 35.1149 52.462 48.5846 41.9597C73.8548 22.2616 122.627 24.2628 179.034 47.3349C268.1 83.7374 347.265 161.355 355.694 220.35C358.537 240.396 352.918 256.538 339.448 267.04C327.829 276.038 311.368 280.503 291.535 280.503ZM96.5137 29.423C76.8958 29.423 60.6495 33.8224 49.2622 42.6543C36.0404 52.9416 30.5699 68.7861 33.363 88.4676C41.6266 147.181 120.627 224.452 209.345 260.739C265.439 283.679 313.864 285.746 338.87 266.246C352.091 255.976 357.545 240.131 354.752 220.433C346.489 161.736 267.505 84.4486 178.77 48.1618C148.161 35.7244 119.9 29.423 96.4476 29.423H96.5137Z" fill="black"/>
<path d="M283.652 275.938C264.894 275.938 243.557 272.631 220.849 265.684C131.601 238.792 46.9653 167.128 32.0742 105.916C26.6533 83.5721 31.0165 64.8995 44.7176 51.8997C67.5417 30.2666 113.355 27.0911 167.284 43.3159C256.531 70.2085 341.167 141.872 356.042 203.084C361.479 225.428 357.1 244.117 343.398 257.1C330.16 269.62 309.303 275.938 283.652 275.938ZM104.315 33.9879C78.9125 33.9879 58.303 40.2562 45.296 52.5778C31.8594 65.3295 27.5788 83.7044 32.9336 105.701C47.8082 166.615 132.097 238.014 221.047 264.791C274.645 280.95 320.211 277.807 342.688 256.422C356.141 243.671 360.405 225.296 355.067 203.299C340.192 142.385 255.903 70.9859 166.937 44.2256C144.228 37.3784 122.974 33.9879 104.315 33.9879Z" fill="black"/>
<path d="M272.513 272.382C259.102 272.307 245.728 270.973 232.566 268.396C144.278 251.576 55.0636 186.925 33.6938 124.192C25.331 99.6646 28.1737 78.3291 41.9574 62.4847C62.2364 39.1149 104.662 30.9281 155.45 40.6035C243.755 57.4237 332.97 122.108 354.323 184.808C362.686 209.335 359.843 230.687 346.059 246.515C331.399 263.418 305.138 272.382 272.513 272.382ZM115.504 37.5272C83.1599 37.5272 57.1625 46.3756 42.6681 63.0636C29.1653 78.6434 26.3887 99.6646 34.6358 123.861C55.9064 186.263 144.79 250.667 232.798 267.437C283.256 277.046 325.351 268.992 345.415 245.936C358.917 230.373 361.711 209.335 353.463 185.139C332.193 122.737 243.293 58.3334 155.301 41.5627C142.173 38.9876 128.832 37.6476 115.454 37.5603L115.504 37.5272Z" fill="black"/>
<path d="M259.589 270.298C254.63 270.298 249.424 270.117 244.135 269.72C157.896 263.418 65.1617 206.689 37.4289 143.278C26.0251 117.163 27.0333 92.4535 40.2882 73.6982C58.2037 48.3272 95.9686 35.7741 143.848 39.2803C230.104 45.5817 322.822 102.311 350.555 165.722C361.975 191.837 360.95 216.546 347.695 235.302C331.73 257.878 300.097 270.298 259.589 270.298ZM128.379 39.7269C88.2007 39.7269 56.832 51.9989 41.065 74.3267C27.8431 93.0655 26.8515 116.816 38.3049 142.98C65.9054 206.11 158.276 262.591 244.202 268.876C291.751 272.349 329.185 259.945 346.935 234.839C360.157 216.1 361.132 192.35 349.695 166.185C322.095 103.055 229.724 46.5741 143.782 40.3058C138.526 39.8261 133.386 39.7269 128.379 39.7269Z" fill="black"/>
<path d="M244.334 269.935C164.044 269.935 75.6398 223.51 43.2464 162.927C28.4545 135.273 27.1819 107.818 39.6765 85.6065C54.8981 58.6147 88.7294 41.7613 132.576 39.3797C215.708 34.7653 310.856 82.7287 344.753 146.073C359.529 173.727 360.801 201.182 348.307 223.394C333.135 250.386 299.254 267.239 255.341 269.703C251.705 269.836 248.019 269.935 244.334 269.935ZM143.666 40.0413C139.986 40.0413 136.328 40.1405 132.692 40.339C89.1095 42.7206 55.5096 59.392 40.5028 86.1027C28.1735 108.017 29.4461 135.158 44.0727 162.513C76.3174 222.815 164.358 269.009 244.317 269.025C247.997 269.025 251.655 268.926 255.291 268.727C298.874 266.313 332.556 249.641 347.431 222.947C359.76 201.016 358.488 173.876 343.861 146.52C311.666 86.2184 223.641 40.0082 143.666 40.0082V40.0413Z" fill="black"/>
<path d="M229.41 271.555C159.45 271.555 84.8456 235.996 51.0804 182.922C32.9004 154.277 28.9338 124.258 40.0071 98.3579C52.2538 69.7287 82.1186 48.7406 121.949 40.9342C200.702 25.3543 297.138 63.5597 336.92 126.077C355.1 154.723 359.066 184.758 347.993 210.642C335.746 239.271 305.865 260.259 266.034 268.082C253.968 270.428 241.701 271.591 229.41 271.555ZM158.607 38.3541C146.365 38.323 134.149 39.4807 122.131 41.8107C82.6144 49.6337 52.981 70.3572 40.8665 98.6887C29.9255 124.291 33.8259 154.012 51.8737 182.377C91.4565 244.597 187.397 282.62 265.852 267.123C305.385 259.316 335.002 238.576 347.117 210.245C358.074 184.642 354.157 154.922 336.126 126.557C302.526 73.7643 228.253 38.3872 158.607 38.3872V38.3541Z" fill="black"/>
<path d="M216.006 275.161C156.359 275.161 94.5141 248.202 60.8977 203.018C39.4122 174.091 32.4046 141.823 41.2633 112.251C50.502 81.4055 75.5904 57.1592 111.917 43.961C185.282 17.3 281.801 45.1187 327.086 105.983C348.571 134.926 355.579 167.177 346.72 196.749C337.482 227.595 312.393 251.841 276.066 265.039C256.786 271.881 236.462 275.306 216.006 275.161ZM172.01 34.7653C151.651 34.6297 131.424 38.0379 112.231 44.8376C76.2019 57.92 51.3118 81.9679 42.1722 112.499C33.3963 141.79 40.3047 173.694 61.6579 202.422C95.0926 247.359 156.624 274.202 215.973 274.202C236.332 274.337 256.56 270.929 275.752 264.129C311.782 251.031 336.672 226.999 345.828 196.451C354.604 167.144 347.679 135.257 326.342 106.512C292.891 61.6082 231.36 34.7653 172.01 34.7653Z" fill="black"/>
<path d="M205.164 280.635C155.384 280.635 104.81 260.276 72.6153 222.964C48.1384 194.549 37.8254 160.71 43.6099 127.682C49.3945 94.6532 70.3345 66.6856 102.695 48.4595C169.614 10.7834 265.009 27.6368 315.368 86.0364C339.845 114.434 350.075 148.273 344.39 181.318C338.704 214.363 317.682 242.314 285.288 260.54C261.142 274.136 233.277 280.635 205.164 280.635ZM182.852 29.2411C154.888 29.2411 127.172 35.7079 103.158 49.2368C71.0452 67.3141 50.2704 95.2156 44.5355 127.781C38.8005 160.347 49.0309 194.103 73.3425 222.285C123.42 280.371 218.287 297.141 284.892 259.664C316.988 241.587 337.779 213.685 343.514 181.12C349.249 148.554 339.002 114.798 314.707 86.6152C282.66 49.5511 232.351 29.2907 182.852 29.2907V29.2411Z" fill="black"/>
<path d="M197.661 287.681C156.905 287.681 115.917 272.399 86.1513 242.496C59.2614 215.488 45.4942 180.871 47.3452 144.998C49.1632 109.853 65.8889 77.684 94.4149 54.4135C153.913 5.93741 246.929 11.4119 301.849 66.5201C328.722 93.5119 342.506 128.128 340.638 164.002C338.82 199.147 322.111 231.316 293.569 254.586C266.348 276.782 232.087 287.681 197.661 287.681ZM190.323 22.2615C156.111 22.2615 122.065 33.0946 95.0099 55.1412C66.6821 78.296 50.0888 110.167 48.2873 145.048C46.4362 180.656 60.1208 215.025 86.8124 241.835C141.352 296.645 233.905 302.037 292.99 253.859C321.301 230.704 337.895 198.833 339.713 163.952C341.547 128.36 327.863 93.9916 301.171 67.1817C271.587 37.4609 230.848 22.2615 190.323 22.2615Z" fill="black"/>
<path d="M193.909 295.918C161.646 295.88 130.367 284.797 105.269 264.509C80.1711 244.222 62.7652 215.951 55.9435 184.395C49.1217 152.839 53.2948 119.897 67.7694 91.0423C82.244 62.1877 106.149 39.158 135.511 25.7793C164.874 12.4007 197.928 9.4788 229.179 17.499C260.431 25.5192 288 43.9987 307.305 69.867C326.61 95.7354 336.49 127.435 335.302 159.7C334.114 191.964 321.93 222.85 300.775 247.226C287.512 262.56 271.099 274.848 252.656 283.251C234.212 291.654 214.174 295.975 193.909 295.918ZM194.091 14.0252C161.187 14.0275 129.33 25.5972 104.084 46.7136C78.837 67.83 61.8058 97.1509 55.9645 129.555C50.1232 161.959 55.8431 195.387 72.1253 224.001C88.4074 252.614 114.217 274.594 145.046 286.101C175.875 297.608 209.764 297.912 240.794 286.959C271.823 276.006 298.022 254.492 314.813 226.175C331.605 197.858 337.922 164.538 332.661 132.034C327.401 99.5305 310.897 69.9092 286.032 48.3438C260.519 26.1906 227.869 14.0035 194.091 14.0252Z" fill="black"/>
</g>
<g opacity="0.8" clip-path="url(#clip1_1911_4)">
<path d="M211.117 234.39C228.863 202.123 296.886 185.524 365.531 197.29C413.388 205.488 451.151 225.671 464.082 249.948C469.608 260.359 470.157 271.117 465.654 281.102C450.285 315.108 380.417 332.928 309.889 320.883C262.02 312.678 224.257 292.495 211.338 268.225C205.806 257.826 205.263 247.055 209.76 237.082C210.182 236.173 210.655 235.23 211.117 234.39ZM463.615 283.435C464.097 282.559 464.565 281.706 464.946 280.79C469.409 270.906 468.888 260.657 463.396 250.326C450.59 226.241 413.039 206.206 365.425 197.987C297.099 186.289 229.421 202.707 211.813 234.695C211.338 235.56 210.862 236.424 210.5 237.335C206.037 247.219 206.552 257.48 212.044 267.811C224.85 291.896 262.4 311.931 310.047 320.091C378.341 331.848 446.025 315.418 463.615 283.435Z" fill="black"/>
<path d="M205.585 240.154C222.4 209.58 286.628 190.2 355.812 196.186C407.373 200.653 451.136 218.738 467.303 242.296C473.735 251.648 475.582 261.254 472.793 270.871C462.805 305.476 394.043 328.47 319.629 322.06C268.061 317.604 224.305 299.508 208.132 275.962C201.7 266.61 199.859 256.992 202.629 247.381C203.348 244.871 204.339 242.448 205.585 240.154ZM469.113 277.73C470.36 275.481 471.354 273.1 472.076 270.631C474.795 261.253 472.97 251.86 466.694 242.701C450.634 219.341 407.091 201.362 355.759 196.928C286.883 190.973 222.958 210.165 206.306 240.442C205.059 242.692 204.065 245.073 203.343 247.542C200.624 256.919 202.443 266.325 208.726 275.471C224.779 298.843 268.316 316.804 319.66 321.245C388.537 327.2 452.435 308.055 469.113 277.73Z" fill="black"/>
<path d="M200.933 246.2C216.966 217.048 277.063 195.303 345.673 195.822C400.829 196.221 449.33 211.19 469.232 233.934C476.492 242.229 479.598 251.062 478.431 260.199C474.031 295.055 407.356 322.898 329.742 322.362C274.58 321.945 226.084 306.994 206.182 284.251C198.91 275.949 195.823 267.11 196.971 257.979L197.363 258.025L196.971 257.979C197.538 253.838 198.883 249.842 200.933 246.2ZM473.797 271.684C475.81 268.101 477.129 264.17 477.685 260.097C478.8 251.194 475.771 242.558 468.65 234.431C448.875 211.849 400.599 197.004 345.662 196.572C277.35 196.016 217.489 217.613 201.612 246.481C199.593 250.062 198.274 253.995 197.724 258.069C196.597 266.965 199.638 275.608 206.759 283.735C226.516 306.322 274.81 321.161 329.747 321.594C398.079 322.114 457.914 300.565 473.797 271.684Z" fill="black"/>
<path d="M197.205 252.417C212.581 224.46 268.244 200.786 335.187 196.255C392.907 192.327 445.642 203.64 469.511 225.065C477.714 232.43 482.063 240.574 482.426 249.287C483.788 283.965 420.027 316.527 340.239 321.936C282.525 325.852 229.779 314.532 205.915 293.126C197.711 285.761 193.369 277.605 193.006 268.892C192.865 263.118 194.318 257.418 197.205 252.417ZM477.523 265.498C480.382 260.578 481.816 254.959 481.664 249.269C481.335 240.775 477.05 232.851 469.024 225.584C445.248 204.272 392.77 193.054 335.255 196.971C255.886 202.349 192.429 234.583 193.88 268.818L193.493 268.821L193.88 268.818C194.216 277.3 198.494 285.236 206.52 292.503C230.237 313.782 282.775 325.033 340.278 321.109C406.849 316.635 462.304 293.171 477.523 265.498Z" fill="black"/>
<path d="M194.535 258.506C195.33 257.061 196.233 255.615 197.234 254.16C215.422 228.105 265.371 205.869 324.494 197.484C405.497 186.019 477.332 204.305 484.641 238.244C486.439 246.62 484.262 255.293 478.192 264C460.023 290.05 410.074 312.286 350.951 320.671C269.94 332.148 198.106 313.863 190.804 279.911C189.277 272.949 190.524 265.8 194.535 258.506ZM480.19 259.301C484.098 252.196 485.351 245.174 483.872 238.407C476.651 204.84 405.206 186.83 324.585 198.244C265.67 206.588 215.925 228.706 197.894 254.616C191.934 263.152 189.807 271.621 191.553 279.784L191.187 279.86L191.553 279.784C198.774 313.351 270.219 331.36 350.84 319.947C409.762 311.591 459.506 289.473 477.531 263.575C478.495 262.2 479.382 260.773 480.19 259.301Z" fill="black"/>
<path d="M193.025 264.368C207.743 237.607 254.97 212.209 313.722 199.533C394.943 182.003 471.804 194.432 485.026 227.274C488.28 235.387 487.543 244.081 482.71 253.206C468.425 280.189 420.901 305.903 361.673 318.687C280.452 336.216 203.584 323.8 190.343 290.993L190.7 290.85L190.343 290.993C187.082 282.892 187.814 274.18 192.653 265.073L193.025 264.368ZM481.714 253.445L482.066 252.805C486.774 243.936 487.535 235.424 484.35 227.52C471.236 195.045 394.711 182.847 313.892 200.29C254.878 213.022 207.541 238.592 193.361 265.386C188.664 274.262 187.903 282.773 191.094 290.666C204.209 323.141 280.734 335.338 361.534 317.901C420.066 305.259 467.101 280.016 481.714 253.445Z" fill="black"/>
<path d="M192.711 269.764C206.817 244.116 248.965 218.16 302.989 202.406C383.413 178.917 464.424 185.176 483.584 216.395C488.48 224.332 489.043 233.185 485.361 242.743C474.786 270.193 430.431 298.899 372.392 315.838C291.96 339.338 210.957 333.067 191.789 301.86C186.9 293.912 186.331 285.07 190.019 275.501C190.787 273.53 191.687 271.614 192.711 269.764ZM482.025 248.079C483.031 246.26 483.913 244.375 484.665 242.437C488.253 233.106 487.682 224.463 482.927 216.805C463.93 185.876 383.308 179.754 303.196 203.152C249.345 218.816 207.366 244.634 193.371 270.08C192.364 271.899 191.482 273.784 190.731 275.722C187.136 285.065 187.714 293.696 192.469 301.354C211.459 332.295 292.081 338.418 372.188 315.001C426.027 299.33 468.024 273.537 482.025 248.079Z" fill="black"/>
<path d="M193.573 274.51C207.06 249.987 244.058 224.052 292.494 205.996C371.057 176.717 455.293 176.577 480.281 205.788C486.843 213.5 488.904 222.606 486.269 232.786C479.173 260.253 438.602 291.394 382.924 312.177C304.35 341.449 220.125 341.596 195.131 312.396C188.569 304.685 186.508 295.578 189.132 285.392C190.157 281.595 191.649 277.94 193.573 274.51ZM481.156 243.345C483.057 239.958 484.525 236.346 485.526 232.593C488.096 222.671 486.129 213.816 479.7 206.255C454.977 177.236 371.081 177.487 292.729 206.665C237.279 227.341 196.891 258.29 189.852 285.542C187.281 295.464 189.249 304.318 195.666 311.873L195.372 312.128L195.666 311.873C220.401 340.899 304.297 340.648 382.637 311.464C430.914 293.474 467.767 267.69 481.156 243.345Z" fill="black"/>
<path d="M195.742 278.062C200.418 269.56 207.623 260.753 217.158 251.947C233.51 236.834 256.055 222.444 282.298 210.366C358.052 175.502 444.507 168.886 475.099 195.597C483.673 203.103 487.206 212.449 485.63 223.396C483.717 236.641 474.258 251.426 458.289 266.179C441.925 281.284 419.392 295.681 393.142 307.771C317.419 342.636 230.94 349.239 200.362 322.475C191.8 314.975 188.267 305.628 189.843 294.681C190.804 288.834 192.802 283.206 195.742 278.062ZM479.059 239.554C481.951 234.545 483.923 229.059 484.882 223.355C486.41 212.69 482.959 203.559 474.602 196.248C444.247 169.668 358.141 176.322 282.657 211.088C230.603 235.02 194.447 267.957 190.563 294.831C189.028 305.507 192.474 314.62 200.843 321.937C231.198 348.517 317.304 341.863 392.781 307.109C434.731 287.799 466.341 262.68 479.059 239.554Z" fill="black"/>
<path d="M199.094 280.244C211.004 258.587 237.061 235.287 272.575 215.445C344.418 175.315 432.103 162.141 467.989 186.073C478.565 193.138 483.922 203.04 483.474 214.715C482.462 241.812 451.571 275.531 402.809 302.708C330.983 342.863 243.328 356.037 207.369 332.127L207.551 331.796L207.369 332.127C196.787 325.074 191.429 315.172 191.884 303.485C192.189 296.111 194.665 288.296 199.094 280.244ZM475.669 237.551C480.039 229.606 482.475 221.893 482.756 214.675C483.193 203.133 478.094 193.743 467.618 186.748C431.908 162.944 344.58 176.144 272.972 216.126C237.569 235.906 211.62 259.096 199.794 280.599C195.424 288.544 192.976 296.251 192.701 303.487C192.257 315.041 197.343 324.454 207.849 331.451C243.552 355.266 330.875 342.048 402.495 302.073C437.867 282.291 463.817 259.102 475.669 237.551Z" fill="black"/>
<path d="M203.569 280.948C214.392 261.268 235.268 240.146 263.449 221.206C330.429 176.196 418.223 156.482 459.164 177.256C472.101 183.816 479.301 193.96 480.132 206.677C481.769 233.025 455.642 267.623 411.952 296.972C344.978 341.97 257.178 361.696 216.237 340.922C203.306 334.35 196.106 324.206 195.257 311.494C194.701 302.15 197.616 291.77 203.569 280.948ZM471.174 236.884C477.035 226.227 479.934 215.961 479.361 206.732C478.603 194.332 471.499 184.379 458.805 177.937C418.089 157.287 330.641 176.991 263.859 221.863C220.411 251.053 194.395 285.449 196.051 311.483C196.821 323.89 203.925 333.842 216.607 340.277C257.335 360.934 344.777 341.242 411.565 296.358C439.629 277.461 460.423 256.433 471.181 236.872L471.174 236.884Z" fill="black"/>
<path d="M208.999 279.323C218.292 262.426 234 244.584 255.057 227.541C316.194 178.114 403.029 151.95 448.584 169.216C464.066 175.078 473.417 185.465 475.634 199.253C479.79 225.12 459.138 259.274 420.382 290.596C359.207 340.064 272.404 366.199 226.816 348.992C211.334 343.13 201.983 332.744 199.766 318.955C197.898 307.085 201.185 293.532 208.999 279.323ZM465.73 238.532C473.46 224.477 476.71 211.103 474.869 199.465C472.709 185.939 463.512 175.776 448.311 170.022C402.989 152.808 316.5 178.961 255.545 228.225C217.007 259.375 196.445 293.254 200.563 318.853C202.711 332.373 211.914 342.524 227.127 348.284C272.437 365.492 358.932 339.357 419.894 290.081C440.865 273.052 456.516 255.287 465.756 238.485L465.73 238.532Z" fill="black"/>
<path d="M215.376 275.474C222.767 262.034 233.544 248.051 247.469 234.518C301.902 181.173 386.595 148.773 436.317 162.223C454.462 167.144 466.121 177.627 470.036 192.566C476.542 217.442 460.765 251.517 427.891 283.761C373.458 337.106 288.765 369.506 239.049 356.044C220.898 351.135 209.234 340.633 205.331 325.702C201.577 311.284 205.269 293.851 215.376 275.474ZM459.386 242.322C469.395 224.123 473.025 206.887 469.322 192.713C465.481 178.062 454.003 167.755 436.133 162.924C386.63 149.579 302.264 181.835 248.031 235.012C215.335 267.046 199.632 300.929 206.097 325.46C209.932 340.123 221.416 350.418 239.279 355.261C288.782 368.605 373.149 336.35 427.376 283.154C441.23 269.582 452.034 255.691 459.386 242.322Z" fill="black"/>
<path d="M222.313 268.894C227.652 259.315 233.877 250.259 240.909 241.845C287.748 185.218 369.221 146.774 422.586 156.183C443.454 159.856 457.62 170.299 463.54 186.418C472.293 210.155 461.442 243.776 434.498 276.352C387.652 332.99 306.156 371.421 252.821 362.014C231.953 358.341 217.775 347.891 211.867 331.779C205.533 314.615 209.458 292.268 222.313 268.894ZM452.442 248.944C465.186 225.771 469.091 203.659 462.846 186.699C457.004 170.886 443.037 160.613 422.452 156.988C369.363 147.639 288.198 185.943 241.505 242.389C214.739 274.753 203.923 308.086 212.535 331.545C218.365 347.352 232.337 357.642 252.922 361.268C306.012 370.616 387.183 332.3 433.869 275.867C440.887 267.476 447.104 258.446 452.438 248.895L452.442 248.944Z" fill="black"/>
<path d="M228.898 260.455C230.852 256.903 233.033 253.245 235.402 249.612C273.897 190.309 351.081 146.222 407.439 151.338C430.643 153.458 447.949 163.916 456.163 180.803C467.281 203.636 461.395 235.639 440.017 268.56C401.515 327.876 324.337 371.951 267.979 366.834C244.769 364.726 227.469 354.256 219.255 337.369C209.371 317.035 212.937 289.478 228.898 260.455ZM445.792 257.301C461.623 228.516 465.191 201.206 455.407 181.112C447.191 164.256 430.566 154.187 407.307 152.083C351.203 146.983 274.34 190.907 235.98 249.992C214.756 282.69 208.893 314.397 219.886 337.007C228.102 353.864 244.734 363.92 267.986 366.036C324.091 371.137 400.954 327.212 439.308 268.109C441.722 264.533 443.819 260.889 445.792 257.301Z" fill="black"/>
<path d="M235.171 249.669C266.807 192.146 334.902 147.101 391.071 147.764C416.712 148.063 436.883 157.969 447.874 175.673C461.214 197.214 459.958 228.093 444.388 260.446C414.937 321.824 343.083 371.094 284.343 370.42C258.709 370.11 238.537 360.204 227.547 342.5C214.187 320.994 215.462 290.079 230.999 257.647C232.337 254.99 233.718 252.31 235.171 249.669ZM439.544 268.13C440.994 265.494 442.365 262.834 443.655 260.151C459.121 227.987 460.416 197.346 447.193 176.069C436.35 158.601 416.404 148.819 391.041 148.519C335.133 147.86 267.347 192.736 235.829 250.016C234.379 252.653 233.008 255.312 231.718 257.996C216.275 290.172 214.948 320.873 228.212 342.048C239.066 359.523 259.012 369.305 284.375 369.605C340.264 370.299 408.055 325.442 439.568 268.143L439.544 268.13Z" fill="black"/>
<path d="M239.889 238.338C267.455 188.215 322.327 148.776 373.657 145.498C401.344 143.76 424.413 152.746 438.606 170.885C454.292 190.94 457.562 220.607 447.46 252.219C427.592 314.781 362.221 368.819 301.755 372.687C274.068 374.424 250.986 365.432 236.805 347.299C221.119 327.244 217.856 297.566 227.946 265.947C231.02 256.377 235.02 247.131 239.889 238.338ZM434.865 279.499C439.711 270.741 443.694 261.533 446.761 252.004C456.727 220.61 453.556 191.213 438.031 171.371C423.999 153.444 401.169 144.527 373.735 146.281C313.561 150.124 248.515 203.879 228.705 266.194C218.721 297.594 221.91 326.985 237.435 346.828C251.46 364.767 274.297 373.671 301.724 371.929C352.787 368.658 407.399 329.384 434.841 279.486L434.865 279.499Z" fill="black"/>
<path d="M242.587 227.314C266.09 184.58 309.773 150.894 355.392 144.613C384.583 140.618 410.462 148.312 428.158 166.311C446.617 185.084 454.103 212.612 449.245 243.839C439.439 306.907 381.477 365.097 320.027 373.559C290.825 377.548 264.957 369.86 247.261 351.861C228.802 333.088 221.316 305.56 226.174 274.333C228.869 257.824 234.423 241.913 242.587 227.314ZM432.155 290.516C440.274 275.984 445.803 260.148 448.493 243.719C453.317 212.751 445.895 185.442 427.623 166.864C410.095 149.035 384.515 141.414 355.519 145.393C310.15 151.641 266.673 185.148 243.288 227.669C235.169 242.202 229.64 258.037 226.949 274.466C222.138 305.441 229.547 332.743 247.826 351.339C265.365 369.175 290.939 376.778 319.941 372.818C365.293 366.545 408.77 333.038 432.155 290.516Z" fill="black"/>
<path d="M242.937 217.39C262.552 181.725 297.066 153.514 336.485 145.149C366.487 138.809 394.794 144.754 416.178 161.912C437.562 179.071 449.349 205.093 449.656 235.46C450.281 298.249 400.618 359.955 338.935 373.023C308.945 379.37 280.67 373.366 259.235 356.272C237.8 339.178 226.058 313.103 225.763 282.713C225.537 260.057 231.86 237.531 242.937 217.39ZM431.841 300.461C442.86 280.426 449.148 258.021 448.917 235.485C448.619 205.355 436.814 179.477 415.743 162.536C394.671 145.596 366.455 139.624 336.684 145.938C275.336 158.929 225.941 220.288 226.548 282.774C226.852 312.893 238.65 338.782 259.722 355.723C280.794 372.664 309.016 378.623 338.781 372.322C377.963 363.966 412.301 335.905 431.806 300.442L431.841 300.461Z" fill="black"/>
<path d="M240.846 209.238C256.905 180.038 284.004 156.694 317.157 147.151C347.102 138.527 377.328 142.304 402.3 157.765C426.764 172.916 443.221 197.574 448.653 227.181C459.94 288.91 419.367 353.394 358.244 371.027C328.317 379.645 298.085 375.881 273.119 360.407C248.656 345.257 232.192 320.61 226.767 290.991C221.59 262.744 227.281 233.903 240.846 209.238ZM433.898 308.563C447.378 284.052 453.032 255.391 447.897 227.32C442.47 197.901 426.174 173.455 401.893 158.42C377.111 143.063 347.095 139.325 317.37 147.885C256.611 165.363 216.279 229.548 227.516 290.864C232.95 320.271 249.245 344.717 273.52 359.764C298.297 375.103 328.312 378.84 358.037 370.281C390.988 360.796 417.93 337.597 433.898 308.563Z" fill="black"/>
<path d="M236.423 203.305C249.162 180.204 269.428 162.161 293.852 152.174C318.277 142.186 345.39 140.855 370.686 148.402C395.983 155.948 417.94 171.918 432.909 193.658C447.879 215.398 454.959 241.599 452.975 267.907C450.99 294.216 440.06 319.048 421.999 338.279C403.939 357.509 379.837 369.979 353.696 373.618C327.556 377.256 300.952 371.844 278.304 358.279C255.656 344.715 238.329 323.816 229.2 299.054C223.44 283.511 221.104 266.909 222.35 250.385C223.597 233.86 228.397 217.801 236.423 203.305ZM438.314 314.508C451.277 290.934 455.541 263.551 450.36 237.142C445.179 210.734 430.882 186.978 409.968 170.025C389.054 153.072 362.85 143.998 335.935 144.389C309.019 144.78 283.102 154.611 262.71 172.164C242.318 189.717 228.747 213.878 224.368 240.425C219.989 266.972 225.079 294.219 238.751 317.407C252.422 340.595 273.805 358.25 299.165 367.289C324.526 376.327 352.251 376.174 377.499 366.857C403.423 357.308 425.02 338.718 438.314 314.508Z" fill="black"/>
</g>
<defs>
<clipPath id="clip0_1911_4">
<rect width="330" height="309" fill="white" transform="translate(29)"/>
</clipPath>
<clipPath id="clip1_1911_4">
<rect width="269.827" height="252.656" fill="white" transform="translate(513.413 201.755) rotate(118.81)"/>
</clipPath>
</defs>
</svg>
