<svg width="820" height="666" viewBox="0 0 820 666" fill="none" xmlns="http://www.w3.org/2000/svg">
<path d="M169.838 499.491C211.16 453.455 266.584 424.704 324.426 404.864C381.963 385.175 441.756 373.469 500.456 357.979C557.239 342.993 613.611 323.667 662.466 290.28C685.901 274.089 707.444 255.316 726.688 234.315C749.069 210.171 768.006 183.129 789.361 158.062C832.289 107.574 882.117 63.3855 937.376 26.8011C944.477 22.1061 951.65 17.5259 958.895 13.0606C959.257 12.8344 958.85 12.2866 958.524 12.5108C902.313 47.2605 850.972 88.8958 806.393 137.735C794.957 150.298 783.931 163.193 773.313 176.422C762.816 189.525 752.874 202.971 742.093 215.805C722.846 238.732 701.634 260.095 677.876 278.321C630.44 314.803 574.478 336.721 517.292 352.766C458.779 369.182 398.939 380.542 340.935 398.803C284.298 416.619 228.636 441.573 185.042 482.894C179.584 488.065 174.363 493.472 169.34 499.065C169.046 499.385 169.545 499.829 169.839 499.509L169.838 499.491Z" fill="#B4B4B4"/>
<path d="M166.098 503.681C188.496 481.054 214.406 461.909 241.467 445.233C268.93 428.356 297.967 414.185 328.168 402.918C358.37 391.621 389.751 383.736 421.207 376.829C453.288 369.787 485.799 364.453 517.606 356.204C572.581 341.91 623.988 316.35 668.568 281.146C691.217 263.181 712.236 243.106 731.998 221.978C754.262 198.135 774.348 172.42 797.148 149.037C841.147 103.926 891.18 65.4365 943.993 31.1958C950.875 26.7336 957.78 22.3445 964.706 18.0285C965.077 17.8017 964.661 17.2456 964.335 17.4698C911.07 50.7013 859.906 87.5244 814.445 130.971C791.21 153.174 770.361 177.256 749.409 201.576C728.745 225.668 706.311 248.185 682.294 268.936C639.608 305.639 589.91 333.286 536.216 350.201C504.448 360.196 471.43 365.552 438.898 372.369C407.319 378.998 375.772 386.178 345.099 396.271C286.327 415.612 229.693 446.28 182.939 486.98C176.956 492.182 171.176 497.601 165.6 503.237C165.296 503.549 165.795 503.993 166.098 503.681Z" fill="#B4B4B4"/>
<path d="M162.358 507.875C186.94 485.363 214.68 465.916 242.611 447.761C269.467 430.302 297.7 414.281 327.445 402.18C356.562 390.33 387.321 382.802 418.104 376.755C450.067 370.444 482.641 367.131 514.414 359.849C543.985 353.069 572.211 340.636 598.623 325.845C621.661 312.909 643.081 297.461 663.212 280.4C685.333 261.635 706.41 241.485 726.846 220.907C749.97 197.568 771.535 172.731 795.669 150.351C842.492 106.996 895.5 70.8692 949.095 36.5653C956.209 31.9886 963.346 27.467 970.508 23.0005C970.869 22.7654 970.463 22.2177 970.137 22.4418C915.759 56.6481 861.609 92.0016 812.89 134.065C788.73 154.921 766.947 177.834 745.092 201.037C723.548 223.91 700.933 245.854 677.586 266.885C635.55 304.733 587.152 337.54 532.605 354.307C500.561 364.158 466.818 367.172 433.984 373.088C403.482 378.583 373.017 385.183 343.688 395.359C314.489 405.491 286.768 419.867 260.343 435.828C231.938 452.909 204.737 471.916 178.931 492.716C173.106 497.451 167.415 502.359 161.86 507.44C161.537 507.727 162.045 508.17 162.359 507.884L162.358 507.875Z" fill="#B4B4B4"/>
<path d="M158.555 512.096C184.569 490.58 212.841 471.531 240.538 452.265C267.137 433.768 294.734 415.401 324.477 402.175C352.977 389.539 383.593 382.154 414.175 376.815C429.612 374.071 445.135 371.829 460.743 370.087C477.202 368.242 493.716 366.716 509.994 363.605C540.009 357.861 567.906 344.671 593.877 328.897C615.968 315.472 636.19 299.378 655.362 282.096C677.835 261.847 699.559 240.696 721.377 219.789C745.903 196.306 769.395 171.767 795.614 150.106C844.893 109.384 900.03 76.1248 953.982 42.1216C961.445 37.4235 968.888 32.7177 976.309 28.0041C976.68 27.7774 976.308 27.2187 975.946 27.4449C921.102 62.2227 864.89 95.5623 813.333 135.166C787.696 154.857 764.5 176.808 741.478 199.427C718.455 222.046 694.745 244.357 671.164 266.58C651.697 284.932 631.657 302.782 609.577 317.939C585.156 334.739 557.73 350.053 529.168 358.381C497.199 367.683 463.325 368.42 430.589 373.42C400.649 377.981 370.712 384.131 342.165 394.413C312.935 404.94 286.013 421.082 260.188 438.151C232.205 456.648 204.701 476.17 177.81 496.246C171.16 501.192 164.609 506.274 158.22 511.562C157.897 511.83 158.268 512.389 158.592 512.12L158.555 512.096Z" fill="#B4B4B4"/>
<path d="M154.816 516.312C168.447 506.16 182.584 496.729 196.577 487.119C211.1 477.113 225.285 466.653 239.413 456.151C265.534 436.789 291.985 416.355 321.407 402.211C349.074 388.9 379.484 381.661 409.668 376.853C424.703 374.457 439.771 372.64 454.95 371.503C471.586 370.246 488.298 369.681 504.832 367.279C561.946 358.941 610.003 320.86 650.207 281.735C672.179 260.39 693.762 238.801 716.325 218.109C741.548 194.961 766.397 171.353 793.976 150.978C819.57 132.066 846.76 115.463 873.98 99.045C902.439 81.8416 931.084 64.922 959.352 47.3547C966.957 42.6246 974.549 37.8298 982.128 32.9703C982.19 32.9161 982.229 32.8416 982.24 32.7604C982.251 32.6793 982.231 32.5971 982.186 32.529C982.141 32.4608 982.072 32.4114 981.993 32.3898C981.915 32.3682 981.83 32.376 981.757 32.4116C952.681 50.9895 923.102 68.7397 893.523 86.4899C866.212 102.868 838.76 119.112 812.442 137.066C785.444 155.461 761.037 176.367 736.917 198.38C712.797 220.393 688.83 242.567 665.626 265.598C646.583 284.497 627.471 303.445 606.024 319.654C594.804 328.16 583.012 335.883 570.731 342.768C555.955 351.031 540.637 358.567 524.191 362.803C492.224 371.043 458.441 369.659 425.837 373.847C396.212 377.676 366.489 383.528 338.5 394.198C309.449 405.187 283.652 423.049 258.672 441.149C245.026 451.034 231.574 461.193 217.966 471.128C203.784 481.481 189.193 491.251 174.758 501.234C167.892 505.969 161.109 510.771 154.435 515.745C154.093 516.005 154.482 516.563 154.807 516.303L154.816 516.312Z" fill="#B4B4B4"/>
<path d="M151.076 520.5C164.963 511.217 179.183 502.442 193.088 493.176C207.914 483.304 222.14 472.645 236.141 461.633C261.386 441.795 286.08 419.82 314.34 404.28C341.364 389.426 372.288 382.264 402.545 377.631C417.267 375.378 432.134 373.626 447.005 372.578C463.779 371.385 480.63 371.838 497.398 370.556C513.968 369.249 530.437 366.02 545.555 358.898C559.316 352.367 572.499 344.684 584.963 335.929C606.899 320.611 625.944 301.9 644.351 282.511C665.788 259.93 687.276 237.632 710.551 216.917C736.595 193.757 762.964 170.81 792.148 151.637C819.07 133.942 847.649 118.972 875.868 103.479C905.88 87.0333 935.752 70.3373 964.92 52.4323C972.655 47.6888 980.334 42.8621 987.958 37.9524C988.32 37.7262 987.913 37.1696 987.587 37.4026C957.899 56.5069 927.372 74.2226 896.516 91.3416C868.296 106.969 839.657 121.836 811.999 138.386C782.961 155.765 756.691 176.1 731.054 198.112C706.216 219.435 682.251 241.501 659.704 265.244C640.858 285.078 622.418 305.442 601.17 322.79C589.894 331.996 577.908 340.297 565.324 347.615C549.781 356.645 533.829 364.173 516.05 367.424C499.368 370.504 482.361 370.604 465.456 371.056C449.94 371.462 434.521 372.774 419.107 374.629C389.619 378.209 359.833 383.752 332.236 395.015C303.713 406.644 279.329 426.414 255.419 445.416C241.767 456.283 228.119 467.229 214.091 477.618C200.063 488.006 185.476 497.374 170.846 506.762C164.108 511.088 157.37 515.432 150.702 519.888C150.666 519.912 150.635 519.943 150.611 519.98C150.587 520.016 150.57 520.057 150.562 520.099C150.553 520.142 150.554 520.186 150.562 520.229C150.571 520.271 150.588 520.312 150.612 520.348C150.637 520.384 150.668 520.415 150.704 520.439C150.741 520.463 150.781 520.48 150.824 520.488C150.867 520.496 150.911 520.496 150.953 520.487C150.996 520.479 151.037 520.462 151.073 520.437L151.076 520.5Z" fill="#B4B4B4"/>
<path d="M147.339 524.696C161.773 516.069 176.384 507.736 190.512 498.627C205.702 488.709 220.277 477.881 234.157 466.201C258.896 445.643 282.174 422.027 309.762 405.204C336.402 388.954 367.873 381.225 398.491 376.973C412.981 374.979 427.569 373.789 442.19 373.409C459.123 372.966 476.158 374.292 493.081 373.67C510.003 373.048 526.749 370.303 542.152 363.164C556.368 356.63 569.88 347.967 582.369 338.596C604.113 322.272 622.329 302.198 640.124 281.782C661.051 257.811 682.409 234.807 706.5 213.991C732.767 191.282 759.987 169.492 790.065 152.034C818.561 135.471 848.806 122.127 878.325 107.504C909.675 91.9902 940.558 75.6373 970.463 57.5202C978.281 52.7718 986.033 47.9082 993.718 42.9295C993.78 42.8753 993.819 42.8008 993.83 42.7197C993.841 42.6386 993.821 42.5563 993.776 42.4882C993.731 42.4201 993.662 42.3706 993.583 42.3491C993.505 42.3275 993.421 42.3352 993.347 42.3708C963.045 61.9747 931.545 79.6932 899.42 96.1625C870.328 111.073 840.49 124.491 811.479 139.558C796.47 147.274 781.896 155.808 767.821 165.12C753.213 174.891 739.562 185.784 725.966 196.844C700.599 217.519 676.666 239.512 654.917 263.941C636.695 284.372 619.465 305.764 598.997 324.094C574.62 345.97 544.706 366.417 511.751 371.331C495.035 373.825 478.099 373.135 461.272 372.779C445.814 372.414 430.348 372.951 414.952 374.387C385.206 377.206 355.061 383.01 327.622 395.165C299.251 407.723 276.042 429.281 252.821 449.386C239.374 461.035 225.815 472.584 211.553 483.254C197.454 493.798 182.487 503.08 167.36 512.06C160.561 516.104 153.74 520.086 146.95 524.139C146.588 524.356 146.95 524.915 147.321 524.697L147.339 524.696Z" fill="#B4B4B4"/>
<path d="M143.602 528.884C158.566 520.941 173.559 513.031 187.945 504.059C203.027 494.523 217.33 483.808 230.719 472.014C255.55 450.415 277.722 424.668 305.145 406.212C330.687 389.035 361.957 381.076 392.123 377.02C406.859 375.053 421.706 374.031 436.573 373.957C453.251 373.885 469.823 375.845 486.481 376.212C503.14 376.578 520.09 375.053 535.742 368.81C550.913 362.765 565.116 353.08 577.924 343.048C599.954 325.797 617.632 304.281 634.974 282.526C655.08 257.318 676.08 233.53 700.699 212.577C727.48 189.821 755.843 168.651 787.156 152.63C817.92 136.856 850.561 125.132 882.092 111.035C914.005 96.7646 945.298 81.0218 975.32 63.0763C983.482 58.195 991.547 53.1526 999.517 47.9492C999.578 47.895 999.618 47.8205 999.629 47.7394C999.639 47.6583 999.62 47.576 999.575 47.5079C999.53 47.4398 999.461 47.3903 999.382 47.3688C999.303 47.3472 999.219 47.3549 999.146 47.3905C967.734 67.6976 934.953 85.8028 901.038 101.576C870.487 115.955 838.941 127.928 808.18 141.757C792.697 148.637 777.665 156.488 763.172 165.264C748.387 174.304 734.504 184.72 720.849 195.381C694.596 215.858 670.501 238.298 649.179 263.934C631.263 285.499 614.816 308.371 594.5 327.79C569.941 351.31 539.599 372.237 504.91 375.083C488.13 376.473 471.338 374.722 454.593 373.781C439.435 372.968 424.239 373.209 409.114 374.501C379.473 376.975 349.224 382.839 322.24 395.762C294.561 409.02 272.899 432.016 250.85 452.784C237.663 465.213 224.173 477.355 209.723 488.313C195.504 499.096 180.176 508.31 164.553 516.899C157.486 520.78 150.349 524.549 143.222 528.326C142.85 528.526 143.221 529.085 143.593 528.885L143.602 528.884Z" fill="#B4B4B4"/>
<path d="M139.784 533.112C154.81 526.076 169.742 518.821 183.986 510.313C199.471 500.968 214.001 490.125 227.365 477.938C252.042 455.67 272.712 428.653 299.209 408.376C323.48 389.755 354.764 381.269 384.588 377.161C399.438 375.124 414.418 374.168 429.407 374.301C446.373 374.426 463.038 376.916 479.896 378.262C496.475 379.579 513.34 379.344 529.293 374.155C545.561 368.858 560.419 358.466 573.628 347.795C596.105 329.634 613.198 306.662 630.091 283.46C649.488 256.802 670.124 231.965 695.446 210.667C723.536 187.077 753.86 166.008 787.514 151.28C819.324 137.381 852.839 127.82 885.113 114.832C918.009 101.771 949.872 86.2418 980.428 68.3772C988.852 63.4093 997.148 58.2346 1005.32 52.8531C1005.38 52.7989 1005.42 52.7244 1005.43 52.6433C1005.44 52.5622 1005.42 52.4799 1005.37 52.4118C1005.33 52.3437 1005.26 52.2942 1005.18 52.2727C1005.1 52.2511 1005.02 52.2588 1004.94 52.2944C973.212 72.9936 939.755 90.9201 904.945 105.875C873.442 119.524 840.847 129.888 808.762 141.955C792.372 148.001 776.432 155.202 761.06 163.503C745.412 172.102 730.756 182.437 716.486 193.125C689.59 213.273 665.41 235.95 644.83 262.534C627.072 285.438 611.47 310.109 591.127 330.922C579.774 342.523 567.109 352.762 553.388 361.434C536.838 371.897 519.521 377.728 499.852 378.25C482.092 378.733 464.531 375.732 446.885 374.343C432.398 373.294 417.853 373.348 403.374 374.503C374.401 376.661 344.747 382.456 318.612 395.562C290.795 409.506 270.322 434.236 248.926 456.118C236.201 469.136 222.987 481.717 208.583 492.851C194.461 503.771 178.996 512.922 163.097 521.062C155.341 525.081 147.478 528.785 139.569 532.482C139.187 532.656 139.402 533.295 139.784 533.112Z" fill="#B4B4B4"/>
<path d="M136.045 537.3C151.801 530.855 167.356 523.885 182.079 515.322C197.661 506.179 212.139 495.272 225.228 482.819C249.777 459.736 269.047 431.193 294.835 409.476C318.663 389.355 350.893 380.564 381.301 376.672C396.302 374.76 411.431 374.046 426.546 374.537C443.41 375.078 459.878 378.169 476.582 380.246C493.07 382.301 509.974 382.903 526.08 378.178C542.886 373.243 557.901 362.476 571.141 351.276C593.436 332.421 609.554 308.487 625.518 284.34C634.217 271.171 643.111 258.125 653.096 245.891C664.605 231.903 677.445 219.066 691.436 207.56C719.963 183.962 751.276 163.631 786.032 150.668C819.459 138.194 854.503 130.829 888.133 118.771C922.164 106.676 955.007 91.4712 986.248 73.3504C994.675 68.4299 1002.96 63.2707 1011.1 57.8728C1011.16 57.8186 1011.2 57.7441 1011.21 57.663C1011.23 57.5818 1011.21 57.4996 1011.16 57.4315C1011.12 57.3633 1011.05 57.3139 1010.97 57.2923C1010.89 57.2708 1010.81 57.2785 1010.73 57.3141C978.664 78.3716 944.527 96.0954 908.854 110.209C875.878 123.398 841.751 132.102 807.904 142.575C790.774 147.713 774.086 154.224 758.003 162.045C742.013 169.995 727.026 180.001 712.555 190.451C684.65 210.595 660.158 233.897 640.035 261.882C623.034 285.528 608.747 311.203 589.135 332.902C577.886 345.331 565.07 356.246 551.009 365.373C534.817 376.152 515.687 381.657 496.243 381.135C478.497 380.796 461.109 376.92 443.514 375.01C429.284 373.566 414.96 373.296 400.687 374.203C371.082 375.915 340.499 381.719 314.117 395.785C286.549 410.491 267.499 436.683 246.968 459.47C234.52 473.266 221.367 486.434 206.734 497.928C191.896 509.595 175.398 518.949 158.33 526.933C150.926 530.396 143.4 533.599 135.84 536.696C135.439 536.862 135.654 537.492 136.046 537.327L136.045 537.3Z" fill="#B4B4B4"/>
<path d="M132.316 541.497C148.531 535.748 164.474 529.149 179.499 520.72C195.576 511.603 210.367 500.386 223.483 487.365C247.385 463.9 265.181 435.014 289.285 411.806C311.826 390.116 344.23 380.637 374.513 376.601C389.827 374.575 405.288 373.899 420.72 374.579C437.479 375.306 453.674 378.609 470.141 381.539C486.942 384.521 504.272 386.464 521.076 382.555C538.778 378.443 554.125 367.55 567.647 355.825C590.241 336.283 605.655 311.292 620.802 285.978C629.086 272.111 637.574 258.383 647.391 245.552C658.303 231.351 670.752 218.4 684.51 206.935C713.334 182.784 745.946 162.377 781.806 150.761C817.019 139.362 853.935 134.424 889.252 123.303C924.716 112.229 958.869 97.3309 991.111 78.871C999.887 73.8113 1008.49 68.4702 1016.92 62.8475C1016.98 62.7977 1017.03 62.7233 1017.05 62.6398C1017.06 62.5564 1017.04 62.4702 1017 62.3993C1016.95 62.3284 1016.88 62.2782 1016.8 62.2592C1016.71 62.2402 1016.63 62.2538 1016.55 62.2972C983.83 83.9285 948.657 101.603 911.77 114.95C894.857 121.149 877.627 126.448 860.153 130.824C841.956 135.34 823.545 138.922 805.364 143.41C786.733 147.919 768.567 154.17 751.106 162.079C735.453 169.232 720.692 179.136 706.673 189.051C678.514 208.986 654.443 232.603 635.311 261.379C618.619 286.515 605.329 313.989 585.54 336.948C574.255 350.007 561.159 361.383 546.651 370.731C529.211 382.004 509.532 385.428 489.063 383.541C471.664 381.933 454.783 377.268 437.429 375.202C423.138 373.579 408.734 373.197 394.377 374.059C364.671 375.715 333.74 381.824 307.837 397.077C281.078 412.816 263.657 440.467 244.129 463.785C232.241 477.995 219.406 491.403 204.883 502.962C189.721 515.041 172.611 524.465 154.798 532.056C147.325 535.255 139.726 538.14 132.1 540.849C132.023 540.883 131.961 540.945 131.927 541.022C131.893 541.099 131.889 541.186 131.916 541.267C131.943 541.347 131.999 541.414 132.073 541.455C132.147 541.496 132.233 541.507 132.315 541.488L132.316 541.497Z" fill="#B4B4B4"/>
<path d="M128.577 545.684C163.903 535.019 195.97 518.32 221.93 491.702C245.522 467.515 261.886 437.48 285.109 413.073C306.982 390.03 339.923 380.1 370.605 376.165C386.092 374.187 401.731 373.68 417.313 374.651C434.285 375.65 450.474 379.471 466.992 383.112C483.69 386.788 500.99 389.616 517.999 386.312C536.075 382.803 551.355 371.994 564.906 359.99C588.23 339.335 602.972 312.598 617.571 285.54C625.238 271.342 633.188 257.262 642.677 244.155C653.403 229.339 665.947 215.929 680.015 204.24C709.347 179.747 743.037 159.635 780.103 149.717C817.018 139.834 855.417 137.381 892.313 127.16C928.598 117.201 963.504 102.769 996.229 84.1973C1005.27 79.051 1014.1 73.5804 1022.73 67.7852C1022.8 67.7311 1022.84 67.6565 1022.85 67.5754C1022.86 67.4943 1022.84 67.4121 1022.79 67.3439C1022.75 67.2758 1022.68 67.2264 1022.6 67.2048C1022.52 67.1832 1022.44 67.1909 1022.36 67.2266C988.869 89.5429 952.513 107.231 914.282 119.811C897.161 125.514 879.706 130.16 862.015 133.723C842.603 137.587 823.002 140.05 803.588 143.744C784.528 147.372 765.654 152.373 747.793 160.065C731.734 166.983 716.428 176.722 702.088 186.647C673.604 206.351 649.679 230.201 631.471 259.816C615.15 286.278 603.081 315.404 583.432 339.711C572.318 353.466 559.098 365.376 544.264 375.001C526.789 386.285 506.681 388.778 486.398 386.087C468.772 383.652 451.798 378.127 434.285 375.65C419.762 373.645 405.082 373 390.439 373.724C360.733 375.085 329.599 381.224 304.004 397.021C276.987 413.695 260.815 443.192 241.791 467.668C230.319 482.425 217.659 496.252 203.068 508.011C187.965 520.194 170.731 529.465 152.731 536.62C144.746 539.759 136.607 542.551 128.387 545.035C127.975 545.157 128.19 545.787 128.602 545.665L128.577 545.684Z" fill="#B4B4B4"/>
<path d="M124.833 549.872C161.095 540.724 193.993 524.04 219.834 496.599C243.573 471.394 258.575 439.742 281.355 413.844C302.509 389.789 335.722 379.459 366.553 375.65C382.485 373.671 398.578 373.338 414.578 374.657C431.133 376.02 446.872 380.09 462.878 384.305C480.1 388.861 498.109 392.817 515.991 389.802C534.156 386.743 549.298 376.022 562.69 363.894C586.61 342.133 600.521 313.829 614.431 285.203C621.402 270.85 628.72 256.636 637.646 243.374C648.366 227.485 661.31 213.216 676.083 201.004C705.763 176.357 740.37 156.656 778.267 148.466C797.952 144.212 818.048 142.595 838.05 140.447C857.329 138.439 876.453 135.601 895.319 131.083C932.675 122.14 968.6 108.028 1002.05 89.1531C1011.09 84.0427 1019.91 78.5849 1028.51 72.7796C1028.87 72.5356 1028.46 71.979 1028.15 72.2205C994.289 94.9375 957.229 112.469 918.192 124.235C899.894 129.808 881.208 134.022 862.289 136.84C842.412 139.775 822.368 141.06 802.43 143.712C782.785 146.33 762.643 150.236 744.347 157.988C728.125 164.844 712.698 173.894 698.138 183.725C683.389 193.682 669.284 204.896 657.038 217.85C645.262 230.304 635.414 244.45 627.002 259.342C611.536 286.692 600.869 316.754 581.745 341.968C570.749 356.475 557.11 369.572 541.604 379.261C523.516 390.598 502.707 391.909 482.133 388.056C464.549 384.789 447.666 378.545 429.967 375.766C415.455 373.537 400.761 372.728 386.092 373.35C356.223 374.516 324.686 380.785 299.353 397.415C272.698 414.934 257.941 445.75 239.773 470.98C228.595 486.497 215.987 500.918 201.15 513.058C185.706 525.662 167.849 534.978 149.149 541.754C141.093 544.649 132.896 547.137 124.589 549.208C124.167 549.313 124.382 549.943 124.804 549.838L124.833 549.872Z" fill="#B4B4B4"/>
<path d="M121.101 554.063C158.51 546.383 192.469 529.513 218.28 500.949C241.768 474.947 255.389 442.25 277.24 415.111C297.534 389.91 330.967 379.077 362.018 375.21C378.346 373.181 394.849 372.968 411.224 374.578C427.606 376.183 443.054 380.466 458.752 385.217C475.889 390.473 493.772 395.49 511.889 393.46C530.512 391.366 545.834 381.134 559.418 368.772C583.821 346.564 597.197 317.496 610.069 287.744C616.676 272.501 623.555 257.349 632.341 243.211C642.573 226.772 655.326 212.044 670.133 199.566C684.868 187.224 700.861 176.468 717.85 167.477C736.081 157.526 755.833 150.659 776.306 147.155C796.583 143.741 817.136 143.222 837.65 142.196C857.398 141.205 877.007 139.339 896.409 135.459C935.409 127.627 972.941 113.735 1007.64 94.2865C1016.76 89.1714 1025.65 83.6737 1034.31 77.7935C1034.37 77.7393 1034.41 77.6648 1034.42 77.5836C1034.43 77.5025 1034.41 77.4203 1034.37 77.3522C1034.32 77.284 1034.26 77.2346 1034.18 77.213C1034.1 77.1915 1034.01 77.1992 1033.94 77.2348C999.191 100.683 960.803 118.225 920.331 129.148C901.34 134.333 881.944 137.903 862.352 139.821C841.723 141.791 820.977 141.893 800.332 143.578C780.219 145.223 759.158 148.209 740.355 155.973C723.475 163.05 707.342 171.79 692.194 182.063C677.075 192.265 662.611 203.911 650.473 217.662C639.112 230.493 629.81 244.973 622.035 260.222C607.403 288.88 597.913 320.311 578.622 346.49C567.578 361.41 553.306 375.748 536.942 384.799C518.606 394.937 498.07 394.661 478.182 389.983C460.989 385.944 444.536 379.247 427.173 376.109C412.548 373.538 397.696 372.485 382.855 372.97C352.397 373.839 319.907 380.288 294.572 398.114C268.577 416.416 255.342 448.064 238.258 473.829C227.175 490.536 214.314 505.989 198.743 518.699C183.171 531.408 164.836 540.635 145.715 546.918C137.58 549.565 129.299 551.743 120.913 553.44C120.49 553.527 120.705 554.158 121.128 554.071L121.101 554.063Z" fill="#B4B4B4"/>
<path d="M117.285 558.271C155.266 552.156 190.049 535.497 215.716 506.432C239.423 479.605 251.759 445.671 272.719 417.03C292.38 390.143 326.251 378.544 358.132 374.665C374.65 372.662 391.346 372.595 407.88 374.465C424.5 376.333 440.042 381.003 455.805 386.42C472.853 392.279 490.645 398.194 508.921 396.914C528.203 395.567 543.951 385.284 557.72 372.429C582.629 349.237 595.112 318.775 607.103 287.681C613.15 272.015 619.514 256.437 627.962 241.846C637.727 224.993 650.279 209.916 665.083 197.258C680.068 184.581 696.467 173.677 713.954 164.763C722.403 160.349 731.122 156.473 740.059 153.158C750.889 149.193 762.586 147.115 773.99 145.679C795.132 143.019 816.449 143.678 837.698 143.779C858.631 143.836 879.421 142.803 900.077 139.278C939.331 132.565 977.183 119.319 1012.06 100.089C1021.7 94.7705 1031.08 89.0068 1040.18 82.7977C1040.53 82.5542 1040.13 81.997 1039.81 82.239C1004.44 106.229 965.057 123.669 923.524 133.727C903.831 138.557 883.725 141.513 863.475 142.556C842.327 143.583 821.164 142.486 800.01 143.085C779.514 143.664 757.896 145.655 738.548 152.96C721.353 159.568 704.927 168.027 689.56 178.188C673.959 188.373 659.086 200.202 646.808 214.301C635.257 227.554 626.024 242.61 618.561 258.483C604.852 287.65 596.861 319.539 578.833 346.573C568.083 362.708 553.6 378.049 536.705 387.783C518.151 398.469 497.155 397.791 477.066 392.428C459.669 387.794 443.124 380.272 425.47 376.58C410.793 373.585 395.832 372.214 380.856 372.493C350.132 372.923 317.132 379.205 291.693 397.394C265.122 416.39 253.12 449.609 236.621 476.527C226.379 493.266 214.299 508.781 199.395 521.63C183.608 535.245 164.889 544.923 145.041 551.14C135.944 553.961 126.654 556.121 117.246 557.604C116.822 557.673 116.86 558.34 117.285 558.271Z" fill="#B4B4B4"/>
<path d="M113.536 562.46C152.815 557.796 188.948 540.72 214.656 510.198C238.043 482.461 248.883 447.524 269.111 417.793C288.243 389.633 323.019 377.633 355.465 373.963C372.244 372.062 389.193 372.227 405.932 374.453C422.914 376.71 438.591 382.025 454.553 388.09C471.073 394.409 488.401 400.797 506.449 400.19C526.172 399.522 542.207 389.259 556.15 376.019C581.465 351.982 593.09 320.275 604.069 288.035C609.808 271.218 615.918 254.468 624.522 238.886C634.076 221.632 646.687 206.258 661.741 193.516C677.434 180.346 694.738 169.225 713.237 160.422C721.508 156.393 730.037 152.918 738.769 150.02C749.728 146.44 761.517 144.866 772.978 143.953C794.727 142.213 816.49 144.114 838.209 145.241C859.696 146.372 880.994 146.256 902.308 143.318C942.812 137.693 981.949 124.722 1017.79 105.041C1027.44 99.7228 1036.8 93.966 1045.87 87.7709C1045.94 87.7217 1045.99 87.6455 1046.01 87.5592C1046.02 87.4728 1046 87.3834 1045.96 87.3105C1045.91 87.2376 1045.83 87.1872 1045.74 87.1704C1045.66 87.1537 1045.57 87.1719 1045.5 87.2211C1009.34 111.897 968.725 129.311 925.923 138.498C906.122 142.812 885.932 145.095 865.668 145.312C843.685 145.468 821.806 143.128 799.838 142.622C778.604 142.146 756.243 143.181 736.014 150.224C718.749 156.348 702.248 164.443 686.838 174.347C670.859 184.491 655.565 196.452 643.137 210.89C631.311 224.641 622.137 240.39 614.975 257.004C601.771 287.65 595.094 321.114 577.03 349.543C566.398 366.331 551.367 382.82 533.648 392.217C514.984 402.222 494.23 400.495 474.649 394.497C457.511 389.24 441.278 381.253 423.8 377.061C408.782 373.575 393.404 371.879 377.987 372.008C347.048 372.102 313.594 378.411 288.211 397.096C261.46 416.834 250.74 451.237 235.005 479.174C225.291 496.4 213.623 512.4 198.82 525.6C182.447 540.203 162.655 550.318 141.596 556.267C132.411 558.846 123.036 560.693 113.559 561.789C113.132 561.814 113.172 562.508 113.598 562.456L113.536 562.46Z" fill="#B4B4B4"/>
<path d="M109.798 566.687C150.347 563.449 187.886 545.988 213.561 513.968C236.537 485.309 245.974 449.391 265.377 418.672C283.889 389.37 319.193 376.92 352.19 373.361C369.354 371.51 386.686 371.885 403.754 374.475C420.924 377.052 436.652 382.934 452.621 389.588C468.965 396.399 486.069 403.389 504.056 403.429C524.132 403.463 540.502 393.287 554.553 379.756C580.131 355.025 590.96 322.499 600.91 289.292C606.15 271.86 611.649 254.45 619.965 238.206C629.002 220.416 641.399 204.544 656.472 191.467C672.541 177.751 690.431 166.324 709.631 157.51C718.269 153.445 727.18 149.992 736.301 147.175C747.765 143.683 760.129 142.495 772.064 142.063C794.689 141.254 817.14 144.409 839.584 146.654C860.843 148.79 882.059 149.553 903.348 147.429C945.162 143.094 985.711 130.555 1022.67 110.528C1032.66 105.133 1042.36 99.2093 1051.72 92.7818C1052.07 92.5383 1051.67 91.9812 1051.34 92.2231C1014.07 117.787 971.823 135.215 927.364 143.371C906.626 147.237 885.52 148.757 864.442 147.903C842.511 146.949 820.801 143.51 798.944 141.99C777.258 140.495 754.417 140.647 733.536 147.362C715.504 153.325 698.288 161.517 682.286 171.748C665.856 181.963 650.383 194.22 638.092 209.176C626.46 223.336 617.683 239.49 611.056 256.537C598.624 288.496 593.285 323.346 575.174 352.947C564.818 369.879 549.913 386.709 532.141 395.958C513.08 405.897 491.928 403.291 472.275 396.52C455.372 390.696 439.42 382.167 422.087 377.556C406.814 373.601 391.104 371.58 375.326 371.54C343.778 371.285 309.318 377.634 283.855 397.423C257.086 418.223 247.767 454.17 232.623 483.072C223.348 500.781 211.838 517.201 196.952 530.656C180.455 545.579 160.268 555.663 138.802 561.216C129.297 563.651 119.596 565.252 109.812 565.999C109.734 566.016 109.664 566.061 109.616 566.125C109.567 566.189 109.543 566.268 109.548 566.349C109.553 566.429 109.586 566.505 109.641 566.563C109.696 566.621 109.771 566.657 109.851 566.666L109.798 566.687Z" fill="#B4B4B4"/>
<path d="M106.063 570.846C147.282 569.166 185.901 551.697 211.51 518.86C234.776 489.041 242.78 451.654 261.689 419.49C279.687 388.861 315.893 375.967 349.59 372.616C367.137 370.867 384.841 371.506 402.217 374.517C419.511 377.533 435.171 383.946 451.092 391.147C467.756 398.707 485.39 406.532 504.056 406.577C524.105 406.622 540.375 396.104 554.127 382.34C580.199 356.26 589.69 321.91 598.755 287.299C603.52 269.065 608.76 250.875 617.207 233.954C626.334 215.627 639.154 199.387 654.863 186.256C671.446 172.516 689.946 161.271 709.778 152.875C718.387 149.106 727.273 146.005 736.358 143.6C748.011 140.605 760.536 140.041 772.531 140.177C795.753 140.449 818.638 144.909 841.563 148.233C862.85 151.313 884.15 152.91 905.644 151.399C948.198 148.42 990.167 135.933 1027.77 115.872C1038.02 110.39 1047.95 104.33 1057.51 97.7191C1057.57 97.665 1057.61 97.5904 1057.62 97.5093C1057.64 97.4282 1057.62 97.3459 1057.57 97.2778C1057.53 97.2097 1057.46 97.1602 1057.38 97.1387C1057.3 97.1171 1057.22 97.1248 1057.14 97.1604C1019.04 123.448 975.504 140.825 929.77 148.005C908.448 151.395 886.796 152.207 865.28 150.423C842.811 148.518 820.682 143.836 798.282 141.276C777.051 138.854 754.351 137.873 733.595 143.679C715.071 148.856 697.321 157.086 680.883 167.007C664.237 177.047 648.358 189.221 635.823 204.137C623.509 218.836 614.534 235.894 608.024 253.89C596.126 286.906 592.269 322.831 574.941 353.788C564.761 371.907 549.374 390.13 530.582 399.634C511.019 409.53 489.616 405.984 469.945 398.447C453.286 392.055 437.593 383.074 420.423 378.024C405.079 373.642 389.224 371.3 373.268 371.059C341.265 370.349 306.031 376.599 280.388 396.96C253.288 418.521 245.23 455.743 230.832 485.655C221.869 504.292 210.403 521.646 195.041 535.655C178.372 550.856 157.865 560.941 135.966 566.117C126.135 568.405 116.108 569.75 106.021 570.134C105.943 570.151 105.874 570.196 105.825 570.26C105.777 570.324 105.753 570.404 105.757 570.484C105.762 570.564 105.795 570.64 105.85 570.698C105.906 570.756 105.98 570.793 106.06 570.801L106.063 570.846Z" fill="#B4B4B4"/>
<path d="M102.323 575.035C144.754 574.857 184.821 556.964 210.376 522.586C233.565 491.425 239.847 452.512 258.643 419.159C276.304 387.791 313.516 374.856 347.51 371.863C364.924 370.316 382.469 371.175 399.649 374.417C417.573 377.843 433.559 384.951 449.87 392.879C466.18 400.808 483.31 409.019 501.72 409.731C522.357 410.518 539.146 399.881 553.117 385.577C579.525 358.532 588.013 323.026 596.087 287.33C600.352 268.473 605.071 249.608 613.301 232.031C622.13 213.13 634.994 196.394 650.987 183.001C667.695 169.173 686.411 157.969 706.492 149.774C715.364 146.04 724.519 143.018 733.87 140.737C745.545 137.955 757.965 137.728 769.91 138.242C793.237 139.24 816.021 144.589 838.858 149.007C861.262 153.352 883.725 156.23 906.58 155.417C950.66 153.813 994.432 141.633 1033.36 120.994C1043.7 115.508 1053.7 109.413 1063.32 102.74C1063.67 102.497 1063.27 101.94 1062.95 102.181C1023.68 129.388 978.434 146.734 931.043 152.752C908.817 155.625 886.312 155.588 864.095 152.644C841.385 149.495 819.153 143.81 796.521 140.317C775.376 137.078 752.692 135.293 731.737 140.584C712.445 145.448 693.932 153.758 676.857 163.93C659.781 174.102 643.749 186.41 631.305 201.812C619.511 216.409 611.023 233.225 605.06 250.966C593.324 285.856 591.112 323.837 573.491 356.667C563.395 375.468 547.45 394.848 527.733 403.942C508.26 412.931 487.27 408.505 468.275 400.606C451.575 393.664 435.945 384.063 418.681 378.484C403.421 373.73 387.584 371.082 371.608 370.612C338.994 369.375 302.726 375.489 276.802 396.705C249.461 419.047 242.668 457.454 229.047 488.312C220.517 507.647 209.296 525.666 193.784 540.183C176.706 556.175 155.276 566.51 132.443 571.276C122.517 573.316 112.41 574.352 102.276 574.369C101.849 574.393 101.886 575.043 102.314 575.036L102.323 575.035Z" fill="#B4B4B4"/>
<path d="M98.585 579.231C142.156 580.558 183.779 562.254 209.207 526.286C231.954 494.114 236.847 454.345 254.906 419.981C272.073 387.329 310.17 373.942 344.907 371.156C362.71 369.715 380.627 370.84 398.109 374.496C415.792 378.23 431.459 385.669 447.433 393.957C463.888 402.537 481.284 411.635 500.159 412.828C521.103 414.151 538.209 403.424 552.23 388.751C579.16 360.542 586.528 323.593 593.628 286.623C597.352 267.226 601.6 247.782 609.629 229.654C618.397 209.8 631.723 192.293 648.525 178.555C665.695 164.654 684.956 153.557 705.594 145.674C715.132 141.86 725.013 138.969 735.102 137.041C747.108 134.901 759.832 135.129 771.935 136.214C795.369 138.303 818.045 144.873 840.836 150.347C863.239 155.736 885.761 159.485 908.858 159.301C953.518 158.94 998.108 147.337 1037.68 126.75C1048.56 121.075 1059.05 114.704 1069.11 107.679C1069.47 107.435 1069.06 106.878 1068.75 107.12C1028.84 134.891 982.55 152.122 934.193 157.21C911.4 159.651 888.378 158.9 865.792 154.981C842.761 150.905 820.383 143.943 797.465 139.351C775.982 135.051 752.778 132.457 731.147 137.172C711.385 141.474 692.352 149.591 674.87 159.679C657.389 169.768 640.398 182.479 627.639 198.453C615.563 213.584 607.118 231.138 601.545 249.606C590.537 285.82 589.806 325.17 572.287 359.297C562.445 378.494 546.431 398.521 526.34 407.475C506.59 416.303 485.496 411.159 466.655 402.698C449.914 395.196 434.392 384.991 416.967 378.939C401.469 373.696 385.299 370.706 368.952 370.06C336.076 368.471 299.325 374.551 273.346 396.208C260.318 407.065 252.73 421.24 246.551 436.789C239.39 454.787 234.244 473.525 226.946 491.476C218.914 511.247 208.014 529.737 192.531 544.601C175.051 561.357 152.761 571.947 129.02 576.275C118.972 578.078 108.763 578.821 98.5601 578.492C98.1305 578.472 98.1691 579.139 98.5987 579.159L98.585 579.231Z" fill="#B4B4B4"/>
<path d="M94.8454 583.417C139.01 586.217 181.791 568.025 207.186 531.175C230.456 497.411 233.478 455.679 251.703 419.708C268.524 386.47 307.282 372.946 342.294 370.43C360.484 369.093 378.773 370.487 396.55 374.566C414.499 378.722 430.176 386.812 446.166 395.678C462.764 404.884 480.435 414.725 499.762 416.026C520.237 417.403 537.01 406.945 550.681 392.551C578.447 363.365 584.882 324.926 590.97 286.685C594.135 266.865 597.789 247.018 605.449 228.385C613.673 208.143 626.734 190.225 643.488 176.201C660.847 161.675 681.125 150.398 702.283 142.453C712.095 138.678 722.251 135.867 732.608 134.059C744.897 132.027 757.888 132.864 770.188 134.429C794.242 137.5 817.366 145.026 840.642 151.48C863.319 157.755 886.175 162.493 909.745 163.085C955.85 164.238 1002.35 152.97 1043.26 131.798C1054.22 126.113 1064.8 119.698 1074.91 112.598C1075.26 112.355 1074.86 111.797 1074.54 112.048C1033.65 140.639 985.87 157.801 936.133 161.763C912.475 163.637 888.67 162.059 865.466 157.077C841.966 151.993 819.192 144.045 795.73 138.539C774.13 133.451 750.596 129.787 728.607 134.174C708.313 138.222 688.742 146.298 670.825 156.573C653.07 166.721 636.135 179.465 623.516 195.699C611.486 211.166 603.356 229.077 598.179 247.906C587.857 285.472 588.601 326.112 571.308 361.681C561.739 381.424 545.552 402.157 524.97 411.122C504.945 419.823 483.788 413.897 465.06 404.912C448.001 396.706 432.19 385.678 414.318 379.143C398.862 373.648 382.685 370.444 366.302 369.63C333.166 367.709 295.91 373.702 269.878 395.835C256.615 407.107 249.174 421.81 243.296 437.939C236.472 456.667 231.82 476.09 224.842 494.782C217.189 515.236 206.444 534.404 190.657 549.714C172.858 566.971 149.864 577.583 125.468 581.404C115.327 582.969 105.046 583.42 94.8068 582.75C94.3767 582.721 94.4242 583.388 94.8454 583.417Z" fill="#B4B4B4"/>
<path d="M91.0179 587.602C135.238 591.819 178.782 574.323 204.337 537.312C228.394 502.485 230.171 459.299 247.45 421.625C263.393 386.785 302.538 372.4 338.413 369.843C357.02 368.489 375.723 370.032 393.856 374.419C412.153 378.894 427.929 387.452 444.052 396.926C460.61 406.679 478.248 417.191 497.764 419.123C518.41 421.151 535.467 410.971 549.246 396.42C563.024 381.869 572.536 364.083 578.202 344.922C583.868 325.762 585.991 305.824 588.561 286.075C591.237 265.526 594.451 244.847 602.016 225.496C610.166 204.527 623.606 186.025 641.029 171.792C658.848 157.204 679.702 146.01 701.4 138.444C711.521 134.788 722.004 132.222 732.67 130.789C745.449 129.22 758.834 130.695 771.464 132.865C795.571 137.022 818.609 145.526 841.831 152.894C864.742 160.137 887.935 165.766 912.007 166.998C958.645 169.352 1006 158.714 1047.58 137.565C1059.1 131.721 1070.18 125.061 1080.75 117.635C1081.1 117.391 1080.7 116.834 1080.37 117.076C1038.59 146.373 989.444 163.403 938.49 166.243C914.795 167.56 891.035 165.345 867.991 159.672C844.115 153.797 821.147 144.799 797.476 138.171C775.612 132.045 751.463 127.025 728.735 130.669C708.229 133.988 688.36 141.689 670.144 151.579C651.462 161.746 633.518 174.797 620.342 191.733C608.053 207.51 600.006 225.933 595.071 245.239C585.191 284.128 587.616 326.054 570.761 363.177C561.572 383.461 545.573 404.835 524.78 414.151C504.432 423.29 482.842 416.836 463.973 407.261C446.982 398.676 431.383 387.145 413.637 380.013C398.156 373.768 381.515 370.456 364.905 369.23C331.137 366.72 292.801 372.562 266.399 395.394C253.223 406.778 245.938 421.569 240.423 437.793C234.005 456.757 229.902 476.407 223.602 495.408C216.45 516.966 206.098 537.362 189.936 553.586C172.01 571.582 148.513 582.607 123.444 586.208C112.747 587.72 101.909 587.954 91.1562 586.907C90.7345 586.869 90.5937 587.519 91.0159 587.566L91.0179 587.602Z" fill="#B4B4B4"/>
<path d="M87.2769 591.793C133.13 597.548 178.696 579.204 203.977 539.763C227.087 503.697 227.169 459.743 244.191 421.352C259.942 385.818 299.991 371.309 336.315 369.101C354.999 367.936 373.749 369.731 391.872 374.42C410.124 379.193 425.748 388.063 441.653 397.942C458.392 408.327 476.226 419.765 496.208 422.206C517.378 424.793 534.916 414.29 548.849 399.168C577.687 367.849 581.947 326.688 586.05 286.214C588.199 265.044 590.864 243.682 598.207 223.586C605.988 202.059 619.44 183.033 637.142 168.521C654.883 153.964 675.691 142.906 697.361 135.485C707.98 131.722 718.98 129.137 730.163 127.777C742.978 126.349 756.298 128.095 768.892 130.562C794.17 135.517 818.152 145.385 842.364 153.981C865.747 162.268 889.479 168.893 914.304 170.786C961.917 174.414 1010.59 164.19 1053.16 142.725C1064.75 136.854 1075.9 130.138 1086.51 122.632C1086.86 122.38 1086.47 121.823 1086.14 122.074C1043.58 152.007 993.214 168.895 941.208 170.676C916.096 171.513 891.012 168.349 866.896 161.3C843.074 154.36 820.219 144.543 796.572 137.083C773.843 129.91 748.808 124.066 724.883 127.842C704.336 131.065 684.379 138.637 666.125 148.494C647.299 158.651 629.246 171.816 616.217 188.993C603.694 205.48 595.856 224.748 591.398 244.892C582.559 284.961 586.295 327.954 569.567 366.194C560.581 386.743 544.528 408.575 523.46 417.756C502.835 426.741 481.128 419.499 462.41 409.434C445.349 400.263 429.788 388.159 411.941 380.516C396.181 373.778 379.11 370.125 362.07 368.727C328.359 365.964 290.074 371.606 263.585 394.328C234.309 419.469 232.105 462.537 221.787 497.238C215.198 519.433 205.339 540.631 189.16 557.507C171.256 576.189 147.504 587.586 121.954 591.037C110.498 592.588 98.889 592.638 87.4204 591.187C86.9977 591.131 86.8568 591.782 87.2795 591.837L87.2769 591.793Z" fill="#B4B4B4"/>
<path d="M83.5401 595.978C106.181 599.479 129.806 597.3 151.029 588.459C172.416 579.537 190.191 563.728 202.353 544.067C213.714 525.693 219.636 504.777 224.31 483.888C228.983 463 232.313 440.949 240.91 421.065C256.496 384.997 297.038 370.379 333.696 368.393C352.583 367.35 371.514 369.368 389.755 374.37C408.494 379.534 424.303 389.125 440.452 399.66C457.018 410.466 474.69 422.341 494.691 425.263C515.8 428.344 533.473 418.173 547.44 403.022C577.07 370.881 580.495 328.402 583.565 286.891C585.189 264.974 587.262 242.79 594.36 221.851C601.868 199.589 615.417 179.852 633.495 164.847C652.254 149.339 673.883 137.676 697.148 130.523C721.096 123.14 744.917 123.119 769.345 128.81C795.006 134.815 819.111 145.728 843.566 155.283C866.926 164.42 890.735 171.896 915.787 174.491C964.724 179.559 1015.16 169.787 1059.03 147.667C1070.61 141.82 1081.74 135.111 1092.32 127.595C1092.67 127.352 1092.27 126.795 1091.95 127.037C1048.48 157.702 996.741 174.46 943.554 175.098C918.405 175.381 893.375 171.612 869.424 163.936C844.969 156.077 821.71 145.132 797.508 136.562C774.408 128.375 749.625 121.954 724.931 124.168C703.682 126.066 682.844 133.671 664.081 143.682C644.807 153.946 626.354 167.464 613.044 185.014C599.953 202.185 592.128 222.462 588.022 243.585C579.984 284.848 585.162 328.855 568.793 368.36C560.049 389.547 543.814 412.086 522.132 421.31C501.269 430.193 479.333 422.063 460.82 411.549C443.728 401.827 428.196 389.159 410.231 381.013C394.458 373.893 377.242 369.899 360.039 368.288C325.855 365.071 286.741 370.591 260.029 393.915C246.35 405.863 239.108 421.384 234.13 438.559C228.229 458.911 225.127 479.959 219.589 500.415C213.47 523.011 204.012 544.667 187.867 561.962C169.602 581.503 144.907 593.115 118.438 596.119C106.883 597.397 95.2097 597.13 83.7255 595.325C83.3022 595.26 83.1614 595.911 83.5846 595.975L83.5401 595.978Z" fill="#B4B4B4"/>
<path d="M79.7997 600.176C102.956 604.397 127.342 602.576 149.178 593.547C170.831 584.592 188.783 568.434 200.716 548.375C212.206 529.136 217.705 507.228 221.978 485.434C226.104 464.176 228.946 442.037 237.132 421.829C252.236 384.53 293.627 369.471 331.083 367.697C350.563 366.753 370.063 369.105 388.761 374.651C407.527 380.287 423.189 390.44 439.229 401.401C455.64 412.617 473.175 424.901 493.187 428.305C514.821 431.98 532.956 421.47 547.053 405.794C577.136 372.377 579.165 328.292 581.261 285.677C582.366 263.585 583.939 241.242 590.608 219.98C597.879 196.665 611.859 176.01 630.801 160.594C649.633 145.341 671.293 133.96 694.538 127.105C719.108 119.819 743.4 120.226 768.15 126.702C794.205 133.523 818.509 145.389 843.174 155.949C866.585 165.966 890.471 174.483 915.798 177.963C965.75 184.829 1017.87 175.78 1063.03 153.558C1075.27 147.52 1087 140.504 1098.11 132.58C1098.46 132.328 1098.06 131.771 1097.74 132.022C1053.02 163.662 999.402 180.281 944.626 179.481C918.173 178.998 891.99 174.055 867.181 164.861C842.808 155.944 819.572 144.167 795.374 134.901C772.693 126.234 748.235 119.25 723.723 120.918C701.986 122.398 680.64 129.872 661.447 139.854C641.697 150.074 622.851 163.722 609.389 181.593C596.08 199.322 588.417 220.222 584.719 241.929C577.367 284.563 584.128 329.844 567.932 370.794C559.363 392.398 543.027 415.809 520.845 424.866C500.117 433.313 478.61 425.042 460.437 414.374C443.112 404.193 427.57 390.864 409.473 381.986C393.434 374.122 375.686 369.74 357.977 367.864C323.347 364.19 283.449 369.568 256.474 393.46C242.525 405.817 235.393 421.867 230.705 439.579C225.124 460.671 222.527 482.421 217.325 503.599C211.693 526.587 202.629 548.729 186.498 566.424C168.252 586.446 143.264 598.236 116.435 601.038C104.252 602.272 91.954 601.764 79.9139 599.526C79.83 599.516 79.7453 599.538 79.6766 599.587C79.6079 599.636 79.56 599.71 79.5424 599.792C79.5248 599.875 79.5388 599.961 79.5816 600.034C79.6243 600.107 79.6928 600.161 79.7736 600.186L79.7997 600.176Z" fill="#B4B4B4"/>
<path d="M76.0612 604.337C99.7057 609.289 124.891 607.859 147.34 598.616C169.483 589.499 187.661 572.765 199.455 552.001C210.561 532.454 215.565 510.333 219.347 488.371C223.128 466.41 225.404 443.563 233.393 422.59C247.835 384.49 289.368 368.798 327.244 367.026C347.344 366.047 367.461 368.603 386.678 374.576C406.007 380.678 421.902 391.612 438.25 403.269C454.597 414.926 471.901 427.528 491.927 431.332C513.372 435.447 531.599 425.289 545.691 409.684C576.777 375.245 577.815 329.611 578.929 285.767C579.521 262.678 580.559 239.26 587.243 217.015C594.161 193.494 608.111 172.654 627.22 157.293C646.435 141.839 669.341 130.633 693.017 123.935C704.319 120.737 716.068 118.469 727.834 118.199C741.534 117.88 755.544 121.059 768.615 124.989C819.798 140.182 863.984 172.82 917.372 181.54C968.436 189.886 1022.2 181.385 1068.61 158.663C1080.94 152.61 1092.75 145.551 1103.92 137.556C1104.27 137.312 1103.87 136.755 1103.54 137.006C1057.99 169.302 1003.1 185.753 947.298 183.834C920.122 182.787 893.334 177.031 868.127 166.823C843.458 156.977 820.06 144.255 795.541 134.052C772.823 124.594 747.403 115.951 722.458 117.841C700.073 119.537 678.012 126.847 658.047 136.9C637.761 147.107 618.226 160.902 604.815 179.493C592.058 197.189 584.907 217.828 581.602 239.235C574.762 283.464 583.237 330.297 567.203 372.987C558.866 395.185 542.228 419.551 519.385 428.459C498.139 436.73 476.317 427.335 458.179 416.049C440.773 405.23 425.175 391.253 406.807 382.007C390.644 373.855 372.68 369.271 354.741 367.292C319.842 363.429 279.456 368.862 252.552 393.357C238.561 406.082 231.683 422.51 227.337 440.577C222.076 462.41 219.973 484.854 215.1 506.771C209.871 530.396 201.045 553.256 184.63 571.45C166.102 591.988 140.385 603.839 112.909 606.097C100.614 607.079 88.2421 606.276 76.1769 603.715C76.0906 603.696 76.0004 603.712 75.9262 603.76C75.852 603.808 75.7998 603.883 75.7811 603.97C75.7624 604.056 75.7788 604.146 75.8266 604.22C75.8744 604.295 75.9497 604.347 76.036 604.365L76.0612 604.337Z" fill="#B4B4B4"/>
<path d="M72.3241 608.552C96.2212 614.167 121.826 613.195 144.744 604.042C167.662 594.888 186.454 577.369 198.177 555.672C209.134 535.402 213.631 512.533 216.955 489.929C220.28 467.324 222.006 443.768 229.998 422.233C244.539 383.217 287.215 367.539 325.835 366.278C345.927 365.573 365.985 368.432 385.08 374.722C404.639 381.257 420.591 392.866 436.986 405.038C453.381 417.21 470.735 430.371 491.028 434.472C512.704 438.868 531.208 428.408 545.299 412.465C576.679 376.947 576.489 329.991 576.635 285.302C576.714 261.823 577.208 237.963 583.515 215.222C590.263 190.849 603.845 169.659 623.592 153.826C643.338 137.992 667.005 126.662 691.416 120.172C702.843 117.136 714.721 115.084 726.582 115.067C740.861 115.044 755.479 118.867 769.009 123.323C820.544 140.434 864.694 174.921 918.791 185.091C971.095 194.963 1026.66 186.973 1074.42 163.682C1086.75 157.635 1098.56 150.563 1109.71 142.54C1110.06 142.287 1109.66 141.73 1109.35 141.981C1063.28 174.992 1006.17 191.309 949.574 188.157C921.601 186.597 894.727 179.833 869.015 168.762C844.3 158.107 820.929 144.615 796.404 133.547C773.638 123.261 747.864 113.443 722.48 114.528C699.5 115.509 676.708 122.674 656.074 132.721C635.162 142.928 614.83 156.966 601.175 176.124C588.037 194.494 581.156 216.108 578.283 238.338C572.458 283.303 582.012 330.582 566.855 374.212C558.836 397.302 541.929 423.031 518.142 431.967C496.59 440.059 474.642 429.86 456.649 418.155C439.473 406.983 424.139 392.786 406.079 383.013C389.845 374.232 371.588 369.227 353.381 366.933C317.697 362.455 275.945 367.744 248.637 393.262C234.631 406.345 227.991 423.179 223.967 441.575C219.027 464.175 217.436 487.286 212.936 509.94C208.092 534.203 199.531 557.789 182.868 576.479C164.015 597.571 137.559 609.447 109.452 611.144C97.0623 611.869 84.6325 610.784 72.5554 607.923C72.4691 607.904 72.3789 607.92 72.3047 607.968C72.2305 608.016 72.1783 608.091 72.1596 608.178C72.1409 608.264 72.1573 608.354 72.2051 608.428C72.2529 608.503 72.3283 608.555 72.4146 608.574L72.3241 608.552Z" fill="#B4B4B4"/>
<path d="M68.5831 612.75C92.7046 619.004 118.784 618.522 142.144 609.45C165.504 600.378 184.624 582.51 196.293 560.351C207.407 539.242 211.493 515.434 214.404 492.005C217.296 468.721 218.461 444.108 226.619 421.885C241.106 382.399 284.232 366.623 323.214 365.618C344.073 365.007 364.864 368.277 384.528 375.263C403.909 382.264 419.605 394.388 435.74 406.843C451.875 419.298 469.622 433.239 490.18 437.611C512.187 442.327 530.887 431.543 544.973 415.216C576.654 378.573 575.145 330.267 574.322 284.722C573.878 260.524 573.862 235.873 580.137 212.268C586.475 187.486 600.79 165.478 620.874 149.637C641.053 133.716 665.314 122.477 690.228 116.35C701.668 113.528 713.55 111.725 725.364 111.961C740.822 112.254 756.499 116.961 770.894 122.314C821.975 141.307 865.553 176.702 919.517 188.424C973.11 200.068 1030.74 192.701 1080 168.769C1092.42 162.714 1104.29 155.607 1115.49 147.526C1115.85 147.274 1115.45 146.716 1115.12 146.967C1067.46 181.285 1007.56 197.371 949.029 192.206C921.451 189.775 895.141 182.247 870.041 170.659C844.75 158.992 820.96 144.427 795.867 132.339C773.025 121.361 747.107 110.748 721.327 111.302C697.39 111.794 673.465 119.113 652.056 129.518C631.707 139.416 611.908 152.95 598.449 171.472C584.59 190.491 577.654 213.161 575.042 236.358C569.905 282.729 581.032 331.274 566.185 376.421C558.455 399.709 541.864 425.66 518.136 435.003C496.414 443.534 474.289 433.076 456.232 421.018C438.805 409.37 423.464 394.593 405.272 384.078C389.009 374.647 370.495 369.202 351.906 366.636C315.911 361.578 273.658 366.521 245.868 392.049C231.044 405.652 224.278 423.386 220.453 442.752C215.913 465.784 214.802 489.331 210.767 512.45C206.372 537.553 198.099 562.095 180.968 581.49C162.169 602.758 135.579 614.614 107.4 616.146C94.3792 616.809 81.3338 615.456 68.726 612.135C68.3091 612.025 68.1777 612.684 68.5857 612.795L68.5831 612.75Z" fill="#B4B4B4"/>
<path d="M64.8577 616.937C89.812 624.009 117.104 623.822 141.366 614.136C165.296 604.576 184.459 585.759 195.627 562.639C206.063 541.078 209.503 517.075 211.914 493.488C214.325 469.901 215.042 445.109 222.834 422.568C237.032 381.483 281.728 365.384 321.848 364.911C342.697 364.585 363.425 368.157 382.963 375.443C402.684 382.933 418.477 395.809 434.78 408.844C450.895 421.737 468.36 435.891 488.925 440.682C511.354 445.918 530.402 434.82 544.631 418.029C576.79 380.074 573.774 330.096 571.998 283.509C571.07 259.133 570.599 234.321 576.403 210.448C582.648 184.783 596.498 162.516 617.311 146.139C637.636 130.12 662.151 118.946 687.251 112.951C699.294 110.077 711.805 108.327 724.213 108.814C739.851 109.436 755.623 114.548 770.066 120.282C822.267 141.031 866.361 178.868 921.819 192.057C976.263 204.973 1035.28 198.248 1085.6 173.88C1098.11 167.803 1110.06 160.649 1121.32 152.499C1121.66 152.247 1121.27 151.69 1120.95 151.941C1072.38 187.007 1011.15 202.741 951.644 196.454C923.203 193.449 896.312 184.981 870.662 172.372C845.369 159.902 821.617 144.603 796.541 131.737C772.847 119.594 745.847 107.714 718.709 108.097C694.522 108.425 670.302 115.583 648.627 126.012C627.681 136.087 607.33 150.108 593.878 169.389C580.427 188.669 573.918 211.467 571.791 234.707C567.412 282.453 580.111 332.264 565.368 378.896C557.871 402.661 541.053 429.473 516.731 438.574C494.497 446.893 472.066 435.302 454.084 422.704C436.836 410.608 421.612 395.521 403.567 384.613C387.122 374.676 368.196 368.898 349.282 366.109C313.048 360.761 270.253 365.593 242.325 391.522C227.594 405.191 220.863 422.914 217.289 442.292C212.923 466.028 212.308 490.261 208.752 514.11C204.882 539.79 197.255 565.169 180.157 585.285C161.128 607.664 133.636 619.983 104.444 621.127C91.124 621.598 77.8136 619.958 65.0065 616.268C64.5979 616.149 64.4571 616.8 64.8745 616.918L64.8577 616.937Z" fill="#B4B4B4"/>
<path d="M61.1182 621.127C86.2968 628.837 114.038 629.16 138.768 619.545C162.826 610.191 182.107 591.404 193.291 568.255C204.092 545.906 207.216 520.903 209.246 496.446C211.236 472.375 211.489 447.11 218.848 423.897C232.306 381.436 277.691 364.584 318.728 364.236C340.305 363.963 361.729 367.893 381.805 375.806C401.579 383.748 417.281 397.21 433.526 410.64C449.771 424.071 467.585 439.017 488.65 443.966C510.853 449.153 529.738 438.019 543.763 421.401C576.927 381.995 572.355 330.125 569.626 282.175C568.16 256.822 567.232 230.911 573.255 206.044C579.552 180.189 593.681 157.977 614.779 141.726C635.876 125.475 661.657 114.139 687.843 108.714C700.721 106.051 714.177 104.603 727.302 106.075C742.089 107.728 756.753 112.958 770.361 118.758C823.002 141.266 867.113 180.772 923.237 195.448C978.521 209.931 1039.14 203.917 1090.68 179.229C1103.45 173.089 1115.65 165.812 1127.11 157.485C1127.47 157.233 1127.07 156.675 1126.74 156.926C1077.71 192.43 1015.66 207.89 955.61 200.85C926.575 197.45 899.123 188.39 873.188 175.012C847.253 161.633 823.055 145.253 797.471 131.31C774.293 118.682 747.733 105.928 720.89 104.929C696.238 104.007 671.155 110.76 648.825 120.825C627.079 130.643 605.744 144.623 591.532 164.17C577.319 183.718 570.617 207.33 568.636 231.267C564.616 280.269 578.862 330.9 565.253 379.082C558.323 403.707 541.602 431.87 516.683 441.621C494.296 450.387 471.626 438.524 453.628 425.633C436.139 413.068 420.847 397.45 402.711 385.735C386.498 375.311 367.619 369.111 348.692 365.948C311.695 359.761 267.458 364.212 238.859 390.867C223.75 404.95 217.055 423.296 213.756 443.266C209.662 467.994 209.584 493.178 206.298 518.002C202.88 543.78 195.604 569.362 178.715 589.708C159.523 612.801 131.454 625.341 101.635 626.138C87.9415 626.444 74.2888 624.521 61.2125 620.443C60.7946 620.315 60.6626 620.966 61.0717 621.094L61.1182 621.127Z" fill="#B4B4B4"/>
<path d="M57.3772 625.315C82.7624 633.665 110.961 634.488 136.16 624.953C161.07 615.533 180.895 595.946 191.926 571.86C202.231 549.414 204.946 524.462 206.518 500.085C208.159 475.079 207.85 448.9 215.017 424.672C227.95 381.001 274.234 363.659 316.081 363.568C337.868 363.421 359.47 367.573 379.65 375.788C399.577 384.06 415.249 397.917 431.456 411.778C447.89 425.849 465.865 441.58 487.35 447.005C509.995 452.719 529.23 441.315 543.395 424.189C576.863 383.713 570.995 330.418 567.283 281.668C565.339 255.941 563.87 229.615 569.542 204.233C575.461 177.712 589.617 154.874 611.155 138.231C633.11 121.378 659.854 110.012 686.994 104.872C700.088 102.401 713.871 101.202 727.112 103.141C741.912 105.319 756.429 110.79 769.985 116.932C823.064 140.977 867.176 182.223 923.872 198.598C980.15 214.845 1042.51 209.773 1095.47 184.727C1108.62 178.486 1121.15 171.031 1132.92 162.46C1133.26 162.208 1132.87 161.651 1132.54 161.911C1082.42 198.317 1018.6 213.406 957.418 204.976C927.655 200.887 899.743 190.827 873.447 176.452C847.448 162.265 823.245 145.189 797.599 130.481C774.123 117.023 747.158 103.284 719.633 101.753C694.56 100.356 668.914 106.927 646.111 116.993C623.796 126.852 601.765 141.149 587.501 161.351C573.478 181.236 567.073 204.911 565.448 228.97C562.021 279.589 578.003 331.673 564.547 381.578C557.83 406.485 541.121 435.183 515.949 445.011C493.094 453.875 470.076 441.087 452.046 427.652C434.511 414.591 419.245 398.489 401.03 386.342C384.654 375.418 365.415 368.873 346.111 365.509C308.685 358.998 263.634 363.416 234.935 390.817C219.608 405.44 213.202 424.465 210.23 444.996C206.586 470.252 206.979 495.881 204.089 521.218C201.137 547.336 194.237 573.396 177.409 594.166C158.141 617.969 129.372 630.746 98.9448 631.203C84.8664 631.342 70.8632 629.135 57.5097 624.674C57.1001 624.537 56.9598 625.196 57.3688 625.325L57.3772 625.315Z" fill="#B4B4B4"/>
<path d="M53.6422 629.511C79.8617 638.705 109.311 639.858 135.435 629.644C160.747 619.763 180.431 599.292 190.972 574.458C200.957 550.951 202.949 525.05 204.068 499.815C205.188 474.58 204.345 447.513 211.962 423.036C225.66 379.009 273.068 362.271 315.367 362.904C337.361 363.238 359.602 367.691 379.715 376.702C399.828 385.714 415.461 400.599 431.795 414.961C448.13 429.324 466.097 445.216 487.704 450.446C510.823 456.026 530.137 443.368 544.087 425.763C576.992 384.043 569.501 329.683 564.939 280.437C562.523 254.103 560.561 227.137 566.173 201.017C571.991 173.985 586.427 150.755 608.49 134.065C630.863 117.044 658.198 105.868 685.834 101.127C698.994 98.8665 712.776 97.9622 726.013 100.133C741.115 102.606 755.855 108.528 769.596 115.097C823.128 140.651 867.276 183.582 924.551 201.637C981.826 219.691 1045.85 215.586 1100.26 190.206C1113.79 183.878 1126.67 176.258 1138.73 167.451C1139.08 167.199 1138.69 166.642 1138.36 166.893C1086.9 204.376 1020.95 219.026 958.257 208.934C928.093 204.074 900.036 193.058 873.638 177.841C847.664 162.858 823.454 145.042 797.759 129.65C774.171 115.484 747.005 100.891 719.107 98.6313C693.415 96.5473 666.897 103.017 643.438 113.157C620.902 122.895 598.682 137.167 584.251 157.424C569.979 177.466 563.658 201.52 562.253 225.834C559.242 277.928 576.876 331.122 564.185 382.678C557.927 408.103 541.679 437.051 516.512 447.762C493.864 457.4 470.699 444.861 452.72 431.37C434.339 417.581 418.644 400.388 399.808 387.215C383.818 376.036 364.954 369.166 345.887 365.44C308.043 358.034 262.152 361.814 232.554 389.106C216.717 403.714 209.869 422.961 207 443.87C203.438 469.781 204.323 496.043 201.999 522.052C199.593 548.968 193.442 576.1 176.553 597.838C157.306 622.613 127.952 635.923 96.7908 636.191C82.1363 636.249 67.5825 633.769 53.7742 628.861C53.3646 628.724 53.2327 629.374 53.6339 629.52L53.6422 629.511Z" fill="#B4B4B4"/>
<path d="M49.8176 633.669C76.0126 643.365 105.581 645.18 132.03 635.358C158.017 625.715 178.366 604.866 188.961 579.404C199.032 555.24 200.661 528.62 201.378 502.756C202.111 476.696 200.754 449.061 208.118 423.768C221.291 378.539 269.661 361.3 312.735 362.227C335.122 362.717 357.772 367.449 378.1 376.931C398.198 386.3 413.756 401.6 429.994 416.307C446.233 431.014 464.397 447.69 486.249 453.432C509.515 459.557 529.131 447.024 543.183 429.173C576.749 386.549 568.225 330.838 562.716 280.816C559.78 254.12 557.231 226.732 562.27 200.12C567.426 172.911 581.183 149.043 603.041 131.909C625.686 114.176 653.732 102.637 682.005 97.8063C695.457 95.5108 709.492 94.6454 723.003 96.7736C738.523 99.214 753.652 105.542 767.644 112.435C822.399 139.383 866.773 184.674 925.113 204.631C983.25 224.475 1049.12 221.423 1104.98 195.708C1118.9 189.286 1132.15 181.487 1144.51 172.429C1144.86 172.177 1144.47 171.619 1144.14 171.87C1091.58 210.291 1023.83 224.493 959.976 212.959C929.11 207.381 900.639 195.372 873.906 179.156C847.664 163.243 823.237 144.6 797.204 128.308C772.944 113.164 744.98 97.582 715.903 95.301C690.133 93.275 663.594 99.5318 639.972 109.636C617.118 119.429 594.517 133.91 580.151 154.645C565.784 175.38 559.872 200.017 558.938 224.911C556.948 277.687 575.494 331.203 563.816 383.619C558.056 409.488 542.236 439.046 517.051 450.517C494.294 460.893 470.953 448.542 452.768 434.751C434.182 420.653 418.458 403.113 399.814 389.098C383.95 377.163 364.971 369.693 345.643 365.455C307.272 357.116 260.242 360.327 229.8 387.847C213.557 402.532 206.404 422.065 203.664 443.359C200.302 469.491 201.565 495.953 199.888 522.211C198.104 550.144 192.74 578.704 175.635 601.623C156.499 627.249 126.656 641.051 94.9187 641.236C79.6234 641.224 64.4552 638.458 50.14 633.071C49.7388 632.924 49.4342 633.522 49.8354 633.668L49.8176 633.669Z" fill="#B4B4B4"/>
<path d="M46.0833 637.863C72.7197 648.247 103.11 650.55 130.223 640.467C156.489 630.709 176.862 609.511 187.266 583.685C197.288 558.81 198.445 531.449 198.778 504.957C199.082 478.109 197.1 449.403 204.677 423.322C217.974 377.452 267.118 360.328 310.749 361.607C333.522 362.298 356.534 367.42 377.042 377.408C397.551 387.397 413.084 403.653 429.523 418.884C445.961 434.115 464.366 451.401 486.741 456.944C510.683 462.869 530.473 448.702 544.234 430.162C576.717 386.378 566.695 329.932 560.372 279.726C556.97 252.691 553.961 224.91 558.706 197.841C563.55 170.186 577.251 145.804 599.417 128.429C622.59 110.273 651.488 98.6402 680.44 94.1271C694.38 91.9462 708.839 91.3241 722.806 93.9079C738.567 96.8252 753.857 103.626 768.016 110.929C823.606 139.809 868.401 187.139 928.091 208.374C986.688 229.217 1053.42 226.874 1110.09 201.051C1124.27 194.566 1137.75 186.641 1150.31 177.401C1150.66 177.148 1150.27 176.591 1149.94 176.842C1096.42 216.095 1027.1 229.852 962.225 217.048C930.769 210.834 901.936 197.98 874.922 180.915C848.362 164.128 823.687 144.607 797.356 127.467C772.993 111.632 744.834 95.1417 715.35 92.1702C688.946 89.5026 661.577 95.611 637.299 105.798C614.042 115.56 590.994 130.183 576.505 151.265C562.015 172.346 556.239 197.779 555.675 223.204C554.497 276.915 574.157 331.027 563.426 384.522C558.184 410.71 543.135 440.008 518.523 452.749C495.238 464.807 470.977 452.126 452.242 437.617C433.287 423.013 417.406 404.768 398.524 390.027C382.689 377.662 363.712 369.771 344.235 365.275C305.282 356.282 257.108 359.167 226.195 387.339C209.857 402.226 202.72 422.034 200.197 443.547C197.049 470.426 198.806 497.574 197.555 524.548C196.245 553.123 191.357 582.351 174.206 606.014C155.086 632.388 124.466 646.485 92.1625 646.292C76.4834 646.11 60.9701 643.06 46.3894 637.292C45.9877 637.137 45.6826 637.726 46.0848 637.89L46.0833 637.863Z" fill="#B4B4B4"/>
<path d="M42.3448 642.054C69.2009 652.996 99.9983 655.847 127.617 645.877C154.868 636.027 175.747 613.835 185.954 586.933C195.654 561.273 196.237 533.24 196.071 506.143C195.926 478.803 193.458 449.402 201.16 422.841C214.764 375.819 265.672 358.933 310.164 361.063C333.202 362.176 356.421 367.795 376.918 378.498C397.672 389.338 413.462 406.793 430.271 422.717C446.492 438.059 465.076 455.513 487.576 460.576C511.734 465.917 531.444 450.523 544.727 431.743C576.649 386.759 565.15 329.301 558.005 278.616C554.176 251.463 550.75 223.555 555.025 196.245C559.463 167.882 573.11 142.726 595.787 124.929C619.274 106.495 648.744 94.8834 678.179 90.5388C692.542 88.4138 707.484 87.9511 721.736 90.8487C737.53 94.0229 752.801 101.101 766.923 108.692C823.264 138.993 868.222 188.223 928.678 211.262C988.157 233.928 1056.66 232.688 1114.85 206.535C1129.42 199.967 1143.25 191.872 1156.12 182.388C1156.46 182.136 1156.07 181.578 1155.75 181.829C1101.06 222.033 1029.93 235.27 963.908 221.005C931.776 214.055 902.546 200.197 875.209 182.169C848.623 164.642 823.937 144.452 797.513 126.639C772.648 109.851 743.845 92.2563 713.403 88.9118C686.539 86.003 658.608 91.9654 633.847 102.279C609.993 112.218 586.443 127.272 572.003 149.207C557.851 170.715 552.599 196.109 552.428 221.548C552.019 276.204 572.8 330.858 563.018 385.495C558.301 411.955 543.849 441.407 519.597 455.118C496.349 468.28 471.923 456.296 452.833 441.521C433.582 426.569 417.614 408.053 398.968 392.459C383.022 379.1 363.828 370.392 343.722 365.352C304.216 355.454 254.923 357.814 223.199 386.31C206.578 401.249 199.188 421.321 196.789 443.113C193.732 470.959 196.031 498.978 195.225 526.863C194.381 555.929 190.091 586.068 172.875 610.324C153.614 637.492 122.467 651.888 89.4393 651.37C73.3643 651.007 57.4986 647.644 42.6583 641.456C42.2561 641.292 41.9515 641.889 42.3537 642.054L42.3448 642.054Z" fill="#B4B4B4"/>
<path d="M38.6059 646.241C66.2697 658.029 98.3857 661.303 126.925 650.575C154.425 640.247 175.114 617.254 184.734 589.76C194.026 563.222 193.906 534.462 193.318 506.702C192.73 478.942 189.814 448.755 197.81 421.721C211.783 374.429 263.421 357.83 308.171 360.41C331.597 361.732 355.177 367.741 375.833 379.033C396.654 390.413 412.445 408.502 429.294 424.816C445.624 440.634 464.521 458.874 487.517 463.889C511.925 469.225 531.649 452.991 544.792 433.951C576.522 387.953 563.778 329.513 555.792 278.323C551.522 250.794 547.529 222.499 551.373 194.679C555.25 166.5 568.142 140.95 590.357 122.885C614.041 103.664 644.231 91.7069 674.283 87.2284C688.894 85.0534 704.042 84.6145 718.592 87.4144C734.984 90.5898 750.754 98.1212 765.293 106.134C822.696 137.82 867.872 189.117 929.23 214.031C989.85 238.667 1060.57 238.476 1120.44 211.62C1135.08 205.027 1148.97 196.886 1161.87 187.337C1162.23 187.085 1161.83 186.528 1161.51 186.787C1105.68 227.95 1032.69 240.651 965.57 224.898C932.345 217.118 902.433 201.943 874.479 182.665C847.463 164.029 822.335 142.839 795.326 124.158C770.382 106.938 741.522 88.9621 710.736 85.5393C683.086 82.4707 654.291 88.6347 628.869 99.3968C604.728 109.629 581.266 125.107 567.151 147.728C553.381 169.821 548.833 195.674 549.213 221.375C550.034 276.452 571.404 331.268 562.63 386.498C558.32 413.524 544.223 443.24 519.978 457.852C496.786 471.824 472.042 459.902 452.84 444.885C433.124 429.459 416.918 410.216 398.118 393.818C382.066 379.859 362.856 370.563 342.318 365.155C302.436 354.618 252.218 356.568 220.003 385.378C203.03 400.551 195.538 421.023 193.297 443.234C190.471 471.522 193.163 500.008 192.866 528.355C192.562 557.505 189.168 587.87 172.759 612.802C153.8 641.63 121.624 657.067 87.4284 656.421C70.7339 655.974 54.282 652.313 38.9728 645.64C38.5795 645.475 38.2749 646.073 38.6682 646.237L38.6059 646.241Z" fill="#B4B4B4"/>
<path d="M34.8673 650.456C63.2675 663.094 96.506 666.794 125.927 655.417C153.34 644.825 173.719 621.547 183.065 593.953C192.438 566.197 191.646 536.155 190.546 507.264C189.501 478.852 186.018 447.645 194.633 420.057C209.854 371.363 264.582 356.014 310.47 360.214C333.799 362.346 357.091 369.067 377.211 381.14C398.34 393.823 414.306 413.536 431.837 430.533C448.038 446.305 467.76 464.907 491.298 467.857C516.267 471.018 535.683 451.481 547.58 431.719C576.84 383.15 560.937 323.171 552.357 271.114C547.758 243.157 543.906 214.211 548.755 186.012C553.644 157.578 568.155 133.015 591.336 115.768C615.537 97.7669 645.537 86.6954 675.392 83.1209C689.158 81.4767 703.294 81.4355 716.922 84.1995C732.275 87.3012 746.961 94.3061 760.62 101.763C820.186 134.261 865.879 188.17 928.168 216.065C989.038 243.328 1063.25 244.016 1124.38 217.434C1139.73 210.74 1154.27 202.323 1167.71 192.346C1168.06 192.094 1167.67 191.536 1167.34 191.787C1109.81 234.325 1034.26 245.639 965.538 228.077C931.068 219.28 900.977 202.42 872.355 181.619C844.778 161.605 818.966 139.249 790.925 119.861C767.226 103.479 740.064 86.6275 711.015 82.533C683.856 78.6951 655.347 84.084 630 93.9848C605.683 103.478 581.419 118.216 566.322 140.056C551.497 161.504 545.968 187.36 545.896 213.115C545.745 269.765 568.501 324.938 562.792 381.776C559.976 410.242 547.686 440.023 524.343 457.725C513.996 465.562 501.523 469.193 488.656 466.787C476.367 464.49 465.285 457.758 455.468 450.373C434.843 434.822 418.237 414.843 399.408 397.314C383.574 382.663 364.538 371.912 343.815 365.917C303.065 353.788 250.891 354.797 217.293 384.071C200.112 399.051 192.071 419.599 189.88 441.887C187.002 471.133 190.258 500.578 190.443 529.861C190.638 559.607 187.896 590.755 171.652 616.526C152.731 646.476 119.741 662.505 84.6407 661.491C67.5485 660.872 50.7427 656.914 35.1709 649.84C34.777 649.667 34.4719 650.255 34.8658 650.429L34.8673 650.456Z" fill="#B4B4B4"/>
</svg>
