<svg width="1066" height="765" viewBox="0 0 1066 765" fill="none" xmlns="http://www.w3.org/2000/svg">
<path d="M194.869 573.728C242.357 520.823 306.05 487.783 372.521 464.983C438.643 442.356 507.357 428.904 574.815 411.103C640.07 393.882 704.851 371.671 760.995 333.303C787.927 314.696 812.684 293.123 834.799 268.988C860.519 241.242 882.282 210.166 906.823 181.36C956.156 123.338 1013.42 72.5574 1076.92 30.5148C1085.08 25.1193 1093.32 19.8558 1101.65 14.7242C1102.07 14.4643 1101.6 13.8348 1101.22 14.0924C1036.63 54.0267 977.626 101.874 926.396 158C913.254 172.436 900.582 187.256 888.38 202.459C876.317 217.516 864.892 232.968 852.503 247.717C830.384 274.065 806.008 298.615 778.704 319.56C724.192 361.485 659.88 386.674 594.162 405.112C526.92 423.977 458.152 437.033 391.494 458.018C326.407 478.492 262.44 507.168 212.342 554.654C206.07 560.597 200.07 566.811 194.297 573.238C193.96 573.606 194.533 574.117 194.871 573.748L194.869 573.728Z" fill="#B4B4B4"/>
<path d="M190.572 578.544C216.311 552.54 246.087 530.539 277.186 511.375C308.747 491.98 342.115 475.694 376.822 462.747C411.53 449.764 447.593 440.703 483.742 432.765C520.61 424.673 557.971 418.542 594.523 409.063C657.701 392.636 716.778 363.264 768.008 322.807C794.037 302.162 818.191 279.091 840.901 254.811C866.488 227.412 889.57 197.859 915.771 170.987C966.336 119.146 1023.83 74.9145 1084.53 35.5651C1092.43 30.4372 1100.37 25.3933 1108.33 20.4333C1108.76 20.1728 1108.28 19.5337 1107.9 19.7913C1046.69 57.9808 987.893 100.298 935.649 150.226C908.948 175.741 884.988 203.417 860.911 231.365C837.164 259.052 811.383 284.928 783.783 308.776C734.728 350.954 677.615 382.726 615.91 402.164C579.403 413.651 541.458 419.805 504.073 427.64C467.782 435.258 431.529 443.509 396.279 455.108C328.739 477.334 263.655 512.578 209.925 559.351C203.05 565.329 196.408 571.556 189.999 578.033C189.651 578.392 190.224 578.902 190.572 578.544Z" fill="#B4B4B4"/>
<path d="M186.274 583.363C214.524 557.492 246.403 535.143 278.501 514.28C309.363 494.217 341.809 475.805 375.991 461.899C409.452 448.28 444.801 439.63 480.176 432.681C516.908 425.427 554.342 421.621 590.855 413.252C624.838 405.46 657.275 391.173 687.628 374.175C714.103 359.309 738.719 341.555 761.854 321.949C787.275 300.385 811.496 277.228 834.982 253.581C861.555 226.76 886.337 198.217 914.072 172.498C967.881 122.674 1028.8 81.1576 1090.39 41.7358C1098.56 36.4762 1106.77 31.28 1115 26.1472C1115.41 25.877 1114.94 25.2476 1114.57 25.5052C1052.08 64.8149 989.851 105.443 933.863 153.782C906.098 177.749 881.066 204.081 855.95 230.746C831.191 257.031 805.202 282.249 778.372 306.418C730.064 349.913 674.445 387.615 611.76 406.883C574.935 418.204 536.158 421.667 498.426 428.466C463.373 434.781 428.363 442.366 394.657 454.06C361.103 465.704 329.246 482.225 298.879 500.567C266.235 520.196 234.976 542.039 205.32 565.942C198.625 571.383 192.086 577.023 185.702 582.863C185.331 583.192 185.915 583.702 186.275 583.374L186.274 583.363Z" fill="#B4B4B4"/>
<path d="M181.904 588.213C211.799 563.488 244.289 541.596 276.118 519.456C306.686 498.199 338.401 477.092 372.581 461.893C405.333 447.372 440.516 438.885 475.662 432.749C493.402 429.596 511.241 427.019 529.177 425.017C548.092 422.897 567.069 421.143 585.776 417.569C620.269 410.968 652.328 395.81 682.174 377.682C707.56 362.254 730.8 343.759 752.833 323.899C778.658 300.629 803.623 276.322 828.697 252.295C856.881 225.309 883.878 197.11 914.01 172.216C970.641 125.419 1034 87.1975 1096 48.1212C1104.58 42.7221 1113.13 37.3142 1121.66 31.8974C1122.09 31.6368 1121.66 30.9948 1121.25 31.2548C1058.22 71.2212 993.621 109.535 934.372 155.047C904.909 177.676 878.254 202.902 851.796 228.896C825.339 254.89 798.092 280.529 770.992 306.068C748.621 327.158 725.59 347.671 700.216 365.089C672.151 384.396 640.634 401.994 607.81 411.565C571.072 422.255 532.144 423.102 494.525 428.847C460.117 434.089 425.713 441.157 392.907 452.973C359.317 465.071 328.378 483.621 298.7 503.236C266.542 524.493 234.935 546.928 204.031 569.999C196.39 575.682 188.861 581.523 181.519 587.6C181.147 587.908 181.574 588.55 181.946 588.242L181.904 588.213Z" fill="#B4B4B4"/>
<path d="M177.607 593.058C193.271 581.392 209.518 570.554 225.598 559.511C242.288 548.011 258.589 535.99 274.825 523.922C304.843 501.671 335.241 478.188 369.052 461.934C400.847 446.637 435.794 438.318 470.482 432.793C487.76 430.04 505.076 427.951 522.52 426.644C541.638 425.2 560.843 424.551 579.843 421.79C645.479 412.208 700.705 368.446 746.908 323.484C772.158 298.955 796.961 274.144 822.89 250.365C851.876 223.764 880.432 196.633 912.127 173.218C941.538 151.485 972.786 132.404 1004.07 113.537C1036.77 93.7671 1069.69 74.3231 1102.18 54.1349C1110.92 48.6991 1119.64 43.1889 1128.35 37.6043C1128.42 37.5421 1128.47 37.4564 1128.48 37.3632C1128.49 37.27 1128.47 37.1755 1128.42 37.0972C1128.36 37.0189 1128.29 36.9621 1128.2 36.9373C1128.1 36.9125 1128.01 36.9214 1127.92 36.9623C1094.51 58.312 1060.52 78.7104 1026.53 99.1088C995.14 117.931 963.592 136.598 933.347 157.231C902.321 178.371 874.273 202.395 846.555 227.692C818.836 252.99 791.293 278.472 764.627 304.939C742.743 326.658 720.78 348.433 696.133 367.06C683.239 376.835 669.687 385.71 655.574 393.623C638.593 403.119 620.99 411.778 602.091 416.646C565.354 426.115 526.531 424.525 489.063 429.339C455.017 433.739 420.86 440.464 388.695 452.725C355.31 465.355 325.665 485.881 296.958 506.682C281.275 518.041 265.816 529.715 250.178 541.134C233.88 553.031 217.113 564.258 200.524 575.731C192.633 581.173 184.839 586.691 177.169 592.407C176.776 592.706 177.223 593.347 177.596 593.049L177.607 593.058Z" fill="#B4B4B4"/>
<path d="M173.309 597.871C189.268 587.203 205.609 577.119 221.589 566.471C238.627 555.126 254.976 542.876 271.065 530.222C300.077 507.424 328.455 482.171 360.932 464.311C391.988 447.242 427.525 439.011 462.296 433.687C479.214 431.098 496.299 429.084 513.39 427.88C532.666 426.509 552.031 427.03 571.301 425.556C590.343 424.054 609.269 420.344 626.643 412.159C642.456 404.654 657.606 395.824 671.93 385.763C697.139 368.16 719.025 346.657 740.179 324.375C764.813 298.425 789.507 272.8 816.255 248.995C846.185 222.38 876.488 196.009 910.026 173.976C940.965 153.641 973.808 136.437 1006.24 118.632C1040.73 99.7334 1075.05 80.5463 1108.57 59.9701C1117.46 54.5188 1126.29 48.972 1135.05 43.3298C1135.47 43.0698 1135 42.4302 1134.62 42.698C1100.51 64.6525 1065.43 85.0113 1029.97 104.684C997.535 122.644 964.623 139.728 932.839 158.747C899.469 178.72 869.28 202.088 839.817 227.384C811.274 251.888 783.733 277.247 757.822 304.533C736.165 327.325 714.973 350.727 690.555 370.664C677.596 381.243 663.822 390.782 649.361 399.193C631.499 409.57 613.167 418.221 592.735 421.957C573.564 425.497 554.021 425.612 534.593 426.13C516.762 426.598 499.043 428.105 481.329 430.237C447.441 434.351 413.212 440.721 381.497 453.665C348.719 467.028 320.697 489.748 293.22 511.585C277.531 524.073 261.847 536.653 245.726 548.591C229.605 560.53 212.842 571.295 196.029 582.084C188.285 587.055 180.542 592.047 172.879 597.168C172.838 597.196 172.802 597.231 172.774 597.273C172.747 597.315 172.728 597.362 172.718 597.411C172.709 597.46 172.709 597.51 172.719 597.56C172.729 597.609 172.748 597.655 172.776 597.697C172.804 597.738 172.84 597.774 172.882 597.801C172.924 597.829 172.97 597.848 173.02 597.858C173.069 597.867 173.119 597.867 173.168 597.857C173.217 597.847 173.264 597.827 173.305 597.799L173.309 597.871Z" fill="#B4B4B4"/>
<path d="M169.014 602.694C185.601 592.78 202.392 583.203 218.628 572.735C236.084 561.338 252.834 548.894 268.785 535.472C297.215 511.846 323.965 484.707 355.67 465.374C386.284 446.7 422.45 437.817 457.637 432.93C474.288 430.639 491.053 429.272 507.855 428.836C527.314 428.326 546.891 429.85 566.338 429.135C585.786 428.42 605.03 425.266 622.732 417.062C639.068 409.553 654.596 399.597 668.948 388.828C693.937 370.068 714.871 346.999 735.32 323.538C759.37 295.991 783.914 269.554 811.599 245.633C841.784 219.536 873.067 194.494 907.632 174.432C940.38 155.398 975.136 140.063 1009.06 123.259C1045.09 105.43 1080.58 86.6373 1114.94 65.8171C1123.93 60.3603 1132.84 54.7711 1141.67 49.0495C1141.74 48.9873 1141.79 48.9017 1141.8 48.8084C1141.81 48.7152 1141.79 48.6207 1141.74 48.5424C1141.68 48.4641 1141.6 48.4073 1141.51 48.3825C1141.42 48.3577 1141.33 48.3666 1141.24 48.4075C1106.42 70.9362 1070.22 91.2982 1033.3 110.225C999.87 127.36 965.58 142.78 932.24 160.094C914.992 168.962 898.243 178.769 882.069 189.47C865.281 200.699 849.594 213.217 833.969 225.927C804.818 249.687 777.314 274.962 752.32 303.035C731.379 326.515 711.579 351.098 688.057 372.162C660.043 397.302 625.666 420.8 587.795 426.448C568.585 429.313 549.122 428.521 529.784 428.111C512.02 427.692 494.246 428.309 476.554 429.959C442.369 433.198 407.727 439.869 376.194 453.838C343.59 468.268 316.919 493.043 290.233 516.148C274.78 529.535 259.198 542.806 242.808 555.068C226.606 567.186 209.406 577.853 192.022 588.172C184.208 592.819 176.37 597.396 168.567 602.053C168.15 602.303 168.567 602.945 168.994 602.695L169.014 602.694Z" fill="#B4B4B4"/>
<path d="M164.719 607.506C181.916 598.378 199.145 589.288 215.678 578.977C233.01 568.019 249.447 555.706 264.834 542.152C293.37 517.33 318.85 487.741 350.364 466.532C379.717 446.792 415.652 437.646 450.318 432.984C467.253 430.725 484.315 429.549 501.4 429.465C520.566 429.382 539.611 431.635 558.755 432.056C577.898 432.477 597.378 430.724 615.364 423.55C632.8 416.603 649.121 405.473 663.84 393.944C689.157 374.119 709.472 349.394 729.402 324.393C752.507 295.423 776.641 268.087 804.932 244.008C835.709 217.856 868.304 193.528 904.288 175.117C939.642 156.989 977.153 143.516 1013.39 127.316C1050.06 110.917 1086.02 92.8251 1120.53 72.2023C1129.91 66.5927 1139.17 60.798 1148.33 54.8182C1148.4 54.756 1148.45 54.6704 1148.46 54.5771C1148.47 54.4839 1148.45 54.3894 1148.4 54.3111C1148.35 54.2328 1148.27 54.176 1148.18 54.1512C1148.09 54.1264 1147.99 54.1353 1147.91 54.1762C1111.81 77.513 1074.14 98.3194 1035.16 116.446C1000.05 132.97 963.8 146.729 928.449 162.621C910.657 170.528 893.381 179.551 876.726 189.636C859.736 200.024 843.781 211.994 828.088 224.246C797.919 247.778 770.229 273.566 745.726 303.026C725.137 327.809 706.236 354.094 682.889 376.41C654.666 403.439 619.798 427.489 579.933 430.759C560.649 432.357 541.352 430.344 522.108 429.262C504.689 428.328 487.226 428.605 469.845 430.091C435.781 432.933 401.019 439.672 370.009 454.523C338.201 469.759 313.307 496.186 287.968 520.053C272.813 534.336 257.311 548.29 240.705 560.882C224.364 573.274 206.75 583.863 188.796 593.733C180.674 598.193 172.473 602.524 164.282 606.865C163.854 607.095 164.281 607.737 164.709 607.507L164.719 607.506Z" fill="#B4B4B4"/>
<path d="M160.332 612.366C177.599 604.279 194.759 595.942 211.128 586.164C228.924 575.426 245.622 562.965 260.98 548.96C289.338 523.369 313.093 492.321 343.542 469.02C371.435 447.62 407.386 437.868 441.659 433.147C458.726 430.806 475.94 429.707 493.165 429.86C512.662 430.004 531.814 432.866 551.187 434.412C570.24 435.925 589.621 435.655 607.954 429.692C626.649 423.605 643.724 411.663 658.903 399.399C684.734 378.529 704.377 352.13 723.791 325.466C746.082 294.831 769.797 266.288 798.896 241.813C831.177 214.703 866.025 190.491 904.7 173.565C941.256 157.593 979.772 146.606 1016.86 131.68C1054.67 116.67 1091.28 98.8239 1126.4 78.294C1136.08 72.5849 1145.61 66.6382 1155 60.4538C1155.07 60.3915 1155.11 60.3059 1155.13 60.2126C1155.14 60.1194 1155.12 60.0249 1155.06 59.9466C1155.01 59.8683 1154.93 59.8115 1154.84 59.7867C1154.75 59.7619 1154.65 59.7708 1154.57 59.8117C1118.1 83.5991 1079.65 104.2 1039.65 121.386C1003.45 137.071 965.991 148.982 929.118 162.85C910.283 169.798 891.965 178.073 874.3 187.612C856.316 197.494 839.474 209.371 823.076 221.654C792.166 244.808 764.379 270.868 740.729 301.418C720.322 327.739 702.391 356.091 679.014 380.009C665.967 393.341 651.412 405.108 635.644 415.074C616.625 427.098 596.724 433.798 574.121 434.398C553.711 434.953 533.53 431.505 513.252 429.908C496.603 428.703 479.887 428.765 463.248 430.093C429.953 432.573 395.874 439.231 365.841 454.293C333.873 470.317 310.346 498.737 285.757 523.884C271.134 538.844 255.949 553.303 239.395 566.097C223.166 578.647 205.394 589.163 187.123 598.518C178.21 603.136 169.174 607.392 160.085 611.641C159.646 611.841 159.893 612.576 160.332 612.366Z" fill="#B4B4B4"/>
<path d="M156.035 617.178C174.141 609.771 192.018 601.762 208.937 591.921C226.844 581.413 243.482 568.88 258.524 554.568C286.735 528.042 308.881 495.241 338.516 470.284C365.899 447.16 402.938 437.057 437.882 432.585C455.121 430.387 472.507 429.567 489.877 430.131C509.258 430.753 528.183 434.305 547.379 436.693C566.327 439.053 585.753 439.745 604.261 434.315C623.575 428.644 640.83 416.27 656.046 403.4C681.666 381.731 700.19 354.227 718.535 326.477C728.532 311.344 738.753 296.351 750.227 282.292C763.453 266.217 778.21 251.464 794.288 238.242C827.071 211.124 863.055 187.759 902.997 172.863C941.411 158.527 981.684 150.063 1020.33 136.206C1059.44 122.306 1097.18 104.833 1133.08 84.009C1142.77 78.3544 1152.29 72.4255 1161.65 66.2222C1161.72 66.16 1161.76 66.0743 1161.78 65.9811C1161.79 65.8878 1161.77 65.7933 1161.71 65.715C1161.66 65.6367 1161.58 65.5799 1161.49 65.5551C1161.4 65.5303 1161.31 65.5392 1161.22 65.5802C1124.37 89.7793 1085.14 110.147 1044.14 126.367C1006.25 141.524 967.029 151.527 928.132 163.562C908.447 169.467 889.269 176.949 870.786 185.937C852.411 195.072 835.187 206.572 818.558 218.581C786.489 241.73 758.344 268.508 735.217 300.669C715.68 327.842 699.262 357.348 676.723 382.284C663.797 396.568 649.069 409.112 632.909 419.601C614.302 431.987 592.318 438.314 569.973 437.714C549.58 437.324 529.597 432.869 509.377 430.675C493.024 429.015 476.563 428.705 460.16 429.747C426.138 431.715 390.993 438.384 360.674 454.549C328.993 471.45 307.102 501.549 283.507 527.736C269.202 543.59 254.087 558.722 237.27 571.932C220.219 585.34 201.259 596.088 181.645 605.265C173.136 609.244 164.487 612.924 155.8 616.483C155.339 616.674 155.586 617.398 156.037 617.208L156.035 617.178Z" fill="#B4B4B4"/>
<path d="M151.75 622.001C170.385 615.394 188.706 607.811 205.973 598.124C224.448 587.647 241.446 574.757 256.519 559.792C283.987 532.827 304.437 499.632 332.138 472.961C358.042 448.035 395.281 437.142 430.082 432.503C447.68 430.175 465.448 429.398 483.182 430.18C502.442 431.015 521.053 434.81 539.977 438.178C559.285 441.605 579.2 443.838 598.511 439.346C618.854 434.62 636.491 422.102 652.03 408.627C677.995 386.17 695.71 357.451 713.115 328.36C722.635 312.424 732.39 296.648 743.672 281.902C756.212 265.583 770.518 250.7 786.328 237.524C819.454 209.77 856.931 186.318 898.141 172.969C938.607 159.869 981.031 154.194 1021.62 141.415C1062.37 128.689 1101.62 111.567 1138.67 90.3532C1148.76 84.5387 1158.64 78.4007 1168.33 71.9391C1168.41 71.8819 1168.46 71.7964 1168.48 71.7005C1168.5 71.6045 1168.48 71.5055 1168.42 71.424C1168.37 71.3425 1168.29 71.2849 1168.19 71.263C1168.1 71.2412 1168 71.2568 1167.91 71.3068C1130.31 96.1653 1089.89 116.476 1047.5 131.815C1028.06 138.939 1008.26 145.029 988.177 150.057C967.265 155.247 946.107 159.363 925.214 164.521C903.803 169.703 882.927 176.886 862.86 185.975C844.873 194.196 827.909 205.578 811.798 216.972C779.439 239.881 751.776 267.022 729.789 300.091C710.607 328.977 695.335 360.55 672.593 386.934C659.624 401.941 644.574 415.015 627.902 425.758C607.86 438.713 585.244 442.647 561.722 440.479C541.727 438.63 522.328 433.27 502.384 430.895C485.961 429.03 469.408 428.591 452.91 429.582C418.771 431.485 383.226 438.506 353.458 456.034C322.707 474.122 302.687 505.897 280.245 532.695C266.584 549.025 251.833 564.433 235.144 577.717C217.719 591.598 198.057 602.428 177.586 611.152C168.998 614.828 160.266 618.144 151.502 621.256C151.413 621.295 151.342 621.366 151.303 621.455C151.264 621.544 151.259 621.644 151.29 621.736C151.321 621.828 151.385 621.905 151.47 621.952C151.555 621.999 151.655 622.013 151.749 621.99L151.75 622.001Z" fill="#B4B4B4"/>
<path d="M147.452 626.813C188.049 614.556 224.901 595.367 254.734 564.777C281.846 536.981 300.651 502.465 327.338 474.417C352.475 447.936 390.331 436.525 425.59 432.003C443.387 429.729 461.36 429.147 479.267 430.262C498.771 431.411 517.375 435.802 536.357 439.986C555.547 444.21 575.428 447.46 594.974 443.663C615.748 439.63 633.308 427.208 648.88 413.414C675.683 389.678 692.626 358.952 709.403 327.856C718.213 311.54 727.35 295.359 738.254 280.296C750.581 263.271 764.996 247.86 781.163 234.426C814.871 206.28 853.588 183.167 896.183 171.769C938.606 160.412 982.734 157.592 1025.13 145.847C1066.83 134.401 1106.95 117.817 1144.55 96.4742C1154.94 90.5602 1165.09 84.2733 1175.01 77.6136C1175.09 77.5513 1175.13 77.4657 1175.14 77.3724C1175.16 77.2792 1175.13 77.1847 1175.08 77.1064C1175.03 77.0281 1174.95 76.9713 1174.86 76.9465C1174.77 76.9217 1174.67 76.9306 1174.59 76.9715C1136.1 102.617 1094.32 122.945 1050.38 137.401C1030.71 143.955 1010.65 149.294 990.317 153.389C968.008 157.829 945.483 160.66 923.173 164.905C901.269 169.075 879.579 174.822 859.053 183.661C840.599 191.611 823.009 202.804 806.529 214.209C773.795 236.853 746.301 264.261 725.376 298.294C706.621 328.704 692.75 362.176 670.17 390.109C657.397 405.916 642.206 419.604 625.158 430.665C605.076 443.632 581.968 446.497 558.659 443.404C538.404 440.606 518.896 434.257 498.771 431.411C482.081 429.106 465.211 428.365 448.383 429.197C414.245 430.761 378.466 437.816 349.052 455.97C318.004 475.131 299.42 509.029 277.558 537.158C264.374 554.116 249.825 570.005 233.057 583.52C215.701 597.519 195.896 608.173 175.211 616.396C166.034 620.004 156.68 623.212 147.235 626.066C146.761 626.207 147.008 626.931 147.482 626.791L147.452 626.813Z" fill="#B4B4B4"/>
<path d="M143.15 631.626C184.822 621.112 222.629 601.939 252.325 570.404C279.606 541.439 296.847 505.065 323.025 475.302C347.335 447.658 385.503 435.788 420.934 431.41C439.243 429.136 457.737 428.753 476.124 430.269C495.149 431.836 513.236 436.513 531.631 441.357C551.422 446.592 572.117 451.139 592.667 447.673C613.542 444.158 630.944 431.838 646.334 417.9C673.823 392.893 689.809 360.366 705.795 327.47C713.805 310.974 722.215 294.64 732.473 279.4C744.792 261.14 759.667 244.742 776.644 230.708C810.752 202.384 850.523 179.744 894.074 170.332C916.695 165.443 939.79 163.584 962.777 161.116C984.932 158.809 1006.91 155.548 1028.59 150.355C1071.52 140.078 1112.8 123.86 1151.25 102.169C1161.63 96.2966 1171.76 90.0245 1181.65 83.3531C1182.06 83.0727 1181.6 82.433 1181.23 82.7105C1142.33 108.817 1099.74 128.964 1054.88 142.485C1033.85 148.89 1012.37 153.732 990.631 156.971C967.789 160.344 944.755 161.82 921.842 164.869C899.266 167.877 876.118 172.365 855.094 181.274C836.45 189.153 818.722 199.554 801.99 210.851C785.04 222.293 768.831 235.181 754.757 250.068C741.225 264.38 729.908 280.635 720.241 297.75C702.468 329.18 690.209 363.728 668.232 392.704C655.595 409.374 639.921 424.425 622.102 435.56C601.316 448.588 577.401 450.095 553.759 445.667C533.55 441.913 514.149 434.737 493.809 431.544C477.132 428.983 460.245 428.053 443.388 428.768C409.063 430.107 372.821 437.312 343.708 456.423C313.076 476.555 296.118 511.969 275.239 540.964C262.393 558.795 247.904 575.368 230.853 589.319C213.105 603.803 192.584 614.509 171.095 622.296C161.836 625.623 152.416 628.482 142.87 630.863C142.385 630.983 142.632 631.707 143.117 631.587L143.15 631.626Z" fill="#B4B4B4"/>
<path d="M138.862 636.442C181.852 627.616 220.877 608.229 250.539 575.404C277.531 545.522 293.184 507.947 318.295 476.759C341.617 447.798 380.038 435.349 415.722 430.905C434.486 428.573 453.451 428.329 472.269 430.178C491.095 432.022 508.848 436.945 526.888 442.404C546.582 448.445 567.133 454.211 587.953 451.878C609.354 449.471 626.963 437.713 642.573 423.506C670.617 397.985 685.988 364.58 700.781 330.389C708.373 312.872 716.28 295.459 726.377 279.212C738.135 260.32 752.791 243.395 769.807 229.056C786.739 214.871 805.119 202.511 824.642 192.178C845.594 180.743 868.293 172.852 891.819 168.824C915.123 164.902 938.741 164.305 962.316 163.126C985.01 161.988 1007.54 159.843 1029.84 155.384C1074.66 146.383 1117.79 130.418 1157.67 108.069C1168.15 102.19 1178.36 95.8724 1188.32 89.1149C1188.39 89.0527 1188.43 88.967 1188.45 88.8738C1188.46 88.7806 1188.44 88.6861 1188.38 88.6078C1188.33 88.5295 1188.25 88.4727 1188.16 88.4479C1188.07 88.4231 1187.98 88.432 1187.89 88.4729C1147.96 115.42 1103.84 135.578 1057.33 148.132C1035.51 154.089 1013.22 158.192 990.704 160.397C966.997 162.66 943.156 162.778 919.43 164.714C896.317 166.605 872.114 170.036 850.505 178.958C831.107 187.091 812.566 197.135 795.158 208.942C777.784 220.665 761.162 234.048 747.213 249.851C734.157 264.597 723.468 281.237 714.532 298.76C697.718 331.694 686.811 367.815 664.642 397.9C651.951 415.045 635.549 431.523 616.744 441.925C595.673 453.575 572.073 453.258 549.217 447.882C529.46 443.24 510.551 435.543 490.598 431.938C473.791 428.983 456.723 427.774 439.667 428.33C404.666 429.329 367.328 436.741 338.213 457.226C308.34 478.258 293.13 514.628 273.497 544.237C260.761 563.437 245.982 581.196 228.087 595.801C210.192 610.407 189.121 621.011 167.148 628.231C157.798 631.273 148.282 633.776 138.646 635.726C138.159 635.826 138.406 636.55 138.893 636.45L138.862 636.442Z" fill="#B4B4B4"/>
<path d="M134.476 641.278C178.124 634.25 218.097 615.106 247.593 581.705C274.837 550.875 289.013 511.878 313.101 478.964C335.695 448.066 374.62 434.736 411.257 430.278C430.24 427.976 449.426 427.899 468.427 430.048C487.527 432.195 505.388 437.562 523.503 443.787C543.094 450.521 563.54 457.318 584.544 455.847C606.702 454.299 624.799 442.482 640.623 427.709C669.247 401.056 683.593 366.05 697.373 330.317C704.322 312.313 711.636 294.412 721.344 277.644C732.566 258.276 746.99 240.95 764.004 226.403C781.225 211.835 800.07 199.305 820.166 189.06C829.875 183.988 839.895 179.533 850.166 175.724C862.611 171.168 876.054 168.78 889.159 167.129C913.456 164.072 937.953 164.83 962.372 164.946C986.428 165.011 1010.32 163.823 1034.06 159.773C1079.17 152.059 1122.67 136.836 1162.74 114.737C1173.83 108.625 1184.6 102.001 1195.06 94.8659C1195.47 94.5861 1195.01 93.9459 1194.64 94.2239C1154 121.793 1108.73 141.835 1061 153.394C1038.37 158.945 1015.27 162.342 991.995 163.54C967.692 164.72 943.371 163.46 919.061 164.148C895.508 164.813 870.664 167.102 848.43 175.496C828.669 183.09 809.792 192.811 792.133 204.488C774.204 216.192 757.112 229.787 743.002 245.989C729.728 261.219 719.117 278.522 710.541 296.763C694.786 330.282 685.603 366.928 664.885 397.996C652.531 416.537 635.888 434.168 616.472 445.353C595.15 457.634 571.021 456.855 547.935 450.692C527.943 445.366 508.929 436.722 488.641 432.479C471.775 429.037 454.581 427.462 437.371 427.783C402.063 428.277 364.14 435.496 334.905 456.399C304.371 478.228 290.578 516.403 271.617 547.338C259.847 566.574 245.964 584.404 228.838 599.17C210.695 614.816 189.183 625.938 166.374 633.083C155.919 636.324 145.244 638.807 134.432 640.511C133.944 640.59 133.988 641.357 134.476 641.278Z" fill="#B4B4B4"/>
<path d="M130.167 646.092C175.307 640.732 216.831 621.108 246.374 586.032C273.25 554.157 285.708 514.008 308.954 479.841C330.941 447.479 370.905 433.69 408.192 429.471C427.474 427.288 446.952 427.477 466.188 430.035C485.704 432.629 503.72 438.736 522.063 445.707C541.048 452.968 560.962 460.309 581.702 459.612C604.367 458.844 622.794 447.049 638.818 431.834C667.909 404.211 681.27 367.774 693.886 330.724C700.482 311.397 707.502 292.149 717.391 274.242C728.37 254.413 742.863 236.746 760.163 222.103C778.196 206.967 798.082 194.188 819.342 184.072C828.846 179.441 838.649 175.447 848.683 172.117C861.277 168.004 874.825 166.194 887.996 165.145C912.99 163.146 938 165.33 962.959 166.625C987.651 167.925 1012.13 167.791 1036.62 164.415C1083.17 157.952 1128.14 143.045 1169.34 120.428C1180.42 114.316 1191.18 107.7 1201.6 100.581C1201.68 100.524 1201.74 100.437 1201.76 100.338C1201.78 100.239 1201.76 100.136 1201.7 100.052C1201.64 99.9682 1201.56 99.9103 1201.46 99.891C1201.36 99.8717 1201.26 99.8927 1201.17 99.9492C1159.62 128.306 1112.95 148.319 1063.76 158.876C1041 163.834 1017.8 166.458 994.515 166.707C969.251 166.887 944.109 164.197 918.863 163.616C894.461 163.069 868.763 164.258 845.517 172.352C825.676 179.39 806.713 188.692 789.003 200.074C770.64 211.732 753.065 225.477 738.783 242.069C725.193 257.871 714.649 275.97 706.42 295.063C691.245 330.281 683.572 368.738 662.814 401.408C650.595 420.701 633.321 439.65 612.959 450.449C591.51 461.947 567.66 459.963 545.157 453.069C525.462 447.028 506.807 437.85 486.722 433.032C469.463 429.026 451.791 427.077 434.074 427.225C398.519 427.333 360.074 434.583 330.903 456.056C300.162 478.739 287.843 518.275 269.76 550.38C258.596 570.175 245.187 588.563 228.176 603.732C209.36 620.514 186.616 632.138 162.414 638.975C151.859 641.938 141.085 644.061 130.194 645.321C129.704 645.349 129.75 646.147 130.239 646.088L130.167 646.092Z" fill="#B4B4B4"/>
<path d="M125.872 650.949C172.471 647.228 215.611 627.162 245.116 590.365C271.52 557.43 282.364 516.154 304.663 480.851C325.937 447.177 366.507 432.871 404.428 428.779C424.153 426.653 444.07 427.083 463.686 430.06C483.417 433.021 501.492 439.781 519.843 447.428C538.625 455.255 558.281 463.288 578.952 463.334C602.023 463.374 620.835 451.679 636.983 436.129C666.377 407.709 678.821 370.33 690.256 332.168C696.277 312.136 702.597 292.128 712.154 273.461C722.539 253.016 736.786 234.776 754.107 219.748C772.574 203.986 793.132 190.854 815.198 180.725C825.124 176.054 835.365 172.085 845.847 168.848C859.021 164.835 873.23 163.469 886.946 162.973C912.945 162.044 938.747 165.67 964.539 168.25C988.97 170.704 1013.35 171.581 1037.82 169.14C1085.87 164.158 1132.47 149.748 1174.94 126.733C1186.42 120.534 1197.56 113.726 1208.32 106.34C1208.72 106.06 1208.27 105.42 1207.89 105.698C1165.05 135.076 1116.51 155.103 1065.42 164.476C1041.58 168.919 1017.33 170.666 993.106 169.685C967.902 168.589 942.954 164.637 917.836 162.889C892.914 161.172 866.665 161.346 842.669 169.063C821.947 175.916 802.162 185.33 783.773 197.087C764.891 208.826 747.11 222.912 732.985 240.1C719.618 256.372 709.532 274.936 701.915 294.527C687.628 331.253 681.493 371.303 660.68 405.32C648.779 424.779 631.65 444.12 611.227 454.748C589.322 466.17 565.014 463.176 542.429 455.394C523.004 448.702 504.672 438.9 484.753 433.6C467.201 429.056 449.147 426.733 431.016 426.688C394.761 426.395 355.159 433.691 325.898 456.431C295.135 480.336 284.426 521.645 267.023 554.86C256.363 575.211 243.135 594.08 226.029 609.543C207.07 626.692 183.872 638.28 159.204 644.662C148.28 647.461 137.132 649.3 125.888 650.158C125.798 650.178 125.718 650.23 125.663 650.304C125.607 650.377 125.579 650.468 125.585 650.56C125.59 650.653 125.628 650.74 125.692 650.807C125.755 650.873 125.841 650.915 125.933 650.925L125.872 650.949Z" fill="#B4B4B4"/>
<path d="M121.579 655.728C168.948 653.799 213.329 633.722 242.759 595.986C269.497 561.719 278.694 518.753 300.424 481.791C321.108 446.592 362.716 431.774 401.439 427.924C421.605 425.914 441.951 426.649 461.919 430.108C481.793 433.574 499.79 440.944 518.085 449.22C537.235 457.907 557.5 466.9 578.951 466.952C601.992 467.004 620.689 454.916 636.493 439.098C666.454 409.127 677.361 369.652 687.78 329.877C693.255 308.923 699.277 288.02 708.984 268.575C719.472 247.513 734.206 228.85 752.258 213.76C771.315 197.97 792.576 185.047 815.367 175.399C825.26 171.067 835.472 167.504 845.912 164.739C859.303 161.298 873.698 160.65 887.482 160.806C914.169 161.119 940.467 166.244 966.813 170.064C991.276 173.604 1015.75 175.439 1040.45 173.703C1089.36 170.279 1137.59 155.929 1180.8 132.874C1192.58 126.575 1203.99 119.61 1214.98 112.014C1215.05 111.951 1215.1 111.866 1215.11 111.772C1215.12 111.679 1215.1 111.585 1215.05 111.506C1215 111.428 1214.92 111.371 1214.83 111.346C1214.74 111.322 1214.64 111.331 1214.56 111.371C1170.76 141.581 1120.74 161.551 1068.18 169.801C1043.68 173.697 1018.79 174.63 994.069 172.58C968.248 170.392 942.817 165.011 917.075 162.069C892.677 159.285 866.589 158.158 842.737 164.83C821.449 170.78 801.051 180.238 782.16 191.639C763.031 203.177 744.783 217.167 730.378 234.309C716.226 251.201 705.913 270.804 698.431 291.484C684.758 329.427 680.326 370.712 660.412 406.287C648.713 427.108 631.031 448.051 609.436 458.972C586.953 470.346 562.357 466.27 539.751 457.608C520.607 450.264 502.573 439.942 482.841 434.139C465.207 429.103 446.987 426.411 428.651 426.134C391.873 425.318 351.383 432.502 321.913 455.9C290.77 480.678 281.51 523.452 264.963 557.827C254.663 579.245 241.487 599.188 223.833 615.288C204.677 632.756 181.11 644.346 155.945 650.294C144.647 652.924 133.124 654.47 121.532 654.91C121.442 654.931 121.362 654.982 121.306 655.056C121.251 655.129 121.223 655.22 121.229 655.313C121.234 655.405 121.272 655.492 121.336 655.559C121.399 655.626 121.485 655.668 121.576 655.677L121.579 655.728Z" fill="#B4B4B4"/>
<path d="M117.282 660.543C166.043 660.338 212.088 639.776 241.456 600.269C268.105 564.458 275.324 519.74 296.924 481.411C317.22 445.362 359.984 430.498 399.05 427.059C419.062 425.28 439.224 426.268 458.968 429.993C479.566 433.93 497.937 442.099 516.681 451.21C535.425 460.322 555.111 469.758 576.267 470.576C599.983 471.481 619.277 459.256 635.333 442.819C665.681 411.738 675.434 370.935 684.714 329.913C689.615 308.243 695.038 286.564 704.496 266.364C714.642 244.644 729.425 225.411 747.804 210.019C767.006 194.128 788.514 181.252 811.59 171.834C821.786 167.543 832.307 164.071 843.053 161.45C856.469 158.253 870.743 157.991 884.47 158.582C911.277 159.729 937.46 165.877 963.704 170.954C989.452 175.947 1015.27 179.254 1041.53 178.319C1092.19 176.477 1142.49 162.479 1187.22 138.761C1199.11 132.457 1210.6 125.452 1221.65 117.784C1222.06 117.504 1221.6 116.864 1221.23 117.142C1176.1 148.407 1124.11 168.342 1069.64 175.257C1044.1 178.558 1018.24 178.517 992.707 175.133C966.609 171.514 941.06 164.981 915.051 160.967C890.752 157.244 864.683 155.193 840.602 161.273C818.431 166.864 797.156 176.413 777.534 188.103C757.911 199.793 739.487 213.936 725.186 231.636C711.632 248.411 701.878 267.736 695.026 288.124C681.539 328.22 678.996 371.867 658.746 409.595C647.144 431.201 628.82 453.473 606.162 463.923C583.783 474.254 559.661 469.167 537.832 460.09C518.641 452.113 500.679 441.079 480.839 434.667C463.303 429.204 445.103 426.161 426.743 425.621C389.263 424.199 347.584 431.226 317.792 455.607C286.372 481.283 278.566 525.42 262.913 560.881C253.111 583.101 240.215 603.808 222.389 620.491C202.763 638.869 178.135 650.746 151.896 656.223C140.489 658.567 128.874 659.758 117.228 659.777C116.737 659.805 116.78 660.552 117.272 660.544L117.282 660.543Z" fill="#B4B4B4"/>
<path d="M112.986 665.365C163.058 666.889 210.891 645.855 240.112 604.52C266.253 567.549 271.876 521.846 292.63 482.355C312.358 444.832 356.138 429.447 396.059 426.246C416.517 424.59 437.107 425.883 457.198 430.084C477.52 434.376 495.523 442.925 513.88 452.448C532.791 462.309 552.781 472.764 574.473 474.135C598.542 475.656 618.2 463.328 634.313 446.466C665.26 414.048 673.728 371.586 681.887 329.101C686.167 306.811 691.049 284.465 700.276 263.632C710.352 240.816 725.666 220.697 744.975 204.909C764.707 188.935 786.842 176.182 810.558 167.123C821.519 162.74 832.874 159.418 844.469 157.202C858.266 154.742 872.888 155.004 886.797 156.251C913.727 158.653 939.787 166.202 965.978 172.493C991.723 178.686 1017.6 182.995 1044.15 182.783C1095.47 182.368 1146.71 169.034 1192.19 145.376C1204.69 138.853 1216.75 131.533 1228.31 123.459C1228.72 123.179 1228.26 122.539 1227.89 122.817C1182.03 154.731 1128.83 174.532 1073.26 180.38C1047.07 183.185 1020.61 182.323 994.657 177.819C968.19 173.134 942.474 165.134 916.136 159.857C891.448 154.915 864.781 151.934 839.924 157.352C817.213 162.297 795.341 171.624 775.251 183.218C755.161 194.811 735.635 209.419 720.973 227.776C707.095 245.165 697.39 265.338 690.986 286.561C678.336 328.178 677.495 373.399 657.362 412.618C646.052 434.679 627.649 457.694 604.56 467.984C581.863 478.128 557.622 472.217 535.971 462.494C516.732 453.873 498.894 442.145 478.869 435.19C461.06 429.165 442.477 425.728 423.69 424.986C385.91 423.161 343.675 430.148 313.82 455.035C298.848 467.513 290.128 483.803 283.028 501.671C274.798 522.354 268.884 543.887 260.497 564.518C251.267 587.238 238.742 608.487 220.949 625.569C200.861 644.824 175.245 656.994 147.961 661.967C136.415 664.04 124.682 664.894 112.957 664.515C112.464 664.493 112.508 665.259 113.002 665.282L112.986 665.365Z" fill="#B4B4B4"/>
<path d="M108.689 670.175C159.443 673.394 208.606 652.487 237.79 610.139C264.532 571.338 268.005 523.38 288.949 482.042C308.279 443.844 352.82 428.303 393.055 425.411C413.96 423.875 434.977 425.477 455.407 430.164C476.033 434.941 494.049 444.238 512.425 454.427C531.5 465.007 551.806 476.315 574.018 477.81C597.547 479.393 616.822 467.374 632.533 450.833C664.442 417.293 671.836 373.118 678.833 329.172C682.47 306.396 686.669 283.587 695.472 262.174C704.923 238.912 719.932 218.321 739.186 202.205C759.135 185.511 782.439 172.552 806.753 163.422C818.029 159.084 829.701 155.853 841.603 153.775C855.725 151.44 870.654 152.402 884.79 154.2C912.432 157.73 939.006 166.378 965.755 173.795C991.815 181.007 1018.08 186.452 1045.17 187.131C1098.15 188.457 1151.59 175.508 1198.6 151.177C1211.2 144.643 1223.36 137.272 1234.98 129.112C1235.38 128.833 1234.92 128.192 1234.55 128.481C1187.56 161.336 1132.65 181.059 1075.49 185.613C1048.31 187.766 1020.95 185.952 994.283 180.228C967.276 174.384 941.105 165.251 914.142 158.923C889.32 153.076 862.275 148.866 837.005 153.908C813.683 158.559 791.192 167.84 770.602 179.648C750.198 191.311 730.736 205.956 716.234 224.611C702.41 242.386 693.067 262.969 687.118 284.607C675.255 327.779 676.11 374.482 656.237 415.357C645.241 438.046 626.638 461.873 602.986 472.175C579.973 482.173 555.659 475.364 534.137 465.039C514.534 455.608 496.364 442.935 475.825 435.425C458.063 429.11 439.473 425.427 420.645 424.492C382.566 422.285 339.751 429.172 309.835 454.607C294.594 467.561 286.042 484.457 279.288 502.992C271.445 524.514 266.1 546.835 258.08 568.316C249.285 591.822 236.938 613.85 218.795 631.445C198.341 651.275 171.916 663.471 143.881 667.863C132.227 669.66 120.411 670.179 108.644 669.408C108.15 669.375 108.205 670.142 108.689 670.175Z" fill="#B4B4B4"/>
<path d="M104.29 674.985C155.107 679.83 205.148 659.724 234.516 617.192C262.162 577.169 264.204 527.539 284.061 484.244C302.382 444.207 347.368 427.676 388.596 424.737C409.978 423.181 431.472 424.955 452.31 429.996C473.337 435.139 491.466 444.973 509.995 455.861C529.024 467.069 549.293 479.149 571.721 481.37C595.447 483.7 615.049 472.001 630.883 455.279C646.717 438.557 657.648 418.118 664.16 396.098C670.671 374.079 673.11 351.167 676.065 328.471C679.14 304.856 682.832 281.092 691.526 258.854C700.892 234.756 716.338 213.494 736.36 197.138C756.838 180.373 780.803 167.509 805.738 158.815C817.37 154.613 829.416 151.664 841.673 150.018C856.36 148.214 871.741 149.909 886.255 152.403C913.96 157.181 940.434 166.953 967.121 175.42C993.451 183.744 1020.1 190.213 1047.77 191.628C1101.36 194.334 1155.78 182.108 1203.57 157.804C1216.8 151.088 1229.54 143.434 1241.68 134.9C1242.08 134.621 1241.63 133.98 1241.25 134.258C1193.23 167.926 1136.76 187.497 1078.2 190.76C1050.97 192.274 1023.67 189.729 997.184 183.21C969.745 176.458 943.35 166.117 916.149 158.5C891.022 151.461 863.271 145.691 837.152 149.879C813.586 153.694 790.753 162.543 769.819 173.909C748.349 185.593 727.728 200.592 712.586 220.053C698.465 238.184 689.217 259.357 683.546 281.543C672.191 326.234 674.978 374.415 655.609 417.077C645.048 440.387 626.663 464.949 602.767 475.655C579.383 486.158 554.573 478.741 532.889 467.738C513.363 457.871 495.436 444.62 475.042 436.425C457.252 429.248 438.127 425.441 419.039 424.032C380.234 421.148 336.178 427.861 305.837 454.1C290.695 467.182 282.323 484.181 275.986 502.825C268.61 524.618 263.895 547.2 256.655 569.036C248.436 593.81 236.54 617.249 217.966 635.894C197.365 656.574 170.363 669.245 141.554 673.383C129.261 675.12 116.805 675.389 104.449 674.186C103.964 674.142 103.802 674.89 104.288 674.944L104.29 674.985Z" fill="#B4B4B4"/>
<path d="M99.9909 679.801C152.685 686.415 205.049 665.333 234.102 620.009C260.66 578.562 260.754 528.05 280.316 483.93C298.417 443.096 344.441 426.422 386.184 423.884C407.655 422.546 429.203 424.609 450.03 429.997C471.005 435.482 488.96 445.675 507.239 457.029C526.474 468.963 546.969 482.107 569.933 484.912C594.261 487.885 614.415 475.816 630.427 458.437C663.568 422.445 668.463 375.143 673.178 328.631C675.648 304.302 678.711 279.754 687.15 256.659C696.091 231.92 711.55 210.056 731.893 193.379C752.281 176.65 776.194 163.942 801.097 155.414C813.3 151.09 825.941 148.119 838.793 146.556C853.52 144.915 868.827 146.922 883.299 149.757C912.349 155.451 939.909 166.791 967.734 176.67C994.605 186.193 1021.88 193.806 1050.41 195.982C1105.12 200.15 1161.05 188.402 1209.98 163.734C1223.3 156.987 1236.11 149.27 1248.31 140.644C1248.71 140.354 1248.25 139.713 1247.88 140.002C1198.96 174.401 1141.09 193.809 1081.32 195.855C1052.47 196.817 1023.64 193.181 995.925 185.081C968.549 177.105 942.284 165.823 915.109 157.251C888.99 149.007 860.22 142.291 832.725 146.63C809.112 150.335 786.177 159.036 765.2 170.363C743.566 182.036 722.819 197.166 707.847 216.905C693.455 235.852 684.447 257.995 679.325 281.144C669.167 327.191 673.461 376.598 654.237 420.544C643.91 444.159 625.462 469.248 601.25 479.798C577.548 490.123 552.603 481.802 531.092 470.235C511.486 459.696 493.603 445.786 473.093 437.002C454.982 429.259 435.364 425.061 415.782 423.455C377.042 420.28 333.044 426.763 302.604 452.875C268.959 481.767 266.427 531.26 254.569 571.139C246.997 596.646 235.667 621.005 217.075 640.4C196.499 661.869 169.204 674.966 139.841 678.932C126.676 680.714 113.335 680.772 100.156 679.104C99.67 679.04 99.5081 679.788 99.9939 679.852L99.9909 679.801Z" fill="#B4B4B4"/>
<path d="M95.6964 684.61C121.716 688.634 148.865 686.13 173.254 675.97C197.832 665.717 218.259 647.549 232.236 624.954C245.292 603.839 252.097 579.802 257.468 555.798C262.839 531.793 266.666 506.452 276.545 483.602C294.457 442.152 341.047 425.353 383.175 423.07C404.879 421.872 426.634 424.191 447.598 429.94C469.132 435.874 487.299 446.896 505.857 459.003C524.895 471.421 545.204 485.067 568.19 488.425C592.447 491.966 612.758 480.278 628.808 462.866C662.859 425.929 666.795 377.114 670.323 329.408C672.189 304.222 674.571 278.728 682.729 254.665C691.357 229.081 706.927 206.401 727.702 189.156C749.26 171.335 774.116 157.932 800.852 149.712C828.373 141.227 855.748 141.202 883.821 147.743C913.309 154.643 941.011 167.186 969.115 178.166C995.96 188.665 1023.32 197.258 1052.11 200.239C1108.35 206.063 1166.31 194.833 1216.72 169.413C1230.03 162.694 1242.82 154.984 1254.98 146.347C1255.38 146.067 1254.92 145.427 1254.55 145.705C1204.6 180.945 1145.14 200.204 1084.02 200.937C1055.12 201.263 1026.35 196.931 998.831 188.11C970.727 179.078 943.997 166.5 916.185 156.652C889.638 147.243 861.158 139.864 832.78 142.408C808.361 144.59 784.413 153.329 762.852 164.834C740.701 176.629 719.496 192.164 704.2 212.332C689.155 232.066 680.164 255.367 675.445 279.642C666.207 327.062 672.158 377.634 653.347 423.033C643.298 447.38 624.641 473.282 599.724 483.883C575.749 494.091 550.54 484.748 529.265 472.665C509.622 461.493 491.774 446.934 471.128 437.574C453.002 429.391 433.217 424.802 413.447 422.95C374.164 419.253 329.215 425.597 298.516 452.4C282.797 466.131 274.474 483.967 268.753 503.705C261.972 527.094 258.407 551.281 252.043 574.79C245.011 600.757 234.142 625.644 215.588 645.519C194.598 667.976 166.219 681.321 135.801 684.773C122.522 686.242 109.107 685.934 95.9094 683.86C95.423 683.785 95.2611 684.533 95.7475 684.607L95.6964 684.61Z" fill="#B4B4B4"/>
<path d="M91.3983 689.434C118.009 694.285 146.034 692.192 171.128 681.817C196.011 671.526 216.641 652.957 230.355 629.905C243.559 607.796 249.878 582.619 254.789 557.574C259.53 533.144 262.797 507.702 272.203 484.479C289.561 441.615 337.128 424.309 380.172 422.27C402.559 421.186 424.968 423.889 446.455 430.263C468.021 436.739 486.02 448.406 504.453 461.003C523.312 473.892 543.464 488.01 566.461 491.921C591.323 496.145 612.164 484.067 628.364 466.051C662.935 427.649 665.267 376.987 667.675 328.013C668.945 302.625 670.753 276.95 678.417 252.515C686.773 225.722 702.839 201.985 724.606 184.269C746.248 166.74 771.14 153.661 797.852 145.783C826.088 137.411 854.005 137.878 882.447 145.321C912.39 153.159 940.32 166.795 968.665 178.931C995.568 190.443 1023.02 200.23 1052.12 204.229C1109.53 212.119 1169.42 201.721 1221.32 176.184C1235.39 169.244 1248.87 161.182 1261.64 152.076C1262.04 151.786 1261.58 151.146 1261.21 151.434C1209.82 187.795 1148.2 206.893 1085.25 205.974C1054.85 205.418 1024.76 199.738 996.254 189.172C968.244 178.925 941.541 165.391 913.733 154.743C887.668 144.783 859.561 136.757 831.392 138.673C806.412 140.375 781.881 148.963 759.825 160.435C737.128 172.179 715.47 187.864 700 208.401C684.706 228.775 675.899 252.794 671.65 277.739C663.201 326.734 670.97 378.77 652.358 425.83C642.511 450.658 623.737 477.561 598.245 487.97C574.425 497.676 549.71 488.172 528.824 475.912C508.915 464.212 491.054 448.895 470.257 438.692C451.825 429.655 431.43 424.619 411.078 422.462C371.282 418.241 325.431 424.421 294.432 451.878C278.401 466.078 270.206 484.523 264.818 504.877C258.405 529.116 255.419 554.111 249.442 578.449C242.969 604.866 232.553 630.312 214.015 650.647C193.047 673.656 164.331 687.205 133.5 690.425C119.498 691.844 105.366 691.259 91.5295 688.688C91.433 688.677 91.3358 688.702 91.2568 688.758C91.1778 688.815 91.1228 688.899 91.1026 688.994C91.0824 689.089 91.0984 689.188 91.1476 689.271C91.1967 689.355 91.2754 689.418 91.3682 689.446L91.3983 689.434Z" fill="#B4B4B4"/>
<path d="M87.1023 694.217C114.275 699.907 143.218 698.264 169.015 687.642C194.463 677.165 215.352 657.935 228.906 634.072C241.669 611.609 247.42 586.187 251.765 560.949C256.111 535.711 258.726 509.456 267.907 485.354C284.504 441.57 332.234 423.536 375.76 421.5C398.86 420.375 421.977 423.312 444.062 430.176C466.274 437.189 484.541 449.754 503.328 463.15C522.114 476.547 541.999 491.028 565.013 495.4C589.657 500.129 610.604 488.455 626.799 470.522C662.523 430.945 663.715 378.503 664.996 328.117C665.677 301.584 666.869 274.672 674.55 249.108C682.5 222.078 698.532 198.128 720.491 180.476C742.573 162.715 768.897 149.838 796.105 142.141C809.094 138.466 822.595 135.859 836.117 135.549C851.861 135.182 867.96 138.835 882.982 143.352C941.801 160.812 992.58 198.319 1053.93 208.34C1112.62 217.931 1174.4 208.162 1227.74 182.049C1241.91 175.094 1255.48 166.981 1268.31 157.793C1268.71 157.514 1268.25 156.873 1267.88 157.162C1215.54 194.276 1152.45 213.182 1088.32 210.977C1057.09 209.773 1026.31 203.158 997.34 191.428C968.991 180.113 942.103 165.493 913.925 153.768C887.817 142.897 858.605 132.966 829.939 135.137C804.213 137.087 778.861 145.487 755.918 157.04C732.605 168.769 710.156 184.623 694.744 205.988C680.084 226.324 671.865 250.042 668.067 274.643C660.207 325.471 669.946 379.291 651.521 428.351C641.939 453.86 622.819 481.861 596.568 492.098C572.152 501.603 547.074 490.807 526.23 477.837C506.227 465.403 488.302 449.341 467.194 438.715C448.62 429.348 427.975 424.08 407.36 421.806C367.254 417.366 320.842 423.61 289.924 451.76C273.846 466.383 265.942 485.262 260.948 506.024C254.901 531.114 252.485 556.907 246.885 582.095C240.876 609.244 230.733 635.515 211.869 656.423C190.576 680.026 161.023 693.644 129.448 696.239C115.319 697.367 101.101 696.445 87.2353 693.501C87.1361 693.48 87.0325 693.499 86.9472 693.554C86.8619 693.609 86.8019 693.695 86.7804 693.794C86.759 693.894 86.7778 693.997 86.8327 694.083C86.8877 694.168 86.9742 694.228 87.0734 694.249L87.1023 694.217Z" fill="#B4B4B4"/>
<path d="M82.8073 699.06C110.27 705.513 139.695 704.396 166.032 693.877C192.369 683.358 213.965 663.225 227.437 638.29C240.029 614.996 245.196 588.716 249.017 562.739C252.838 536.762 254.821 509.692 264.005 484.943C280.716 440.107 329.76 422.089 374.141 420.64C397.23 419.83 420.281 423.115 442.225 430.344C464.702 437.854 483.034 451.195 501.875 465.183C520.717 479.171 540.659 494.296 563.98 499.009C588.889 504.061 610.155 492.04 626.347 473.718C662.41 432.9 662.191 378.94 662.359 327.583C662.45 300.601 663.018 273.181 670.266 247.047C678.02 219.038 693.629 194.687 716.321 176.491C739.014 158.295 766.212 145.275 794.265 137.816C807.397 134.328 821.046 131.969 834.677 131.95C851.087 131.924 867.886 136.316 883.435 141.438C942.658 161.101 993.396 200.733 1055.56 212.42C1115.67 223.765 1179.52 214.584 1234.41 187.818C1248.59 180.869 1262.15 172.742 1274.97 163.521C1275.37 163.231 1274.91 162.591 1274.55 162.879C1221.61 200.815 1155.97 219.567 1090.94 215.944C1058.79 214.152 1027.91 206.379 998.361 193.656C969.958 181.411 943.101 165.907 914.917 153.187C888.754 141.366 859.135 130.084 829.964 131.33C803.555 132.457 777.363 140.691 753.65 152.238C729.619 163.967 706.252 180.099 690.561 202.116C675.463 223.227 667.555 248.066 664.253 273.613C657.559 325.286 668.539 379.619 651.12 429.758C641.905 456.293 622.475 485.86 595.139 496.129C570.372 505.429 545.149 493.708 524.472 480.257C504.733 467.418 487.111 451.103 466.357 439.871C447.7 429.781 426.72 424.03 405.797 421.393C364.788 416.247 316.808 422.325 285.425 451.65C269.329 466.685 261.699 486.03 257.075 507.171C251.398 533.143 249.569 559.702 244.398 585.736C238.831 613.619 228.993 640.724 209.844 662.202C188.178 686.442 157.775 700.088 125.475 702.039C111.236 702.873 96.9521 701.626 83.0732 698.337C82.974 698.316 82.8704 698.335 82.7851 698.39C82.6997 698.444 82.6398 698.531 82.6183 698.63C82.5968 698.729 82.6156 698.833 82.6706 698.918C82.7255 699.004 82.8121 699.064 82.9113 699.085L82.8073 699.06Z" fill="#B4B4B4"/>
<path d="M78.5087 703.885C106.229 711.072 136.199 710.518 163.044 700.092C189.89 689.667 211.863 669.133 225.273 643.668C238.045 619.41 242.74 592.049 246.085 565.125C249.409 538.367 250.748 510.082 260.123 484.543C276.771 439.167 326.331 421.037 371.129 419.882C395.101 419.179 418.994 422.938 441.591 430.966C463.863 439.012 481.901 452.944 500.443 467.257C518.986 481.57 539.38 497.592 563.006 502.615C588.296 508.035 609.786 495.642 625.974 476.879C662.382 434.77 660.647 379.256 659.702 326.917C659.191 299.108 659.173 270.779 666.384 243.652C673.667 215.173 690.118 189.881 713.199 171.678C736.388 153.381 764.269 140.465 792.9 133.424C806.047 130.181 819.702 128.109 833.278 128.38C851.042 128.717 869.059 134.126 885.601 140.278C944.303 162.104 994.383 202.78 1056.4 216.251C1117.99 229.633 1184.21 221.166 1240.83 193.663C1255.1 186.705 1268.74 178.538 1281.61 169.251C1282.02 168.961 1281.56 168.321 1281.19 168.609C1226.42 208.047 1157.57 226.533 1090.31 220.597C1058.62 217.804 1028.38 209.152 999.541 195.835C970.476 182.428 943.136 165.69 914.3 151.798C888.05 139.182 858.266 126.986 828.639 127.623C801.131 128.188 773.636 136.6 749.033 148.557C725.648 159.931 702.895 175.484 687.428 196.77C671.501 218.626 663.53 244.679 660.528 271.337C654.626 324.626 667.412 380.413 650.35 432.296C641.467 459.058 622.401 488.881 595.133 499.618C570.17 509.422 544.744 497.404 523.993 483.547C503.966 470.161 486.336 453.18 465.43 441.096C446.74 430.258 425.464 424.001 404.102 421.052C362.737 415.239 314.18 420.919 282.244 450.256C265.208 465.889 257.432 486.268 253.037 508.524C247.819 534.992 246.543 562.052 241.905 588.62C236.856 617.468 227.348 645.671 207.661 667.961C186.058 692.402 155.5 706.027 123.117 707.787C108.154 708.55 93.1618 706.995 78.673 703.178C78.1938 703.052 78.0428 703.809 78.5117 703.936L78.5087 703.885Z" fill="#B4B4B4"/>
<path d="M74.2275 708.697C102.905 716.823 134.269 716.609 162.15 705.478C189.65 694.491 211.673 672.867 224.506 646.297C236.5 621.52 240.453 593.935 243.224 566.829C245.995 539.723 246.819 511.232 255.773 485.328C272.089 438.114 323.454 419.613 369.559 419.07C393.52 418.695 417.339 422.799 439.793 431.172C462.456 439.78 480.606 454.578 499.34 469.557C517.86 484.374 537.931 500.64 561.564 506.145C587.339 512.162 609.229 499.408 625.581 480.112C662.538 436.494 659.072 379.06 657.031 325.522C655.965 297.51 655.423 268.996 662.093 241.562C669.27 212.067 685.186 186.478 709.104 167.657C732.462 149.249 760.634 136.408 789.479 129.518C803.319 126.215 817.696 124.204 831.955 124.764C849.926 125.478 868.052 131.353 884.65 137.943C944.639 161.787 995.311 205.27 1059.04 220.426C1121.61 235.27 1189.43 227.541 1247.27 199.537C1261.63 192.553 1275.37 184.332 1288.31 174.967C1288.7 174.677 1288.26 174.036 1287.88 174.325C1232.07 214.623 1161.7 232.704 1093.32 225.48C1060.63 222.026 1029.73 212.295 1000.25 197.804C971.187 183.474 943.892 165.892 915.075 151.107C887.846 137.153 856.818 123.5 825.63 123.94C797.835 124.317 770.001 132.543 745.092 144.528C721.022 156.106 697.634 172.219 682.176 194.376C666.718 216.533 659.238 242.732 656.793 269.44C651.761 324.309 666.355 381.551 649.412 435.14C640.796 462.451 621.469 493.264 593.518 503.722C567.967 513.283 542.189 499.963 521.525 485.485C501.704 471.584 484.207 454.246 463.471 441.711C444.573 430.291 422.823 423.651 401.087 420.446C359.446 414.3 310.267 419.853 278.172 449.65C261.244 465.359 253.508 485.726 249.401 507.996C244.384 535.272 243.676 563.121 239.59 590.528C235.142 620.039 226.377 649.205 206.728 672.322C184.86 698.04 153.267 712.197 119.72 713.512C104.413 714.053 89.1164 712.168 74.3985 707.928C73.929 707.791 73.7671 708.539 74.2468 708.675L74.2275 708.697Z" fill="#B4B4B4"/>
<path d="M69.9298 713.511C98.865 722.371 130.745 722.743 159.165 711.693C186.812 700.944 208.97 679.354 221.822 652.752C234.235 627.068 237.824 598.335 240.158 570.229C242.445 542.566 242.735 513.532 251.193 486.856C266.658 438.06 318.814 418.693 365.974 418.294C390.77 417.98 415.39 422.496 438.461 431.589C461.186 440.717 479.231 456.187 497.899 471.621C516.568 487.055 537.039 504.231 561.247 509.919C586.763 515.879 608.466 503.084 624.583 483.987C662.695 438.702 657.441 379.094 654.305 323.989C652.62 294.853 651.554 265.077 658.476 236.5C665.711 206.787 681.949 181.261 706.194 162.586C730.438 143.91 760.067 130.883 790.16 124.649C804.958 121.588 820.422 119.924 835.505 121.616C852.499 123.515 869.35 129.526 884.988 136.191C945.484 162.058 996.175 207.457 1060.67 224.323C1124.2 240.967 1193.87 234.055 1253.1 205.684C1267.78 198.628 1281.79 190.265 1294.97 180.696C1295.37 180.406 1294.91 179.766 1294.54 180.054C1238.19 220.855 1166.88 238.622 1097.88 230.531C1064.51 226.624 1032.96 216.212 1003.16 200.838C973.352 185.463 945.544 166.639 916.143 150.616C889.507 136.104 858.985 121.448 828.136 120.299C799.806 119.24 770.981 127 745.32 138.567C720.33 149.849 695.811 165.915 679.478 188.379C663.146 210.843 655.443 237.978 653.167 265.486C648.547 321.799 664.919 379.984 649.279 435.355C641.316 463.653 622.099 496.018 593.463 507.224C567.736 517.298 541.684 503.665 521 488.85C500.902 474.412 483.329 456.463 462.487 443C443.854 431.021 422.159 423.896 400.408 420.261C357.891 413.151 307.055 418.266 274.188 448.897C256.826 465.082 249.132 486.165 245.341 509.114C240.636 537.532 240.545 566.473 236.77 595.001C232.842 624.625 224.48 654.024 205.072 677.404C183.016 703.944 150.76 718.354 116.492 719.27C100.755 719.622 85.0654 717.411 70.0382 712.725C69.5579 712.579 69.4062 713.326 69.8763 713.473L69.9298 713.511Z" fill="#B4B4B4"/>
<path d="M65.6301 718.325C94.8027 727.92 127.209 728.866 156.167 717.908C184.794 707.082 207.576 684.573 220.253 656.894C232.095 631.1 235.216 602.425 237.021 574.411C238.908 545.674 238.553 515.589 246.789 487.747C261.651 437.56 314.841 417.631 362.931 417.526C387.969 417.357 412.794 422.129 435.985 431.569C458.885 441.075 476.894 456.999 495.52 472.928C514.405 489.099 535.063 507.177 559.753 513.411C585.776 519.978 607.881 506.873 624.16 487.191C662.621 440.676 655.878 379.431 651.611 323.406C649.378 293.841 647.689 263.588 654.208 234.419C661.01 203.941 677.277 177.695 702.03 158.57C727.26 139.202 757.994 126.141 789.183 120.234C804.23 117.394 820.069 116.016 835.286 118.244C852.294 120.748 868.977 127.034 884.556 134.093C945.553 161.726 996.248 209.125 1061.4 227.943C1126.08 246.614 1197.75 240.786 1258.6 212.002C1273.71 204.83 1288.12 196.263 1301.63 186.414C1302.03 186.124 1301.58 185.483 1301.21 185.782C1243.6 227.62 1170.26 244.96 1099.95 235.273C1065.75 230.574 1033.67 219.013 1003.45 202.493C973.576 186.189 945.762 166.565 916.289 149.664C889.311 134.197 858.323 118.409 826.691 116.649C797.878 115.043 768.405 122.595 742.2 134.163C716.556 145.493 691.238 161.923 674.846 185.139C658.731 207.991 651.371 235.198 649.503 262.847C645.565 321.017 663.931 380.872 648.467 438.223C640.748 466.846 621.547 499.825 592.618 511.12C566.354 521.306 539.902 506.61 519.182 491.171C499.03 476.161 481.487 457.657 460.555 443.697C441.735 431.144 419.626 423.622 397.442 419.756C354.432 412.274 302.66 417.351 269.679 448.84C252.065 465.645 244.703 487.508 241.288 511.103C237.1 540.127 237.552 569.579 234.231 598.697C230.839 628.711 222.909 658.659 203.57 682.528C181.427 709.883 148.366 724.565 113.399 725.09C97.2206 725.25 81.1281 722.715 65.7823 717.587C65.3117 717.43 65.1504 718.188 65.6205 718.335L65.6301 718.325Z" fill="#B4B4B4"/>
<path d="M61.338 723.146C91.4694 733.712 125.313 735.037 155.333 723.299C184.422 711.944 207.043 688.419 219.157 659.88C230.631 632.865 232.92 603.1 234.207 574.1C235.494 545.101 234.525 513.995 243.279 485.866C259.02 435.27 313.501 416.035 362.111 416.762C387.386 417.147 412.946 422.263 436.059 432.62C459.173 442.976 477.138 460.082 495.91 476.587C514.681 493.092 535.329 511.355 560.16 517.366C586.728 523.778 608.924 509.232 624.955 489.001C662.77 441.056 654.161 378.585 648.918 321.992C646.141 291.73 643.887 260.74 650.336 230.723C657.022 199.657 673.612 172.962 698.966 153.782C724.678 134.221 756.091 121.378 787.85 115.93C802.973 113.332 818.812 112.293 834.024 114.787C851.379 117.63 868.318 124.435 884.109 131.984C945.628 161.351 996.362 210.687 1062.18 231.435C1128 252.184 1201.58 247.466 1264.1 218.299C1279.65 211.027 1294.46 202.27 1308.32 192.149C1308.72 191.859 1308.26 191.219 1307.89 191.507C1248.75 234.583 1172.97 251.419 1100.92 239.821C1066.25 234.236 1034.01 221.577 1003.67 204.089C973.824 186.871 946.002 166.396 916.474 148.708C889.366 132.429 858.148 115.659 826.087 113.062C796.562 110.667 766.087 118.102 739.128 129.754C713.23 140.945 687.695 157.347 671.112 180.626C654.709 203.658 647.446 231.301 645.832 259.242C642.371 319.109 662.636 380.238 648.052 439.487C640.859 468.705 622.187 501.972 593.266 514.281C567.238 525.357 540.618 510.947 519.956 495.443C498.833 479.597 480.796 459.839 459.15 444.7C440.774 431.854 419.096 423.959 397.185 419.677C353.694 411.167 300.957 415.51 266.943 446.874C248.743 463.662 240.873 485.78 237.576 509.808C233.482 539.586 234.5 569.765 231.829 599.655C229.064 630.587 221.995 661.767 202.587 686.748C180.468 715.219 146.735 730.515 110.924 730.822C94.0833 730.889 77.3581 728.039 61.4897 722.399C61.019 722.242 60.8674 722.989 61.3284 723.157L61.338 723.146Z" fill="#B4B4B4"/>
<path d="M56.9433 727.925C87.0465 739.067 121.026 741.153 151.422 729.866C181.285 718.784 204.671 694.824 216.846 665.564C228.42 637.795 230.292 607.202 231.116 577.481C231.958 547.532 230.398 515.774 238.861 486.708C254 434.731 309.586 414.919 359.087 415.985C384.814 416.548 410.843 421.986 434.204 432.882C457.3 443.649 475.18 461.232 493.841 478.133C512.502 495.035 533.376 514.198 558.488 520.797C585.225 527.836 607.768 513.434 623.916 492.919C662.491 443.935 652.695 379.912 646.364 322.428C642.989 291.749 640.061 260.275 645.851 229.692C651.777 198.423 667.586 170.994 692.706 151.304C718.729 130.925 750.959 117.665 783.451 112.114C798.91 109.476 815.038 108.481 830.565 110.927C848.401 113.731 865.787 121.003 881.866 128.925C944.791 159.893 995.785 211.942 1062.83 234.876C1129.64 257.68 1205.34 254.173 1269.53 224.622C1285.53 217.242 1300.75 208.279 1314.96 197.869C1315.36 197.58 1314.91 196.939 1314.54 197.227C1254.13 241.381 1176.27 257.701 1102.89 244.447C1067.42 238.036 1034.7 224.236 1003.98 205.601C973.825 187.313 945.753 165.889 915.837 147.167C887.956 129.763 855.821 111.856 822.405 109.235C792.791 106.906 762.292 114.097 735.146 125.709C708.882 136.962 682.91 153.604 666.4 177.432C649.889 201.261 643.096 229.574 642.022 258.182C639.735 318.832 661.048 380.332 647.628 440.569C641.009 470.297 622.829 504.264 593.886 517.447C567.733 529.371 540.91 515.178 520.012 499.329C498.653 483.127 480.583 462.971 459.158 446.865C440.927 433.15 419.116 424.564 396.905 419.695C352.809 410.111 298.762 413.802 263.778 445.428C245.112 462.303 236.891 484.75 233.743 509.221C229.879 539.252 231.331 569.663 229.404 599.838C227.353 631.938 221.189 664.759 201.532 691.098C179.541 720.546 145.246 736.408 108.773 736.62C91.196 736.606 73.7648 733.428 57.3138 727.237C56.8528 727.069 56.5027 727.756 56.9638 727.924L56.9433 727.925Z" fill="#B4B4B4"/>
<path d="M52.6516 732.745C83.2621 744.677 118.187 747.324 149.345 735.737C179.529 724.523 202.942 700.162 214.898 670.484C226.415 641.897 227.745 610.454 228.128 580.009C228.477 549.156 226.199 516.167 234.907 486.195C250.188 433.481 306.664 413.803 356.804 415.272C382.975 416.066 409.42 421.952 432.988 433.431C456.556 444.91 474.408 463.591 493.298 481.095C512.189 498.598 533.34 518.464 559.054 524.833C586.568 531.642 609.31 515.362 625.125 494.055C662.453 443.739 650.936 378.872 643.67 321.175C639.76 290.106 636.303 258.181 641.755 227.073C647.323 195.293 663.067 167.272 688.54 147.305C715.171 126.44 748.38 113.072 781.651 107.886C797.672 105.379 814.288 104.664 830.338 107.634C848.451 110.986 866.022 118.801 882.294 127.194C946.177 160.384 997.655 214.774 1066.25 239.178C1133.59 263.131 1210.28 260.438 1275.4 230.762C1291.7 223.309 1307.19 214.202 1321.63 203.583C1322.03 203.293 1321.57 202.653 1321.2 202.941C1259.69 248.051 1180.03 263.86 1105.48 249.145C1069.33 242.005 1036.19 227.233 1005.15 207.622C974.626 188.33 946.27 165.897 916.011 146.199C888.013 128.002 855.653 109.052 821.77 105.637C791.427 102.571 759.974 109.591 732.075 121.298C705.347 132.516 678.861 149.321 662.21 173.548C645.558 197.774 638.92 227.002 638.272 256.221C636.919 317.945 659.512 380.13 647.18 441.607C641.156 471.701 623.861 505.37 595.578 520.013C568.818 533.869 540.937 519.296 519.407 502.622C497.624 485.84 479.374 464.873 457.675 447.932C439.477 433.722 417.669 424.655 395.287 419.487C350.521 409.153 295.16 412.468 259.635 444.843C240.859 461.951 232.657 484.714 229.759 509.438C226.14 540.326 228.16 571.525 226.722 602.523C225.216 635.361 219.6 668.95 199.889 696.143C177.918 726.452 142.729 742.653 105.606 742.431C87.5873 742.222 69.7595 738.717 53.0034 732.088C52.5418 731.91 52.1912 732.587 52.6534 732.775L52.6516 732.745Z" fill="#B4B4B4"/>
<path d="M48.3555 737.561C79.2185 750.136 114.611 753.412 146.35 741.955C177.667 730.635 201.661 705.132 213.391 674.215C224.538 644.727 225.208 612.512 225.017 581.372C224.851 549.954 222.014 516.166 230.865 485.642C246.499 431.605 305.002 412.2 356.132 414.647C382.608 415.926 409.291 422.383 432.845 434.684C456.696 447.141 474.842 467.2 494.158 485.5C512.8 503.131 534.157 523.189 560.013 529.007C587.775 535.145 610.426 517.454 625.691 495.872C662.376 444.177 649.161 378.147 640.95 319.9C636.55 288.695 632.612 256.623 637.526 225.239C642.625 192.644 658.308 163.735 684.368 143.283C711.36 122.099 745.227 108.755 779.054 103.762C795.56 101.32 812.73 100.788 829.109 104.118C847.26 107.766 864.808 115.9 881.037 124.624C945.784 159.445 997.45 216.02 1066.93 242.496C1135.28 268.544 1214 267.119 1280.87 237.064C1297.62 229.516 1313.51 220.214 1328.3 209.314C1328.69 209.025 1328.24 208.384 1327.87 208.672C1265.03 254.874 1183.28 270.086 1107.41 253.694C1070.49 245.706 1036.9 229.781 1005.48 209.063C974.927 188.921 946.557 165.719 916.192 145.248C887.617 125.956 854.517 105.736 819.533 101.892C788.66 98.5495 756.562 105.402 728.107 117.253C700.694 128.676 673.631 145.976 657.036 171.184C640.773 195.901 634.737 225.083 634.541 254.317C634.071 317.128 657.952 379.936 646.711 442.724C641.29 473.132 624.682 506.978 596.812 522.734C570.095 537.86 542.025 524.088 520.087 507.11C497.963 489.926 479.613 468.648 458.185 450.727C439.86 435.375 417.803 425.368 394.697 419.576C349.297 408.201 292.65 410.914 256.192 443.661C237.092 460.829 228.599 483.896 225.843 508.939C222.329 540.94 224.971 573.138 224.045 605.184C223.075 638.586 218.144 673.222 198.36 701.097C176.226 732.318 140.431 748.862 102.476 748.267C84.003 747.85 65.7702 743.985 48.7158 736.873C48.2535 736.685 47.9035 737.372 48.3657 737.56L48.3555 737.561Z" fill="#B4B4B4"/>
<path d="M44.0588 742.372C75.8499 755.919 112.758 759.682 145.555 747.353C177.158 735.484 200.934 709.06 211.989 677.465C222.667 646.968 222.529 613.917 221.853 582.015C221.177 550.113 217.827 515.422 227.015 484.355C243.073 430.007 302.415 410.932 353.842 413.896C380.763 415.416 407.861 422.321 431.598 435.298C455.526 448.376 473.673 469.164 493.036 487.912C511.802 506.09 533.518 527.051 559.946 532.815C587.995 538.947 610.661 520.291 625.766 498.41C662.229 445.548 647.585 378.391 638.407 319.563C633.5 287.927 628.911 255.41 633.329 223.439C637.784 191.056 652.6 161.694 678.129 140.934C705.346 118.845 740.041 105.104 774.577 99.9577C791.367 97.4581 808.775 96.9538 825.495 100.171C844.333 103.821 862.456 112.476 879.164 121.684C945.132 158.097 997.048 217.047 1067.56 245.679C1137.22 273.99 1218.5 273.771 1287.29 242.907C1304.12 235.331 1320.08 225.976 1334.91 215.002C1335.32 214.712 1334.86 214.072 1334.5 214.37C1270.34 261.674 1186.46 276.271 1109.32 258.167C1071.14 249.226 1036.77 231.787 1004.64 209.633C973.594 188.217 944.717 163.865 913.678 142.397C885.013 122.608 851.846 101.95 816.467 98.0166C784.692 94.4901 751.602 101.574 722.387 113.942C694.644 125.701 667.681 143.487 651.461 169.484C635.636 194.873 630.41 224.583 630.847 254.119C631.79 317.412 656.348 380.407 646.265 443.877C641.312 474.935 625.112 509.085 597.25 525.877C570.597 541.933 542.162 528.233 520.095 510.975C497.437 493.248 478.813 471.134 457.209 452.29C438.762 436.248 416.686 425.565 393.083 419.35C347.251 407.241 289.541 409.482 252.52 442.59C233.014 460.027 224.405 483.552 221.83 509.078C218.581 541.586 221.675 574.322 221.334 606.898C220.984 640.398 217.084 675.293 198.227 703.945C176.439 737.074 139.463 754.814 100.165 754.072C80.9801 753.557 62.0738 749.35 44.4805 741.681C44.0285 741.492 43.6784 742.179 44.1304 742.368L44.0588 742.372Z" fill="#B4B4B4"/>
<path d="M39.7625 747.216C72.3999 761.739 110.597 765.992 144.408 752.917C175.911 740.746 199.33 713.994 210.071 682.283C220.842 650.386 219.932 615.862 218.668 582.661C217.467 550.01 213.464 514.146 223.364 482.443C240.857 426.484 303.749 408.844 356.484 413.672C383.294 416.121 410.061 423.845 433.183 437.719C457.464 452.295 475.811 474.949 495.958 494.482C514.577 512.607 537.241 533.984 564.29 537.374C592.984 541.007 615.298 518.556 628.97 495.845C662.595 440.029 644.32 371.102 634.459 311.278C629.175 279.15 624.748 245.886 630.32 213.479C635.938 180.803 652.614 152.575 679.254 132.756C707.065 112.068 741.542 99.3452 775.85 95.2373C791.671 93.3478 807.915 93.3005 823.577 96.4769C841.22 100.041 858.098 108.091 873.794 116.661C942.247 154.007 994.757 215.959 1066.34 248.016C1136.29 279.347 1221.57 280.137 1291.82 249.589C1309.46 241.896 1326.17 232.224 1341.62 220.758C1342.02 220.468 1341.57 219.828 1341.2 220.116C1275.08 269 1188.26 282.002 1109.29 261.82C1069.67 251.711 1035.09 232.335 1002.2 208.431C970.508 185.431 940.845 159.74 908.62 137.458C881.386 118.632 850.171 99.2671 816.789 94.5617C785.578 90.1513 752.815 96.3442 723.687 107.722C695.741 118.632 667.857 135.569 650.508 160.667C633.471 185.315 627.117 215.029 627.034 244.625C626.861 309.728 653.012 373.132 646.451 438.45C643.215 471.163 629.091 505.388 602.266 525.73C590.375 534.737 576.041 538.91 561.255 536.144C547.132 533.505 534.396 525.769 523.115 517.282C499.413 499.411 480.329 476.451 458.691 456.307C440.494 439.47 418.618 427.115 394.804 420.225C347.974 406.286 288.016 407.447 249.405 441.088C229.661 458.303 220.421 481.916 217.902 507.53C214.595 541.139 218.337 574.977 218.55 608.628C218.773 642.813 215.623 678.608 196.955 708.223C175.211 742.643 137.299 761.063 96.9619 759.898C77.3196 759.187 58.0065 754.638 40.1114 746.509C39.6588 746.309 39.3082 746.986 39.7608 747.185L39.7625 747.216Z" fill="#B4B4B4"/>
</svg>
