<svg width="398" height="434" viewBox="0 0 398 434" fill="none" xmlns="http://www.w3.org/2000/svg">
<g opacity="0.2">
<g clip-path="url(#clip0_1_740)">
<path d="M184.505 238.807C184.438 238.791 184.375 238.759 184.321 238.715C184.268 238.671 184.225 238.615 184.196 238.552L172.551 215.809C172.526 215.728 172.523 215.642 172.542 215.559C172.561 215.476 172.601 215.4 172.659 215.338L186.57 193.925C186.621 193.855 186.687 193.798 186.763 193.758C186.839 193.718 186.924 193.697 187.01 193.695L212.566 195.024C212.65 195.032 212.731 195.061 212.801 195.109C212.871 195.157 212.926 195.223 212.962 195.3L224.608 218.043C224.634 218.124 224.638 218.21 224.619 218.294C224.6 218.377 224.558 218.453 224.499 218.514L210.588 239.927C210.539 239.997 210.474 240.052 210.397 240.089C210.321 240.127 210.237 240.144 210.153 240.14L184.684 238.83L184.505 238.807ZM173.482 215.601L184.885 237.957L209.879 239.249L223.499 218.302L212.076 196.033L187.081 194.741L173.482 215.601Z" fill="white"/>
<path d="M181.695 238.784C181.62 238.767 181.55 238.733 181.491 238.685C181.432 238.636 181.386 238.574 181.355 238.503L171.138 213.313C171.112 213.232 171.108 213.146 171.127 213.062C171.146 212.979 171.188 212.903 171.247 212.842L187.989 191.437C188.041 191.371 188.109 191.32 188.187 191.289C188.266 191.259 188.351 191.25 188.434 191.264L215.396 195.032C215.478 195.049 215.555 195.086 215.619 195.14C215.684 195.193 215.735 195.261 215.767 195.338L225.984 220.528C226.012 220.606 226.017 220.69 225.998 220.771C225.98 220.851 225.938 220.925 225.879 220.982L209.133 242.404C209.08 242.469 209.012 242.519 208.934 242.55C208.856 242.58 208.771 242.59 208.689 242.578L181.73 238.792L181.695 238.784ZM172.189 213.224L182.196 237.888L208.553 241.572L224.955 220.604L214.952 195.923L188.543 192.227L172.189 213.224Z" fill="white"/>
<path d="M206.93 245.023L178.704 238.519C178.622 238.501 178.547 238.463 178.486 238.406C178.424 238.35 178.379 238.279 178.354 238.199L169.874 210.504C169.847 210.423 169.843 210.336 169.862 210.253C169.881 210.17 169.923 210.094 169.983 210.033L189.729 188.842C189.785 188.781 189.857 188.737 189.937 188.713C190.017 188.69 190.102 188.688 190.183 188.708L218.409 195.213C218.491 195.23 218.566 195.269 218.628 195.325C218.689 195.381 218.734 195.453 218.759 195.532L227.239 223.227C227.266 223.308 227.27 223.395 227.251 223.478C227.232 223.561 227.19 223.638 227.131 223.699L207.384 244.889C207.328 244.95 207.256 244.994 207.176 245.018C207.096 245.042 207.011 245.044 206.93 245.023ZM179.201 237.64L206.868 244.016L226.232 223.289L217.892 196.178L190.225 189.802L170.861 210.529L179.201 237.64Z" fill="white"/>
<path d="M204.881 247.455L175.577 237.962C175.496 237.935 175.423 237.886 175.367 237.822C175.311 237.757 175.273 237.679 175.257 237.594L168.815 207.519C168.788 207.438 168.784 207.352 168.803 207.268C168.822 207.185 168.864 207.109 168.923 207.048L191.781 186.483C191.847 186.427 191.926 186.388 192.01 186.369C192.095 186.35 192.182 186.352 192.266 186.374L221.566 195.884C221.647 195.911 221.719 195.96 221.776 196.025C221.832 196.089 221.87 196.168 221.886 196.252L228.328 226.327C228.353 226.408 228.356 226.494 228.337 226.577C228.318 226.66 228.277 226.736 228.219 226.798L205.362 247.363C205.296 247.419 205.217 247.456 205.133 247.472C205.049 247.488 204.962 247.482 204.881 247.455ZM176.079 237.14L204.867 246.477L227.31 226.276L221.023 196.641L192.236 187.305L169.812 207.584L176.079 237.14Z" fill="white"/>
<path d="M202.468 249.859L172.303 237.08C172.228 237.046 172.163 236.993 172.114 236.927C172.065 236.861 172.033 236.784 172.022 236.702L167.992 204.223C167.982 204.137 167.994 204.05 168.029 203.97C168.063 203.891 168.118 203.822 168.188 203.771L194.327 184.054C194.399 184.009 194.481 183.98 194.566 183.971C194.651 183.962 194.737 183.972 194.818 184.002L224.979 196.799C225.056 196.83 225.123 196.881 225.173 196.948C225.222 197.015 225.252 197.094 225.26 197.177L229.29 229.656C229.316 229.734 229.32 229.818 229.301 229.898C229.283 229.978 229.242 230.051 229.185 230.11L203.046 249.827C202.963 249.887 202.864 249.922 202.762 249.928C202.66 249.933 202.558 249.91 202.468 249.859ZM172.84 236.266L202.502 248.837L228.192 229.55L224.233 197.639L194.58 185.032L168.878 204.372L172.84 236.266Z" fill="white"/>
<path d="M199.694 252.16L199.572 252.132L168.763 235.839C168.692 235.795 168.632 235.736 168.587 235.665C168.543 235.594 168.516 235.514 168.508 235.431L167.322 200.665C167.318 200.58 167.336 200.495 167.376 200.42C167.416 200.345 167.476 200.283 167.549 200.239L197.09 181.803C197.162 181.758 197.244 181.732 197.329 181.729C197.414 181.726 197.498 181.745 197.572 181.785L228.381 198.078C228.457 198.116 228.521 198.174 228.566 198.246C228.611 198.318 228.635 198.401 228.637 198.486L229.822 233.252C229.827 233.337 229.808 233.421 229.768 233.496C229.728 233.571 229.668 233.634 229.595 233.678L200.019 252.106C199.921 252.163 199.805 252.182 199.694 252.16ZM169.479 235.048L199.784 251.133L228.848 233.009L227.542 198.767L197.257 182.595L168.242 200.822L169.479 235.048Z" fill="white"/>
<path d="M196.537 254.356L196.38 254.319L165.273 234.133C165.2 234.086 165.14 234.021 165.1 233.944C165.06 233.867 165.04 233.781 165.043 233.694L166.943 196.716C166.947 196.633 166.974 196.552 167.019 196.482C167.064 196.412 167.126 196.355 167.2 196.316L200.194 179.502C200.27 179.461 200.356 179.442 200.442 179.446C200.529 179.449 200.613 179.476 200.685 179.524L231.793 199.71C231.864 199.755 231.923 199.817 231.963 199.89C232.004 199.964 232.026 200.047 232.026 200.131L230.127 237.109C230.123 237.196 230.097 237.279 230.051 237.353C230.005 237.426 229.941 237.486 229.865 237.527L196.876 254.323C196.77 254.373 196.651 254.385 196.537 254.356ZM166.034 233.463L196.667 253.393L229.174 236.853L231.04 200.419L200.408 180.489L167.883 197.025L166.034 233.463Z" fill="white"/>
<path d="M193.002 256.376C192.935 256.378 192.869 256.363 192.81 256.332L161.622 232.027C161.553 231.976 161.499 231.907 161.466 231.828C161.432 231.75 161.42 231.663 161.431 231.578L166.871 192.566C166.879 192.483 166.911 192.404 166.962 192.338C167.013 192.271 167.081 192.221 167.16 192.192L203.67 177.439C203.751 177.417 203.837 177.416 203.919 177.435C204.001 177.454 204.077 177.492 204.141 177.547L235.246 201.814C235.313 201.867 235.366 201.935 235.4 202.014C235.433 202.092 235.446 202.178 235.437 202.263L229.997 241.275C229.987 241.361 229.955 241.442 229.904 241.511C229.852 241.58 229.783 241.634 229.704 241.667L193.194 256.42C193.128 256.418 193.063 256.403 193.002 256.376ZM162.476 231.433L193.157 255.382L229.219 240.82L234.591 202.344L203.905 178.412L167.887 192.947L162.476 231.433Z" fill="white"/>
<path d="M189.062 258.222C188.978 258.222 188.894 258.203 188.818 258.166L158.106 229.558C158.046 229.497 158.002 229.422 157.98 229.34C157.957 229.257 157.955 229.17 157.976 229.087L167.386 188.25C167.407 188.17 167.447 188.097 167.502 188.036C167.558 187.975 167.628 187.928 167.706 187.901L207.811 175.668C207.892 175.641 207.979 175.637 208.062 175.656C208.145 175.676 208.221 175.717 208.282 175.777L238.994 204.384C239.052 204.443 239.095 204.515 239.118 204.594C239.142 204.674 239.145 204.757 239.128 204.838L229.718 245.675C229.7 245.759 229.66 245.836 229.604 245.9C229.547 245.965 229.475 246.013 229.394 246.042L189.289 258.275C189.211 258.274 189.133 258.256 189.062 258.222ZM159.009 228.994L189.296 257.21L228.864 245.147L238.15 204.852L207.868 176.619L168.295 188.699L159.009 228.994Z" fill="white"/>
<path d="M184.709 259.795C184.617 259.807 184.524 259.786 184.447 259.734L154.546 226.57C154.487 226.51 154.445 226.434 154.425 226.352C154.405 226.27 154.408 226.183 154.433 226.103L168.163 183.687C168.19 183.606 168.239 183.534 168.303 183.477C168.368 183.421 168.447 183.383 168.531 183.367L212.161 174.116C212.239 174.094 212.322 174.092 212.401 174.11C212.481 174.128 212.554 174.167 212.615 174.221L242.515 207.385C242.574 207.45 242.615 207.528 242.634 207.613C242.653 207.698 242.65 207.787 242.624 207.87L228.895 250.286C228.866 250.366 228.817 250.437 228.752 250.493C228.688 250.549 228.61 250.588 228.527 250.605L184.897 259.856L184.709 259.795ZM155.458 226.045L184.995 258.794L228.151 249.765L241.703 207.878L212.17 175.111L169.082 184.248L155.458 226.045Z" fill="white"/>
<path d="M179.949 261.051C179.841 261.026 179.744 260.965 179.676 260.878L151.058 223.026C151.003 222.961 150.967 222.882 150.954 222.798C150.941 222.714 150.952 222.628 150.984 222.55L169.473 178.877C169.506 178.8 169.558 178.731 169.625 178.679C169.692 178.627 169.771 178.593 169.854 178.579L216.933 172.881C217.014 172.854 217.101 172.85 217.184 172.869C217.267 172.888 217.343 172.93 217.404 172.989L246.023 210.841C246.076 210.91 246.111 210.992 246.123 211.079C246.136 211.165 246.125 211.254 246.093 211.335L227.604 255.007C227.57 255.082 227.518 255.148 227.452 255.197C227.386 255.246 227.308 255.277 227.226 255.288L180.148 260.987L179.949 261.051ZM152.02 222.604L180.301 260.084L226.845 254.391L245.104 211.236L216.823 173.756L170.266 179.428L152.02 222.604Z" fill="white"/>
<path d="M174.792 261.959C174.667 261.929 174.56 261.851 174.492 261.743L147.686 218.903C147.643 218.831 147.618 218.748 147.615 218.664C147.612 218.58 147.63 218.496 147.668 218.421L171.314 173.841C171.358 173.77 171.417 173.709 171.488 173.665C171.559 173.621 171.639 173.594 171.723 173.586L222.189 171.867C222.274 171.863 222.358 171.881 222.433 171.921C222.508 171.961 222.571 172.021 222.615 172.094L249.421 214.934C249.466 215.005 249.491 215.088 249.494 215.172C249.497 215.257 249.478 215.341 249.439 215.416L225.797 259.978C225.758 260.054 225.7 260.117 225.628 260.162C225.556 260.207 225.473 260.232 225.388 260.233L174.936 261.973L174.792 261.959ZM148.662 218.576L175.173 260.943L225.069 259.222L248.451 215.151L221.963 172.845L172.071 174.549L148.662 218.576Z" fill="white"/>
<path d="M169.257 262.43C169.188 262.416 169.122 262.388 169.065 262.346C169.008 262.304 168.961 262.25 168.927 262.188L144.504 214.272C144.463 214.196 144.444 214.11 144.448 214.023C144.451 213.937 144.478 213.853 144.525 213.781L173.706 168.73C173.755 168.66 173.821 168.605 173.897 168.568C173.973 168.53 174.057 168.513 174.142 168.517L227.815 171.399C227.898 171.404 227.979 171.43 228.049 171.475C228.119 171.52 228.177 171.583 228.216 171.657L252.638 219.573C252.66 219.655 252.661 219.74 252.642 219.822C252.623 219.904 252.584 219.981 252.529 220.044L223.348 265.095C223.297 265.162 223.232 265.216 223.156 265.253C223.08 265.29 222.997 265.309 222.913 265.308L169.284 262.473L169.257 262.43ZM145.444 214.103L169.622 261.485L222.686 264.299L251.628 219.726L227.424 172.375L174.361 169.561L145.444 214.103Z" fill="white"/>
<path d="M163.321 262.403C163.246 262.382 163.177 262.344 163.119 262.292C163.061 262.241 163.015 262.177 162.985 262.105L141.538 209.101C141.511 209.02 141.507 208.933 141.526 208.85C141.545 208.767 141.587 208.691 141.646 208.63L176.763 163.604C176.815 163.537 176.884 163.484 176.963 163.451C177.041 163.417 177.127 163.405 177.212 163.414L233.776 171.392C233.86 171.407 233.939 171.441 234.007 171.491C234.075 171.542 234.13 171.609 234.168 171.685L255.611 224.706C255.637 224.784 255.641 224.868 255.623 224.948C255.604 225.028 255.564 225.102 255.507 225.16L220.386 270.203C220.333 270.268 220.265 270.318 220.187 270.348C220.109 270.379 220.024 270.389 219.942 270.377L163.374 262.415L163.321 262.403ZM142.519 208.996L163.752 261.491L219.784 269.384L254.543 224.791L233.31 172.296L177.275 164.495L142.519 208.996Z" fill="white"/>
<path d="M216.267 275.542L157.055 261.897C156.971 261.879 156.894 261.838 156.833 261.779C156.771 261.719 156.729 261.643 156.709 261.56L138.844 203.387C138.817 203.306 138.813 203.219 138.832 203.136C138.852 203.053 138.893 202.977 138.953 202.916L180.341 158.453C180.397 158.39 180.469 158.343 180.55 158.316C180.63 158.29 180.716 158.284 180.799 158.301L240.029 171.951C240.111 171.968 240.186 172.007 240.248 172.063C240.309 172.119 240.354 172.191 240.379 172.27L258.244 230.443C258.271 230.524 258.275 230.611 258.256 230.694C258.236 230.777 258.195 230.853 258.135 230.914L216.721 275.408C216.663 275.466 216.591 275.508 216.511 275.532C216.432 275.555 216.348 275.559 216.267 275.542ZM157.487 261.059L216.158 274.579L257.162 230.506L239.503 172.878L180.832 159.357L139.883 203.351L157.487 261.059Z" fill="white"/>
<path d="M211.92 280.684L150.437 260.687C150.358 260.662 150.286 260.616 150.229 260.555C150.172 260.493 150.132 260.418 150.113 260.337L136.627 197.051C136.601 196.97 136.596 196.883 136.616 196.8C136.635 196.717 136.676 196.641 136.736 196.58L184.721 153.343C184.781 153.284 184.857 153.242 184.939 153.222C185.022 153.202 185.108 153.205 185.189 153.23L246.692 173.14C246.772 173.169 246.844 173.218 246.9 173.282C246.956 173.347 246.994 173.424 247.012 173.508L260.564 236.827C260.591 236.908 260.595 236.995 260.575 237.078C260.556 237.161 260.515 237.238 260.455 237.299L212.458 280.588C212.388 280.656 212.3 280.702 212.204 280.719C212.108 280.736 212.009 280.724 211.92 280.684ZM150.965 259.834L211.915 279.672L259.493 236.764L246.121 174.02L185.172 154.182L137.593 197.09L150.965 259.834Z" fill="white"/>
<path d="M206.861 285.714L143.563 258.827C143.488 258.793 143.422 258.74 143.373 258.674C143.324 258.608 143.293 258.531 143.282 258.449L134.841 190.112C134.819 190.033 134.817 189.95 134.835 189.871C134.853 189.792 134.891 189.718 134.946 189.658L189.821 148.211C189.893 148.164 189.975 148.135 190.06 148.125C190.145 148.116 190.231 148.128 190.311 148.159L253.606 175.063C253.683 175.094 253.75 175.146 253.8 175.212C253.849 175.279 253.88 175.358 253.887 175.441L262.331 243.761C262.337 243.847 262.322 243.932 262.288 244.011C262.254 244.089 262.202 244.158 262.135 244.212L207.264 285.641C207.206 285.681 207.14 285.708 207.07 285.721C207.001 285.733 206.93 285.731 206.861 285.714ZM144.125 257.982L206.902 284.657L261.349 243.553L253.05 175.8L190.207 149.091L135.752 190.23L144.125 257.982Z" fill="white"/>
<path d="M201.033 290.566L200.911 290.538L136.317 256.182C136.241 256.143 136.177 256.085 136.132 256.013C136.087 255.941 136.063 255.858 136.061 255.773L133.466 182.586C133.459 182.501 133.477 182.416 133.517 182.34C133.557 182.265 133.618 182.203 133.693 182.161L195.66 143.305C195.732 143.262 195.814 143.237 195.899 143.234C195.983 143.231 196.067 143.249 196.142 143.287L260.732 177.661C260.809 177.698 260.874 177.756 260.919 177.828C260.965 177.9 260.988 177.984 260.987 178.069L263.583 251.256C263.588 251.341 263.569 251.426 263.529 251.501C263.489 251.576 263.429 251.639 263.356 251.682L201.358 290.513C201.26 290.569 201.144 290.589 201.033 290.566ZM137.02 255.443L201.131 289.504L262.656 250.969L260.079 178.338L195.981 144.225L134.456 182.759L137.02 255.443Z" fill="white"/>
<path d="M194.393 295.196L194.236 295.16L128.982 252.653C128.915 252.602 128.861 252.537 128.824 252.461C128.787 252.385 128.768 252.302 128.769 252.218L132.798 174.472C132.802 174.386 132.828 174.302 132.874 174.229C132.92 174.155 132.984 174.095 133.06 174.054L202.378 138.657C202.457 138.631 202.54 138.628 202.62 138.646C202.7 138.665 202.774 138.705 202.833 138.762L268.111 181.164C268.181 181.211 268.238 181.277 268.276 181.353C268.313 181.429 268.329 181.514 268.323 181.599L264.283 259.398C264.28 259.481 264.254 259.563 264.209 259.633C264.164 259.704 264.1 259.761 264.025 259.798L194.706 295.195C194.605 295.229 194.495 295.229 194.393 295.196ZM129.727 252.053L194.539 294.163L263.341 259.015L267.366 181.764L202.549 139.671L133.748 174.82L129.727 252.053Z" fill="white"/>
<path d="M186.934 299.47C186.867 299.474 186.8 299.458 186.742 299.426L121.495 248.427C121.43 248.374 121.38 248.305 121.349 248.227C121.319 248.149 121.309 248.065 121.321 247.982L132.874 165.921C132.883 165.837 132.914 165.758 132.965 165.692C133.016 165.626 133.085 165.575 133.163 165.546L209.897 134.45C209.977 134.419 210.065 134.413 210.15 134.432C210.234 134.451 210.31 134.496 210.369 134.559L275.62 185.541C275.682 185.596 275.73 185.665 275.76 185.742C275.791 185.819 275.802 185.903 275.793 185.985L264.236 268.064C264.226 268.147 264.194 268.225 264.143 268.291C264.092 268.357 264.025 268.408 263.947 268.439L187.268 299.455C187.161 299.496 187.044 299.501 186.934 299.47ZM122.318 247.807L187.111 298.463L263.336 267.581L274.768 186.043L209.971 135.405L133.746 166.287L122.318 247.807Z" fill="white"/>
<path d="M178.639 303.297C178.56 303.297 178.483 303.279 178.412 303.244L113.992 243.15C113.931 243.094 113.886 243.022 113.863 242.942C113.839 242.862 113.837 242.777 113.857 242.696L133.668 156.728C133.686 156.644 133.726 156.567 133.782 156.503C133.839 156.438 133.911 156.39 133.992 156.361L218.211 130.539C218.289 130.511 218.373 130.506 218.454 130.525C218.534 130.543 218.608 130.585 218.665 130.644L283.09 190.72C283.15 190.781 283.194 190.857 283.216 190.939C283.239 191.022 283.241 191.109 283.22 191.192L263.421 277.108C263.404 277.189 263.365 277.265 263.309 277.326C263.253 277.387 263.181 277.433 263.102 277.457L178.878 303.297C178.8 303.316 178.718 303.316 178.639 303.297ZM114.865 242.634L178.856 302.354L262.53 276.664L282.205 191.289L218.209 131.587L134.539 157.26L114.865 242.634Z" fill="white"/>
<path d="M169.486 306.608C169.389 306.613 169.292 306.59 169.206 306.544L106.518 236.939C106.462 236.873 106.423 236.794 106.404 236.71C106.385 236.626 106.387 236.538 106.409 236.454L135.373 147.245C135.397 147.164 135.442 147.092 135.504 147.035C135.566 146.978 135.642 146.938 135.724 146.921L227.373 127.334C227.454 127.307 227.541 127.303 227.624 127.322C227.707 127.342 227.783 127.383 227.844 127.443L290.533 197.048C290.586 197.112 290.625 197.187 290.644 197.268C290.664 197.349 290.664 197.434 290.646 197.515L261.677 286.742C261.652 286.822 261.606 286.893 261.545 286.95C261.483 287.007 261.408 287.047 261.327 287.066L169.682 306.635C169.616 306.642 169.548 306.633 169.486 306.608ZM107.442 236.361L169.754 305.604L260.858 286.149L289.649 197.451L227.333 128.226L136.229 147.681L107.442 236.361Z" fill="white"/>
<path d="M159.463 309.322C159.354 309.3 159.256 309.238 159.19 309.148L99.1982 229.519C99.1518 229.451 99.1224 229.372 99.1125 229.29C99.1027 229.207 99.1127 229.124 99.1416 229.046L138.121 137.089C138.16 137.012 138.216 136.946 138.285 136.895C138.355 136.844 138.435 136.809 138.519 136.794L237.453 124.549C237.535 124.541 237.619 124.555 237.695 124.588C237.771 124.622 237.837 124.675 237.887 124.741L297.883 204.353C297.929 204.425 297.957 204.507 297.966 204.592C297.976 204.677 297.965 204.763 297.935 204.843L258.977 296.714C258.939 296.789 258.884 296.854 258.815 296.903C258.746 296.951 258.666 296.981 258.582 296.99L159.62 309.358L159.463 309.322ZM100.16 229.097L159.796 308.277L258.268 296.036L297.015 204.686L237.293 125.56L138.821 137.802L100.16 229.097Z" fill="white"/>
<path d="M148.618 311.124C148.496 311.098 148.388 311.027 148.315 310.926L92.1529 220.982C92.1042 220.911 92.0767 220.829 92.0736 220.743C92.0705 220.658 92.0918 220.573 92.1352 220.5L141.938 126.752C141.981 126.681 142.041 126.62 142.112 126.576C142.183 126.532 142.263 126.505 142.346 126.497L248.35 122.684C248.434 122.683 248.517 122.703 248.592 122.743C248.666 122.782 248.729 122.84 248.776 122.911L304.942 212.837C304.988 212.908 305.015 212.991 305.018 213.076C305.021 213.161 305.001 213.245 304.959 213.319L255.153 307.084C255.109 307.155 255.049 307.216 254.979 307.26C254.908 307.304 254.827 307.331 254.744 307.339L148.745 311.135L148.618 311.124ZM93.2047 220.728L149.075 310.181L254.518 306.405L304.064 213.131L248.02 123.637L142.66 127.452L93.2047 220.728Z" fill="white"/>
<path d="M136.948 312.112C136.881 312.099 136.818 312.071 136.764 312.029C136.709 311.988 136.665 311.935 136.635 311.874L85.4285 211.361C85.3904 211.287 85.372 211.204 85.3751 211.121C85.3781 211.038 85.4024 210.957 85.4458 210.887L146.935 116.155C146.98 116.082 147.044 116.023 147.121 115.985C147.199 115.947 147.285 115.933 147.37 115.943L260.091 121.694C260.175 121.697 260.256 121.722 260.327 121.768C260.397 121.813 260.454 121.877 260.491 121.952L311.693 222.483C311.713 222.565 311.714 222.65 311.695 222.732C311.676 222.813 311.639 222.89 311.585 222.954L250.096 317.686C250.047 317.755 249.981 317.811 249.905 317.848C249.829 317.885 249.745 317.902 249.66 317.898L136.94 312.147L136.948 312.112ZM86.4119 211.164L137.369 311.161L249.46 316.933L310.64 222.663L259.683 122.666L147.549 116.922L86.4119 211.164Z" fill="white"/>
<path d="M124.482 312.088C124.406 312.069 124.336 312.032 124.277 311.98C124.219 311.928 124.174 311.863 124.146 311.79L79.2058 200.53C79.1843 200.448 79.1829 200.363 79.2019 200.281C79.2208 200.199 79.2594 200.122 79.3144 200.058L153.27 105.35C153.323 105.285 153.391 105.235 153.469 105.204C153.547 105.174 153.632 105.164 153.714 105.176L272.606 121.745C272.689 121.759 272.767 121.795 272.832 121.849C272.898 121.903 272.947 121.972 272.977 122.051L317.917 233.311C317.939 233.393 317.94 233.478 317.921 233.56C317.902 233.642 317.864 233.719 317.809 233.783L243.857 328.474C243.806 328.542 243.738 328.596 243.659 328.63C243.58 328.663 243.494 328.675 243.409 328.665L124.521 312.078L124.482 312.088ZM80.208 200.411L124.93 311.18L243.273 327.659L316.876 233.439L272.158 122.653L153.82 106.157L80.208 200.411Z" fill="white"/>
<path d="M111.277 310.884C111.197 310.863 111.123 310.823 111.062 310.768C111.001 310.712 110.955 310.642 110.928 310.564L73.6462 188.419C73.6194 188.338 73.6154 188.252 73.6346 188.168C73.6537 188.085 73.6953 188.009 73.7549 187.948L160.913 94.5351C160.974 94.475 161.05 94.4315 161.132 94.4086C161.215 94.3858 161.302 94.3845 161.385 94.4048L285.839 122.993C285.919 123.013 285.993 123.053 286.054 123.109C286.115 123.165 286.161 123.235 286.189 123.313L323.486 245.388C323.513 245.469 323.517 245.555 323.498 245.638C323.479 245.722 323.437 245.798 323.378 245.859L236.207 339.324C236.147 339.387 236.071 339.433 235.988 339.459C235.905 339.484 235.817 339.489 235.732 339.472L111.277 310.884ZM74.6337 188.445L111.778 309.988L235.691 338.451L322.464 245.354L285.32 123.811L161.403 95.365L74.6337 188.445Z" fill="white"/>
<path d="M226.653 350.211L97.4088 308.403C97.3277 308.375 97.2553 308.327 97.1991 308.262C97.1429 308.197 97.1049 308.119 97.0889 308.035L68.8394 175.193C68.8179 175.111 68.8165 175.026 68.8355 174.944C68.8544 174.862 68.893 174.785 68.948 174.722L170 83.7568C170.067 83.7009 170.145 83.6619 170.23 83.643C170.314 83.624 170.402 83.6257 170.485 83.6479L299.725 125.474C299.805 125.499 299.877 125.545 299.934 125.606C299.99 125.668 300.03 125.743 300.049 125.824L328.295 258.684C328.317 258.762 328.319 258.845 328.301 258.924C328.283 259.003 328.244 259.077 328.19 259.137L227.099 350.112C227.038 350.162 226.965 350.198 226.888 350.215C226.81 350.232 226.73 350.231 226.653 350.211ZM97.919 307.546L226.63 349.195L327.293 258.563L299.192 126.27L170.464 84.6175L69.8362 175.257L97.919 307.546Z" fill="white"/>
<path d="M216.013 360.779L82.8135 304.526C82.7336 304.496 82.6635 304.445 82.6109 304.377C82.5583 304.31 82.5252 304.23 82.5152 304.145L64.9729 160.68C64.9461 160.599 64.9421 160.512 64.9612 160.429C64.9804 160.346 65.022 160.269 65.0815 160.208L180.616 73.1322C180.682 73.0793 180.76 73.0445 180.844 73.0315C180.928 73.0186 181.014 73.0278 181.093 73.0582L314.189 129.36C314.267 129.397 314.335 129.453 314.387 129.522C314.438 129.592 314.471 129.673 314.483 129.759L332.046 273.137C332.07 273.218 332.074 273.305 332.054 273.387C332.035 273.47 331.995 273.546 331.937 273.608L216.403 360.684C216.349 360.728 216.286 360.759 216.219 360.776C216.151 360.792 216.081 360.793 216.013 360.779ZM83.4714 303.667L216.047 359.757L331.139 273.002L313.617 130.166L181.042 74.0762L65.9336 160.901L83.4714 303.667Z" fill="white"/>
<path d="M203.76 371.007L203.637 370.979L67.8261 298.92C67.7491 298.883 67.6842 298.825 67.6389 298.753C67.5937 298.68 67.57 298.597 67.5707 298.511L62.2366 144.934C62.2387 144.85 62.2603 144.768 62.2997 144.694C62.339 144.62 62.3952 144.556 62.4635 144.508L192.974 62.9244C193.045 62.8777 193.128 62.8514 193.213 62.8483C193.298 62.8452 193.382 62.8654 193.457 62.9068L329.301 134.901C329.375 134.942 329.437 135.001 329.481 135.072C329.526 135.143 329.552 135.225 329.557 135.309L334.887 288.904C334.883 288.987 334.861 289.069 334.822 289.143C334.783 289.216 334.727 289.28 334.66 289.33L204.132 370.909C204.025 370.988 203.892 371.023 203.76 371.007ZM68.5003 298.229L203.849 369.98L333.887 288.692L328.584 135.618L193.231 63.8845L63.1933 145.173L68.5003 298.229Z" fill="white"/>
<path d="M189.835 380.671L189.66 380.631L52.3925 291.744C52.3181 291.698 52.2574 291.633 52.217 291.556C52.1765 291.478 52.1577 291.392 52.1626 291.304L60.7754 128.052C60.7783 127.968 60.8038 127.887 60.8492 127.817C60.8945 127.746 60.9581 127.689 61.0331 127.652L206.935 53.2738C207.016 53.249 207.103 53.2459 207.185 53.265C207.268 53.2841 207.345 53.3246 207.407 53.3825L344.674 142.27C344.75 142.314 344.812 142.379 344.853 142.457C344.893 142.534 344.911 142.622 344.904 142.709L336.291 305.962C336.287 306.045 336.26 306.125 336.215 306.196C336.17 306.266 336.107 306.323 336.034 306.362L190.136 380.722C190.033 380.737 189.927 380.719 189.835 380.671ZM53.0961 291.005L189.931 379.535L335.329 305.427L343.891 142.715L207.074 54.1883L61.6756 128.296L53.0961 291.005Z" fill="white"/>
<path d="M174.182 389.604L173.972 389.556L36.7592 282.552C36.6968 282.497 36.6486 282.428 36.6184 282.351C36.5882 282.273 36.5769 282.19 36.5856 282.107L60.8411 109.884C60.8554 109.801 60.8912 109.723 60.9449 109.658C60.9986 109.593 61.0684 109.543 61.1473 109.513L222.653 44.2101C222.735 44.1886 222.821 44.1872 222.903 44.2062C222.985 44.2251 223.061 44.2638 223.125 44.3188L360.338 151.323C360.403 151.375 360.453 151.444 360.484 151.522C360.514 151.6 360.524 151.684 360.512 151.767L336.256 323.991C336.238 324.072 336.2 324.148 336.147 324.212C336.094 324.277 336.027 324.328 335.95 324.361L174.448 389.647C174.357 389.656 174.266 389.641 174.182 389.604ZM37.5489 281.998L174.363 388.579L335.356 323.508L359.539 151.837L222.729 45.2387L61.7401 110.293L37.5489 281.998Z" fill="white"/>
<path d="M156.749 397.646C156.67 397.654 156.59 397.636 156.522 397.593L20.9886 271.487C20.9305 271.428 20.8879 271.356 20.8644 271.277C20.8409 271.198 20.8374 271.114 20.854 271.033L62.5433 90.7657C62.5586 90.6835 62.5967 90.6072 62.6532 90.5455C62.7097 90.4837 62.7823 90.439 62.8629 90.4165L240.102 36.1855C240.18 36.1574 240.264 36.1524 240.344 36.171C240.425 36.1895 240.498 36.2309 240.556 36.2901L376.101 162.344C376.162 162.401 376.207 162.473 376.231 162.553C376.254 162.632 376.256 162.717 376.236 162.798L334.547 343.065C334.526 343.145 334.487 343.219 334.431 343.28C334.375 343.341 334.305 343.387 334.227 343.415L156.992 397.628C156.916 397.662 156.83 397.668 156.749 397.646ZM21.8657 270.954L156.987 396.616L333.685 342.573L375.246 162.864L240.125 37.2021L63.4436 91.249L21.8657 270.954Z" fill="white"/>
</g>
</g>
<defs>
<clipPath id="clip0_1_740">
<rect width="322" height="371" fill="white" transform="translate(83.3125) rotate(12.9771)"/>
</clipPath>
</defs>
</svg>
