<svg width="980" height="751" viewBox="0 0 980 751" fill="none" xmlns="http://www.w3.org/2000/svg">
<g opacity="0.3">
<path d="M819.479 305.043C772.779 306.29 726.387 323.932 682.976 347.263C639.816 370.494 599.274 398.873 557.506 424.798C517.1 449.876 474.797 472.619 429.943 484.276C408.341 489.784 386.568 492.963 365.036 493.756C340.131 494.814 315.803 492.508 291.041 492.535C241.215 492.541 190.477 499.525 140.325 513.282C133.883 515.053 127.456 516.92 121.044 518.884C120.722 518.98 120.689 518.484 120.989 518.407C170.792 503.22 221.153 494.139 271.127 492.395C283.963 491.964 296.725 491.927 309.414 492.284C321.971 492.649 334.373 493.496 346.962 493.569C369.445 493.707 392.3 491.969 415.092 487.262C460.644 477.911 503.986 456.656 545.147 431.861C587.262 406.491 627.661 377.918 670.389 353.73C712.103 330.105 756.764 310.489 802.464 305.667C808.185 305.062 813.884 304.707 819.559 304.553C819.887 304.541 819.816 305.04 819.487 305.052L819.479 305.043Z" fill="#F0F0F0"/>
<path d="M823.718 304.939C799.55 306.74 775.054 312.227 751.104 319.564C726.821 327.032 702.955 336.706 679.842 348.449C656.713 360.177 634.578 374.229 612.882 388.796C590.755 403.654 569.219 419.583 546.658 433.701C507.643 458.084 465.159 474.983 421.898 483.327C399.879 487.528 377.77 489.779 355.874 490.806C331.186 491.943 306.842 490.933 282.069 492.597C234.267 495.816 186.217 505.675 138.64 519.173C132.44 520.932 126.264 522.739 120.11 524.594C119.783 524.695 119.751 524.189 120.051 524.112C167.393 509.869 215.281 498.559 263.114 493.702C287.559 491.219 311.542 491.003 335.702 490.845C359.583 490.74 383.717 488.864 407.903 485.233C450.8 478.693 493.319 463.777 532.877 441.391C556.276 428.141 578.117 411.933 600.396 396.71C622.027 381.938 643.911 367.451 666.721 354.872C710.428 330.769 758.468 313.366 805.7 306.444C811.741 305.556 817.77 304.887 823.789 304.44C824.119 304.418 824.048 304.917 823.718 304.939Z" fill="#F0F0F0"/>
<path d="M827.96 304.841C802.579 307.941 776.869 314.323 751.685 321.44C727.469 328.281 703.16 336.602 679.901 347.681C657.131 358.524 635.534 372.395 614.653 386.995C592.954 402.139 572.377 419.083 550.311 433.649C529.773 447.204 507.234 457.258 484.59 465.137C464.821 471.994 444.756 476.713 424.648 479.918C402.543 483.431 380.363 485.679 358.346 487.356C333.405 489.226 308.634 489.483 283.578 492.393C234.999 498.069 186.381 510.765 138.319 524.678C131.928 526.513 125.55 528.389 119.186 530.305C118.86 530.397 118.827 529.9 119.127 529.823C167.596 515.418 216.497 501.697 265.544 494.316C289.864 490.654 313.815 489.341 337.95 488.127C361.742 486.931 385.7 484.675 409.634 481.561C452.718 475.945 497.02 464.267 537.002 441.324C560.49 427.847 581.6 410.093 603.61 394.261C624.057 379.554 645.026 365.402 667.096 353.628C689.067 341.907 712.269 333.081 735.497 325.761C760.428 317.855 785.607 311.566 810.858 306.94C816.577 305.914 822.303 305.05 828.036 304.346C828.364 304.301 828.287 304.805 827.964 304.845L827.96 304.841Z" fill="#F0F0F0"/>
<path d="M832.246 304.713C806.523 309.111 780.7 315.989 755.105 322.435C730.527 328.627 705.432 335.451 681.621 345.984C658.823 356.096 637.38 369.953 616.963 384.782C606.633 392.244 596.501 399.997 586.565 408.04C576.083 416.519 565.727 425.182 554.727 432.946C534.441 447.255 511.721 456.755 488.849 463.908C469.39 469.988 449.705 473.713 430.045 476.265C407.005 479.26 383.956 481.392 360.972 483.696C335.146 486.295 309.401 487.794 283.485 492.239C234.774 500.588 186.33 515.884 138.208 530.145C131.554 532.121 124.908 534.081 118.271 536.025C117.944 536.126 117.885 535.645 118.207 535.548C167.229 521.154 216.338 505.284 265.824 495.096C290.431 490.029 314.729 487.447 339.256 485.286C363.783 483.125 388.558 480.423 413.215 477.752C433.573 475.551 454.018 472.779 474.322 467.543C496.798 461.77 520.29 453.566 541.003 441.334C564.177 427.634 584.243 408.704 605.744 392.485C625.405 377.645 645.846 363.576 667.512 352.299C689.696 340.751 713.302 333.235 736.727 326.792C762.109 319.811 787.718 313.6 813.244 308.005C819.546 306.613 825.859 305.343 832.178 304.264C832.499 304.21 832.558 304.692 832.237 304.746L832.246 304.713Z" fill="#F0F0F0"/>
<path d="M836.5 304.628C823.573 307.476 810.707 310.96 797.837 314.276C784.463 317.702 771.063 320.716 757.675 323.678C732.95 329.179 707.504 334.35 683.428 344.256C660.782 353.567 639.53 367.378 619.606 382.237C609.682 389.638 600.023 397.338 590.634 405.43C580.339 414.294 570.341 423.536 559.541 431.787C522.216 460.271 475.516 469.203 432.868 473.158C409.58 475.337 386.397 477.176 363.087 480.009C337.019 483.167 310.943 485.889 284.871 491.731C260.673 497.15 236.684 504.595 212.769 512.147C187.746 520.025 162.755 528.146 137.664 535.739C130.912 537.779 124.135 539.781 117.334 541.745C117.272 541.753 117.212 541.74 117.166 541.707C117.12 541.674 117.09 541.623 117.083 541.564C117.076 541.505 117.092 541.442 117.127 541.387C117.162 541.332 117.215 541.287 117.275 541.263C143.333 533.699 169.277 525.449 195.22 517.198C219.169 509.575 243.134 501.806 267.281 495.511C292.041 489.042 316.529 485.264 341.396 482.185C366.263 479.106 391.12 476.191 415.956 474.126C436.337 472.431 456.781 470.72 477.236 466.353C487.95 464.081 498.611 461.105 509.144 457.445C521.807 453.031 534.426 447.957 546.077 440.643C568.728 426.43 587.696 406.525 608.722 389.988C627.839 374.974 648.008 360.883 669.54 350.11C691.848 338.889 715.647 332.845 739.087 327.383C751.891 324.397 764.717 321.654 777.524 318.715C790.87 315.651 804.166 312.072 817.477 308.685C823.802 307.067 830.111 305.529 836.442 304.136C836.769 304.068 836.817 304.559 836.501 304.618L836.5 304.628Z" fill="#F0F0F0"/>
<path d="M840.737 304.524C828.09 307.938 815.499 311.787 802.849 315.22C789.366 318.883 775.843 321.825 762.278 324.467C737.827 329.24 712.646 332.664 688.557 341.233C665.526 349.431 644.013 363.572 624.133 378.557C614.461 385.849 604.951 393.465 595.785 401.426C585.442 410.399 575.863 420.212 565.479 429.139C555.197 437.942 544.029 445.756 531.729 450.917C520.51 455.591 509.059 459.378 497.5 462.237C477.199 467.314 456.909 469.101 436.657 470.198C413.072 471.474 389.595 472.917 365.859 476.143C339.308 479.763 312.674 483.67 286.259 491.008C261.888 497.772 237.895 506.799 213.854 515.368C188.301 524.496 162.706 533.423 136.926 541.365C130.091 543.473 123.248 545.51 116.397 547.474C116.075 547.571 116.038 547.07 116.342 546.997C143.015 539.34 169.493 530.533 195.869 521.25C219.977 512.746 243.953 503.634 268.189 495.897C293.635 487.775 318.926 482.659 344.675 478.716C369.62 474.894 394.423 471.929 419.226 470.583C439.953 469.452 460.704 468.808 481.604 465.106C492.695 463.141 503.753 460.334 514.676 456.712C528.162 452.232 541.147 446.793 553.088 438.243C564.308 430.236 574.249 420.601 584.304 411.194C593.529 402.557 603.143 394.412 613.022 386.534C631.936 371.477 651.99 357.201 673.587 346.938C695.902 336.326 719.818 332.012 743.081 327.595C756.372 325.081 769.699 322.608 782.973 319.649C796.247 316.69 809.343 312.918 822.475 309.132C828.524 307.389 834.581 305.655 840.654 304.015C840.687 304.006 840.72 304.004 840.752 304.007C840.784 304.011 840.814 304.022 840.839 304.037C840.865 304.053 840.887 304.075 840.903 304.1C840.919 304.126 840.929 304.155 840.932 304.187C840.936 304.218 840.933 304.251 840.924 304.283C840.914 304.315 840.899 304.347 840.878 304.375C840.857 304.403 840.832 304.428 840.803 304.448C840.774 304.468 840.742 304.483 840.709 304.492L840.737 304.524Z" fill="#F0F0F0"/>
<path d="M844.975 304.43C832.332 308.472 819.731 312.758 807.029 316.394C793.311 320.243 779.503 323.3 765.679 325.55C741.168 329.686 716.002 331.51 691.673 339.076C668.178 346.379 646.067 360.557 626.165 375.932C616.756 383.217 607.685 390.948 598.993 399.089C588.926 408.515 579.67 418.856 569.521 428.191C559.372 437.525 548.28 445.731 535.807 451.046C524.321 455.977 512.197 459.478 500.319 462.053C479.635 466.533 459.156 467.189 438.755 467.44C414.781 467.754 391.033 468.781 366.772 472.423C340.314 476.388 313.753 481.34 287.664 490.016C262.935 498.225 238.774 508.987 214.405 518.717C188.532 529.058 162.518 538.727 136.204 546.986C129.319 549.139 122.416 551.199 115.495 553.165C115.432 553.174 115.373 553.16 115.326 553.127C115.28 553.094 115.251 553.043 115.244 552.984C115.237 552.926 115.252 552.863 115.287 552.807C115.323 552.752 115.375 552.708 115.436 552.683C142.712 544.918 169.757 535.559 196.551 525.238C220.813 515.891 244.774 505.396 269.066 496.17C281.595 491.359 294.274 487.191 307.045 483.684C320.352 480.096 333.655 477.596 347.008 475.207C371.941 470.77 396.69 467.788 421.367 467.228C442.025 466.741 462.578 467.285 483.508 464.502C508.457 461.21 535.923 454.074 557.51 437.689C568.461 429.378 577.972 419.402 587.584 409.648C596.395 400.67 605.656 392.124 615.317 384.053C634.007 368.481 654.399 354.126 676.343 344.386C699.027 334.31 723.14 331.53 746.545 328.039C760.101 326.021 773.673 323.89 787.222 320.934C800.614 318.009 813.889 313.98 827.109 309.713C833.054 307.799 838.982 305.843 844.927 303.938C845.244 303.837 845.309 304.314 844.986 304.42L844.975 304.43Z" fill="#F0F0F0"/>
<path d="M849.211 304.327C836.596 309.003 823.982 313.711 811.197 317.56C797.73 321.532 784.135 324.49 770.541 326.405C745.464 330.09 719.892 330.252 694.855 336.934C671.542 343.163 649.435 357.115 629.893 372.328C620.353 379.767 611.214 387.725 602.53 396.155C592.794 405.615 584.12 416 574.611 425.662C565.102 435.324 554.492 444.237 542.315 450.127C530.514 455.84 517.485 459.239 505.097 461.676C483.79 465.87 462.915 465.522 442.117 464.867C418.012 464.114 394.086 464.558 369.451 468.434C342.67 472.669 315.75 478.572 289.65 488.647C263.99 498.528 239.232 511.439 213.952 522.569C188.364 533.833 162.413 544.031 136.115 552.44C128.965 554.724 121.791 556.876 114.593 558.895C114.531 558.904 114.471 558.89 114.425 558.857C114.379 558.824 114.35 558.773 114.343 558.714C114.335 558.656 114.351 558.593 114.386 558.537C114.421 558.482 114.474 558.438 114.534 558.413C142.802 550.357 170.783 540.455 198.276 528.778C223.124 518.343 247.368 506.176 272.068 495.355C284.461 489.869 297.07 485.11 309.82 481.105C322.87 477.063 336.073 474.199 349.265 471.584C374.616 466.547 399.678 463.689 424.701 463.956C445.739 464.193 466.566 465.898 487.944 463.729C513.808 461.129 541.759 453.983 563.337 435.608C573.781 426.727 582.686 416.319 591.963 406.329C600.379 397.305 609.336 388.769 618.77 380.783C637.228 365.103 657.71 350.719 679.767 341.609C702.394 332.267 726.315 331.062 749.365 328.56C763.154 327.067 776.978 325.263 790.777 322.339C804.357 319.462 817.809 315.194 831.124 310.456C837.145 308.31 843.152 306.071 849.157 303.841C849.472 303.726 849.531 304.208 849.216 304.323L849.211 304.327Z" fill="#F0F0F0"/>
<path d="M853.512 304.203C841.309 309.353 829.052 314.344 816.578 318.335C802.97 322.63 789.181 325.655 775.408 327.366C750.091 330.638 724.767 329.331 699.373 334.604C676.088 339.411 653.714 353.116 634.344 368.109C624.703 375.578 615.52 383.645 606.867 392.243C597.061 401.964 588.594 412.658 579.451 422.907C570.456 432.985 560.531 442.473 548.697 449.045C536.627 455.744 522.869 459.175 509.932 461.53C487.917 465.539 466.665 464.153 445.417 462.542C421.01 460.684 396.779 460.412 371.565 464.522C343.613 469.098 315.602 476.166 288.776 488.2C263.432 499.585 239.23 514.04 214.064 526.13C188.5 538.539 162.321 549.165 135.753 557.916C128.408 560.308 121.035 562.527 113.635 564.573C113.572 564.582 113.512 564.568 113.466 564.535C113.42 564.502 113.391 564.451 113.384 564.392C113.377 564.334 113.392 564.271 113.427 564.215C113.463 564.16 113.515 564.116 113.576 564.091C142.223 556.042 170.509 545.669 198.119 533.087C223.162 521.755 247.224 508.213 271.827 495.785C284.337 489.379 297.153 483.788 310.181 479.054C323.516 474.306 337.129 470.963 350.691 468.012C376.255 462.449 401.483 459.657 426.541 460.806C448.146 461.78 469.368 464.837 491.446 463.328C503.761 462.478 516.169 460.223 528.42 456.608C543.197 452.249 556.14 445.211 567.837 434.265C578.405 424.386 587.142 412.935 596.722 402.216C604.632 393.459 613.118 385.203 622.109 377.519C640.023 362.067 660.124 347.987 681.778 339.45C704.823 330.36 728.906 330.672 752.124 329.081C765.934 328.136 779.814 326.702 793.674 323.889C807.265 321.134 820.765 316.757 834.02 311.645C840.51 309.174 846.907 306.489 853.327 303.776C853.635 303.642 853.825 304.074 853.512 304.203Z" fill="#F0F0F0"/>
<path d="M857.75 304.102C845.413 309.954 832.934 315.438 820.155 319.676C806.59 324.123 792.799 327.088 779.055 328.512C753.412 331.318 728.151 328.476 702.459 332.648C678.694 336.476 655.619 350.573 636.017 366.002C626.35 373.618 617.198 381.886 608.649 390.73C599.106 400.595 591.049 411.467 582.356 421.983C573.777 432.365 564.242 442.281 552.548 449.164C540.343 456.345 526.308 459.683 513.093 461.801C490.843 465.369 469.685 462.963 448.511 460.365C436.968 458.945 425.372 457.694 413.541 457.458C399.96 457.241 386.171 458.339 372.369 460.737C344.159 465.558 315.936 473.546 289.339 487.062C263.754 500.057 239.745 516.446 214.248 529.758C188.499 543.28 161.91 554.621 134.818 563.639C127.494 566.055 120.135 568.275 112.741 570.299C112.679 570.308 112.619 570.295 112.573 570.261C112.526 570.228 112.497 570.178 112.49 570.119C112.483 570.06 112.498 569.997 112.533 569.942C112.569 569.886 112.622 569.842 112.682 569.817C141.701 561.75 170.283 550.892 197.98 537.412C223.654 525.02 247.789 509.801 272.632 495.598C285.125 488.332 298.037 481.981 311.243 476.609C324.457 471.352 338.101 467.662 351.662 464.481C377.811 458.341 403.528 455.675 429.011 457.761C450.541 459.525 471.491 463.818 493.582 463.153C506.244 462.764 519.072 460.75 531.744 457.161C546.469 453.159 560.306 444.931 571.358 433.607C581.513 423.339 589.718 411.563 599.013 400.62C606.578 391.82 614.777 383.533 623.525 375.845C641.588 359.817 662.233 345.213 684.504 337C707.779 328.421 731.754 330.251 754.915 329.59C768.947 329.18 783.08 328.064 797.251 325.295C811.625 322.494 825.826 317.627 839.684 311.774C845.696 309.234 851.65 306.499 857.572 303.694C857.887 303.546 858.072 303.973 857.763 304.116L857.75 304.102Z" fill="#F0F0F0"/>
<path d="M861.984 304.006C849.722 310.456 837.2 316.34 824.311 320.815C810.471 325.557 796.346 328.549 782.306 329.715C756.852 331.967 732.28 328.119 706.833 330.611C683.044 332.947 659.529 346.81 639.928 362.099C630.024 369.837 620.698 378.314 612.057 387.429C602.666 397.323 594.873 408.143 586.737 418.937C578.433 429.946 569.31 440.754 557.612 448.43C545.291 456.519 531.002 459.984 517.364 462.009C494.601 465.415 473.332 462.097 452.059 458.469C440.414 456.474 428.718 454.663 416.691 454.042C403.352 453.382 389.736 454.202 376.089 456.486C347.433 461.209 318.417 469.901 291.841 484.697C265.747 499.228 241.844 517.857 215.827 532.584C189.747 547.416 162.547 559.652 134.706 569.075C127.11 571.623 119.478 573.935 111.808 576.013C111.743 576.028 111.679 576.018 111.629 575.987C111.579 575.955 111.547 575.903 111.539 575.842C111.531 575.781 111.549 575.716 111.587 575.66C111.626 575.603 111.683 575.561 111.747 575.54C141.43 567.377 170.591 555.905 198.616 541.362C211.506 534.733 224.137 527.487 236.455 519.656C249.262 511.48 261.735 502.731 274.519 494.552C287.576 486.126 301.219 478.808 315.269 472.694C327.895 467.244 341.357 463.633 354.393 460.449C380.586 454.065 406.214 451.79 431.509 454.824C453.593 457.486 474.849 463.216 497.663 463.06C510.656 462.955 523.874 461.005 536.915 457.269C552.609 452.795 565.741 443.247 576.717 430.68C586.046 419.994 593.568 408.126 602.645 397.244C610.158 388.322 618.348 379.936 627.123 372.179C645.217 356.066 666.215 341.412 688.791 334.045C712.104 326.427 735.85 329.891 758.689 330.058C772.599 330.167 786.666 329.348 800.804 326.674C815.57 323.887 830.161 318.706 844.26 312.237C850.181 309.531 856.021 306.601 861.79 303.569C861.852 303.542 861.919 303.537 861.977 303.555C862.034 303.573 862.08 303.613 862.103 303.667C862.127 303.721 862.128 303.785 862.105 303.847C862.082 303.909 862.037 303.964 861.98 304.001L861.984 304.006Z" fill="#F0F0F0"/>
<path d="M866.224 303.903C840.426 318.855 813.553 329.032 785.349 330.93C759.718 332.656 735.413 327.437 709.89 328.846C685.822 330.148 661.774 344.097 641.991 359.662C632.009 367.523 622.662 376.182 614.077 385.524C604.697 395.671 597.162 406.738 589.348 417.905C581.445 429.191 572.774 440.411 561.255 448.495C549.013 457.089 534.804 460.558 521.012 462.464C497.277 465.747 475.539 461.201 453.726 456.417C442.276 453.91 430.72 451.622 418.748 450.681C405.215 449.618 391.317 450.27 377.379 452.622C348.26 457.469 318.762 466.917 292.321 483.221C265.983 499.456 242.441 520.132 215.949 536.193C189.94 552.033 162.532 564.923 134.354 574.567C126.564 577.222 118.731 579.605 110.858 581.715C110.795 581.724 110.735 581.71 110.689 581.677C110.643 581.644 110.614 581.593 110.607 581.534C110.599 581.476 110.615 581.413 110.65 581.357C110.686 581.302 110.738 581.258 110.799 581.233C141.267 572.963 171.122 560.824 199.552 545.145C212.318 538.157 224.758 530.467 236.802 522.119C249.996 512.936 262.609 502.968 275.72 493.702C288.592 484.606 302.032 476.28 316.208 469.833C328.954 464.038 342.652 460.037 355.88 456.675C382.148 449.994 407.805 447.915 432.977 451.88C455.497 455.395 476.857 462.62 500.253 463.197C513.489 463.526 527.042 461.764 540.409 457.976C556.129 453.487 569.052 443.245 579.524 430.394C588.578 419.18 595.731 406.841 604.697 395.671C612.158 386.431 620.378 377.761 629.252 369.774C647.201 353.519 668.332 338.763 690.997 331.835C714.92 324.523 738.848 329.591 761.964 330.606C775.902 331.216 790.072 330.7 804.349 328.083C819.131 325.381 833.72 320.055 847.712 313.269C853.902 310.242 860.011 306.959 866.014 303.481C866.314 303.305 866.499 303.733 866.199 303.909L866.224 303.903Z" fill="#F0F0F0"/>
<path d="M870.461 303.8C844.865 320.019 817.516 330.675 788.976 332.107C762.76 333.425 738.45 326.648 712.45 327.083C688.303 327.485 663.9 341.396 644.091 357.107C633.85 365.22 624.326 374.222 615.669 383.971C606.711 394.056 599.56 404.988 592.325 416.141C584.551 428.152 576.024 440.321 564.138 449.042C552.067 457.905 537.981 461.338 524.221 463.093C499.594 466.18 477.568 460.402 455.384 454.467C444.263 451.489 433.009 448.777 421.288 447.44C407.23 445.854 392.676 446.318 378.071 448.818C348.674 453.789 318.845 463.958 292.77 481.571C279.227 490.721 266.742 501.38 254.05 511.729C241.848 521.735 229.327 531.25 216.129 539.805C189.999 556.746 162.155 570.37 133.405 580.283C125.634 582.953 117.818 585.333 109.956 587.42C109.626 587.508 109.589 587.007 109.892 586.943C140.768 578.661 170.956 566.046 199.454 549.514C212.841 541.792 225.784 533.193 238.176 523.785C251.182 513.888 263.473 503.097 276.376 493.029C289.091 483.11 302.73 473.532 317.188 466.867C329.999 460.949 343.427 456.545 356.736 453.013C370.217 449.434 383.942 446.831 397.443 446.128C410.423 445.451 423.115 446.69 435.34 449.108C457.801 453.539 478.806 462.016 502.343 463.33C515.881 464.09 530.262 462.664 544.051 458.524C560.153 453.713 572.903 442.499 582.972 428.92C591.592 417.327 598.337 404.692 607.264 393.27C614.607 383.928 622.756 375.17 631.594 367.119C649.541 350.677 670.971 335.755 693.893 329.379C718.022 322.681 741.777 329.194 764.766 331.061C778.907 332.206 793.34 332.007 807.947 329.435C823.135 326.742 838.108 321.084 852.321 313.716C858.432 310.53 864.425 307.067 870.276 303.34C870.573 303.15 870.758 303.577 870.461 303.767L870.461 303.8Z" fill="#F0F0F0"/>
<path d="M874.694 303.703C849.154 321.285 821.097 332.456 792.021 333.327C765.558 334.116 741.538 326.046 715.467 325.353C691.256 324.71 666.476 338.503 646.512 354.311C636.015 362.626 626.312 371.919 617.58 382.022C608.841 392.126 601.965 402.995 595.173 414.232C587.793 426.534 579.862 439.144 568.325 448.477C556.462 458.066 542.512 461.839 528.525 463.59C503.398 466.736 481.307 460.283 459.172 453.212C447.824 449.596 436.363 446.18 424.292 444.34C410.247 442.209 395.579 442.342 380.823 444.734C366.176 447.15 351.578 451.05 337.27 456.371C321.767 461.936 306.898 469.859 293.265 479.819C279.79 489.713 267.58 501.163 255.143 512.347C243.169 523.112 230.845 533.373 217.649 542.542C191.109 560.957 162.439 575.603 132.681 585.948C124.859 588.663 116.982 591.064 109.048 593.151C108.986 593.159 108.926 593.146 108.88 593.113C108.834 593.08 108.804 593.029 108.797 592.97C108.79 592.911 108.806 592.848 108.841 592.793C108.876 592.738 108.929 592.694 108.989 592.669C140.745 584.233 171.709 570.865 200.628 553.108C214.226 544.804 227.265 535.489 239.606 525.262C252.574 514.47 264.691 502.707 277.529 491.768C290.038 481.113 303.758 470.566 318.517 463.618C331.819 457.432 345.506 452.476 359.375 448.823C373.191 445.153 387.337 442.554 401.167 442.298C414.093 442.04 426.632 443.752 438.662 446.705C461.281 452.244 482.276 462.053 506.385 463.74C520.154 464.673 535.515 463.486 549.489 458.55C565.145 453.016 576.953 441.19 586.219 427.602C594.23 415.858 600.502 403.249 609.057 391.844C616.298 382.272 624.418 373.307 633.289 365.091C651.432 348.17 673.506 332.792 697.018 326.994C721.148 321.052 744.427 328.833 767.049 331.576C781.721 333.352 796.809 333.509 812.123 330.794C827.438 328.079 842.645 322.105 856.86 314.259C862.895 310.908 868.784 307.247 874.497 303.294C874.786 303.095 874.971 303.523 874.682 303.722L874.694 303.703Z" fill="#F0F0F0"/>
<path d="M878.987 303.569C853.884 322.235 825.451 333.977 796.213 334.524C769.216 335.038 745.334 325.638 719.042 323.71C694.369 321.891 668.958 335.563 648.505 351.838C637.91 360.273 628.166 369.747 619.47 380.066C610.723 390.433 603.982 401.543 597.48 413.14C590.449 425.682 583.013 438.675 571.752 448.462C559.874 458.788 545.652 462.778 531.314 464.396C505.408 467.353 483.15 459.717 460.867 451.496C449.637 447.356 438.266 443.441 426.169 441.189C412.191 438.592 397.468 438.442 382.625 440.744C367.668 443.141 352.761 447.201 338.201 452.843C331.114 455.517 324.134 458.606 317.304 462.09C309.053 466.337 301.227 471.991 293.886 477.789C280.279 488.54 268.205 500.996 255.896 513.143C243.747 525.09 231.146 536.427 217.397 546.482C191.26 565.583 162.722 580.724 132.97 591.273C124.741 594.192 116.45 596.74 108.099 598.917C107.775 599 107.732 598.503 108.04 598.435C140.421 589.911 171.916 575.925 201.026 557.146C214.858 548.271 228.008 538.254 240.3 527.228C253.106 515.684 264.876 503.104 277.475 491.349C289.681 479.959 303.236 468.614 318.085 461.134C331.34 454.541 345.059 449.283 358.999 445.451C373.088 441.497 387.563 438.755 401.646 438.587C414.889 438.425 427.672 440.455 439.827 443.888C462.161 450.199 482.509 461.083 506.304 463.903C520.5 465.591 536.477 464.77 551.096 459.861C567.149 454.469 579.028 442.187 588.073 428.153C595.909 416.005 601.83 402.943 610.281 391.105C617.342 381.299 625.37 372.117 634.218 363.725C652.3 346.44 674.588 330.691 698.339 325.01C723.145 319.075 746.481 328.319 769.331 331.953C783.529 334.223 798.194 334.854 813.188 332.587C829.073 330.187 844.726 324.213 859.332 315.922C866.012 312.107 872.478 307.863 878.681 303.224C878.962 303.016 879.268 303.361 878.987 303.569Z" fill="#F0F0F0"/>
<path d="M883.229 303.461C858.086 323.568 828.662 335.877 798.683 335.742C771.425 335.633 747.919 324.897 721.516 322.024C696.524 319.288 670.389 333.281 649.709 349.978C639.014 358.612 629.237 368.342 620.597 378.95C611.831 389.712 605.329 401.21 599.031 413.234C592.532 425.698 585.599 438.656 574.802 448.639C563.002 459.545 548.623 463.707 533.994 465.238C507.436 468.018 485.064 459.292 462.805 449.939C451.187 445.067 439.388 440.439 426.712 437.796C412.66 434.885 397.756 434.625 382.726 437.029C367.115 439.59 351.575 444.06 336.481 450.333C329.687 453.092 323.014 456.266 316.509 459.835C308.372 464.343 300.74 470.293 293.625 476.377C280.118 487.918 268.395 501.229 256.317 514.141C244.376 526.922 231.931 538.993 218.088 549.706C191.759 570.046 162.609 586.052 132.07 596.936C123.841 599.855 115.564 602.397 107.24 604.561C107.173 604.578 107.107 604.57 107.054 604.538C107.002 604.506 106.969 604.452 106.961 604.389C106.954 604.325 106.974 604.258 107.016 604.2C107.058 604.143 107.119 604.101 107.185 604.083C140.366 595.437 172.561 580.744 201.979 560.819C215.62 551.633 228.487 541.243 240.381 529.81C253.244 517.369 264.817 503.779 277.346 491.026C289.463 478.705 302.978 466.474 318.212 458.365C331.269 451.499 344.852 446.022 358.692 442.041C372.98 437.853 387.765 434.934 402.101 434.845C415.749 434.768 428.839 437.166 441.184 441.13C463.953 448.444 484.312 460.839 508.814 464.313C523.264 466.385 540.125 465.807 555.057 460.266C570.839 454.482 582.06 441.829 590.496 427.777C597.876 415.475 603.386 402.366 611.488 390.386C618.507 380.148 626.617 370.572 635.647 361.856C653.689 344.285 676.253 328.291 700.217 322.882C725.494 317.204 748.667 327.751 771.573 332.313C785.704 335.119 800.368 336.219 815.477 334.18C832.189 331.926 848.681 325.552 863.859 316.441C870.471 312.459 876.833 308.015 882.885 303.15C883.146 302.919 883.464 303.277 883.191 303.495L883.229 303.461Z" fill="#F0F0F0"/>
<path d="M887.484 303.376C862.305 324.896 831.874 337.819 801.176 336.94C773.702 336.152 750.53 324.141 724.121 320.32C698.927 316.679 672.263 330.754 651.318 347.819C640.423 356.697 630.527 366.746 621.874 377.718C613.156 388.741 606.904 400.543 600.892 412.856C594.739 425.458 588.231 438.58 577.789 448.841C566.129 460.288 551.598 464.684 536.763 466.135C509.71 468.729 487.398 459.152 465.261 448.745C453.632 443.292 441.862 437.997 429.027 434.87C415.012 431.405 399.987 430.782 384.783 433.034C368.683 435.546 352.652 440.201 337.144 446.867C330.119 449.818 323.236 453.22 316.544 457.05C308.157 461.887 300.38 468.352 293.225 474.939C279.668 487.429 268.162 501.739 256.213 515.605C244.899 528.743 232.935 541.192 219.506 552.285C193.051 573.995 163.293 591.014 131.935 602.366C123.468 605.443 114.913 608.096 106.305 610.313C105.98 610.396 105.937 609.9 106.246 609.832C140.514 600.98 173.665 585.362 203.54 563.995C217.505 554.059 230.53 542.777 242.369 530.363C254.656 517.414 265.59 503.389 277.555 490.208C289.433 477.137 302.793 464.206 318.244 455.566C331.668 448.186 345.716 442.348 360.059 438.189C374.645 433.778 389.679 430.9 404.192 431.141C417.929 431.371 430.987 434.192 443.234 438.669C466.199 447.058 486.463 460.886 511.57 464.9C525.93 467.199 542.885 466.858 557.775 461.216C573.755 455.173 584.776 441.868 592.873 427.401C599.837 414.959 604.917 401.748 612.728 389.647C619.665 379.037 627.807 369.114 636.965 360.111C655.189 342.025 678.359 325.477 702.911 320.557C728.722 315.383 751.84 327.475 774.877 332.841C788.991 336.13 803.77 337.524 819.053 335.56C835.995 333.39 852.701 326.777 867.92 317.242C874.648 313.008 881.078 308.26 887.137 303.051C887.191 303.015 887.254 302.997 887.314 303C887.373 303.004 887.426 303.028 887.463 303.07C887.5 303.111 887.518 303.167 887.514 303.226C887.511 303.286 887.485 303.346 887.443 303.396L887.484 303.376Z" fill="#F0F0F0"/>
<path d="M891.705 303.262C866.904 325.918 835.84 339.451 804.778 338.14C776.565 336.955 753.503 323.417 726.669 318.616C701.121 314.04 673.714 328.414 652.465 345.978C641.397 355.123 631.415 365.513 622.79 376.863C614.216 388.169 608.265 400.19 602.55 412.74C596.579 425.887 590.175 439.715 579.34 450.364C567.701 461.802 553.059 465.974 538.284 467.143C510.279 469.365 487.847 458.144 465.535 446.554C453.786 440.442 441.783 434.622 428.539 431.242C414.208 427.568 398.755 427.008 383.154 429.596C366.744 432.388 350.447 437.479 334.778 444.708C327.915 447.785 321.22 451.344 314.752 455.352C306.499 460.538 298.936 467.396 292.027 474.292C278.653 487.646 267.539 502.834 255.841 517.496C244.975 531.107 233.373 544.007 220.127 555.514C193.909 578.302 163.35 596.154 131.601 607.855C122.94 611.038 114.181 613.759 105.365 616.004C105.302 616.013 105.242 615.999 105.196 615.966C105.15 615.933 105.121 615.882 105.114 615.823C105.106 615.764 105.122 615.702 105.157 615.646C105.193 615.591 105.245 615.547 105.306 615.522C140.412 606.549 174.288 590.173 204.423 567.608C218.494 557.109 231.487 545.173 243.124 532.059C255.255 518.345 265.821 503.479 277.589 489.486C288.746 476.225 301.467 462.825 316.398 453.818C329.721 445.776 344.097 439.653 358.543 435.095C373.167 430.477 388.397 427.327 403.031 427.41C417.431 427.512 431.049 430.659 443.695 435.662C466.87 444.867 486.801 460.058 512.12 465.175C526.962 468.148 544.883 468.207 560.493 462.107C576.744 455.758 587.447 441.855 595.178 427.007C601.721 414.429 606.427 401.147 613.928 388.927C620.695 378.069 628.764 367.908 637.926 358.707C656.191 340.141 679.762 323.105 704.701 318.359C731.079 313.364 754.091 326.791 777.192 333.07C791.581 336.987 806.794 338.858 822.626 336.892C839.805 334.758 856.698 327.963 871.984 317.999C878.829 313.509 885.323 308.451 891.379 302.894C891.433 302.858 891.496 302.84 891.555 302.843C891.615 302.847 891.668 302.871 891.705 302.913C891.742 302.954 891.76 303.01 891.756 303.069C891.752 303.129 891.727 303.189 891.685 303.239L891.705 303.262Z" fill="#F0F0F0"/>
<path d="M895.943 303.164C871.175 327.237 839.061 341.39 807.272 339.302C778.443 337.424 755.631 322.167 728.278 316.726C702.562 311.6 674.55 326.527 653.304 344.434C642.413 353.6 632.631 364.006 624.234 375.356C615.496 387.22 609.697 399.763 604.113 412.887C598.53 426.011 592.609 439.738 582.251 450.565C570.635 462.696 555.633 467.107 540.465 468.139C511.789 470.085 489.372 457.733 467.101 445.054C455.337 438.356 443.305 431.912 429.864 428.091C415.423 423.97 399.702 423.194 383.805 425.818C367.279 428.639 350.877 433.873 335.162 441.339C328.164 444.584 321.351 448.334 314.789 452.554C306.629 457.855 299.293 464.817 292.598 471.867C279.521 485.632 268.903 501.193 257.795 516.334C246.903 531.194 235.254 545.376 221.56 557.996C195.131 582.318 163.675 601.345 130.873 613.52C122.158 616.752 113.338 619.498 104.46 621.744C104.135 621.826 104.092 621.33 104.401 621.262C140.635 612.071 175.491 594.706 206.019 570.635C220.361 559.37 233.433 546.539 244.906 532.464C256.565 518.009 266.697 502.6 278.142 488.023C288.845 474.416 301.161 460.636 315.954 451.266C329.57 442.636 344.429 436.117 359.369 431.318C374.309 426.519 389.693 423.347 404.514 423.716C418.561 424.066 431.777 427.372 443.979 432.563C467.983 442.768 487.969 459.891 514.381 465.747C529.51 469.098 548.325 469.399 564.27 462.574C580.023 455.838 590.052 441.744 597.212 427.106C603.508 414.238 607.872 400.691 615.167 388.161C621.702 377.172 629.61 366.873 638.671 357.549C657.032 338.381 681.137 320.69 706.661 316.198C733.564 311.444 756.423 326.165 779.538 333.345C794.019 337.846 809.416 340.178 825.586 338.372C843.393 336.388 860.946 329.188 876.572 318.495C883.351 313.83 889.74 308.577 895.642 302.815C895.903 302.583 896.201 302.919 895.948 303.16L895.943 303.164Z" fill="#F0F0F0"/>
<path d="M900.182 303.065C875.492 328.515 842.271 343.355 809.772 340.425C780.703 337.806 758.277 321.344 730.855 314.995C704.794 308.966 676.045 324.178 654.468 342.608C643.404 352.047 633.537 362.793 625.168 374.516C616.721 386.392 611.271 398.913 606.06 412.019C600.713 425.541 595.074 439.849 584.683 451.173C573.152 463.739 557.922 468.286 542.543 469.168C512.991 470.848 490.514 457.16 468.183 443.31C456.467 436.043 444.423 429.051 430.828 424.848C415.954 420.231 399.584 419.345 383.047 422.263C366.216 425.311 349.55 430.907 333.665 438.843C326.24 442.427 319.069 446.654 312.252 451.465C304.215 457.265 296.926 464.62 290.421 472.036C277.819 486.391 267.864 502.482 257.303 518.108C246.926 533.471 235.672 548.109 222.146 561.171C195.992 586.425 164.344 606.197 131.191 618.765C122.072 622.21 112.829 625.105 103.521 627.431C103.191 627.518 103.154 627.017 103.456 626.953C140.344 617.669 175.749 599.654 206.381 574.584C220.84 562.788 233.861 549.317 245.069 534.56C256.458 519.473 266.046 503.363 277.116 488.091C287.494 473.778 299.714 459.311 314.616 449.277C328.229 440.107 343.296 433.199 358.431 428.128C373.566 423.057 389.706 419.535 404.992 420.001C419.465 420.449 433.02 424.136 445.353 429.902C469.585 441.162 489.384 459.79 516.376 466.333C531.551 470.02 550.725 470.595 566.82 463.489C582.653 456.516 592.39 442.017 599.183 427.195C605.227 414.032 609.231 400.254 616.387 387.404C622.82 376.043 630.753 365.388 639.943 355.768C658.283 336.281 682.653 318.298 708.426 313.988C721.349 311.825 732.741 314.365 743.99 318.373C757.016 323.006 769.234 329.144 782.317 333.678C796.723 338.673 812.166 341.417 828.489 339.795C846.906 337.952 865.084 330.386 881.024 318.963C887.756 314.115 894.06 308.662 899.832 302.693C900.072 302.439 900.378 302.784 900.138 303.038L900.182 303.065Z" fill="#F0F0F0"/>
<path d="M904.419 302.963C880.109 329.465 846.269 345.018 813.356 341.642C783.199 338.55 760.895 320.073 732.585 313.04C706.437 306.53 677.236 322.052 655.632 340.77C644.393 350.48 634.443 361.567 626.11 373.664C617.717 385.895 612.581 398.736 607.646 412.132C602.524 426.038 597.091 440.862 586.489 452.496C575.258 464.82 560.353 469.309 545.315 470.127C514.796 471.81 492.129 456.869 469.76 441.828C458.162 434.037 446.265 426.512 432.636 421.855C417.887 416.74 401.469 415.505 384.82 418.257C367.571 421.11 350.225 427.198 334.007 435.4C326.441 439.159 319.149 443.581 312.235 448.603C304.087 454.617 296.944 462.418 290.559 470.179C278.081 485.361 268.336 502.17 257.975 518.547C247.874 534.495 236.913 549.802 223.494 563.509C197.245 590.318 164.651 611.341 130.435 624.384C121.256 627.877 111.947 630.794 102.571 633.115C102.246 633.197 102.203 632.701 102.516 632.637C140.375 623.192 176.615 604.295 207.495 577.894C222.179 565.33 235.248 551.012 246.291 535.39C257.457 519.548 266.791 502.735 277.726 486.711C287.785 471.951 299.67 456.777 314.619 446.381C328.416 436.785 343.776 429.551 359.256 424.322C374.579 419.125 390.704 415.65 406.036 416.322C420.648 416.959 434.195 420.998 446.475 427.164C470.975 439.468 490.55 459.561 518.12 466.93C533.405 471.037 553.028 471.855 569.413 464.476C585.344 457.285 594.733 442.37 601.202 427.359C607.084 413.674 610.851 399.334 618.029 385.996C624.314 374.536 632.145 363.774 641.274 354.052C659.602 334.256 684.222 315.943 710.26 311.834C723.524 309.738 735.091 312.617 746.45 317.077C759.64 322.255 771.908 329.007 785.17 334.081C799.691 339.623 815.378 342.783 832.098 341.204C850.946 339.421 869.546 331.466 885.616 319.425C892.285 314.408 898.487 308.772 904.113 302.618C904.349 302.359 904.65 302.709 904.419 302.963Z" fill="#F0F0F0"/>
<path d="M908.706 302.807C885.062 330.026 851.12 346.351 818.035 342.988C786.896 339.83 764.601 319.94 736.003 311.544C709.577 303.759 679.726 319.085 657.601 338.274C646.112 348.213 635.993 359.609 627.606 372.057C619.166 384.641 614.204 397.765 609.49 411.53C604.661 425.679 599.577 440.809 589.177 452.856C578.166 465.593 563.233 470.377 548.055 471.18C532.877 471.982 518.588 468.79 505.859 462.743C493.13 456.695 482.08 448.254 470.862 440.159C459.188 431.737 447.139 423.558 433.211 418.5C418.147 412.991 401.221 411.69 384.08 414.721C366.533 417.806 348.892 424.262 332.547 432.955C324.86 436.948 317.499 441.674 310.59 447.054C302.384 453.571 295.326 461.905 289.048 470.147C277.072 485.885 267.859 503.118 257.98 519.906C248.219 536.457 237.501 552.387 224.106 566.689C198.138 594.383 165.359 616.194 130.76 629.635C121.184 633.364 111.458 636.451 101.657 638.872C101.332 638.955 101.29 638.459 101.598 638.391C140.326 628.778 177.295 609.039 208.33 581.402C222.761 568.548 235.49 553.948 246.101 538.082C257.096 521.643 266.025 504.211 276.53 487.526C286.232 472.112 297.806 455.932 312.819 444.755C326.381 434.686 341.729 427.1 357.193 421.515C373.065 415.799 389.928 411.899 405.93 412.593C420.845 413.233 434.596 417.568 446.971 424.102C471.864 437.298 491.094 458.97 519.175 467.341C534.506 471.926 554.334 473.162 571.015 465.831C587.35 458.669 596.73 443.253 602.991 427.875C608.647 414.046 612.043 399.583 618.854 386.027C624.784 374.19 632.833 363.112 641.89 353.061C660.296 332.62 685.47 313.619 712.067 309.638C725.336 307.645 736.855 310.656 748.05 315.369C761.119 320.892 773.18 328.067 786.199 333.676C800.973 340.038 817.035 344.015 834.424 342.665C853.71 341.168 872.805 333.126 889.159 320.595C896.125 315.236 902.545 309.179 908.283 302.55C908.51 302.291 908.912 302.526 908.69 302.789L908.706 302.807Z" fill="#F0F0F0"/>
<path d="M912.943 302.706C889.106 331.6 853.571 348.665 819.449 343.97C788.251 339.673 766.564 318.446 737.761 309.557C711.106 301.328 680.669 317.108 658.454 336.721C647.013 346.795 636.991 358.34 628.758 370.928C620.491 383.63 615.771 396.819 611.383 410.657C606.76 425.214 602.018 440.904 591.597 453.463C580.557 466.768 565.186 471.671 549.637 472.284C517.444 473.546 494.702 456.05 472.389 438.797C460.716 429.775 448.649 420.953 434.484 415.408C419.36 409.419 402.169 407.87 384.728 410.925C367.242 413.981 349.695 420.477 333.437 429.224C325.408 433.448 317.737 438.461 310.563 444.17C302.406 450.775 295.519 459.204 289.408 467.568C277.144 484.359 268.053 502.79 258.202 520.737C248.682 538.061 238.14 554.78 224.633 569.83C198.725 598.696 165.383 621.458 130.053 635.31C120.418 639.07 110.628 642.167 100.761 644.575C100.432 644.653 100.39 644.157 100.702 644.094C140.197 634.345 177.804 613.845 208.93 585.095C223.948 571.203 236.98 555.389 247.537 538.247C257.976 521.324 266.437 503.559 276.518 486.485C286.207 470.072 297.891 452.989 313.666 441.195C327.204 431.055 342.54 423.357 358.01 417.734C373.96 411.932 390.943 408.024 406.977 408.92C422.379 409.768 436.424 414.632 448.934 421.843C473.802 436.203 492.795 459.139 521.352 468.122C536.696 472.951 556.781 474.378 573.555 466.825C589.975 459.43 599.036 443.567 604.968 428.037C610.376 413.885 613.468 399.166 620.086 385.305C625.935 373.071 634.066 361.583 643.289 351.205C661.537 330.673 686.583 311.605 713.176 307.52C742.582 303.019 765.068 322.609 788.154 333.529C802.913 340.52 819.084 345.166 836.803 344.122C856.414 342.97 875.841 334.962 892.401 322.084C899.828 316.312 906.605 309.727 912.561 302.495C912.779 302.227 913.182 302.462 912.963 302.729L912.943 302.706Z" fill="#F0F0F0"/>
<path d="M917.177 302.605C905.732 317.191 890.918 329.587 874.221 337.392C857.389 345.251 839.267 347.72 822.513 345.129C806.859 342.705 793.117 335.954 780.115 328.505C767.112 321.056 754.319 312.279 739.53 307.551C712.707 298.968 681.929 314.977 659.629 334.888C648.13 345.136 638.113 356.892 629.965 369.699C621.608 382.868 617.135 396.511 612.929 410.805C608.613 425.467 604.18 441.276 593.985 454.079C583.224 467.589 567.937 472.729 552.354 473.348C519.296 474.663 496.391 456.053 474.168 437.71C462.433 428.027 450.305 418.471 435.868 412.378C420.541 405.878 402.943 404.041 385.041 407.071C366.494 410.246 348.172 416.917 331.119 426.701C313.554 436.763 299.688 450.316 288.282 466.979C276.313 484.496 267.665 503.503 258.145 522.051C249.056 539.774 238.889 556.949 225.594 572.468C199.625 602.785 165.479 626.772 129.074 641.042C119.458 644.808 109.681 647.897 99.8285 650.283C99.504 650.365 99.4613 649.869 99.7695 649.801C140.146 639.897 178.493 618.547 209.743 588.572C224.51 574.39 237.213 558.314 247.365 540.962C257.72 523.234 265.86 504.694 275.718 486.766C285.123 469.651 296.377 452.432 311.83 439.444C325.124 428.264 340.989 420.08 356.83 414.242C373.094 408.235 390.483 404.272 406.865 405.187C422.933 406.044 437.467 411.403 450.255 419.288C475.245 434.683 493.899 458.93 522.869 468.73C538.386 474.005 558.926 475.67 576.078 467.79C592.586 460.21 601.343 443.786 606.934 428.156C612.09 413.719 614.887 398.744 621.326 384.573C626.994 372.146 635.042 360.411 644.255 349.836C662.554 328.815 688.022 309.217 715.042 305.296C728.881 303.29 740.735 306.679 752.086 312.157C765.538 318.648 777.705 327.068 790.997 333.816C805.681 341.268 821.844 346.364 839.749 345.542C859.994 344.6 880.074 336.16 896.949 322.543C904.299 316.583 910.957 309.807 916.748 302.394C916.962 302.122 917.365 302.356 917.15 302.629L917.177 302.605Z" fill="#F0F0F0"/>
<path d="M921.422 302.506C910.031 317.734 894.95 330.737 877.805 338.8C860.801 346.795 842.405 349.196 825.588 346.282C809.433 343.513 795.449 336.039 782.234 327.925C769.368 319.985 756.815 310.888 742.105 305.768C714.957 296.316 683.467 312.595 660.808 333.062C649.013 343.698 638.829 355.938 630.684 369.269C622.543 382.681 618.432 396.513 614.499 410.95C610.475 425.723 606.324 441.653 596.36 454.694C585.586 468.791 569.863 474.03 553.946 474.469C519.996 475.424 497.112 455.243 474.912 435.81C463.393 425.747 451.478 415.829 437.131 409.335C421.423 402.192 403.123 400.154 384.516 403.478C366.053 406.818 347.851 413.643 330.956 423.56C313.078 434.023 299.149 448.051 287.942 465.278C276.144 483.414 267.85 502.995 258.703 522.15C250.018 540.328 240.317 558.05 227.299 574.155C201.625 605.919 166.856 631.215 129.646 646.174C119.555 650.219 109.279 653.503 98.9153 655.994C98.5867 656.072 98.544 655.575 98.8564 655.512C140.446 645.362 179.812 622.879 211.279 591.304C226.428 576.008 239.223 558.708 249.127 540.132C258.913 521.939 266.631 503.009 276.143 484.747C285.069 467.638 295.856 450.332 310.934 437.183C324.307 425.523 340.402 416.986 356.48 410.89C372.999 404.591 390.68 400.466 407.309 401.45C423.778 402.453 438.525 408.206 451.362 416.606C476.629 433.055 494.989 458.819 524.571 469.417C540.191 474.995 561.218 477.024 578.58 468.777C594.794 461.064 603.232 444.815 608.551 429.305C613.615 414.513 616.093 399.212 622.248 384.611C627.705 371.673 635.871 359.447 645.248 348.456C663.581 326.961 689.436 306.847 716.888 303.052C731.085 301.089 743.135 304.797 754.582 310.7C768.212 317.731 780.432 326.779 793.883 334.067C808.477 341.986 824.65 347.542 842.744 346.922C863.214 346.223 883.553 337.702 900.537 323.783C908.232 317.443 915.134 310.195 921.036 302.257C921.08 302.204 921.139 302.166 921.204 302.151C921.268 302.136 921.332 302.144 921.383 302.174C921.434 302.204 921.468 302.254 921.479 302.313C921.49 302.373 921.477 302.438 921.442 302.496L921.422 302.506Z" fill="#F0F0F0"/>
<path d="M925.645 302.39C914.33 318.249 898.977 331.897 881.37 340.206C864.001 348.401 845.19 350.651 828.107 347.317C812.024 344.18 798.222 336.323 785.211 327.847C772.199 319.371 759.627 309.608 744.655 304.006C717.497 293.79 685.614 309.842 662.711 330.551C650.538 341.521 640.095 354.212 631.858 368.045C623.62 382.004 619.758 396.346 615.989 411.296C612.219 426.246 608.359 442.197 598.584 455.44C588.136 469.642 572.533 475.104 556.654 475.575C521.617 476.606 498.547 455.111 476.313 434.525C464.602 423.687 452.469 412.944 437.629 405.983C422.025 398.538 403.651 396.395 384.974 399.84C366.189 403.301 347.349 410.92 330.28 421.158C322.132 426.046 314.182 431.637 307.205 438.206C299.079 445.852 292.496 455.367 286.828 464.712C264.538 501.208 254.905 542.162 228.145 576.781C202.553 609.895 167.095 636.393 128.913 651.821C118.763 655.911 108.42 659.217 97.9885 661.705C97.6639 661.788 97.6213 661.292 97.9336 661.228C140.328 650.924 180.355 627.633 211.869 594.93C227.159 578.95 239.907 560.912 249.543 541.619C259.044 522.808 266.39 503.328 275.629 484.429C284.186 466.916 294.716 448.26 310.156 434.971C324.011 423.047 340.441 414.024 357.004 407.522C373.828 400.912 391.982 396.466 408.935 397.828C425.068 399.129 439.389 405.047 451.85 413.526C477.604 431.038 495.731 458.53 526.074 470.063C541.853 476.059 563.526 478.378 581.198 469.684C597.628 461.59 605.695 444.618 610.689 428.828C615.486 413.681 617.678 398.036 623.809 383.102C629.197 369.954 637.389 357.507 646.849 346.335C665.246 324.595 691.411 304.23 719.119 300.767C733.522 298.959 745.61 302.995 757.033 309.264C770.842 316.835 783.115 326.501 796.74 334.334C811.412 342.791 827.801 348.83 846.305 348.289C867.194 347.68 887.986 338.773 905.079 324.222C912.714 317.697 919.515 310.264 925.272 302.155C925.313 302.097 925.373 302.053 925.44 302.034C925.507 302.015 925.574 302.022 925.627 302.053C925.681 302.084 925.716 302.137 925.724 302.2C925.733 302.263 925.715 302.331 925.674 302.39L925.645 302.39Z" fill="#F0F0F0"/>
<path d="M929.892 302.305C918.757 318.629 903.385 332.737 885.549 341.356C867.712 349.975 848.157 352.195 830.656 348.368C814.303 344.797 800.429 336.289 787.366 327.242C774.304 318.194 761.703 307.776 746.452 301.903C718.785 291.299 686.244 308.01 663.16 329.389C651.127 340.487 640.868 353.292 632.858 367.208C624.699 381.508 621.136 396.209 617.592 411.435C614.049 426.661 610.434 442.912 600.65 456.451C590.207 470.92 574.294 476.394 558.249 476.7C522.51 477.377 499.503 454.542 477.416 432.996C465.811 421.678 453.777 410.411 438.913 402.996C422.988 395.041 404.656 392.519 385.375 396.099C366.094 399.679 346.751 407.67 329.357 418.428C321.215 423.465 313.297 429.234 306.389 435.98C298.073 444.099 291.452 454.272 285.776 464.133C264.225 501.757 255.524 543.586 229.066 579.31C203.504 613.868 167.252 641.638 128.005 657.559C117.854 661.656 107.505 664.954 97.0693 667.42C96.7407 667.498 96.6981 667.002 97.005 666.943C140.051 656.692 181.306 632.069 212.67 598.321C228.173 581.639 240.474 563.064 249.979 543.066C259.109 523.836 266.06 504 274.876 484.679C283.053 466.738 293.211 447.312 308.509 433.384C322.359 420.774 339.143 411.265 356.092 404.379C373.28 397.412 392.017 392.63 409.392 394.128C426.077 395.538 440.721 402.082 453.337 411.205C478.862 429.651 496.582 457.973 526.878 470.46C542.91 477.069 565.411 479.895 583.646 470.676C600.165 462.322 607.91 444.889 612.613 428.979C617.103 413.792 619.033 398.19 624.725 383.177C629.845 369.684 638 356.867 647.461 345.39C666.012 322.905 692.9 301.693 721.347 298.494C735.935 296.852 748.085 301.219 759.482 307.831C773.482 315.956 785.785 326.236 799.556 334.639C814.319 343.623 830.91 350.164 849.804 349.723C871.154 349.197 892.389 339.881 909.572 324.699C917.136 317.996 923.832 310.393 929.448 302.132C929.489 302.074 929.549 302.03 929.616 302.011C929.683 301.992 929.75 301.999 929.803 302.03C929.857 302.061 929.892 302.114 929.9 302.177C929.909 302.241 929.891 302.309 929.85 302.367L929.892 302.305Z" fill="#F0F0F0"/>
<path d="M934.134 302.209C923.183 318.97 907.776 333.585 889.723 342.495C871.669 351.405 851.751 353.644 834.054 349.563C817.197 345.674 803.1 336.477 789.872 326.796C776.726 317.173 763.931 305.924 748.245 299.813C720.379 288.951 687.528 305.87 664.359 327.579C651.925 339.16 641.443 352.581 633.444 367.158C625.619 381.581 622.458 396.386 619.205 411.601C615.952 426.816 612.493 443.668 602.688 457.489C592.209 472.302 576.024 477.73 559.792 477.848C523.325 478.152 500.42 453.912 478.476 431.401C466.821 419.436 454.693 407.496 439.422 399.644C423.535 391.259 404.374 388.757 384.893 392.526C365.318 396.31 345.673 404.684 328.165 415.904C320.122 421.051 312.323 426.944 305.568 433.785C296.721 442.728 289.92 453.933 284.183 464.719C263.822 502.996 255.901 544.939 230.284 581.338C204.845 617.488 167.7 646.733 127.261 663.202C117.059 667.34 106.654 670.661 96.1594 673.128C95.8308 673.206 95.7881 672.71 96.1004 672.646C140.716 662.12 183.48 635.797 214.98 599.972C229.824 583.094 241.421 564.469 250.315 544.57C259.282 524.523 265.949 503.928 274.592 483.79C282.473 465.471 292.323 445.578 307.591 431.167C321.756 417.777 339.276 407.697 356.851 400.543C373.559 393.747 391.739 389.024 408.687 390.326C426.111 391.639 441.306 398.663 454.246 408.402C480.063 427.921 497.492 457.752 528.354 471.149C544.316 478.019 566.742 481.132 585.143 472.144C601.978 463.905 609.698 446.247 614.265 430.129C618.666 414.569 620.314 398.682 625.718 383.235C630.535 369.411 638.623 356.234 648.172 344.408C666.617 321.466 693.628 299.8 722.36 296.333C737.679 294.476 750.345 299.207 762.105 306.402C776.085 314.964 788.324 325.729 802.053 334.62C816.968 344.267 833.862 351.435 853.375 351.068C874.78 350.658 896.084 341.256 913.228 325.954C921.128 318.861 928.05 310.778 933.748 301.992C933.936 301.702 934.337 301.946 934.154 302.232L934.134 302.209Z" fill="#F0F0F0"/>
<path d="M938.363 302.11C927.33 319.741 911.364 335.19 892.484 344.316C873.858 353.314 853.448 355.118 835.57 350.287C818.884 345.794 805.066 336.135 792.051 326.092C779.036 316.049 766.413 304.458 750.784 297.984C722.299 286.184 688.376 303.841 664.807 326.455C652.519 338.169 642.222 351.699 634.445 366.35C626.661 381.204 623.815 396.428 620.75 412.019C617.724 427.435 614.534 444.23 604.931 458.257C594.463 473.562 577.92 479.036 561.377 479.011C523.986 478.951 501.134 453.045 479.231 429.487C467.77 417.161 455.828 404.883 440.699 396.634C424.432 387.768 405.413 384.877 385.244 388.8C365.536 392.62 345.776 401.17 328.225 412.56C319.805 418.026 311.666 424.302 304.689 431.603C295.9 440.807 289.242 452.262 283.665 463.261C263.518 503.025 256.499 546.444 230.734 584.404C205.427 621.654 167.788 652.003 126.52 668.862C116.256 673.039 105.783 676.38 95.2206 678.849C94.8974 678.922 94.8493 678.43 95.1616 678.367C140.677 667.684 184.037 640.436 215.552 603.514C230.615 585.866 242.088 566.456 250.799 545.749C259.371 525.312 265.654 504.384 273.905 483.879C281.709 464.511 291.564 443.389 307.537 428.122C321.767 414.509 339.379 404.183 357.121 396.89C374.264 389.84 393.004 385.038 410.32 386.711C427.637 388.384 442.646 395.712 455.326 405.749C481.379 426.364 498.516 457.703 530.049 471.878C546.11 479.111 569.092 482.513 587.72 473.069C604.748 464.436 612.088 446.054 616.345 429.719C620.422 414.044 621.85 398.073 626.975 382.52C631.647 368.347 639.811 354.774 649.439 342.656C667.882 319.436 695.153 297.408 724.162 294.056C739.46 292.285 752.1 297.03 763.72 304.374C777.945 313.376 790.233 324.754 804.044 334.272C818.937 344.497 835.868 352.438 855.717 352.439C877.803 352.436 899.859 342.745 917.401 326.678C925.38 319.321 932.315 310.949 937.947 301.871C938.126 301.581 938.529 301.816 938.344 302.111L938.363 302.11Z" fill="#F0F0F0"/>
<path d="M942.6 302.008C931.751 320.076 915.775 336.027 896.657 345.454C878.059 354.625 857.594 356.51 839.693 351.674C822.407 347.007 808.281 336.685 795.059 326.004C782.05 315.487 769.465 303.402 753.756 296.358C725.024 283.47 690.329 301.154 666.288 324.352C653.604 336.505 643.077 350.605 635.296 365.865C627.705 380.968 625.199 396.424 622.363 412.174C619.526 427.923 616.523 445.3 606.707 459.689C596.346 474.842 579.88 480.206 563.541 480.148C524.851 479.958 501.973 452.251 479.953 427.49C468.324 414.384 456.107 401.315 440.361 392.709C423.97 383.781 404.816 381.075 384.544 385.222C364.272 389.369 343.695 398.562 325.794 410.846C316.992 416.889 308.453 423.85 301.543 432.036C293.756 441.255 287.802 452.135 282.742 462.69C263.205 503.557 256.998 547.793 231.579 586.852C206.554 625.339 168.332 656.944 126.201 674.339C115.749 678.64 105.074 682.061 94.3042 684.56C93.9755 684.638 93.9329 684.142 94.2452 684.078C140.246 673.342 183.948 645.496 215.408 607.898C230.623 589.722 242.13 569.706 250.628 548.464C259.127 527.222 265.137 505.516 273.153 484.201C280.418 464.892 289.587 443.598 304.708 427.83C318.593 413.347 336.507 402.334 354.451 394.492C371.933 386.862 391.225 381.48 409.115 382.849C427.006 384.218 442.529 391.829 455.466 402.287C481.929 423.714 498.57 456.331 530.207 471.902C546.361 479.875 569.953 483.984 589.247 474.516C606.584 466.012 613.93 447.363 618.052 430.875C622.038 414.837 623.243 398.571 628.024 382.575C632.323 368.298 640.251 354.548 649.703 342.241C668.176 318.181 696.097 295.148 725.855 291.765C741.577 289.979 754.503 295.046 766.253 302.833C780.809 312.47 793.253 324.614 807.386 334.758C822.065 345.289 838.892 353.527 858.732 353.758C881.265 354.008 903.765 344.095 921.501 327.503C929.617 319.854 936.611 311.15 942.209 301.731C942.389 301.431 942.786 301.671 942.611 301.966L942.6 302.008Z" fill="#F0F0F0"/>
<path d="M946.839 301.904C936.185 320.399 920.189 336.853 900.837 346.585C881.71 356.209 860.537 358.017 842.262 352.64C825.218 347.644 811.354 337.114 798.438 326.21C785.172 315.042 772.464 302.196 756.367 294.55C727.344 280.778 691.885 298.737 667.5 322.52C654.755 334.853 644.235 349.163 636.541 364.628C629.024 379.978 626.73 395.608 624.127 411.544C621.496 427.711 618.786 445.56 608.96 460.419C598.602 476.078 581.8 481.51 565.129 481.286C525.735 480.752 502.91 451.617 481.068 425.908C469.532 412.35 457.426 398.772 441.63 389.717C425.131 380.251 405.653 377.258 384.932 381.466C363.864 385.81 342.713 395.536 324.397 408.501C315.565 414.761 306.957 422.028 300.21 430.506C292.674 439.987 286.924 450.9 282.063 461.591C263.028 503.451 257.676 548.53 232.761 588.736C208.026 628.643 169.255 661.697 126.125 679.724C115.404 684.19 104.442 687.72 93.3803 690.27C93.0571 690.343 93.009 689.851 93.3254 689.792C140.405 678.872 184.954 649.838 216.39 610.923C231.688 591.998 242.97 571.237 251.187 549.307C259.325 527.637 264.996 505.592 272.672 483.871C279.701 463.991 288.621 441.989 303.877 425.575C317.772 410.623 335.925 399.201 354.144 391.09C371.977 383.156 391.83 377.532 410.073 379.188C428.019 380.828 443.4 388.64 456.19 399.359C483.105 421.907 499.451 456.214 531.847 472.706C548.017 480.937 571.864 485.313 591.344 475.737C609.002 467.014 616.094 447.719 619.967 430.951C623.736 414.645 624.688 398.16 629.302 381.91C633.449 367.298 641.416 353.177 650.988 340.557C669.552 316.097 697.931 292.584 728.114 289.506C744.228 287.856 757.321 293.417 769.157 301.661C783.711 311.81 796.1 324.438 810.255 335.056C824.83 346.016 841.674 354.7 861.688 355.171C884.614 355.721 907.637 345.524 925.56 328.421C933.817 320.472 940.876 311.431 946.447 301.669C946.617 301.369 947.024 301.609 946.849 301.903L946.839 301.904Z" fill="#F0F0F0"/>
<path d="M951.078 301.814C940.354 321.192 923.792 338.518 903.569 348.449C883.981 358.079 862.454 359.378 844.096 353.361C826.715 347.668 812.805 336.266 799.73 324.691C786.655 313.115 773.819 299.535 757.338 292.025C727.695 278.515 691.88 297.407 667.588 321.797C654.96 334.482 644.216 349.3 636.954 365.114C629.692 380.927 627.928 397.032 625.498 413.284C623.068 429.536 620.442 447.457 610.448 462.292C599.749 478.155 582.283 483.026 565.501 482.448C525.822 480.991 503.417 450.416 481.825 423.984C470.266 409.863 458.13 395.695 442.007 386.248C425.314 376.477 405.481 373.454 384.431 377.938C363.038 382.439 341.636 392.593 323.228 406.034C314.461 412.433 305.999 419.842 299.368 428.43C291.802 438.226 286.144 449.484 281.386 460.487C262.83 503.335 258.288 549.25 233.862 590.599C209.437 631.949 170.175 666.417 126.035 685.11C115.051 689.75 103.806 693.398 92.4543 696.003C92.1257 696.081 92.083 695.585 92.3953 695.521C140.784 684.36 186.352 653.904 217.85 613.322C233.002 593.795 243.898 572.489 251.761 550.094C259.492 528.053 264.802 505.645 272.169 483.566C278.915 463.279 287.532 440.749 302.646 423.771C316.564 408.134 335.173 396.166 353.81 387.717C371.712 379.599 391.663 373.855 410.029 375.443C428.198 377.016 443.717 385.06 456.505 396.027C483.903 419.526 499.835 455.312 532.599 473.039C548.757 481.78 572.459 486.54 592.371 477.395C610.289 469.164 617.589 449.906 621.405 433.139C625.308 416 625.972 398.743 630.443 381.642C634.24 367.128 641.83 353.062 651.085 340.402C669.451 315.271 698.004 290.971 728.656 287.328C745.06 285.381 758.519 290.797 770.482 299.283C785.31 309.796 797.724 323.01 811.882 334.275C826.533 345.932 843.468 355.562 863.993 356.467C887.386 357.499 911.012 347.227 929.269 329.614C937.821 321.298 945.066 311.812 950.681 301.574C950.851 301.275 951.248 301.514 951.087 301.813L951.078 301.814Z" fill="#F0F0F0"/>
<path d="M955.348 301.644C944.885 321.251 928.581 338.965 908.361 349.271C888.498 359.4 866.398 360.895 847.7 354.605C829.946 348.644 815.892 336.687 802.742 324.578C789.485 312.382 776.669 298.234 759.934 290.186C730.004 275.796 693.383 294.992 668.785 319.967C656.005 332.95 645.16 348.137 638.005 364.3C630.928 380.278 629.411 396.542 627.206 412.905C625.002 429.269 622.647 447.682 612.764 462.903C602.247 479.115 584.667 484.218 567.705 483.579C527.196 482.061 504.726 450.244 483.303 422.897C471.868 408.305 459.867 393.598 443.834 383.587C427.439 373.354 407.687 369.634 386.537 373.787C364.636 378.098 342.642 388.482 323.819 402.242C314.864 408.79 306.275 416.362 299.464 425.085C291.638 435.103 285.954 446.78 281.209 458.083C262.628 502.301 259.117 549.487 235.009 592.364C210.963 635.07 171.146 671.099 125.996 690.458C114.737 695.276 103.194 699.042 91.5405 701.7C91.2173 701.773 91.1692 701.281 91.4815 701.218C140.97 689.886 187.37 658.182 218.831 616.245C234.038 595.971 244.685 573.948 252.251 550.878C259.68 528.235 264.71 505.303 271.831 482.596C278.486 461.453 287.079 437.99 302.869 420.33C316.86 404.677 335.377 392.594 354.091 384.035C372.205 375.762 392.481 369.903 411.045 371.758C429.61 373.614 445.178 382.172 457.977 393.688C485.118 418.098 500.678 454.559 533.276 473.28C549.363 482.52 573.116 487.818 593.412 479.031C611.758 471.095 619.253 451.828 623.041 434.799C626.91 417.393 627.421 399.951 631.365 382.553C634.716 367.744 642.078 353.322 651.233 340.266C669.446 314.382 698.382 289.159 729.638 285.145C746.315 283.004 760.092 288.385 772.169 297.131C786.99 307.865 799.284 321.392 813.186 333.146C827.977 345.649 845.157 356.417 866.39 357.771C890.136 359.278 914.29 348.966 932.84 330.985C941.731 322.271 949.192 312.296 954.866 301.538C955.027 301.238 955.499 301.354 955.337 301.654L955.348 301.644Z" fill="#F0F0F0"/>
<path d="M959.587 301.548C949.206 321.74 932.663 340.158 911.929 350.716C891.848 360.948 869.561 362.288 850.795 355.713C832.719 349.379 818.575 336.796 805.339 324.163C791.944 311.342 778.965 296.32 761.717 288.011C731.4 273.382 694.385 293.075 669.637 318.536C656.731 331.837 645.868 347.418 638.857 363.93C631.845 380.441 630.814 397.154 628.751 413.885C626.689 430.616 624.494 449.462 614.208 464.884C603.2 481.384 584.714 485.795 567.582 484.657C527.133 481.96 505.172 448.935 484.132 421.036C472.801 406.014 460.873 390.855 444.787 380.456C428.354 369.829 408.381 365.829 386.934 370.04C364.517 374.447 341.981 385.271 322.92 399.571C313.737 406.453 305.021 414.384 298.17 423.587C290.438 433.973 284.893 445.97 280.253 457.567C262.138 503.196 259.385 551.608 235.121 595.872C211.3 639.324 171.33 676.187 125.658 695.952C114.216 700.888 102.474 704.727 90.6174 707.408C90.2888 707.486 90.2462 706.99 90.5585 706.926C141.015 695.45 188.11 662.637 219.538 619.505C234.775 598.587 245.217 575.949 252.528 552.309C259.711 529.061 264.453 505.564 271.33 482.276C277.705 460.74 285.965 436.726 301.651 418.501C315.695 402.176 334.622 389.549 353.758 380.657C372.092 372.139 392.697 366.094 411.504 368.047C430.31 370 446.191 379.021 459.037 391.005C486.165 416.33 501.37 453.714 533.95 473.495C549.891 483.185 573.069 488.797 593.657 480.95C613.137 473.528 621.005 453.576 624.759 435.887C628.594 418.027 628.849 400.154 632.574 382.268C635.697 367.268 642.85 352.644 651.965 339.378C670.195 312.846 699.635 286.814 731.486 282.848C748.318 280.75 762.221 286.273 774.28 295.25C789.344 306.466 801.688 320.606 815.695 332.949C830.526 346.033 847.758 357.396 869.384 359.083C893.49 360.962 918.24 350.351 936.935 331.864C945.965 322.849 953.486 312.54 959.127 301.446C959.285 301.142 959.752 301.254 959.599 301.562L959.587 301.548Z" fill="#F0F0F0"/>
<path d="M963.824 301.449C953.591 322.037 937.081 340.952 916.108 351.852C895.408 362.601 872.339 363.748 853.156 356.539C834.882 349.642 820.741 336.406 807.497 323.197C794.121 309.883 781.082 294.248 763.526 285.777C732.463 270.765 694.539 291.578 669.709 317.941C656.857 331.598 646.118 347.538 639.465 364.388C632.731 381.451 632.14 398.89 630.203 416.167C628.321 432.829 626.105 451.858 615.511 467.119C604.089 483.459 585.046 487.23 568.073 485.704C527.359 482.108 505.76 447.752 484.962 419.152C473.821 403.83 462.074 388.372 446.142 377.589C429.597 366.388 409.274 361.983 387.322 366.281C364.585 370.732 341.727 381.892 322.468 396.549C313.067 403.698 304.149 411.981 297.286 421.498C289.662 432.028 284.264 444.148 279.788 455.863C261.935 502.608 260.022 552.033 236.201 597.605C212.765 642.441 172.309 680.845 125.588 701.319C113.879 706.436 101.848 710.394 89.6963 713.128C89.3731 713.201 89.3249 712.71 89.6373 712.646C141.236 700.97 189.131 666.872 220.507 622.38C235.774 600.721 245.953 577.371 252.978 553.08C259.812 529.46 264.231 505.633 270.831 481.967C277.028 459.684 285.119 434.768 301.179 415.817C315.372 399.113 334.554 386.095 354.033 376.989C372.801 368.217 393.91 362.095 413.109 364.49C431.929 366.841 447.486 376.141 460.11 388.356C487.256 414.577 502.077 452.861 534.665 473.735C550.436 483.856 573.342 489.882 594.198 482.709C614.201 475.843 622.508 456.135 626.337 438.115C630.173 419.917 630.345 401.864 633.513 383.699C636.211 368.155 643.088 353.012 652.301 339.124C670.407 311.84 700.24 284.916 732.721 280.645C749.744 278.412 763.924 283.919 776.048 293.101C791.536 304.837 803.993 319.707 818.19 332.744C832.991 346.331 850.325 358.476 872.28 360.413C896.859 362.595 922.063 351.828 941.019 332.773C950.19 323.444 957.762 312.783 963.347 301.338C963.5 301.03 963.972 301.146 963.819 301.454L963.824 301.449Z" fill="#F0F0F0"/>
<path d="M968.061 301.35C957.775 322.806 940.706 342.677 918.825 353.734C897.745 364.393 874.391 365.045 855.259 357.215C836.79 349.662 822.7 335.674 809.375 321.904C796.05 308.133 782.884 291.863 764.924 283.331C733.513 268.398 695.306 289.766 670.548 316.494C657.573 330.472 646.816 346.806 640.361 364.032C633.853 381.395 633.574 399.141 631.806 416.63C630.095 433.583 628.084 453.171 617.177 468.692C605.608 485.172 586.143 488.545 569.124 486.813C528.022 482.616 506.663 447.076 486.106 417.754C475.037 401.998 463.429 386.03 447.496 374.754C431.368 363.323 411.29 358.298 389.475 362.203C366.237 366.385 342.79 377.788 323.105 392.731C313.536 399.997 304.509 408.41 297.425 418.049C289.454 428.919 283.989 441.543 279.478 453.7C261.689 501.719 260.667 552.269 237.244 599.263C214.114 645.701 172.884 685.877 124.843 706.964C113.082 712.108 100.994 716.078 88.7856 718.805C88.457 718.883 88.4142 718.386 88.7252 718.332C141.465 706.466 190.173 671.055 221.457 625.213C236.952 602.53 246.88 578.154 253.648 552.908C260.187 528.506 264.37 503.943 270.883 479.523C276.913 456.986 284.85 431.854 301.071 412.669C315.643 395.44 335.426 382.029 355.511 372.763C374.59 363.97 395.857 358.102 415.204 361.014C434.09 363.866 449.463 373.79 461.896 386.445C488.534 413.569 503.092 452.267 535.386 474.002C551.199 484.629 574.028 490.985 595.324 484.253C615.692 477.809 624.215 457.951 627.99 439.75C631.864 421.058 631.816 402.517 634.678 383.877C637.142 367.981 643.739 352.544 653.022 338.233C671.032 310.425 701.201 282.776 734.123 278.377C751.465 276.057 765.901 281.699 778.14 291.174C793.711 303.255 806.17 318.575 820.298 332.126C834.827 346.061 851.75 358.825 873.569 361.549C898.789 364.707 925.105 353.858 944.676 334.076C954.166 324.353 961.933 313.214 967.552 301.268C967.7 300.964 968.171 301.08 968.023 301.384L968.061 301.35Z" fill="#F0F0F0"/>
<path d="M972.31 301.257C962.013 323.544 944.502 344.26 921.788 355.505C900.628 365.987 877.315 366.324 858.293 358.29C839.176 350.193 824.846 335.202 811.262 320.593C797.883 306.247 784.544 289.159 765.951 280.712C733.124 265.811 693.735 289.543 669.113 317.703C656.592 332.018 646.354 348.533 640.595 365.832C634.55 384.001 634.969 402.632 633.14 420.841C631.481 437.699 629.169 457.931 616.93 472.76C603.963 488.507 583.051 490.107 566.402 487.316C525.471 480.469 505.192 442.385 484.554 412.304C473.464 396.155 461.454 379.952 444.751 369.064C427.908 358.086 407.375 354.46 385.4 359.312C362.462 364.378 339.561 376.102 320.437 391.37C311.62 398.412 303.378 406.441 296.812 415.538C289.409 425.781 284.315 437.533 280.042 448.919C261.395 498.563 261.359 550.671 238.862 599.638C216.88 647.491 174.054 690.077 125.412 712.017C113.188 717.517 100.588 721.721 87.8532 724.549C87.53 724.623 87.4819 724.131 87.7942 724.068C142.203 711.896 191.712 674.359 223.04 626.729C238.758 602.845 247.96 577.552 254.367 551.188C260.554 525.799 264.561 500.283 271.325 474.933C277.044 453.511 284.547 429.89 299.427 411.368C313.334 394.047 332.57 380.423 352.187 370.783C371.005 361.532 392.374 354.85 411.907 356.824C431.09 358.764 447.036 368.13 459.757 380.554C487.735 407.886 501.662 447.547 532.966 471.805C548.618 483.979 570.429 491.395 592.721 486.672C602.598 484.574 611.64 479.229 617.94 470.738C623.957 462.629 627.089 453.062 629.163 443.898C633.503 424.628 633.326 405.503 635.648 386.298C637.644 370.192 643.423 354.15 652.525 339.449C670.256 310.377 701.1 281.159 735.054 276.197C752.423 273.665 767.215 279.032 779.463 288.572C795.536 301.088 808.138 317.193 822.447 331.471C836.979 345.979 853.909 359.493 876.045 362.717C901.796 366.439 928.875 355.413 948.792 334.938C958.429 324.906 966.256 313.422 971.83 301.132C971.974 300.824 972.441 300.935 972.297 301.243L972.31 301.257Z" fill="#F0F0F0"/>
</g>
</svg>
