<svg width="1266" height="613" viewBox="0 0 1266 613" fill="none" xmlns="http://www.w3.org/2000/svg">
<path d="M176.123 461.499C220.654 419.44 280.072 392.894 341.986 374.392C403.574 356.029 467.494 344.871 530.282 330.298C591.021 316.2 651.361 298.175 703.812 267.495C728.974 252.619 752.14 235.424 772.874 216.234C796.986 194.169 817.45 169.513 840.475 146.623C886.762 100.519 940.353 60.0525 999.667 26.4179C1007.29 22.1013 1014.99 17.8881 1022.76 13.7781C1023.15 13.5699 1022.72 13.078 1022.37 13.2839C962.056 45.2668 906.875 83.4365 858.843 128.064C846.52 139.542 834.632 151.319 823.176 163.393C811.851 175.352 801.114 187.616 789.489 199.334C768.733 220.268 745.896 239.805 720.369 256.525C669.405 289.994 609.476 310.36 548.298 325.421C485.701 340.83 421.734 351.676 359.662 368.751C299.052 385.41 239.416 408.52 192.505 446.332C186.632 451.065 181.009 456.008 175.596 461.117C175.28 461.41 175.808 461.808 176.124 461.515L176.123 461.499Z" fill="white"/>
<path d="M172.093 465.327C196.207 444.634 224.038 427.062 253.074 411.712C282.541 396.178 313.661 383.077 345.997 372.595C378.334 362.085 411.898 354.653 445.531 348.105C479.834 341.43 514.579 336.295 548.6 328.53C607.403 315.074 662.504 291.455 710.409 259.17C734.749 242.696 757.369 224.326 778.657 205.017C802.641 183.226 824.317 159.76 848.869 138.38C896.249 97.133 950.004 61.8234 1006.69 30.3331C1014.07 26.2294 1021.48 22.1916 1028.92 18.2197C1029.31 18.011 1028.87 17.5116 1028.52 17.7175C971.369 48.2985 916.422 82.1107 867.498 121.864C842.494 142.18 820.018 164.175 797.43 186.385C775.151 208.387 750.998 228.979 725.173 247.989C679.274 281.613 625.977 307.105 568.517 322.921C534.521 332.267 499.235 337.425 464.453 343.902C430.691 350.199 396.957 356.995 364.128 366.419C301.226 384.478 240.499 412.771 190.221 450.051C183.788 454.816 177.569 459.775 171.565 464.929C171.238 465.215 171.766 465.612 172.093 465.327Z" fill="white"/>
<path d="M168.062 469.159C194.507 448.55 224.293 430.686 254.271 413.99C283.095 397.935 313.375 383.168 345.232 371.934C376.417 360.934 409.313 353.831 442.22 348.068C476.39 342.055 511.183 338.75 545.159 331.859C576.78 325.444 607.02 313.925 635.345 300.288C660.053 288.363 683.057 274.178 704.701 258.545C728.484 241.352 751.166 222.915 773.169 204.097C798.066 182.753 821.312 160.068 847.278 139.584C897.655 99.8997 954.563 66.7008 1012.08 35.1461C1019.72 30.9365 1027.38 26.7766 1035.06 22.6663C1035.45 22.4501 1035.02 21.9582 1034.67 22.1641C976.317 53.6379 918.197 86.1479 865.81 124.681C839.83 143.785 816.369 164.731 792.827 185.939C769.621 206.845 745.28 226.921 720.167 246.177C674.951 280.831 622.993 310.983 564.625 326.672C530.335 335.89 494.297 338.936 459.202 344.599C426.599 349.86 394.026 356.12 362.63 365.607C331.375 375.053 301.656 388.327 273.307 403.023C242.833 418.751 213.625 436.211 185.89 455.281C179.629 459.621 173.51 464.117 167.534 468.769C167.187 469.032 167.725 469.428 168.062 469.167L168.062 469.159Z" fill="white"/>
<path d="M163.964 473.011C191.928 453.291 222.278 435.782 252.017 418.083C280.577 401.09 310.201 384.205 342.066 371.954C372.599 360.248 405.341 353.276 438.028 348.155C454.528 345.527 471.115 343.351 487.788 341.627C505.37 339.803 523.007 338.266 540.408 335.297C572.493 329.816 602.388 317.614 630.252 303.092C653.953 290.732 675.686 275.975 696.308 260.151C720.481 241.611 743.863 222.261 767.344 203.131C793.738 181.645 819.038 159.213 847.223 139.359C900.195 102.036 959.349 71.4117 1017.24 40.1258C1025.25 35.803 1033.24 31.4735 1041.2 27.1372C1041.6 26.9284 1041.21 26.4262 1040.82 26.6344C981.968 58.6298 921.665 89.3363 866.273 125.669C838.728 143.734 813.768 163.821 788.986 184.512C764.204 205.202 738.692 225.62 713.318 245.958C692.37 262.753 670.816 279.098 647.11 293.025C620.89 308.462 591.478 322.581 560.919 330.389C526.715 339.109 490.558 340.094 455.577 344.928C423.583 349.338 391.576 355.186 361.015 364.762C329.723 374.565 300.84 389.429 273.119 405.122C243.083 422.128 213.548 440.058 184.661 458.483C177.519 463.022 170.479 467.684 163.612 472.531C163.264 472.777 163.655 473.279 164.003 473.033L163.964 473.011Z" fill="white"/>
<path d="M159.935 476.864C174.577 467.547 189.753 458.877 204.776 450.047C220.369 440.853 235.604 431.251 250.781 421.613C278.838 403.842 307.259 385.096 338.79 372.017C368.44 359.708 400.961 352.87 433.219 348.234C449.286 345.924 465.384 344.137 481.593 342.965C499.359 341.671 517.198 341.003 534.865 338.673C595.895 330.588 647.538 295.667 690.811 259.874C714.46 240.347 737.695 220.602 761.968 201.661C789.104 180.471 815.844 158.867 845.467 140.165C872.958 122.806 902.131 107.522 931.334 92.405C961.866 76.5654 992.595 60.981 1022.93 44.8138C1031.09 40.4608 1039.23 36.0493 1047.37 31.5793C1047.43 31.5297 1047.48 31.4619 1047.49 31.3884C1047.5 31.3148 1047.48 31.2406 1047.43 31.1793C1047.39 31.1181 1047.31 31.074 1047.23 31.0552C1047.15 31.0364 1047.06 31.0442 1046.98 31.0771C1015.77 48.1667 984.041 64.5117 952.308 80.8567C923.009 95.9386 893.559 110.9 865.304 127.399C836.32 144.304 810.077 163.456 784.13 183.608C758.183 203.761 732.396 224.057 707.417 245.123C686.917 262.409 666.344 279.739 643.303 294.612C631.249 302.417 618.592 309.519 605.421 315.867C589.575 323.485 573.158 330.45 555.567 334.439C521.375 342.198 485.336 341.263 450.502 345.361C418.851 349.106 387.076 354.682 357.106 364.603C326.001 374.824 298.303 391.234 271.475 407.852C256.819 416.928 242.367 426.25 227.752 435.371C212.52 444.876 196.858 453.856 181.359 463.029C173.986 467.379 166.703 471.789 159.534 476.354C159.167 476.593 159.577 477.094 159.925 476.856L159.935 476.864Z" fill="white"/>
<path d="M155.903 480.69C170.81 472.158 186.067 464.081 200.994 455.563C216.908 446.487 232.191 436.706 247.236 426.606C274.364 408.412 300.922 388.289 331.228 373.956C360.207 360.258 393.275 353.484 425.608 349.006C441.34 346.828 457.222 345.102 473.103 344.014C491.014 342.776 508.993 343.028 526.9 341.709C544.596 340.371 562.201 337.294 578.402 330.704C593.148 324.664 607.289 317.585 620.672 309.543C644.227 295.472 664.727 278.355 684.553 260.632C707.642 239.991 730.783 219.605 755.817 200.636C783.828 179.428 812.184 158.409 843.509 140.78C872.406 124.51 903.046 110.691 933.306 96.4011C965.488 81.2331 997.524 65.8395 1028.82 49.3583C1037.12 44.9918 1045.36 40.5507 1053.54 36.0348C1053.93 35.8267 1053.5 35.3267 1053.15 35.5407C1021.29 53.1124 988.545 69.4352 955.455 85.2208C925.192 99.6318 894.49 113.358 864.818 128.598C833.666 144.603 805.44 163.256 777.874 183.422C751.167 202.956 725.385 223.155 701.1 244.859C680.801 262.989 660.931 281.595 638.092 297.498C625.972 305.937 613.102 313.563 599.605 320.306C582.932 328.626 565.838 335.589 546.834 338.699C529.002 341.644 510.853 341.895 492.807 342.462C476.245 342.976 459.778 344.308 443.311 346.133C411.808 349.651 379.97 354.948 350.412 365.402C319.864 376.196 293.657 394.321 267.962 411.746C253.29 421.71 238.623 431.747 223.555 441.283C208.487 450.818 192.832 459.434 177.13 468.07C169.899 472.049 162.668 476.044 155.509 480.14C155.471 480.162 155.437 480.191 155.411 480.224C155.385 480.257 155.367 480.294 155.358 480.333C155.349 480.372 155.348 480.411 155.357 480.45C155.366 480.488 155.384 480.525 155.41 480.557C155.435 480.59 155.468 480.618 155.507 480.639C155.545 480.66 155.589 480.675 155.634 480.682C155.68 480.689 155.727 480.689 155.772 480.681C155.818 480.672 155.861 480.656 155.9 480.634L155.903 480.69Z" fill="white"/>
<path d="M151.876 484.522C167.36 476.578 183.031 468.897 198.195 460.519C214.498 451.399 230.154 441.461 245.076 430.758C271.671 411.917 296.734 390.322 326.334 374.835C354.916 359.875 388.574 352.583 421.289 348.446C436.77 346.505 452.35 345.291 467.957 344.81C486.031 344.249 504.198 345.289 522.264 344.567C540.329 343.845 558.226 341.203 574.731 334.596C589.962 328.548 604.463 320.579 617.88 311.979C641.238 296.999 660.867 278.657 680.049 260.01C702.608 238.116 725.617 217.092 751.522 198.024C779.766 177.222 809.02 157.242 841.283 141.157C871.849 125.896 904.251 113.534 935.89 100.02C969.492 85.6823 1002.6 70.5899 1034.69 53.9096C1043.08 49.538 1051.39 45.0628 1059.64 40.4839C1059.71 40.4343 1059.75 40.3665 1059.76 40.2929C1059.78 40.2194 1059.76 40.1451 1059.71 40.0839C1059.66 40.0227 1059.59 39.9786 1059.5 39.9598C1059.42 39.941 1059.33 39.9488 1059.25 39.9817C1026.73 58.0114 992.947 74.3458 958.509 89.5555C927.323 103.325 895.354 115.752 864.252 129.662C848.163 136.788 832.529 144.65 817.421 153.211C801.74 162.192 787.07 172.181 772.456 182.32C745.191 201.273 719.443 221.406 696.004 243.722C676.365 262.387 657.777 281.912 635.762 298.696C609.541 318.727 577.425 337.517 542.211 342.275C524.348 344.689 506.281 344.224 488.326 344.06C471.833 343.875 455.323 344.506 438.88 345.951C407.109 348.782 374.884 354.32 345.488 365.58C315.093 377.213 290.122 396.946 265.151 415.362C250.692 426.033 236.114 436.614 220.793 446.406C205.648 456.083 189.588 464.626 173.361 472.896C166.067 476.62 158.75 480.289 151.466 484.021C151.077 484.221 151.459 484.724 151.857 484.523L151.876 484.522Z" fill="white"/>
<path d="M147.849 488.349C163.893 481.018 179.967 473.718 195.405 465.461C211.589 456.689 226.954 446.855 241.354 436.053C268.056 416.269 291.96 392.755 321.398 375.792C348.817 360.003 382.263 352.505 414.493 348.55C430.238 346.631 446.092 345.566 461.958 345.36C479.757 345.138 497.424 346.756 515.198 346.931C532.972 347.106 551.076 345.566 567.837 339.768C584.085 334.153 599.333 325.254 613.095 316.052C636.767 300.23 655.835 280.589 674.547 260.734C696.24 237.727 718.875 215.998 745.344 196.8C774.139 175.95 804.607 156.521 838.173 141.725C871.152 127.157 906.096 116.238 939.878 103.182C974.069 89.9646 1007.61 75.4205 1039.82 58.8945C1048.58 54.3994 1057.23 49.7593 1065.78 44.9744C1065.85 44.9248 1065.89 44.857 1065.91 44.7834C1065.92 44.7099 1065.9 44.6356 1065.85 44.5744C1065.8 44.5132 1065.73 44.4691 1065.65 44.4503C1065.56 44.4315 1065.47 44.4393 1065.39 44.4722C1031.68 63.1489 996.528 79.8454 960.185 94.4415C927.448 107.744 893.669 118.878 860.712 131.685C844.125 138.059 828.008 145.307 812.459 153.386C796.597 161.708 781.682 171.267 767.01 181.045C738.801 199.827 712.876 220.366 689.881 243.771C670.559 263.459 652.791 284.317 630.928 302.086C604.498 323.607 571.922 342.834 534.875 345.736C516.955 347.152 499.051 345.725 481.19 345.031C465.021 344.438 448.802 344.798 432.649 346.111C400.994 348.628 368.658 354.221 339.739 366.172C310.077 378.433 286.743 399.451 263.017 418.458C248.827 429.832 234.318 440.95 218.794 451.004C203.518 460.898 187.074 469.383 170.321 477.304C162.742 480.883 155.09 484.362 147.449 487.848C147.05 488.032 147.441 488.535 147.84 488.35L147.849 488.349Z" fill="white"/>
<path d="M143.735 492.215C159.836 485.704 175.84 478.997 191.121 471.162C207.734 462.558 223.342 452.606 237.719 441.45C264.262 421.061 286.576 396.411 315.042 377.809C341.119 360.725 374.585 352.75 406.45 348.751C422.318 346.767 438.312 345.761 454.307 345.74C472.412 345.694 490.173 347.791 508.151 348.851C525.831 349.887 543.831 349.516 560.905 344.669C578.316 339.721 594.27 330.175 608.466 320.392C632.624 303.742 651.081 282.787 669.327 261.627C690.278 237.315 712.534 214.639 739.757 195.123C769.955 173.505 802.515 154.149 838.568 140.502C872.645 127.622 908.503 118.652 943.066 106.593C978.296 94.4608 1012.44 80.1046 1045.22 63.6469C1054.26 59.0709 1063.16 54.3089 1071.93 49.3609C1071.99 49.3113 1072.04 49.2435 1072.05 49.1699C1072.06 49.0964 1072.04 49.0221 1071.99 48.9609C1071.94 48.8996 1071.87 48.8556 1071.79 48.8368C1071.7 48.818 1071.61 48.8258 1071.54 48.8587C1037.48 67.8933 1001.6 84.4344 964.315 98.2985C930.567 110.949 895.685 120.637 861.331 131.861C843.783 137.488 826.704 144.156 810.223 151.814C793.442 159.745 777.704 169.238 762.375 179.047C733.483 197.537 707.466 218.291 685.253 242.547C666.087 263.446 649.204 285.924 627.3 304.954C615.075 315.562 601.463 324.95 586.738 332.928C568.978 342.555 550.443 347.995 529.448 348.652C510.49 349.256 491.778 346.705 472.96 345.614C457.509 344.801 441.986 344.986 426.524 346.168C395.585 348.394 363.883 353.918 335.87 366.027C306.053 378.91 283.972 401.487 260.933 421.496C247.231 433.398 233.011 444.911 217.534 455.124C202.361 465.142 185.771 473.57 168.728 481.088C160.413 484.799 151.986 488.225 143.512 491.647C143.102 491.807 143.326 492.384 143.735 492.215Z" fill="white"/>
<path d="M139.705 496.042C156.58 490.059 173.246 483.605 189.038 475.715C205.753 467.292 221.307 457.284 235.392 445.888C261.807 424.764 282.64 398.747 310.365 378.847C335.982 360.409 370.46 352.149 402.947 348.34C418.974 346.468 435.126 345.68 451.251 345.982C469.244 346.314 486.789 348.956 504.595 350.68C522.172 352.384 540.206 352.77 557.437 348.342C575.42 343.717 591.544 333.83 605.779 323.567C629.749 306.291 647.175 284.475 664.438 262.468C673.845 250.466 683.459 238.574 694.23 227.406C706.644 214.636 720.468 202.895 735.507 192.35C766.171 170.721 799.779 152.023 836.992 139.963C872.782 128.357 910.249 121.362 946.252 110.131C982.682 98.8625 1017.88 84.7911 1051.39 68.0949C1060.42 63.5618 1069.31 58.814 1078.06 53.8514C1078.12 53.8018 1078.16 53.7339 1078.18 53.6604C1078.19 53.5869 1078.17 53.5126 1078.12 53.4514C1078.07 53.3901 1078 53.346 1077.92 53.3272C1077.83 53.3084 1077.74 53.3162 1077.66 53.3492C1043.24 72.7113 1006.65 89.0753 968.445 102.186C933.131 114.435 896.629 122.634 860.41 132.432C842.08 137.244 824.21 143.294 806.973 150.525C789.834 157.871 773.746 167.069 758.205 176.664C728.236 195.16 701.88 216.483 680.141 242.003C661.776 263.566 646.288 286.941 625.154 306.766C613.033 318.123 599.253 328.124 584.162 336.517C566.781 346.426 546.314 351.589 525.569 351.299C506.634 351.159 488.114 347.814 469.355 346.251C454.183 345.078 438.9 344.968 423.659 345.923C392.049 347.751 359.357 353.292 331.07 366.272C301.512 379.843 280.936 403.73 258.811 424.55C245.398 437.154 231.237 449.197 215.513 459.739C199.569 470.439 181.875 479.06 163.585 486.449C155.651 489.653 147.589 492.622 139.493 495.497C139.063 495.651 139.287 496.219 139.707 496.066L139.705 496.042Z" fill="white"/>
<path d="M135.686 499.872C153.045 494.516 170.121 488.393 186.235 480.622C203.477 472.219 219.368 461.927 233.487 450.017C259.215 428.553 278.478 402.239 304.419 381.005C328.678 361.16 363.349 352.275 395.704 348.336C412.065 346.359 428.572 345.601 445.034 346.072C462.912 346.572 480.164 349.41 497.71 351.907C515.611 354.448 534.087 356.044 552.056 352.348C570.987 348.46 587.467 338.455 602.008 327.715C626.303 309.814 642.988 287.048 659.39 263.992C668.361 251.362 677.548 238.856 688.145 227.149C699.924 214.193 713.331 202.353 728.121 191.845C759.109 169.714 794.103 150.936 832.482 140.084C870.167 129.434 909.609 124.618 947.404 114.22C985.354 103.862 1021.94 90.0557 1056.52 73.0432C1065.94 68.3808 1075.17 63.4653 1084.21 58.2966C1084.29 58.2509 1084.34 58.1831 1084.35 58.1074C1084.37 58.0317 1084.35 57.9539 1084.3 57.8901C1084.25 57.8264 1084.18 57.7816 1084.09 57.7652C1084 57.7488 1083.91 57.7619 1083.83 57.8019C1048.71 77.6895 1011 94.0184 971.513 106.447C953.405 112.217 934.968 117.175 916.279 121.301C896.817 125.559 877.135 128.975 857.691 133.208C837.766 137.465 818.321 143.294 799.612 150.617C782.841 157.239 766.995 166.343 751.941 175.449C721.703 193.759 695.793 215.363 675.105 241.589C657.056 264.499 642.615 289.492 621.28 310.46C609.114 322.386 595.032 332.807 579.461 341.405C560.743 351.773 539.71 355.057 517.884 353.542C499.331 352.249 481.361 348.186 462.859 346.478C447.624 345.144 432.256 344.933 416.927 345.849C385.209 347.627 352.143 353.448 324.356 367.498C295.652 381.996 276.801 407.188 255.742 428.479C242.922 441.453 229.097 453.71 213.49 464.31C197.196 475.386 178.849 484.077 159.767 491.116C151.762 494.082 143.626 496.765 135.462 499.288C135.379 499.319 135.313 499.376 135.275 499.446C135.238 499.517 135.233 499.596 135.261 499.668C135.29 499.74 135.349 499.8 135.427 499.837C135.506 499.873 135.598 499.883 135.686 499.864L135.686 499.872Z" fill="white"/>
<path d="M131.655 503.7C169.454 493.713 203.833 478.297 231.787 453.959C257.192 431.844 274.937 404.503 299.949 382.193C323.509 361.129 358.756 351.831 391.536 347.981C408.081 346.045 424.776 345.439 441.396 346.171C459.499 346.916 476.739 350.222 494.332 353.363C512.117 356.533 530.554 358.93 548.736 355.779C568.06 352.433 584.468 342.505 599.042 331.513C624.126 312.597 640.111 288.257 655.945 263.627C664.26 250.704 672.877 237.884 683.126 225.931C694.712 212.419 708.225 200.163 723.348 189.45C754.88 167.004 791.023 148.482 830.672 139.156C870.16 129.864 911.161 127.282 950.632 117.684C989.448 108.327 1026.84 94.9362 1061.93 77.818C1071.63 73.0748 1081.11 68.0398 1090.37 62.7131C1090.44 62.6635 1090.48 62.5956 1090.49 62.5221C1090.51 62.4486 1090.49 62.3743 1090.44 62.3131C1090.39 62.2518 1090.32 62.2077 1090.23 62.1889C1090.15 62.1702 1090.06 62.1779 1089.98 62.2109C1054.03 82.7259 1015.06 99.0785 974.146 110.825C955.821 116.148 937.15 120.517 918.238 123.909C897.485 127.589 876.544 130.003 855.791 133.529C835.417 136.993 815.228 141.697 796.094 148.827C778.892 155.24 762.466 164.2 747.069 173.318C716.486 191.421 690.73 213.234 671.02 240.212C653.354 264.318 640.2 290.795 619.002 312.982C607.013 325.537 592.793 336.442 576.872 345.294C558.117 355.672 536.634 358.118 515.015 355.873C496.227 353.835 478.164 348.993 459.499 346.916C444.018 345.237 428.359 344.791 412.725 345.585C381.011 347.096 347.727 352.945 320.264 367.485C291.276 382.832 273.74 409.684 253.209 432.018C240.827 445.483 227.186 458.117 211.504 468.899C195.273 480.068 176.793 488.622 157.517 495.268C148.966 498.185 140.254 500.788 131.459 503.113C131.017 503.228 131.241 503.796 131.682 503.682L131.655 503.7Z" fill="white"/>
<path d="M127.622 507.526C166.406 498.904 201.671 483.493 229.506 458.411C255.076 435.374 271.384 406.582 295.937 382.925C318.739 360.953 354.28 351.291 387.218 347.553C404.239 345.611 421.416 345.159 438.478 346.202C456.133 347.28 472.891 350.816 489.933 354.481C508.269 358.443 527.45 361.855 546.562 358.957C565.976 356.017 582.236 346.171 596.642 335.067C622.373 315.145 637.485 289.394 652.599 263.352C660.173 250.294 668.116 237.36 677.766 225.272C689.355 210.789 703.303 197.751 719.184 186.558C751.089 163.97 788.206 145.811 828.726 138.042C849.773 134.006 871.234 132.353 892.601 130.221C913.194 128.222 933.629 125.474 953.805 121.206C993.754 112.761 1032.22 99.6483 1068.1 82.2491C1077.79 77.5385 1087.25 72.5153 1096.49 67.1797C1096.88 66.9554 1096.45 66.4554 1096.11 66.6769C1059.76 87.558 1020.05 103.776 978.279 114.793C958.699 120.01 938.719 123.999 918.502 126.728C897.262 129.572 875.859 130.923 854.557 133.512C833.567 136.066 812.035 139.79 792.438 146.98C775.061 153.338 758.513 161.675 742.883 170.71C727.049 179.862 711.891 190.145 698.7 201.986C686.017 213.369 675.374 226.266 666.257 239.825C649.495 264.727 637.829 292.039 617.183 315.042C605.312 328.276 590.633 340.259 573.995 349.175C554.585 359.607 532.365 360.989 510.446 357.695C491.711 354.903 473.753 349.41 454.891 347.061C439.425 345.181 423.751 344.586 408.091 345.287C376.205 346.623 342.49 352.594 315.299 367.885C286.688 383.993 270.651 412.026 251.025 435.035C238.95 449.185 225.36 462.357 209.412 473.485C192.812 485.039 173.668 493.639 153.648 499.949C145.023 502.645 136.252 504.974 127.368 506.927C126.916 507.026 127.14 507.594 127.591 507.495L127.622 507.526Z" fill="white"/>
<path d="M123.599 511.354C163.593 504.051 199.992 488.461 227.806 462.363C253.116 438.606 267.959 408.882 291.533 384.111C313.427 361.109 349.208 350.989 382.382 347.197C399.826 345.206 417.439 344.859 434.899 346.161C452.366 347.46 468.812 351.192 485.52 355.344C503.759 359.941 522.796 364.314 542.149 362.307C562.042 360.236 578.49 350.83 593.103 339.513C619.354 319.181 633.902 292.745 647.918 265.692C655.112 251.833 662.597 238.053 672.106 225.174C683.18 210.197 696.928 196.745 712.847 185.312C728.687 174.001 745.857 164.115 764.071 155.817C783.621 146.639 804.764 140.237 826.645 136.872C848.317 133.592 870.254 132.929 892.156 131.807C913.24 130.725 934.184 128.851 954.927 125.156C996.62 117.701 1036.8 104.773 1074.02 86.8426C1083.8 82.1268 1093.33 77.0669 1102.63 71.6629C1102.7 71.6133 1102.74 71.5455 1102.76 71.4719C1102.77 71.3984 1102.75 71.3241 1102.7 71.2629C1102.65 71.2016 1102.58 71.1576 1102.5 71.1388C1102.41 71.12 1102.32 71.1278 1102.24 71.1607C1064.94 92.7124 1023.81 108.951 980.514 119.219C960.199 124.091 939.467 127.505 918.54 129.425C896.507 131.402 874.366 131.69 852.318 133.409C830.839 135.088 808.335 137.988 788.196 145.193C770.115 151.757 752.816 159.82 736.554 169.262C720.323 178.638 704.778 189.315 691.696 201.877C679.451 213.598 669.388 226.792 660.947 240.668C645.063 266.746 634.64 295.286 613.806 319.163C601.881 332.772 586.514 345.885 568.967 354.232C549.304 363.581 527.391 363.524 506.21 359.477C487.901 355.982 470.405 350.074 451.905 347.398C436.322 345.207 420.482 344.395 404.639 344.973C372.128 346.046 337.394 352.189 310.189 368.563C282.276 385.373 267.854 414.144 249.381 437.627C237.396 452.854 223.526 466.963 206.789 478.613C190.052 490.263 170.398 498.788 149.934 504.655C141.227 507.128 132.369 509.177 123.405 510.792C122.952 510.875 123.175 511.443 123.628 511.36L123.599 511.354Z" fill="white"/>
<path d="M119.486 515.2C160.076 509.308 197.353 493.902 225.017 467.352C250.569 442.846 264.053 412.014 286.691 385.892C307.925 361.37 344.18 350.552 378.239 346.741C395.886 344.773 413.704 344.555 431.331 346.092C449.05 347.627 465.592 351.708 482.364 356.463C500.501 361.607 519.432 366.793 538.949 365.463C559.539 364.062 576.441 354.606 591.256 342.841C618.056 321.613 631.664 293.923 644.753 265.665C651.354 251.428 658.292 237.268 667.444 223.981C678.024 208.634 691.56 194.869 707.479 183.272C723.59 171.657 741.193 161.633 759.938 153.399C768.996 149.324 778.337 145.734 787.906 142.649C799.5 138.959 812.003 136.968 824.186 135.561C846.774 132.954 869.517 133.35 892.192 133.242C914.531 133.096 936.728 131.965 958.803 128.581C1000.76 122.136 1041.28 109.789 1078.67 92.055C1089.02 87.1503 1099.08 81.845 1108.85 76.1392C1109.23 75.9154 1108.81 75.4149 1108.46 75.637C1070.49 97.6845 1028.3 113.841 983.878 123.336C962.817 127.893 941.333 130.758 919.712 131.892C897.134 133.02 874.56 132.227 851.978 132.968C830.101 133.684 807.011 135.69 786.296 142.484C767.883 148.627 750.274 156.438 733.78 165.78C717.034 175.146 701.051 185.994 687.815 198.871C675.364 210.976 665.369 224.69 657.256 239.128C642.351 265.658 633.523 294.599 614.03 319.238C602.406 333.944 586.807 347.967 568.685 356.936C548.784 366.783 526.384 366.367 504.995 361.702C486.474 357.67 468.888 351.017 450.082 347.842C434.448 345.268 418.495 344.168 402.51 344.562C369.718 345.24 334.442 351.237 307.123 367.94C278.589 385.384 265.468 415.565 247.608 440.086C236.52 455.334 223.482 469.492 207.457 481.262C190.481 493.734 170.414 502.67 149.174 508.485C139.439 511.123 129.505 513.166 119.451 514.597C118.997 514.663 119.032 515.267 119.486 515.2Z" fill="white"/>
<path d="M115.447 519.025C157.409 514.434 196.13 498.637 223.851 470.768C249.07 445.442 260.968 413.716 282.834 386.614C303.516 360.944 340.741 349.756 375.401 346.128C393.326 344.251 411.411 344.24 429.254 346.098C447.355 347.981 464.036 352.644 481.012 357.984C498.584 363.549 517.016 369.168 536.282 368.449C557.335 367.659 574.544 358.218 589.548 346.103C616.79 324.107 629.494 295.298 641.514 266.012C647.797 250.735 654.474 235.517 663.803 221.331C674.161 205.624 687.764 191.59 703.949 179.914C720.819 167.845 739.391 157.616 759.215 149.474C768.08 145.749 777.215 142.523 786.56 139.818C798.289 136.475 810.885 134.939 823.124 134.005C846.351 132.226 869.558 133.742 892.725 134.557C915.645 135.379 938.375 135.074 961.148 132.214C1004.43 126.742 1046.31 114.633 1084.75 96.4814C1095.1 91.5767 1105.14 86.2779 1114.87 80.5849C1114.95 80.5397 1115.01 80.4703 1115.02 80.392C1115.04 80.3137 1115.02 80.2329 1114.97 80.1674C1114.92 80.1019 1114.84 80.057 1114.75 80.0426C1114.66 80.0282 1114.56 80.0456 1114.48 80.0908C1075.66 102.766 1032.16 118.912 986.395 127.629C965.223 131.72 943.656 133.977 922.028 134.364C898.566 134.712 875.241 132.799 851.801 132.548C829.145 132.317 805.272 133.463 783.618 140.029C765.136 145.735 747.45 153.217 730.911 162.327C713.764 171.659 697.33 182.63 683.931 195.815C671.182 208.373 661.243 222.715 653.444 237.821C639.065 265.685 631.624 296.039 612.08 321.941C600.576 337.237 584.379 352.304 565.383 360.976C545.37 370.208 523.239 368.84 502.398 363.594C484.159 358.997 466.91 351.921 448.297 348.29C432.303 345.277 415.908 343.886 399.455 344.147C366.436 344.523 330.676 350.548 303.411 367.701C274.678 385.818 262.915 417.06 245.86 442.495C235.331 458.179 222.728 472.771 206.807 484.859C189.197 498.231 167.981 507.573 145.451 513.155C135.625 515.576 125.602 517.336 115.479 518.418C115.023 518.444 115.059 519.072 115.513 519.021L115.447 519.025Z" fill="white"/>
<path d="M111.418 522.886C154.722 519.573 194.947 503.415 222.647 474.191C247.436 448.034 257.844 415.433 278.84 387.445C298.872 360.747 336.664 349.146 371.911 345.614C390.246 343.778 408.738 343.954 426.929 346.137C445.228 348.309 461.957 353.485 478.936 359.358C496.314 365.37 514.501 371.536 533.697 371.403C555.12 371.245 572.686 361.88 587.808 349.5C615.337 326.874 627.199 297.33 638.13 267.179C643.885 251.351 649.918 235.54 658.946 220.759C668.757 204.57 682.136 190.087 698.344 178.109C715.622 165.542 734.82 155.03 755.394 146.872C764.65 143.111 774.192 139.902 783.952 137.266C796.219 133.997 809.425 132.806 822.166 132.303C846.318 131.358 870.248 134.003 894.178 135.824C916.846 137.557 939.479 138.048 962.219 135.925C1006.88 131.608 1050.27 119.877 1089.91 101.402C1100.62 96.4245 1111.02 90.9713 1121.07 85.0653C1121.45 84.8416 1121.03 84.3411 1120.68 84.5631C1080.65 108.054 1035.41 124.225 987.886 132.026C965.719 135.72 943.18 137.295 920.695 136.72C897.299 136.063 874.164 133.154 850.852 131.984C827.723 130.835 803.347 131.187 781 137.461C761.701 143.029 743.25 150.606 726.078 160.017C708.448 169.418 691.82 180.658 678.563 194.311C666.016 207.237 656.498 221.942 649.265 237.435C635.697 266.48 629.672 298.076 610.066 325.039C598.855 340.464 582.791 355.838 563.739 364.376C543.303 373.552 520.754 371.392 499.845 365.448C481.861 360.336 464.918 352.765 446.464 348.754C430.202 345.318 413.456 343.636 396.619 343.749C362.953 343.815 326.118 349.886 298.76 368.037C269.996 387.117 259.714 419.742 243.281 446.046C233.215 462.163 220.778 477.133 204.765 489.452C187.02 503.115 165.382 512.433 142.422 517.661C132.255 519.955 121.888 521.495 111.439 522.263C111.356 522.279 111.281 522.321 111.229 522.379C111.176 522.438 111.15 522.51 111.154 522.582C111.159 522.655 111.193 522.723 111.252 522.775C111.31 522.827 111.389 522.859 111.474 522.866L111.418 522.886Z" fill="white"/>
<path d="M107.393 526.685C151.397 524.777 192.774 508.601 220.412 478.637C245.522 451.428 254.415 417.511 274.897 388.219C294.392 360.325 333.152 348.314 369.143 344.964C387.886 343.216 406.774 343.628 425.289 346.189C443.716 348.757 460.368 354.415 477.29 360.783C495.002 367.47 513.747 374.387 533.667 374.252C555.062 374.104 572.524 364.431 587.33 351.842C615.398 327.99 625.85 296.808 635.85 265.394C641.106 248.845 646.869 232.331 656.042 216.936C665.954 200.261 679.789 185.44 696.676 173.406C714.503 160.813 734.352 150.461 755.595 142.675C764.817 139.182 774.329 136.292 784.047 134.029C796.511 131.208 809.883 130.58 822.683 130.591C847.462 130.619 871.842 134.441 896.276 137.234C918.964 139.821 941.68 141.067 964.632 139.497C1010.07 136.4 1054.98 124.703 1095.3 106.19C1106.29 101.132 1116.94 95.5529 1127.21 89.4795C1127.27 89.4299 1127.32 89.362 1127.33 89.2885C1127.34 89.215 1127.32 89.1407 1127.27 89.0794C1127.23 89.0182 1127.15 88.9741 1127.07 88.9553C1126.99 88.9365 1126.9 88.9443 1126.82 88.9772C1085.9 113.13 1039.28 129.269 990.411 136.197C967.625 139.467 944.51 140.405 921.566 138.993C897.606 137.48 874.033 133.45 850.153 131.343C827.519 129.35 803.302 128.676 781.098 134.127C761.281 138.987 742.261 146.603 724.625 155.738C706.767 164.983 689.706 176.151 676.19 189.771C662.909 203.192 653.172 218.716 646.055 235.067C633.048 265.064 628.593 297.619 609.81 325.802C598.776 342.298 582.184 358.938 562.041 367.718C541.07 376.86 518.262 373.851 497.341 367.213C479.623 361.585 462.96 353.602 444.684 349.193C428.35 345.371 411.453 343.4 394.427 343.332C360.281 342.99 322.621 348.979 295.064 367.65C265.94 387.421 256.991 421.189 241.345 448.4C231.604 465.354 219.206 481.17 202.679 493.995C184.748 507.911 162.768 517.232 139.35 522.123C128.837 524.287 118.124 525.599 107.356 526.041C107.272 526.058 107.197 526.099 107.145 526.157C107.093 526.216 107.066 526.288 107.071 526.36C107.075 526.433 107.109 526.501 107.168 526.553C107.226 526.605 107.305 526.638 107.391 526.645L107.393 526.685Z" fill="white"/>
<path d="M103.363 530.511C148.646 529.951 191.573 513.378 219.168 482.02C244.208 453.596 251.278 418.314 271.65 387.947C290.792 359.387 330.626 347.33 366.931 344.301C385.53 342.737 404.245 343.349 422.549 346.122C441.645 349.055 458.638 355.338 475.97 362.362C493.301 369.385 511.505 376.657 531.145 377.127C553.16 377.646 571.178 367.86 586.222 354.781C614.658 330.052 624.05 297.833 633.002 265.446C637.731 248.338 642.944 231.218 651.893 215.23C661.492 198.039 675.377 182.769 692.571 170.495C710.532 157.822 730.61 147.504 752.117 139.897C761.62 136.434 771.418 133.613 781.42 131.46C793.904 128.832 807.161 128.51 819.904 128.863C844.788 129.547 869.052 134.175 893.382 137.959C917.251 141.681 941.195 144.075 965.594 143.124C1012.65 141.258 1059.48 129.821 1101.21 110.774C1112.3 105.71 1123.03 100.099 1133.36 93.9687C1133.73 93.745 1133.31 93.2445 1132.97 93.4665C1090.8 118.462 1042.36 134.589 991.725 140.482C967.979 143.291 943.962 143.47 920.281 141.013C896.075 138.376 872.402 133.44 848.283 130.491C825.749 127.757 801.557 126.355 779.145 131.341C758.511 135.926 738.676 143.622 720.358 152.99C702.04 162.358 684.815 173.649 671.39 187.707C658.667 201.031 649.45 216.332 642.92 232.447C630.068 264.139 627.35 298.539 608.236 328.421C597.285 345.534 580.087 363.226 558.96 371.643C538.094 379.963 515.736 376.153 495.539 369.183C477.782 363.056 461.192 354.513 442.821 349.624C426.581 345.465 409.705 343.217 392.66 342.942C357.866 342.129 319.105 348.004 291.24 367.452C261.852 387.933 254.242 422.761 239.416 450.821C230.131 468.403 217.986 484.818 201.296 498.104C182.921 512.74 159.953 522.296 135.542 526.825C124.929 528.765 114.134 529.798 103.319 529.908C102.863 529.935 102.897 530.522 103.354 530.512L103.363 530.511Z" fill="white"/>
<path d="M99.3335 534.346C145.819 535.137 190.41 518.178 217.884 485.381C242.462 456.047 248.058 420.003 267.653 388.728C286.281 359.011 327.062 346.535 364.16 343.687C383.172 342.215 402.282 343.065 420.904 346.21C439.74 349.424 456.389 356.01 473.358 363.361C490.838 370.973 509.317 379.045 529.448 379.947C551.787 380.948 570.143 371.077 585.244 357.664C614.248 331.877 622.459 298.362 630.383 264.832C634.54 247.239 639.257 229.599 647.995 213.114C657.539 195.061 671.925 179.089 689.985 166.495C708.439 153.751 729.098 143.525 751.197 136.196C761.411 132.654 771.983 129.945 782.768 128.104C795.601 126.054 809.177 126.141 822.083 127.009C847.072 128.68 871.209 134.414 895.48 139.154C919.337 143.822 943.336 147.004 967.987 146.619C1015.65 145.873 1063.35 134.951 1105.77 115.944C1117.43 110.705 1128.69 104.84 1139.49 98.3863C1139.88 98.1621 1139.45 97.6621 1139.11 97.8836C1096.25 123.396 1046.7 139.428 995.043 144.489C970.696 146.912 946.135 146.45 922.069 143.115C897.529 139.641 873.713 133.55 849.298 129.609C826.413 125.919 801.674 123.789 778.546 128.26C757.416 132.34 737.028 139.866 718.277 149.162C699.526 158.458 681.275 170.124 667.508 184.703C654.479 198.513 645.301 214.481 639.181 231.25C627.093 264.134 625.942 299.759 606.925 330.815C596.242 348.284 578.964 366.562 557.439 374.856C536.279 383.032 513.816 378.574 493.79 371.093C475.995 364.46 459.525 355.368 440.987 350.054C424.498 345.454 407.269 342.9 389.83 342.468C354.761 341.34 315.483 347.189 287.555 367.036C273.55 376.986 265.319 389.888 258.579 404.021C250.767 420.379 245.099 437.388 237.142 453.706C228.385 471.677 216.579 488.517 199.916 502.117C181.105 517.448 157.218 527.243 131.84 531.384C121.101 533.111 110.199 533.879 99.3139 533.677C98.8556 533.663 98.8905 534.267 99.3488 534.281L99.3335 534.346Z" fill="white"/>
<path d="M95.3031 538.17C142.409 540.29 188.234 523.42 215.682 489.826C240.833 459.045 244.45 421.243 264.237 388.511C282.501 358.267 323.989 345.661 361.377 343.054C380.802 341.673 400.306 342.763 419.24 346.287C438.355 349.881 455.009 357.056 471.99 364.932C489.617 373.109 508.382 381.85 528.995 382.845C550.832 383.899 568.831 374.275 583.556 361.118C613.461 334.439 620.689 299.584 627.547 264.912C631.11 246.943 635.196 228.943 643.546 212.005C652.513 193.605 666.62 177.264 684.631 164.413C703.293 151.101 725.039 140.703 747.693 133.312C758.2 129.803 769.065 127.162 780.135 125.428C793.268 123.474 807.123 124.11 820.236 125.41C845.876 127.964 870.483 134.558 895.262 140.182C919.403 145.648 943.75 149.723 968.898 150.036C1018.09 150.646 1067.82 140.01 1111.67 120.461C1123.43 115.212 1134.78 109.306 1145.63 102.784C1146.01 102.561 1145.59 102.06 1145.24 102.29C1101.34 128.554 1050.19 144.537 997.071 148.592C971.806 150.511 946.417 149.306 921.701 145.015C896.67 140.633 872.441 133.654 847.454 128.89C824.452 124.488 799.371 121.393 775.864 125.571C754.168 129.425 733.207 136.92 713.989 146.388C694.946 155.742 676.753 167.436 663.134 182.249C650.151 196.363 641.306 212.651 635.604 229.743C624.235 263.844 624.647 300.623 605.858 332.981C595.461 350.943 577.991 369.862 555.943 378.17C534.49 386.233 511.967 381.069 492.066 373.112C473.939 365.844 457.169 356.011 438.158 350.264C421.715 345.436 404.482 342.687 387.006 342.104C351.662 340.677 311.846 346.452 283.858 366.731C269.598 377.059 261.518 390.437 255.095 405.092C247.635 422.108 242.489 439.733 234.866 456.718C226.506 475.304 214.86 492.756 197.868 506.763C178.711 522.55 154.073 532.372 128.002 536.06C117.165 537.572 106.189 538.077 95.2682 537.566C94.8095 537.544 94.8539 538.147 95.3031 538.17Z" fill="white"/>
<path d="M91.1789 541.994C138.33 545.395 184.964 529.149 212.583 495.407C238.584 463.657 240.887 424.549 259.68 390.285C277.021 358.6 318.932 345.211 357.241 342.559C377.11 341.158 397.056 342.38 416.365 346.18C435.85 350.059 452.604 357.656 469.721 366.081C487.301 374.753 506.025 384.102 526.834 385.667C548.847 387.309 567.146 377.934 581.987 364.633C596.827 351.332 607.146 335.144 613.373 317.747C619.6 300.35 622.052 282.283 624.981 264.383C628.03 245.757 631.654 227.009 639.909 209.422C648.803 190.365 663.321 173.491 682.048 160.444C701.201 147.072 723.562 136.743 746.788 129.691C757.624 126.286 768.835 123.865 780.23 122.468C793.883 120.927 808.153 122.137 821.611 123.982C847.299 127.519 871.805 134.999 896.517 141.45C920.9 147.791 945.598 152.668 971.275 153.557C1021.02 155.249 1071.66 145.174 1116.23 125.64C1128.58 120.242 1140.47 114.109 1151.81 107.288C1152.19 107.064 1151.77 106.564 1151.42 106.786C1106.55 133.697 1053.95 149.574 999.544 152.624C974.245 154.039 948.91 152.258 924.371 147.34C898.946 142.246 874.519 134.317 849.321 128.54C826.045 123.201 800.322 118.884 776.033 122.396C754.118 125.593 732.842 132.751 713.309 141.874C693.276 151.252 674.004 163.235 659.783 178.688C646.521 193.085 637.76 209.837 632.312 227.358C621.403 262.652 623.597 300.579 605.26 334.341C595.263 352.787 577.988 372.285 555.711 380.913C533.91 389.376 510.931 383.737 490.884 375.248C472.833 367.637 456.294 357.346 437.423 351.058C420.96 345.55 403.232 342.708 385.518 341.755C349.505 339.801 308.539 345.449 280.148 366.364C265.98 376.792 258.067 390.249 252.03 404.987C245.002 422.212 240.439 440.038 233.537 457.296C225.702 476.877 214.463 495.436 197.061 510.274C177.762 526.731 152.583 536.932 125.796 540.427C114.367 541.896 102.798 542.21 91.333 541.363C90.8833 541.333 90.7269 541.923 91.177 541.962L91.1789 541.994Z" fill="white"/>
<path d="M87.1474 545.82C136.027 550.599 184.826 533.565 212.176 497.627C237.178 464.764 237.678 424.977 256.206 390.066C273.349 357.755 316.224 344.245 355.009 341.905C374.959 340.675 394.952 342.123 414.248 346.197C433.681 350.346 450.272 358.227 467.153 367.021C484.918 376.263 503.842 386.448 525.144 388.47C547.711 390.612 566.526 380.941 581.537 367.122C612.608 338.502 617.541 301.204 622.3 264.53C624.792 245.347 627.837 225.986 635.863 207.726C644.369 188.168 658.903 170.82 677.931 157.518C697 144.174 719.31 133.969 742.506 127.048C753.874 123.542 765.637 121.099 777.584 119.763C791.273 118.349 805.471 119.805 818.888 121.92C845.818 126.167 871.318 134.874 897.076 142.427C921.951 149.708 947.216 155.481 973.69 156.962C1024.47 159.797 1076.5 150.086 1122.14 130.256C1134.57 124.833 1146.53 118.649 1157.92 111.755C1158.3 111.523 1157.88 111.023 1157.53 111.253C1111.82 138.748 1057.92 154.508 1002.4 156.609C975.597 157.603 948.857 154.974 923.187 148.821C897.83 142.763 873.532 134.092 848.366 127.562C824.178 121.282 797.516 116.228 771.949 119.871C749.99 122.982 728.622 130.023 709.049 139.117C688.863 148.488 669.473 160.574 655.408 176.245C641.888 191.286 633.343 208.801 628.396 227.076C618.586 263.429 622.169 302.309 603.958 337.08C594.175 355.765 576.838 375.678 554.268 384.186C532.173 392.512 509.077 386.162 489.195 377.227C471.075 369.087 454.582 358.277 435.608 351.526C418.853 345.575 400.669 342.429 382.498 341.324C346.549 339.14 305.638 344.607 277.156 365.423C245.677 388.455 242.92 427.46 231.582 458.967C224.342 479.12 213.621 498.399 196.197 513.828C176.915 530.906 151.46 541.446 124.161 544.809C111.921 546.321 99.5316 546.476 87.3062 545.27C86.8556 545.223 86.6991 545.814 87.1497 545.86L87.1474 545.82Z" fill="white"/>
<path d="M83.1217 549.646C107.251 552.602 132.483 550.408 155.214 542.205C178.122 533.928 197.241 519.452 210.404 501.54C222.702 484.802 229.218 465.814 234.402 446.862C239.586 427.911 243.347 407.919 252.708 389.841C269.68 357.046 313.083 343.434 352.223 341.291C372.388 340.169 392.571 341.818 411.991 346.174C431.941 350.672 448.721 359.205 465.855 368.589C483.433 378.214 502.18 388.797 523.498 391.254C545.996 393.844 564.952 384.472 579.999 370.626C611.922 341.254 615.976 302.772 619.643 265.168C621.582 245.314 624.003 225.215 631.775 206.194C639.997 185.973 654.642 167.981 674.075 154.228C694.24 140.015 717.432 129.255 742.326 122.561C767.953 115.653 793.375 115.41 819.39 120.332C846.718 125.525 872.34 135.178 898.348 143.597C923.191 151.647 948.529 158.191 975.24 160.303C1027.42 164.431 1081.33 155.111 1128.35 134.676C1140.77 129.275 1152.71 123.097 1164.07 116.195C1164.45 115.972 1164.03 115.471 1163.68 115.693C1117.01 143.859 1061.63 159.515 1004.87 160.592C978.025 161.085 951.349 157.909 925.862 151.185C899.837 144.302 875.119 134.613 849.371 127.084C824.797 119.89 798.41 114.311 772.036 116.547C749.342 118.465 727.032 125.545 706.915 134.783C686.249 144.255 666.43 156.665 652.06 172.675C637.928 188.341 629.388 206.768 624.807 225.927C615.841 263.353 620.953 303.138 603.113 339.051C593.582 358.31 576.045 378.864 552.819 387.418C530.471 395.655 507.138 388.502 487.48 379.159C469.331 370.52 452.876 359.199 433.78 351.995C417.015 345.698 398.68 342.245 380.336 340.948C343.886 338.358 302.093 343.722 273.366 365.085C258.656 376.029 250.781 390.146 245.308 405.739C238.819 424.217 235.311 443.297 229.209 461.866C222.466 482.377 212.169 502.068 194.776 517.874C175.101 535.734 148.638 546.478 120.363 549.445C108.02 550.711 95.5644 550.579 83.3257 549.053C82.8746 548.998 82.7181 549.588 83.1692 549.643L83.1217 549.646Z" fill="white"/>
<path d="M79.0891 553.482C103.761 557.085 129.803 555.207 153.191 546.83C176.382 538.52 195.692 523.725 208.616 505.457C221.059 487.935 227.132 468.052 231.897 448.285C236.5 429.004 239.742 408.937 248.667 390.569C265.137 356.665 309.45 342.644 349.439 340.686C370.237 339.65 391.024 341.595 410.926 346.439C430.9 351.364 447.519 360.407 464.533 370.177C481.941 380.176 500.539 391.13 521.863 394.023C544.915 397.146 564.368 387.462 579.559 373.14C611.977 342.609 614.557 302.686 617.194 264.092C618.581 244.085 620.47 223.846 627.787 204.537C635.766 183.366 650.879 164.538 671.238 150.405C691.479 136.422 714.701 125.916 739.572 119.493C765.861 112.667 791.781 112.807 818.133 118.436C845.875 124.365 871.699 134.878 897.922 144.204C922.811 153.051 948.222 160.536 975.218 163.447C1028.46 169.193 1084.17 160.512 1132.57 139.973C1145.69 134.392 1158.27 127.931 1170.2 120.655C1170.58 120.423 1170.16 119.922 1169.81 120.152C1121.79 149.213 1064.42 164.759 1005.97 164.551C977.742 164.362 949.847 160.134 923.458 152.045C897.531 144.203 872.845 133.762 847.109 125.602C822.985 117.97 796.95 111.878 770.776 113.618C747.565 115.163 724.714 122.128 704.139 131.344C682.966 140.781 662.725 153.312 648.191 169.615C633.821 185.787 625.447 204.778 621.297 224.461C613.05 263.121 619.839 304.044 602.169 341.263C592.822 360.899 575.169 382.243 551.411 390.65C529.211 398.491 506.337 391.207 487.043 381.721C468.651 372.668 452.189 360.75 432.96 352.884C415.918 345.917 397.019 342.117 378.138 340.585C341.216 337.585 298.587 342.829 269.576 364.709C254.573 376.025 246.812 390.62 241.642 406.696C235.488 425.84 232.511 445.552 226.761 464.771C220.535 485.631 210.654 505.759 193.272 521.928C173.612 540.223 146.835 551.13 118.178 553.918C105.164 555.15 92.045 554.805 79.2171 552.893C79.1276 552.885 79.0371 552.905 78.9633 552.951C78.8894 552.996 78.8377 553.062 78.8181 553.137C78.7986 553.212 78.8127 553.29 78.8576 553.356C78.9026 553.421 78.9752 553.47 79.0611 553.492L79.0891 553.482Z" fill="white"/>
<path d="M75.0612 557.285C100.248 561.544 127.138 560.013 151.182 551.436C174.899 542.975 194.454 527.657 207.236 508.751C219.272 490.953 224.821 470.883 229.063 450.969C233.305 431.054 235.948 410.352 244.671 391.293C260.441 356.671 304.912 342.076 345.349 340.116C366.809 339.041 388.253 341.165 408.705 346.391C429.275 351.733 446.135 361.481 463.471 371.879C480.807 382.277 499.155 393.52 520.49 396.776C543.337 400.299 562.884 390.932 578.07 376.675C611.568 345.209 613.104 303.893 614.706 264.197C615.555 243.292 616.882 222.085 624.224 201.886C631.829 180.531 646.912 161.536 667.448 147.452C688.1 133.282 712.65 122.924 737.98 116.638C750.071 113.638 762.63 111.474 775.189 111.119C789.813 110.701 804.733 113.447 818.646 116.881C873.125 130.153 919.972 159.28 976.865 166.671C1031.28 173.746 1088.74 165.545 1138.48 144.541C1151.69 138.947 1164.36 132.446 1176.35 125.104C1176.73 124.88 1176.31 124.379 1175.96 124.61C1127.05 154.271 1068.31 169.679 1008.78 168.467C979.788 167.774 951.254 162.816 924.449 153.813C898.216 145.133 873.366 133.837 847.295 124.833C823.14 116.484 796.094 108.901 769.456 110.845C745.551 112.591 721.939 119.415 700.538 128.703C678.793 138.132 657.817 150.803 643.33 167.757C629.55 183.895 621.724 202.644 617.996 222.052C610.28 262.151 618.884 304.463 601.372 343.256C592.266 363.427 574.281 385.638 549.82 393.916C527.068 401.603 503.869 393.304 484.619 383.259C466.145 373.629 449.631 361.125 430.116 352.928C412.944 345.702 393.816 341.721 374.691 340.099C337.483 336.93 294.333 342.228 265.392 364.653C250.341 376.302 242.847 391.237 238.039 407.632C232.219 427.443 229.764 447.779 224.358 467.664C218.555 489.097 208.921 509.873 191.233 526.495C171.266 545.26 143.711 556.228 114.368 558.531C101.238 559.535 88.0421 558.925 75.1905 556.72C75.0986 556.704 75.0022 556.719 74.9225 556.763C74.8429 556.807 74.7865 556.876 74.7657 556.954C74.745 557.033 74.7616 557.114 74.8119 557.181C74.8623 557.248 74.9421 557.294 75.0341 557.31L75.0612 557.285Z" fill="white"/>
<path d="M71.0338 561.133C96.4835 565.991 123.817 564.87 148.361 556.369C172.904 547.868 193.124 531.834 205.838 512.084C217.722 493.633 222.736 472.891 226.496 452.399C230.257 431.907 232.32 410.568 241.052 391C256.936 355.548 302.627 340.955 343.853 339.45C365.301 338.623 386.68 341.022 406.998 346.536C427.81 352.268 444.724 362.626 462.107 373.49C479.489 384.353 497.885 396.103 519.502 399.625C542.592 403.4 562.438 393.758 577.625 379.193C611.448 346.749 611.686 304.248 612.262 263.795C612.567 242.542 613.319 220.94 620.264 200.297C627.694 178.171 642.388 158.864 663.61 144.346C684.832 129.828 710.195 119.35 736.307 113.245C748.53 110.39 761.225 108.421 773.883 108.294C789.122 108.139 804.686 111.462 819.083 115.369C873.919 130.372 920.711 161.173 978.346 169.87C1034.07 178.314 1093.44 170.56 1144.63 149.028C1157.85 143.439 1170.52 136.926 1182.49 129.559C1182.87 129.327 1182.45 128.827 1182.11 129.056C1132.64 159.37 1071.53 174.677 1011.17 172.356C981.33 171.207 952.715 165.337 925.38 155.558C899.104 146.145 874.29 134.153 848.222 124.365C824.023 115.269 796.611 106.624 769.511 107.844C744.978 108.949 720.588 115.648 698.472 124.937C676.06 134.372 654.23 147.27 639.478 164.74C625.285 181.492 617.738 201.121 614.463 221.27C607.824 262.025 617.575 304.731 600.989 344.366C592.215 365.342 573.93 388.789 548.461 397.102C525.386 404.629 502.058 395.603 482.967 385.178C464.742 375.227 448.511 362.52 429.331 353.844C412.088 346.048 392.652 341.69 373.243 339.785C335.204 336.067 290.598 341.247 261.215 364.602C246.145 376.575 238.901 391.875 234.434 408.565C228.949 429.068 227.034 450.002 222.019 470.55C216.621 492.558 207.263 513.988 189.305 531.062C168.987 550.332 140.643 561.329 110.632 563.13C97.4027 563.903 84.1481 563.038 71.2867 560.561C71.1948 560.545 71.0983 560.561 71.0187 560.605C70.939 560.649 70.8826 560.717 70.8618 560.796C70.8411 560.874 70.8577 560.955 70.908 561.022C70.9584 561.089 71.0383 561.135 71.1302 561.152L71.0338 561.133Z" fill="white"/>
<path d="M67.0016 564.968C92.6848 570.402 120.521 569.721 145.535 561.289C170.55 552.858 191.122 536.505 203.784 516.338C215.843 497.126 220.426 475.537 223.753 454.303C227.059 433.199 228.534 410.91 237.448 390.717C253.28 354.84 299.451 340.154 341.062 338.878C363.328 338.128 385.485 340.893 406.404 347.032C427.021 353.187 443.657 364.013 460.759 375.135C477.861 386.257 496.669 398.71 518.567 402.473C542.008 406.535 562.065 396.598 577.251 381.687C611.405 348.222 610.249 304.51 609.8 263.293C609.553 241.393 609.768 219.08 616.686 197.654C623.682 175.163 639.166 155.107 660.748 140.58C682.433 125.979 708.429 115.577 735.074 109.797C747.309 107.135 760.007 105.392 772.612 105.494C789.105 105.614 805.792 109.727 821.103 114.437C875.437 131.149 921.61 162.777 979.088 172.88C1036.17 182.917 1097.74 175.706 1150.54 153.58C1163.85 147.983 1176.58 141.438 1188.62 134.018C1188.99 133.786 1188.57 133.286 1188.22 133.516C1137.04 165.027 1072.96 180.151 1010.55 176.026C981.14 174.086 953.133 167.518 926.456 157.265C899.576 146.943 874.324 133.983 847.66 123.277C823.387 113.554 795.828 104.192 768.31 104.936C742.761 105.606 717.159 112.456 694.215 122.076C672.406 131.226 651.149 143.663 636.611 160.555C621.642 177.901 614.027 198.486 611.022 219.508C605.104 261.53 616.522 305.366 600.253 346.372C591.785 367.524 573.835 391.17 548.425 399.85C525.164 407.776 501.651 398.518 482.494 387.774C464.006 377.394 447.773 364.162 428.459 354.815C411.191 346.432 391.485 341.678 371.672 339.53C333.306 335.289 288.168 340.161 258.271 363.53C242.324 375.982 234.936 392.098 230.673 409.664C225.61 430.554 224.204 451.879 219.68 472.843C214.754 495.606 205.694 517.899 187.23 535.616C166.969 555.044 138.48 566.025 108.395 567.677C94.4925 568.4 80.5834 567.298 67.1599 564.41C66.716 564.315 66.5695 564.913 67.0039 565.009L67.0016 564.968Z" fill="white"/>
<path d="M62.9868 568.795C89.5509 574.961 118.678 574.536 144.661 565.54C170.288 556.662 190.916 539.449 203.051 518.416C214.391 498.802 218.288 477.042 221.083 455.67C223.878 434.297 224.876 411.849 233.403 391.372C248.941 354.05 296.791 339.058 339.61 338.253C361.864 337.761 383.95 340.799 404.732 347.211C425.708 353.805 442.441 365.312 459.716 376.957C476.793 388.476 495.298 401.124 517.199 405.267C541.086 409.795 561.518 399.57 576.86 384.238C611.536 349.58 608.788 304.37 607.331 262.218C606.57 240.162 606.3 217.707 612.719 196.044C619.624 172.754 634.614 152.469 656.979 137.449C678.82 122.758 705.087 112.413 731.929 106.751C744.809 104.036 758.177 102.334 771.413 102.658C788.096 103.074 804.88 107.553 820.239 112.607C875.752 130.898 922.452 164.732 981.512 176.149C1039.49 187.328 1102.54 180.686 1156.47 158.156C1169.87 152.537 1182.69 145.949 1194.79 138.467C1195.15 138.235 1194.74 137.734 1194.39 137.964C1142.23 170.162 1076.74 184.98 1013.3 179.849C982.976 177.396 954.357 169.984 927.103 158.811C900.228 147.762 875.024 134.137 848.385 122.727C823.213 111.959 794.511 101.459 765.546 102.061C739.732 102.585 713.817 109.292 690.588 118.936C668.14 128.252 646.29 141.135 631.754 158.714C617.218 176.293 610.057 196.989 607.568 218.046C602.446 261.305 615.531 306.273 599.359 348.621C591.134 370.203 572.935 394.631 546.893 403.097C523.087 410.837 499.258 400.556 480.187 389.321C461.894 378.535 445.788 365.021 426.634 355.318C409.178 346.477 389.035 341.425 368.877 339.079C330.258 334.579 284.543 339.355 254.495 363.087C238.647 375.599 231.297 391.704 227.3 409.279C222.418 430.804 221.533 452.745 217.514 474.366C213.142 497.647 204.764 520.691 186.329 539.06C165.811 559.496 136.356 570.905 105.193 572.215C90.9738 572.767 76.7846 571.407 63.1518 568.188C62.7169 568.084 62.5605 568.674 63.0048 568.778L62.9868 568.795Z" fill="white"/>
<path d="M58.9563 572.62C85.7539 579.362 115.356 579.394 141.837 570.458C167.599 561.766 188.352 544.578 200.505 523.52C212.242 503.188 215.81 480.528 218.207 458.37C220.558 436.563 221.064 413.692 229.137 392.611C243.898 354.051 292.49 338.369 336.287 337.669C359.316 337.219 382.143 340.574 403.492 347.548C424.52 354.551 441.151 366.589 458.361 378.593C475.57 390.597 494.441 403.958 516.874 408.24C540.52 412.726 560.779 402.471 575.902 387.296C611.664 351.316 607.273 304.408 604.812 261.03C603.485 238.095 602.739 214.65 609.401 192.085C616.363 168.622 631.651 148.384 654.318 133.476C676.985 118.568 704.605 108.064 732.601 102.908C746.369 100.376 760.743 98.9386 774.736 100.148C790.501 101.505 806.1 106.101 820.568 111.223C876.534 131.102 923.236 166.446 982.993 179.203C1041.85 191.793 1106.61 185.779 1161.84 162.947C1175.52 157.27 1188.61 150.568 1200.92 142.923C1201.3 142.691 1200.88 142.191 1200.53 142.421C1147.87 175.019 1081.51 189.596 1017.49 183.788C986.536 180.984 957.325 173.041 929.774 161.175C902.222 149.309 876.552 134.71 849.381 122.33C824.764 111.117 796.541 99.8231 767.903 99.1704C741.604 98.5681 714.773 104.916 690.848 114.237C667.549 123.328 644.649 136.183 629.298 154.011C613.947 171.838 606.572 193.274 604.234 214.96C599.483 259.352 614.21 305.048 599.234 348.789C591.607 371.144 573.497 396.793 546.813 405.854C522.84 413.999 498.758 403.474 479.672 391.974C461.126 380.766 444.954 366.772 425.71 356.339C408.505 347.056 388.416 341.622 368.248 338.937C328.823 333.684 281.574 338.129 250.802 362.525C234.546 375.415 227.229 392.084 223.521 410.191C218.919 432.613 218.598 455.409 214.858 477.91C210.969 501.276 202.963 524.5 184.749 543.075C164.05 564.159 133.978 575.773 102.148 576.775C87.5315 577.181 72.9798 575.568 59.0634 572C58.6186 571.889 58.4716 572.479 58.907 572.591L58.9563 572.62Z" fill="white"/>
<path d="M54.9237 576.448C81.9357 583.767 112.021 584.247 139.002 575.379C165.675 566.618 187.015 548.702 199.013 526.797C210.222 506.383 213.355 483.771 215.26 461.691C217.248 439.041 217.164 415.348 225.04 393.35C239.252 353.699 288.809 337.566 333.467 337.09C356.72 336.752 379.734 340.307 401.192 347.553C422.38 354.854 438.974 367.249 456.14 379.643C473.545 392.225 492.581 406.296 515.458 411.004C539.57 415.963 560.205 405.46 575.482 389.825C611.579 352.872 605.818 304.687 602.315 260.594C600.483 237.325 599.162 213.51 605.454 190.482C612.02 166.42 627.341 145.615 650.483 130.348C674.071 114.886 702.719 104.347 731.73 99.4392C745.726 97.0793 760.447 95.8645 774.56 97.4946C790.333 99.3274 805.774 104.143 820.183 109.575C876.601 130.841 923.289 167.761 983.64 182.049C1043.55 196.226 1110.15 191.049 1166.89 167.88C1180.98 162.107 1194.43 155.242 1207.07 147.373C1207.43 147.142 1207.02 146.641 1206.68 146.879C1152.84 180.304 1084.59 194.562 1019.38 187.507C987.656 184.086 957.963 175.242 930.036 162.477C902.423 149.88 876.755 134.651 849.524 121.58C824.598 109.618 795.951 97.436 766.591 96.3084C739.847 95.2797 712.416 101.469 687.987 110.795C664.08 119.929 640.435 133.077 625.023 151.498C609.871 169.629 602.813 191.119 600.853 212.912C596.719 258.762 613.285 305.757 598.456 351.055C591.053 373.664 572.952 399.797 545.996 408.93C521.523 417.169 497.079 405.809 477.964 393.818C459.373 382.161 443.233 367.729 423.909 356.905C406.536 347.171 386.066 341.428 365.497 338.564C325.618 333.023 277.499 337.445 246.614 362.518C230.12 375.898 223.105 393.179 219.741 411.791C215.614 434.686 215.793 457.881 212.47 480.843C209.075 504.511 201.466 528.165 183.312 547.124C162.526 568.851 131.704 580.686 99.2283 581.386C84.2029 581.644 69.2797 579.779 55.0711 575.866C54.6353 575.746 54.4793 576.344 54.9147 576.456L54.9237 576.448Z" fill="white"/>
<path d="M50.8991 580.281C78.7935 588.357 110.211 589.123 138.185 579.633C165.291 570.451 186.489 551.736 197.972 529.158C208.849 507.786 211.218 484.322 212.65 461.47C214.082 438.618 213.437 414.126 221.796 391.898C236.828 351.917 287.578 336.321 332.713 336.496C356.181 336.592 379.875 340.413 401.254 348.381C422.633 356.349 439.176 369.675 456.473 382.522C473.769 395.369 492.794 409.585 515.804 414.116C540.423 418.949 561.154 407.31 576.207 391.244C611.715 353.171 604.231 304.036 599.825 259.503C597.495 235.689 595.655 211.298 601.889 187.603C608.352 163.079 623.977 141.917 647.679 126.602C671.715 110.985 700.991 100.611 730.529 96.0606C744.593 93.8906 759.31 92.9424 773.416 94.7829C789.509 96.8798 805.183 102.101 819.786 107.918C876.674 130.546 923.384 168.99 984.337 184.794C1045.29 200.598 1113.66 196.28 1171.95 172.795C1186.45 166.94 1200.27 159.922 1213.23 151.837C1213.6 151.605 1213.18 151.104 1212.84 151.334C1157.56 185.747 1087.05 199.628 1020.24 191.082C988.093 186.967 958.256 177.26 930.227 163.734C902.649 150.416 876.98 134.517 849.704 120.826C824.664 108.225 795.811 95.2718 766.06 93.4885C738.661 91.8437 710.301 97.9493 685.171 107.348C661.029 116.375 637.182 129.502 621.592 147.973C606.172 166.249 599.201 188.082 597.473 210.103C593.77 257.285 612.089 305.269 598.06 352.055C591.142 375.128 573.53 401.483 546.573 411.416C522.312 420.352 497.709 409.22 478.648 397.178C459.162 384.869 442.575 369.454 422.597 357.707C405.639 347.74 385.572 341.698 365.26 338.505C324.943 332.157 275.934 336.009 244.091 360.992C227.052 374.364 219.563 391.85 216.304 410.803C212.259 434.291 212.957 458.053 210.232 481.618C207.411 506.004 200.592 530.621 182.365 550.456C161.592 573.063 130.141 585.387 96.8835 585.922C81.244 586.112 65.7358 584.004 51.0461 579.691C50.6103 579.571 50.4633 580.161 50.8901 580.29L50.8991 580.281Z" fill="white"/>
<path d="M46.7785 584.079C74.642 592.609 106.179 593.974 134.498 584.835C162.321 575.861 184.233 556.798 195.779 533.652C206.754 511.685 208.743 487.573 209.752 464.156C210.779 440.56 209.59 415.558 217.687 392.595C232.17 351.531 283.951 335.472 329.911 335.906C353.797 336.139 377.924 340.21 399.528 348.601C420.888 356.893 437.348 370.595 454.538 383.755C471.729 396.915 490.957 411.838 514.222 416.83C538.994 422.156 560.046 410.627 575.209 394.336C611.432 355.439 602.858 305.091 597.45 259.865C594.567 235.728 592.105 210.962 597.733 186.825C603.491 162.148 618.397 140.414 641.884 124.699C666.217 108.435 696.256 97.7271 726.474 93.0885C740.851 90.8842 755.836 89.969 770.235 91.7683C786.775 93.8313 802.86 99.4168 817.728 105.525C875.908 129.402 922.836 169.982 984.908 187.497C1046.76 204.912 1117.09 201.53 1176.94 177.729C1191.86 171.785 1206.07 164.601 1219.35 156.285C1219.72 156.054 1219.31 155.553 1218.96 155.783C1162.5 191.055 1090.07 204.547 1022.03 194.708C989.148 189.949 958.877 179.346 930.501 164.92C902.645 150.762 876.752 134.117 849.125 119.615C823.376 106.135 793.681 92.2934 762.671 90.5021C735.19 88.9105 706.809 94.8235 681.505 104.192C657.024 113.27 632.769 126.591 617.242 145.495C601.715 164.399 595.175 186.755 593.944 209.297C591.324 257.087 610.612 305.353 597.657 352.909C591.267 376.379 574.106 403.282 547.122 413.902C522.738 423.508 497.945 412.548 478.669 400.236C458.966 387.649 442.351 371.921 422.587 359.41C405.769 348.756 385.585 342.173 364.999 338.519C324.128 331.331 273.908 334.68 241.163 359.877C223.691 373.322 215.873 391.069 212.749 410.369C208.916 434.055 210.015 457.996 207.979 481.78C205.811 507.08 199.819 532.982 181.349 553.889C160.687 577.264 128.709 590.038 94.8381 590.504C78.5155 590.637 62.3543 588.276 47.1281 583.534C46.7014 583.405 46.3707 583.949 46.7975 584.078L46.7785 584.079Z" fill="white"/>
<path d="M42.7538 587.91C71.082 597.059 103.493 598.858 132.521 589.476C160.643 580.397 182.585 561.017 193.931 537.543C204.859 514.933 206.352 490.155 206.956 466.172C207.532 441.867 205.687 415.902 214.019 392.223C228.64 350.578 281.247 334.616 327.796 335.363C352.093 335.775 376.602 340.194 398.395 349.043C420.187 357.891 436.611 372.46 454.011 386.092C471.41 399.724 490.888 415.198 514.715 420.005C540.21 425.143 561.462 412.133 576.322 395.222C611.398 355.284 601.234 304.286 594.959 258.9C591.582 234.461 588.633 209.343 593.951 184.797C599.381 159.719 614.231 137.519 638.049 121.584C662.95 104.931 693.898 94.1304 724.837 89.7731C739.735 87.6679 755.171 86.9688 770.051 89.1763C786.844 91.6688 803.097 97.6805 818.139 104.158C877.191 129.777 924.55 172.197 988.051 190.857C1050.39 209.173 1121.63 206.425 1182.34 182.517C1197.54 176.514 1212 169.214 1225.49 160.732C1225.87 160.5 1225.45 159.999 1225.1 160.229C1167.61 196.264 1093.5 209.368 1024.4 198.387C990.885 193.059 960.237 181.695 931.569 166.502C903.382 151.556 877.233 134.119 849.294 118.852C823.443 104.747 793.548 90.086 762.112 87.6735C733.959 85.5071 704.693 91.2936 678.689 100.743C653.778 109.798 629.044 123.251 613.383 142.47C597.722 161.688 591.318 184.763 590.477 207.783C588.715 256.411 609.188 305.207 597.233 353.73C591.392 377.483 575.056 404.145 548.672 415.909C523.709 427.042 497.937 415.792 478.08 402.835C457.989 389.794 441.213 373.429 421.201 360.263C404.418 349.219 384.241 342.256 363.498 338.369C322.012 330.595 270.575 333.659 237.321 359.45C219.745 373.079 211.942 391.076 209.048 410.573C205.435 434.932 207.055 459.489 205.467 483.917C203.8 509.794 198.309 536.296 179.783 557.877C159.131 581.929 126.321 594.978 91.8492 595.107C75.1186 595.09 58.5918 592.474 43.0859 587.391C42.6587 587.254 42.3275 587.79 42.7552 587.935L42.7538 587.91Z" fill="white"/>
<path d="M38.7252 591.74C67.2826 601.393 100.122 603.683 129.69 594.399C158.865 585.227 181.354 564.944 192.501 540.496C203.093 517.178 203.979 491.798 204.056 467.272C204.159 442.527 201.801 415.937 210.27 391.822C225.231 349.132 279.717 333.368 327.178 334.878C351.754 335.669 376.48 340.537 398.252 350.032C420.298 359.649 436.985 375.301 454.773 389.556C471.94 403.291 491.609 418.915 515.572 423.286C541.303 427.893 562.481 413.774 576.834 396.65C611.323 355.632 599.592 303.731 592.443 257.919C588.613 233.377 585.219 208.148 590.038 183.388C595.041 157.673 609.841 134.774 634.208 118.451C659.447 101.545 691.006 90.7572 722.459 86.5478C737.807 84.4892 753.757 83.9299 768.939 86.4187C785.764 89.1434 801.994 95.4068 816.993 102.145C876.835 129.043 924.35 173.181 988.65 193.467C1051.91 213.425 1125.03 211.658 1187.37 187.438C1202.98 181.356 1217.82 173.899 1231.64 165.192C1232.01 164.961 1231.6 164.46 1231.25 164.69C1172.52 201.596 1096.47 214.246 1026.16 201.955C991.93 195.966 960.868 183.697 931.863 167.636C903.657 152.021 877.501 133.978 849.47 118.103C823.093 103.141 792.521 87.485 760.065 84.7439C731.423 82.3635 701.56 88.0232 675.038 97.5912C649.488 106.812 624.215 120.66 608.599 140.651C593.293 160.252 587.45 183.287 587.028 206.315C586.078 255.793 607.741 305.068 596.788 354.616C591.505 378.611 575.806 405.405 549.796 418.044C524.862 430.177 498.908 419.559 478.675 406.365C458.271 393.011 441.404 376.401 421.652 362.461C404.761 350.52 384.359 342.818 362.95 338.445C320.883 329.857 268.257 332.457 234.133 358.549C216.255 372.227 208.181 390.466 205.416 410.214C201.891 435.448 204.081 460.787 202.959 486.036C201.784 512.353 196.923 539.675 178.322 561.792C157.512 586.565 124.137 599.888 88.8958 599.731C71.7444 599.553 54.8445 596.658 39.0654 591.196C38.6377 591.051 38.307 591.595 38.7347 591.74L38.7252 591.74Z" fill="white"/>
<path d="M34.6965 595.566C64.1078 605.976 98.3505 608.638 128.908 598.659C158.352 589.051 180.648 568.044 191.173 543.067C201.338 518.959 201.481 492.927 201.114 467.805C200.747 442.683 197.92 415.386 206.707 390.841C222.063 347.902 277.326 332.392 325.058 334.306C350.045 335.283 375.153 340.5 397.09 350.526C419.203 360.632 435.885 376.857 453.712 391.466C470.99 405.63 490.985 421.962 515.479 426.286C541.476 430.886 562.677 416.006 576.883 398.648C611.177 356.713 598.127 303.936 590.085 257.675C585.787 232.797 581.792 207.223 586.156 182.005C590.559 156.461 604.557 133.213 628.434 116.653C653.889 99.0317 686.22 87.9245 718.333 83.5882C733.946 81.482 750.115 80.9423 765.616 83.3399C783.08 86.0601 799.838 92.7289 815.279 99.8454C876.24 127.986 923.969 173.994 989.215 195.969C1053.67 217.698 1129.15 216.861 1193.29 191.988C1208.97 185.883 1223.87 178.384 1237.74 169.619C1238.12 169.387 1237.7 168.886 1237.36 169.124C1177.39 206.908 1099.38 219.092 1027.89 205.463C992.51 198.733 960.731 185.279 931.08 168.092C902.425 151.478 875.808 132.533 847.16 115.878C820.702 100.525 790.072 84.5252 757.25 81.7165C727.771 79.1989 696.985 85.0491 669.754 95.0296C643.895 104.519 618.711 118.749 603.435 139.358C588.532 159.485 583.436 182.929 583.6 206.19C583.958 256.035 606.248 305.452 596.365 355.527C591.512 380.031 576.188 407.062 550.178 420.516C525.296 433.381 499.002 422.822 478.651 409.409C457.756 395.632 440.642 378.366 420.733 363.701C403.734 351.216 383.321 342.982 361.454 338.28C318.992 329.118 265.382 331.355 230.732 357.735C212.476 371.629 204.289 390.23 201.689 410.356C198.406 435.988 201.011 461.747 200.428 487.409C199.829 513.798 195.922 541.315 178.176 564.037C157.672 590.309 123.189 604.585 86.703 604.322C68.8912 604.073 51.3686 600.915 35.0937 595.018C34.6755 594.873 34.3448 595.417 34.763 595.562L34.6965 595.566Z" fill="white"/>
<path d="M30.6661 599.416C60.8553 610.588 96.2919 613.625 127.796 603.051C157.151 593.206 179.117 571.943 189.351 546.878C199.614 521.666 199.052 494.48 198.15 468.34C197.301 442.632 193.877 414.417 203.331 389.364C220.033 345.144 278.581 330.736 327.512 334.107C352.389 335.817 377.182 341.682 398.54 352.421C420.969 363.703 437.822 381.396 456.371 396.617C473.513 410.74 494.384 427.393 519.475 429.841C546.092 432.468 566.996 414.602 579.878 396.602C611.561 352.363 595.154 298.222 586.486 251.182C581.842 225.92 578.003 199.755 583.442 174.184C588.927 148.401 604.644 126.03 629.545 110.201C655.54 93.6797 687.66 83.376 719.554 79.8598C734.26 78.242 749.346 78.0718 763.864 80.4456C780.219 83.1087 795.826 89.3113 810.332 95.9328C873.594 124.788 921.85 173.156 988.061 197.82C1052.76 221.925 1131.95 221.85 1197.44 197.214C1213.88 191.01 1229.48 183.255 1243.92 174.097C1244.29 173.866 1243.88 173.365 1243.53 173.595C1181.73 212.64 1101.01 223.591 1027.83 208.341C991.125 200.702 959.172 185.724 928.822 167.165C899.58 149.309 872.245 129.315 842.503 112.029C817.366 97.4234 788.537 82.4257 757.576 78.9926C728.628 75.7741 698.154 80.92 671.011 90.1203C644.971 98.9418 618.938 112.511 602.622 132.421C586.599 151.975 580.455 175.431 580.136 198.744C579.443 250.023 603.209 299.75 596.582 351.251C593.309 377.044 579.913 404.117 554.836 420.36C543.72 427.551 530.375 430.955 516.666 428.898C503.573 426.934 491.81 420.945 481.403 414.353C459.538 400.47 442.005 382.542 422.076 366.852C405.316 353.74 385.102 344.187 363.044 338.955C319.67 328.36 263.982 329.764 227.851 356.578C209.375 370.299 200.601 388.973 198.053 409.169C194.706 435.668 197.905 462.29 197.827 488.794C197.755 515.718 194.537 543.938 176.959 567.417C156.485 594.706 121.128 609.524 83.6794 608.937C65.4448 608.538 47.5473 605.113 30.9959 598.856C30.5772 598.703 30.246 599.238 30.6647 599.392L30.6661 599.416Z" fill="white"/>
</svg>
