<svg width="1119" height="613" viewBox="0 0 1119 613" fill="none" xmlns="http://www.w3.org/2000/svg">
<g opacity="0.2">
<path d="M176.852 461.499C221.383 419.44 280.801 392.894 342.714 374.392C404.302 356.029 468.222 344.871 531.011 330.298C591.75 316.2 652.09 298.175 704.54 267.495C729.703 252.619 752.869 235.424 773.603 216.234C797.714 194.169 818.179 169.513 841.204 146.623C887.49 100.519 941.081 60.0525 1000.4 26.4179C1008.02 22.1013 1015.72 17.8881 1023.49 13.7781C1023.88 13.5699 1023.45 13.078 1023.1 13.2839C962.785 45.2668 907.603 83.4365 859.571 128.064C847.249 139.542 835.36 151.319 823.905 163.393C812.579 175.352 801.843 187.616 790.218 199.334C769.462 220.268 746.624 239.805 721.098 256.525C670.133 289.994 610.205 310.36 549.026 325.421C486.429 340.83 422.462 351.676 360.39 368.751C299.78 385.41 240.144 408.52 193.233 446.332C187.36 451.065 181.738 456.008 176.325 461.117C176.008 461.41 176.536 461.808 176.853 461.515L176.852 461.499Z" fill="#B4B4B4"/>
<path d="M172.821 465.327C196.936 444.634 224.767 427.062 253.803 411.712C283.27 396.178 314.39 383.077 346.726 372.595C379.063 362.085 412.626 354.653 446.26 348.105C480.563 341.43 515.308 336.295 549.328 328.53C608.132 315.074 663.232 291.455 711.138 259.17C735.478 242.696 758.097 224.326 779.385 205.017C803.369 183.226 825.046 159.76 849.597 138.38C896.977 97.133 950.733 61.8234 1007.42 30.3331C1014.8 26.2294 1022.21 22.1916 1029.64 18.2197C1030.04 18.011 1029.6 17.5116 1029.25 17.7175C972.098 48.2985 917.15 82.1107 868.226 121.864C843.222 142.18 820.746 164.175 798.158 186.385C775.879 208.387 751.727 228.979 725.901 247.989C680.002 281.613 626.706 307.105 569.246 322.921C535.25 332.267 499.963 337.425 465.182 343.902C431.419 350.199 397.685 356.995 364.856 366.419C301.955 384.478 241.227 412.771 190.95 450.051C184.516 454.816 178.297 459.775 172.293 464.929C171.967 465.215 172.495 465.612 172.821 465.327Z" fill="#B4B4B4"/>
<path d="M168.79 469.159C195.235 448.55 225.022 430.686 255 413.99C283.824 397.935 314.104 383.168 345.961 371.934C377.145 360.934 410.042 353.831 442.949 348.068C477.118 342.055 511.912 338.75 545.888 331.859C577.509 325.444 607.748 313.925 636.074 300.288C660.781 288.363 683.786 274.178 705.429 258.545C729.213 241.352 751.895 222.915 773.898 204.097C798.794 182.753 822.041 160.068 848.007 139.584C898.383 99.8997 955.291 66.7008 1012.81 35.1461C1020.44 30.9365 1028.1 26.7766 1035.79 22.6663C1036.18 22.4501 1035.75 21.9582 1035.4 22.1641C977.046 53.6379 918.925 86.1479 866.538 124.681C840.559 143.785 817.097 164.731 793.556 185.939C770.349 206.845 746.008 226.921 720.896 246.177C675.679 280.831 623.722 310.983 565.353 326.672C531.064 335.89 495.026 338.936 459.931 344.599C427.328 349.86 394.754 356.12 363.359 365.607C332.104 375.053 302.385 388.327 274.035 403.023C243.561 418.751 214.354 436.211 186.619 455.281C180.358 459.621 174.239 464.117 168.263 468.769C167.916 469.032 168.453 469.428 168.791 469.167L168.79 469.159Z" fill="#B4B4B4"/>
<path d="M164.691 473.011C192.655 453.291 223.005 435.782 252.744 418.083C281.304 401.09 310.928 384.205 342.793 371.954C373.327 360.248 406.069 353.276 438.756 348.155C455.256 345.527 471.842 343.351 488.515 341.627C506.098 339.803 523.734 338.266 541.136 335.297C573.221 329.816 603.116 317.614 630.98 303.092C654.681 290.732 676.413 275.975 697.036 260.151C721.208 241.611 744.591 222.261 768.071 203.131C794.465 181.645 819.766 159.213 847.951 139.359C900.923 102.036 960.076 71.4117 1017.97 40.1258C1025.98 35.803 1033.97 31.4735 1041.93 27.1372C1042.33 26.9284 1041.94 26.4262 1041.55 26.6344C982.695 58.6298 922.393 89.3363 867 125.669C839.455 143.734 814.496 163.821 789.714 184.512C764.932 205.202 739.419 225.62 714.045 245.958C693.098 262.753 671.543 279.098 647.838 293.025C621.618 308.462 592.205 322.581 561.646 330.389C527.443 339.109 491.286 340.094 456.304 344.928C424.31 349.338 392.304 355.186 361.742 364.762C330.451 374.565 301.567 389.429 273.847 405.122C243.811 422.128 214.276 440.058 185.389 458.483C178.246 463.022 171.207 467.684 164.339 472.531C163.992 472.777 164.383 473.279 164.731 473.033L164.691 473.011Z" fill="#B4B4B4"/>
<path d="M160.663 476.864C175.305 467.547 190.48 458.877 205.503 450.047C221.096 440.853 236.332 431.251 251.508 421.613C279.566 403.842 307.986 385.096 339.517 372.017C369.168 359.708 401.689 352.87 433.947 348.234C450.014 345.924 466.112 344.137 482.321 342.965C500.086 341.671 517.926 341.003 535.593 338.673C596.622 330.588 648.266 295.667 691.539 259.874C715.187 240.347 738.423 220.602 762.696 201.661C789.831 180.471 816.571 158.867 846.195 140.165C873.686 122.806 902.859 107.522 932.061 92.405C962.594 76.5654 993.322 60.981 1023.65 44.8138C1031.81 40.4608 1039.96 36.0493 1048.1 31.5793C1048.16 31.5297 1048.21 31.4619 1048.22 31.3884C1048.23 31.3148 1048.21 31.2406 1048.16 31.1793C1048.11 31.1181 1048.04 31.074 1047.96 31.0552C1047.87 31.0364 1047.78 31.0442 1047.71 31.0771C1016.5 48.1667 984.769 64.5117 953.036 80.8567C923.736 95.9386 894.287 110.9 866.032 127.399C837.047 144.304 810.804 163.456 784.857 183.608C758.91 203.761 733.124 224.057 708.144 245.123C687.645 262.409 667.071 279.739 644.03 294.612C631.977 302.417 619.32 309.519 606.149 315.867C590.303 323.485 573.885 330.45 556.295 334.439C522.102 342.198 486.063 341.263 451.23 345.361C419.578 349.106 387.804 354.682 357.834 364.603C326.729 374.824 299.031 391.234 272.203 407.852C257.546 416.928 243.095 426.25 228.479 435.371C213.248 444.876 197.585 453.856 182.086 463.029C174.714 467.379 167.431 471.789 160.261 476.354C159.894 476.593 160.304 477.094 160.653 476.856L160.663 476.864Z" fill="#B4B4B4"/>
<path d="M156.632 480.69C171.539 472.158 186.796 464.081 201.723 455.563C217.637 446.487 232.919 436.706 247.964 426.606C275.092 408.412 301.651 388.289 331.956 373.956C360.935 360.258 394.003 353.484 426.337 349.006C442.069 346.828 457.951 345.102 473.831 344.014C491.743 342.776 509.722 343.028 527.628 341.709C545.324 340.371 562.929 337.294 579.13 330.704C593.877 324.664 608.017 317.585 621.401 309.543C644.955 295.472 665.455 278.355 685.282 260.632C708.37 239.991 731.511 219.605 756.545 200.636C784.556 179.428 812.912 158.409 844.237 140.78C873.134 124.51 903.774 110.691 934.035 96.4011C966.217 81.2331 998.252 65.8395 1029.55 49.3583C1037.85 44.9918 1046.09 40.5507 1054.27 36.0348C1054.66 35.8267 1054.23 35.3267 1053.88 35.5407C1022.02 53.1124 989.273 69.4352 956.184 85.2208C925.921 99.6318 895.218 113.358 865.547 128.598C834.395 144.603 806.169 163.256 778.602 183.422C751.895 202.956 726.113 223.155 701.828 244.859C681.53 262.989 661.659 281.595 638.821 297.498C626.7 305.937 613.831 313.563 600.333 320.306C583.661 328.626 566.566 335.589 547.562 338.699C529.731 341.644 511.581 341.895 493.536 342.462C476.974 342.976 460.507 344.308 444.039 346.133C412.537 349.651 380.699 354.948 351.141 365.402C320.593 376.196 294.385 394.321 268.69 411.746C254.019 421.71 239.351 431.747 224.283 441.283C209.215 450.818 193.56 459.434 177.859 468.07C170.627 472.049 163.396 476.044 156.238 480.14C156.199 480.162 156.166 480.191 156.14 480.224C156.114 480.257 156.096 480.294 156.086 480.333C156.077 480.372 156.077 480.411 156.086 480.45C156.095 480.488 156.112 480.525 156.138 480.557C156.164 480.59 156.197 480.618 156.235 480.639C156.274 480.66 156.317 480.675 156.363 480.682C156.408 480.689 156.455 480.689 156.501 480.681C156.546 480.672 156.59 480.656 156.629 480.634L156.632 480.69Z" fill="#B4B4B4"/>
<path d="M152.605 484.522C168.089 476.578 183.76 468.897 198.923 460.519C215.226 451.399 230.882 441.461 245.805 430.758C272.399 411.917 297.462 390.322 327.063 374.835C355.645 359.875 389.302 352.583 422.018 348.446C437.499 346.505 453.079 345.291 468.685 344.81C486.76 344.249 504.927 345.289 522.992 344.567C541.057 343.845 558.954 341.203 575.459 334.596C590.691 328.548 605.192 320.579 618.608 311.979C641.967 296.999 661.595 278.657 680.778 260.01C703.336 238.116 726.345 217.092 752.25 198.024C780.494 177.222 809.749 157.242 842.011 141.157C872.578 125.896 904.979 113.534 936.618 100.02C970.221 85.6823 1003.33 70.5899 1035.42 53.9096C1043.8 49.538 1052.12 45.0628 1060.37 40.4839C1060.44 40.4343 1060.48 40.3665 1060.49 40.2929C1060.5 40.2194 1060.48 40.1451 1060.44 40.0839C1060.39 40.0227 1060.32 39.9786 1060.23 39.9598C1060.15 39.941 1060.06 39.9488 1059.98 39.9817C1027.46 58.0114 993.676 74.3458 959.238 89.5555C928.052 103.325 896.083 115.752 864.981 129.662C848.891 136.788 833.257 144.65 818.15 153.211C802.468 162.192 787.798 172.181 773.184 182.32C745.92 201.273 720.171 221.406 696.732 243.722C677.094 262.387 658.505 281.912 636.49 298.696C610.269 318.727 578.154 337.517 542.939 342.275C525.077 344.689 507.009 344.224 489.055 344.06C472.562 343.875 456.052 344.506 439.609 345.951C407.837 348.782 375.613 354.32 346.216 365.58C315.821 377.213 290.851 396.946 265.88 415.362C251.421 426.033 236.842 436.614 221.522 446.406C206.376 456.083 190.317 464.626 174.089 472.896C166.795 476.62 159.479 480.289 152.194 484.021C151.806 484.221 152.187 484.724 152.586 484.523L152.605 484.522Z" fill="#B4B4B4"/>
<path d="M148.578 488.349C164.622 481.018 180.696 473.718 196.133 465.461C212.318 456.689 227.682 446.855 242.082 436.053C268.784 416.269 292.688 392.755 322.126 375.792C349.546 360.003 382.991 352.505 415.221 348.55C430.966 346.631 446.82 345.566 462.687 345.36C480.486 345.138 498.152 346.756 515.926 346.931C533.7 347.106 551.804 345.566 568.565 339.768C584.813 334.153 600.061 325.254 613.824 316.052C637.496 300.23 656.563 280.589 675.275 260.734C696.969 237.727 719.604 215.998 746.073 196.8C774.867 175.95 805.335 156.521 838.902 141.725C871.881 127.157 906.825 116.238 940.606 103.182C974.797 89.9646 1008.34 75.4205 1040.55 58.8945C1049.3 54.3994 1057.96 49.7593 1066.51 44.9744C1066.58 44.9248 1066.62 44.857 1066.63 44.7834C1066.65 44.7099 1066.63 44.6356 1066.58 44.5744C1066.53 44.5132 1066.46 44.4691 1066.37 44.4503C1066.29 44.4315 1066.2 44.4393 1066.12 44.4722C1032.41 63.1489 997.256 79.8454 960.914 94.4415C928.176 107.744 894.398 118.878 861.441 131.685C844.853 138.059 828.737 145.307 813.188 153.386C797.325 161.708 782.411 171.267 767.738 181.045C739.529 199.827 713.605 220.366 690.609 243.771C671.287 263.459 653.52 284.317 631.657 302.086C605.226 323.607 572.65 342.834 535.603 345.736C517.683 347.152 499.78 345.725 481.918 345.031C465.75 344.438 449.531 344.798 433.378 346.111C401.722 348.628 369.386 354.221 340.468 366.172C310.805 378.433 287.472 399.451 263.746 418.458C249.556 429.832 235.046 440.95 219.522 451.004C204.246 460.898 187.802 469.383 171.049 477.304C163.47 480.883 155.819 484.362 148.177 487.848C147.778 488.032 148.169 488.535 148.568 488.35L148.578 488.349Z" fill="#B4B4B4"/>
<path d="M144.464 492.215C160.565 485.704 176.568 478.997 191.849 471.162C208.463 462.558 224.071 452.606 238.447 441.45C264.991 421.061 287.304 396.411 315.771 377.809C341.848 360.725 375.313 352.75 407.179 348.751C423.046 346.767 439.041 345.761 455.036 345.74C473.14 345.694 490.901 347.791 508.879 348.851C526.56 349.887 544.56 349.516 561.633 344.669C579.044 339.721 594.998 330.175 609.194 320.392C633.352 303.742 651.81 282.787 670.056 261.627C691.006 237.315 713.262 214.639 740.485 195.123C770.684 173.505 803.243 154.149 839.296 140.502C873.374 127.622 909.231 118.652 943.794 106.593C979.024 94.4608 1013.17 80.1046 1045.95 63.6469C1054.99 59.0709 1063.89 54.3089 1072.66 49.3609C1072.72 49.3113 1072.76 49.2435 1072.78 49.1699C1072.79 49.0964 1072.77 49.0221 1072.72 48.9609C1072.67 48.8996 1072.6 48.8556 1072.52 48.8368C1072.43 48.818 1072.34 48.8258 1072.26 48.8587C1038.21 67.8933 1002.33 84.4344 965.043 98.2985C931.295 110.949 896.414 120.637 862.059 131.861C844.512 137.488 827.433 144.156 810.951 151.814C794.17 159.745 778.433 169.238 763.104 179.047C734.211 197.537 708.194 218.291 685.982 242.547C666.816 263.446 649.933 285.924 628.028 304.954C615.803 315.562 602.191 324.95 587.467 332.928C569.707 342.555 551.171 347.995 530.177 348.652C511.218 349.256 492.506 346.705 473.688 345.614C458.238 344.801 442.714 344.986 427.252 346.168C396.313 348.394 364.612 353.918 336.599 366.027C306.781 378.91 284.701 401.487 261.661 421.496C247.96 433.398 233.74 444.911 218.263 455.124C203.089 465.142 186.499 473.57 169.456 481.088C161.141 484.799 152.715 488.225 144.241 491.647C143.831 491.807 144.054 492.384 144.464 492.215Z" fill="#B4B4B4"/>
<path d="M140.434 496.042C157.308 490.059 173.975 483.605 189.767 475.715C206.482 467.292 222.035 457.284 236.12 445.888C262.535 424.764 283.369 398.747 311.093 378.847C336.711 360.409 371.189 352.149 403.675 348.34C419.702 346.468 435.855 345.68 451.98 345.982C469.973 346.314 487.518 348.956 505.324 350.68C522.901 352.384 540.935 352.77 558.166 348.342C576.148 343.717 592.273 333.83 606.508 323.567C630.477 306.291 647.904 284.475 665.166 262.468C674.574 250.466 684.188 238.574 694.959 227.406C707.372 214.636 721.196 202.895 736.235 192.35C766.9 170.721 800.507 152.023 837.72 139.963C873.51 128.357 910.978 121.362 946.981 110.131C983.411 98.8625 1018.6 84.7911 1052.11 68.0949C1061.15 63.5618 1070.04 58.814 1078.78 53.8514C1078.85 53.8018 1078.89 53.7339 1078.91 53.6604C1078.92 53.5869 1078.9 53.5126 1078.85 53.4514C1078.8 53.3901 1078.73 53.346 1078.65 53.3272C1078.56 53.3084 1078.47 53.3162 1078.39 53.3492C1043.97 72.7113 1007.38 89.0753 969.174 102.186C933.859 114.435 897.357 122.634 861.138 132.432C842.809 137.244 824.939 143.294 807.702 150.525C790.563 157.871 774.475 167.069 758.934 176.664C728.964 195.16 702.608 216.483 680.87 242.003C662.504 263.566 647.017 286.941 625.883 306.766C613.761 318.123 599.982 328.124 584.89 336.517C567.509 346.426 547.043 351.589 526.297 351.299C507.363 351.159 488.843 347.814 470.083 346.251C454.912 345.078 439.628 344.968 424.387 345.923C392.777 347.751 360.086 353.292 331.799 366.272C302.24 379.843 281.665 403.73 259.54 424.55C246.127 437.154 231.966 449.197 216.241 459.739C200.297 470.439 182.603 479.06 164.314 486.449C156.379 489.653 148.317 492.622 140.221 495.497C139.792 495.651 140.015 496.219 140.435 496.066L140.434 496.042Z" fill="#B4B4B4"/>
<path d="M136.415 499.872C153.774 494.516 170.85 488.393 186.963 480.622C204.206 472.219 220.096 461.927 234.215 450.017C259.943 428.553 279.206 402.239 305.148 381.005C329.407 361.16 364.078 352.275 396.433 348.336C412.794 346.359 429.301 345.601 445.762 346.072C463.641 346.572 480.892 349.41 498.439 351.907C516.34 354.448 534.816 356.044 552.785 352.348C571.715 348.46 588.195 338.455 602.736 327.715C627.031 309.814 643.717 287.048 660.118 263.992C669.089 251.362 678.277 238.856 688.874 227.149C700.653 214.193 714.059 202.353 728.849 191.845C759.838 169.714 794.832 150.936 833.21 140.084C870.895 129.434 910.338 124.618 948.132 114.22C986.082 103.862 1022.67 90.0557 1057.25 73.0432C1066.66 68.3808 1075.89 63.4653 1084.94 58.2966C1085.01 58.2509 1085.07 58.1831 1085.08 58.1074C1085.1 58.0317 1085.08 57.9539 1085.03 57.8901C1084.98 57.8264 1084.91 57.7816 1084.82 57.7652C1084.73 57.7488 1084.64 57.7619 1084.56 57.8019C1049.43 77.6895 1011.73 94.0184 972.242 106.447C954.134 112.217 935.697 117.175 917.007 121.301C897.546 125.559 877.864 128.975 858.42 133.208C838.495 137.465 819.05 143.294 800.341 150.617C783.57 157.239 767.724 166.343 752.669 175.449C722.432 193.759 696.521 215.363 675.833 241.589C657.784 264.499 643.343 289.492 622.008 310.46C609.843 322.386 595.76 332.807 580.189 341.405C561.472 351.773 540.438 355.057 518.613 353.542C500.059 352.249 482.089 348.186 463.588 346.478C448.353 345.144 432.984 344.933 417.655 345.849C385.937 347.627 352.872 353.448 325.085 367.498C296.38 381.996 277.529 407.188 256.47 428.479C243.65 441.453 229.826 453.71 214.219 464.31C197.925 475.386 179.577 484.077 160.496 491.116C152.491 494.082 144.355 496.765 136.19 499.288C136.108 499.319 136.041 499.376 136.004 499.446C135.967 499.517 135.962 499.596 135.99 499.668C136.018 499.74 136.077 499.8 136.156 499.837C136.234 499.873 136.326 499.883 136.414 499.864L136.415 499.872Z" fill="#B4B4B4"/>
<path d="M132.383 503.7C170.183 493.713 204.561 478.297 232.516 453.959C257.92 431.844 275.665 404.503 300.678 382.193C324.237 361.129 359.484 351.831 392.264 347.981C408.81 346.045 425.505 345.439 442.125 346.171C460.227 346.916 477.468 350.222 495.061 353.363C512.846 356.533 531.282 358.93 549.464 355.779C568.788 352.433 585.196 342.505 599.77 331.513C624.855 312.597 640.839 288.257 656.673 263.627C664.989 250.704 673.606 237.884 683.854 225.931C695.441 212.419 708.954 200.163 724.076 189.45C755.609 167.004 791.752 148.482 831.4 139.156C870.889 129.864 911.89 127.282 951.361 117.684C990.177 108.327 1027.56 94.9362 1062.66 77.818C1072.36 73.0748 1081.84 68.0398 1091.1 62.7131C1091.17 62.6635 1091.21 62.5956 1091.22 62.5221C1091.24 62.4486 1091.22 62.3743 1091.17 62.3131C1091.12 62.2518 1091.05 62.2077 1090.96 62.1889C1090.88 62.1702 1090.79 62.1779 1090.71 62.2109C1054.76 82.7259 1015.79 99.0785 974.875 110.825C956.55 116.148 937.879 120.517 918.966 123.909C898.213 127.589 877.272 130.003 856.52 133.529C836.145 136.993 815.956 141.697 796.823 148.827C779.621 155.24 763.194 164.2 747.797 173.318C717.215 191.421 691.459 213.234 671.748 240.212C654.083 264.318 640.929 290.795 619.731 312.982C607.741 325.537 593.522 336.442 577.6 345.294C558.845 355.672 537.363 358.118 515.743 355.873C496.956 353.835 478.893 348.993 460.227 346.916C444.747 345.237 429.088 344.791 413.454 345.585C381.739 347.096 348.456 352.945 320.993 367.485C292.004 382.832 274.469 409.684 253.937 432.018C241.555 445.483 227.915 458.117 212.233 468.899C196.001 480.068 177.522 488.622 158.246 495.268C149.695 498.185 140.982 500.788 132.187 503.113C131.746 503.228 131.969 503.796 132.411 503.682L132.383 503.7Z" fill="#B4B4B4"/>
<path d="M128.35 507.526C167.134 498.904 202.399 483.493 230.234 458.411C255.805 435.374 272.113 406.582 296.666 382.925C319.468 360.953 355.008 351.291 387.947 347.553C404.967 345.611 422.145 345.159 439.207 346.202C456.861 347.28 473.619 350.816 490.661 354.481C508.998 358.443 528.179 361.855 547.29 358.957C566.704 356.017 582.965 346.171 597.37 335.067C623.102 315.145 638.213 289.394 653.327 263.352C660.901 250.294 668.844 237.36 678.495 225.272C690.084 210.789 704.032 197.751 719.912 186.558C751.817 163.97 788.935 145.811 829.455 138.042C850.502 134.006 871.963 132.353 893.33 130.221C913.923 128.222 934.358 125.474 954.534 121.206C994.483 112.761 1032.95 99.6483 1068.83 82.2491C1078.52 77.5385 1087.98 72.5153 1097.22 67.1797C1097.6 66.9554 1097.18 66.4554 1096.84 66.6769C1060.49 87.558 1020.78 103.776 979.007 114.793C959.427 120.01 939.447 123.999 919.23 126.728C897.99 129.572 876.588 130.923 855.286 133.512C834.296 136.066 812.764 139.79 793.167 146.98C775.79 153.338 759.242 161.675 743.611 170.71C727.778 179.862 712.62 190.145 699.429 201.986C686.745 213.369 676.103 226.266 666.986 239.825C650.224 264.727 638.557 292.039 617.912 315.042C606.04 328.276 591.362 340.259 574.723 349.175C555.314 359.607 533.094 360.989 511.175 357.695C492.439 354.903 474.482 349.41 455.619 347.061C440.154 345.181 424.48 344.586 408.82 345.287C376.934 346.623 343.219 352.594 316.028 367.885C287.417 383.993 271.379 412.026 251.754 435.035C239.678 449.185 226.088 462.357 210.14 473.485C193.54 485.039 174.396 493.639 154.377 499.949C145.752 502.645 136.98 504.974 128.096 506.927C127.645 507.026 127.868 507.594 128.32 507.495L128.35 507.526Z" fill="#B4B4B4"/>
<path d="M124.328 511.354C164.322 504.051 200.72 488.461 228.535 462.363C253.844 438.606 268.688 408.882 292.262 384.111C314.156 361.109 349.937 350.989 383.11 347.197C400.554 345.206 418.168 344.859 435.627 346.161C453.095 347.46 469.54 351.192 486.248 355.344C504.488 359.941 523.524 364.314 542.878 362.307C562.771 360.236 579.219 350.83 593.831 339.513C620.082 319.181 634.63 292.745 648.647 265.692C655.841 251.833 663.325 238.053 672.835 225.174C683.908 210.197 697.656 196.745 713.576 185.312C729.416 174.001 746.585 164.115 764.799 155.817C784.349 146.639 805.492 140.237 827.373 136.872C849.045 133.592 870.983 132.929 892.885 131.807C913.969 130.725 934.912 128.851 955.655 125.156C997.348 117.701 1037.53 104.773 1074.75 86.8426C1084.52 82.1268 1094.06 77.0669 1103.36 71.6629C1103.43 71.6133 1103.47 71.5455 1103.48 71.4719C1103.5 71.3984 1103.48 71.3241 1103.43 71.2629C1103.38 71.2016 1103.31 71.1576 1103.22 71.1388C1103.14 71.12 1103.05 71.1278 1102.97 71.1607C1065.67 92.7124 1024.54 108.951 981.243 119.219C960.927 124.091 940.195 127.505 919.269 129.425C897.235 131.402 875.095 131.69 853.047 133.409C831.568 135.088 809.064 137.988 788.924 145.193C770.844 151.757 753.545 159.82 737.282 169.262C721.052 178.638 705.507 189.315 692.424 201.877C680.18 213.598 670.117 226.792 661.675 240.668C645.792 266.746 635.368 295.286 614.535 319.163C602.609 332.772 587.243 345.885 569.695 354.232C550.032 363.581 528.12 363.524 506.939 359.477C488.629 355.982 471.134 350.074 452.634 347.398C437.05 345.207 421.211 344.395 405.368 344.973C372.856 346.046 338.122 352.189 310.918 368.563C283.005 385.373 268.583 414.144 250.109 437.627C238.124 452.854 224.255 466.963 207.517 478.613C190.78 490.263 171.127 498.788 150.662 504.655C141.955 507.128 133.098 509.177 124.133 510.792C123.68 510.875 123.904 511.443 124.357 511.36L124.328 511.354Z" fill="#B4B4B4"/>
<path d="M120.214 515.2C160.805 509.308 198.081 493.902 225.745 467.352C251.298 442.846 264.781 412.014 287.419 385.892C308.653 361.37 344.909 350.552 378.967 346.741C396.614 344.773 414.432 344.555 432.06 346.092C449.779 347.627 466.321 351.708 483.092 356.463C501.23 361.607 520.161 366.793 539.678 365.463C560.267 364.062 577.169 354.606 591.985 342.841C618.784 321.613 632.393 293.923 645.482 265.665C652.082 251.428 659.02 237.268 668.173 223.981C678.752 208.634 692.289 194.869 708.207 183.272C724.318 171.657 741.921 161.633 760.666 153.399C769.725 149.324 779.066 145.734 788.635 142.649C800.229 138.959 812.731 136.968 824.915 135.561C847.503 132.954 870.245 133.35 892.92 133.242C915.26 133.096 937.456 131.965 959.532 128.581C1001.49 122.136 1042.01 109.789 1079.4 92.055C1089.75 87.1503 1099.81 81.845 1109.58 76.1392C1109.96 75.9154 1109.54 75.4149 1109.19 75.637C1071.22 97.6845 1029.02 113.841 984.607 123.336C963.545 127.893 942.061 130.758 920.441 131.892C897.863 133.02 875.288 132.227 852.707 132.968C830.829 133.684 807.74 135.69 787.024 142.484C768.611 148.627 751.002 156.438 734.508 165.78C717.763 175.146 701.779 185.994 688.544 198.871C676.092 210.976 666.098 224.69 657.984 239.128C643.08 265.658 634.252 294.599 614.759 319.238C603.135 333.944 587.535 347.967 569.413 356.936C549.513 366.783 527.112 366.367 505.724 361.702C487.203 357.67 469.616 351.017 450.811 347.842C435.177 345.268 419.223 344.168 403.238 344.562C370.447 345.24 335.17 351.237 307.852 367.94C279.318 385.384 266.197 415.565 248.336 440.086C237.248 455.334 224.211 469.492 208.186 481.262C191.21 493.734 171.142 502.67 149.903 508.485C140.167 511.123 130.234 513.166 120.179 514.597C119.726 514.663 119.761 515.267 120.214 515.2Z" fill="#B4B4B4"/>
<path d="M116.176 519.025C158.137 514.434 196.859 498.637 224.58 470.768C249.799 445.442 261.696 413.716 283.563 386.614C304.245 360.944 341.47 349.756 376.13 346.128C394.054 344.251 412.14 344.24 429.982 346.098C448.084 347.981 464.764 352.644 481.741 357.984C499.312 363.549 517.744 369.168 537.01 368.449C558.064 367.659 575.272 358.218 590.277 346.103C617.518 324.107 630.223 295.298 642.242 266.012C648.525 250.735 655.202 235.517 664.531 221.331C674.889 205.624 688.492 191.59 704.677 179.914C721.548 167.845 740.119 157.616 759.944 149.474C768.808 145.749 777.943 142.523 787.289 139.818C799.018 136.475 811.613 134.939 823.853 134.005C847.079 132.226 870.287 133.742 893.454 134.557C916.373 135.379 939.103 135.074 961.877 132.214C1005.15 126.742 1047.04 114.633 1085.48 96.4814C1095.83 91.5767 1105.87 86.2779 1115.6 80.5849C1115.68 80.5397 1115.73 80.4703 1115.75 80.392C1115.77 80.3137 1115.75 80.2329 1115.7 80.1674C1115.65 80.1019 1115.57 80.057 1115.48 80.0426C1115.38 80.0282 1115.29 80.0456 1115.21 80.0908C1076.39 102.766 1032.89 118.912 987.123 127.629C965.951 131.72 944.384 133.977 922.757 134.364C899.295 134.712 875.969 132.799 852.53 132.548C829.873 132.317 806 133.463 784.347 140.029C765.865 145.735 748.179 153.217 731.64 162.327C714.492 171.659 698.058 182.63 684.66 195.815C671.911 208.373 661.971 222.715 654.173 237.821C639.793 265.685 632.353 296.039 612.809 321.941C601.305 337.237 585.108 352.304 566.111 360.976C546.099 370.208 523.967 368.84 503.127 363.594C484.887 358.997 467.638 351.921 449.026 348.29C433.032 345.277 416.637 343.886 400.183 344.147C367.165 344.523 331.404 350.548 304.14 367.701C275.407 385.818 263.643 417.06 246.588 442.495C236.06 458.179 223.457 472.771 207.536 484.859C189.926 498.231 168.709 507.573 146.179 513.155C136.353 515.576 126.331 517.336 116.207 518.418C115.751 518.444 115.787 519.072 116.242 519.021L116.176 519.025Z" fill="#B4B4B4"/>
<path d="M112.147 522.886C155.45 519.573 195.675 503.415 223.375 474.191C248.165 448.034 258.573 415.433 279.569 387.445C299.6 360.747 337.392 349.146 372.639 345.614C390.974 343.778 409.467 343.954 427.657 346.137C445.957 348.309 462.686 353.485 479.665 359.358C497.043 365.37 515.23 371.536 534.425 371.403C555.849 371.245 573.414 361.88 588.537 349.5C616.066 326.874 627.928 297.33 638.858 267.179C644.614 251.351 650.647 235.54 659.674 220.759C669.485 204.57 682.864 190.087 699.072 178.109C716.35 165.542 735.549 155.03 756.122 146.872C765.378 143.111 774.921 139.902 784.681 137.266C796.947 133.997 810.154 132.806 822.895 132.303C847.046 131.358 870.977 134.003 894.907 135.824C917.574 137.557 940.208 138.048 962.947 135.925C1007.61 131.608 1051 119.877 1090.63 101.402C1101.35 96.4245 1111.75 90.9713 1121.8 85.0653C1122.17 84.8416 1121.75 84.3411 1121.4 84.5631C1081.38 108.054 1036.14 124.225 988.615 132.026C966.448 135.72 943.909 137.295 921.424 136.72C898.028 136.063 874.892 133.154 851.581 131.984C828.452 130.835 804.075 131.187 781.728 137.461C762.429 143.029 743.979 150.606 726.806 160.017C709.176 169.418 692.549 180.658 679.291 194.311C666.745 207.237 657.227 221.942 649.994 237.435C636.426 266.48 630.401 298.076 610.794 325.039C599.584 340.464 583.519 355.838 564.467 364.376C544.032 373.552 521.483 371.392 500.573 365.448C482.59 360.336 465.646 352.765 447.193 348.754C430.93 345.318 414.184 343.636 397.347 343.749C363.682 343.815 326.847 349.886 299.488 368.037C270.725 387.117 260.442 419.742 244.009 446.046C233.944 462.163 221.506 477.133 205.494 489.452C187.748 503.115 166.111 512.433 143.151 517.661C132.983 519.955 122.616 521.495 112.168 522.263C112.084 522.279 112.009 522.321 111.957 522.379C111.905 522.438 111.879 522.51 111.883 522.582C111.887 522.655 111.922 522.723 111.98 522.775C112.039 522.827 112.118 522.859 112.203 522.866L112.147 522.886Z" fill="#B4B4B4"/>
<path d="M108.121 526.685C152.125 524.777 193.503 508.601 221.141 478.637C246.251 451.428 255.144 417.511 275.626 388.219C295.121 360.325 333.88 348.314 369.872 344.964C388.615 343.216 407.502 343.628 426.017 346.189C444.444 348.757 461.096 354.415 478.018 360.783C495.73 367.47 514.476 374.387 534.395 374.252C555.791 374.104 573.253 364.431 588.058 351.842C616.126 327.99 626.578 296.808 636.578 265.394C641.834 248.845 647.598 232.331 656.771 216.936C666.683 200.261 680.518 185.44 697.405 173.406C715.231 160.813 735.08 150.461 756.323 142.675C765.546 139.182 775.058 136.292 784.775 134.029C797.239 131.208 810.612 130.58 823.411 130.591C848.191 130.619 872.57 134.441 897.005 137.234C919.693 139.821 942.408 141.067 965.361 139.497C1010.8 136.4 1055.71 124.703 1096.02 106.19C1107.02 101.132 1117.67 95.5529 1127.94 89.4795C1128 89.4299 1128.05 89.362 1128.06 89.2885C1128.07 89.215 1128.05 89.1407 1128 89.0794C1127.95 89.0182 1127.88 88.9741 1127.8 88.9553C1127.71 88.9365 1127.62 88.9443 1127.55 88.9772C1086.63 113.13 1040.01 129.269 991.139 136.197C968.353 139.467 945.239 140.405 922.294 138.993C898.334 137.48 874.762 133.45 850.882 131.343C828.247 129.35 804.031 128.676 781.827 134.127C762.009 138.987 742.989 146.603 725.354 155.738C707.496 164.983 690.435 176.151 676.918 189.771C663.638 203.192 653.9 218.716 646.784 235.067C633.776 265.064 629.322 297.619 610.539 325.802C599.504 342.298 582.913 358.938 562.769 367.718C541.798 376.86 518.991 373.851 498.07 367.213C480.352 361.585 463.689 353.602 445.413 349.193C429.079 345.371 412.181 343.4 395.156 343.332C361.009 342.99 323.35 348.979 295.792 367.65C266.669 387.421 257.72 421.189 242.073 448.4C232.333 465.354 219.934 481.17 203.408 493.995C185.477 507.911 163.497 517.232 140.078 522.123C129.565 524.287 118.852 525.599 108.084 526.041C108 526.058 107.926 526.099 107.873 526.157C107.821 526.216 107.795 526.288 107.799 526.36C107.803 526.433 107.838 526.501 107.896 526.553C107.955 526.605 108.034 526.638 108.119 526.645L108.121 526.685Z" fill="#B4B4B4"/>
<path d="M104.092 530.511C149.374 529.951 192.301 513.378 219.897 482.02C244.936 453.596 252.006 418.314 272.378 387.947C291.521 359.387 331.354 347.33 367.66 344.301C386.259 342.737 404.974 343.349 423.277 346.122C442.373 349.055 459.367 355.338 476.698 362.362C494.03 369.385 512.233 376.657 531.873 377.127C553.889 377.646 571.906 367.86 586.95 354.781C615.387 330.052 624.778 297.833 633.731 265.446C638.459 248.338 643.673 231.218 652.621 215.23C662.221 198.039 676.106 182.769 693.3 170.495C711.26 157.822 731.339 147.504 752.845 139.897C762.348 136.434 772.147 133.613 782.148 131.46C794.633 128.832 807.889 128.51 820.632 128.863C845.517 129.547 869.781 134.175 894.111 137.959C917.979 141.681 941.924 144.075 966.323 143.124C1013.38 141.258 1060.2 129.821 1101.94 110.774C1113.03 105.71 1123.76 100.099 1134.08 93.9687C1134.46 93.745 1134.04 93.2445 1133.69 93.4665C1091.53 118.462 1043.09 134.589 992.453 140.482C968.707 143.291 944.69 143.47 921.009 141.013C896.803 138.376 873.131 133.44 849.012 130.491C826.477 127.757 802.285 126.355 779.873 131.341C759.239 135.926 739.404 143.622 721.086 152.99C702.768 162.358 685.543 173.649 672.119 187.707C659.395 201.031 650.178 216.332 643.649 232.447C630.796 264.139 628.078 298.539 608.965 328.421C598.013 345.534 580.816 363.226 559.688 371.643C538.823 379.963 516.464 376.153 496.267 369.183C478.511 363.056 461.921 354.513 443.55 349.624C427.31 345.465 410.433 343.217 393.388 342.942C358.595 342.129 319.833 348.004 291.968 367.452C262.581 387.933 254.97 422.761 240.144 450.821C230.86 468.403 218.715 484.818 202.024 498.104C183.649 512.74 160.682 522.296 136.271 526.825C125.658 528.765 114.862 529.798 104.047 529.908C103.591 529.935 103.625 530.522 104.082 530.512L104.092 530.511Z" fill="#B4B4B4"/>
<path d="M100.062 534.346C146.547 535.137 191.139 518.178 218.613 485.381C243.19 456.047 248.786 420.003 268.382 388.728C287.009 359.011 327.791 346.535 364.888 343.687C383.9 342.215 403.01 343.065 421.633 346.21C440.469 349.424 457.117 356.01 474.087 363.361C491.567 370.973 510.045 379.045 530.177 379.947C552.516 380.948 570.872 371.077 585.973 357.664C614.977 331.877 623.188 298.362 631.112 264.832C635.269 247.239 639.985 229.599 648.724 213.114C658.268 195.061 672.653 179.089 690.713 166.495C709.168 153.751 729.827 143.525 751.925 136.196C762.139 132.654 772.712 129.945 783.497 128.104C796.33 126.054 809.905 126.141 822.811 127.009C847.8 128.68 871.938 134.414 896.209 139.154C920.065 143.822 944.065 147.004 968.716 146.619C1016.38 145.873 1064.07 134.951 1106.5 115.944C1118.16 110.705 1129.42 104.84 1140.22 98.3863C1140.61 98.1621 1140.18 97.6621 1139.84 97.8836C1096.98 123.396 1047.43 139.428 995.772 144.489C971.425 146.912 946.864 146.45 922.798 143.115C898.257 139.641 874.442 133.55 850.027 129.609C827.142 125.919 802.403 123.789 779.275 128.26C758.144 132.34 737.757 139.866 719.006 149.162C700.255 158.458 682.003 170.124 668.237 184.703C655.208 198.513 646.03 214.481 639.909 231.25C627.822 264.134 626.671 299.759 607.654 330.815C596.971 348.284 579.692 366.562 558.167 374.856C537.007 383.032 514.545 378.574 494.518 371.093C476.723 364.46 460.254 355.368 441.715 350.054C425.226 345.454 407.998 342.9 390.558 342.468C355.489 341.34 316.211 347.189 288.284 367.036C274.278 376.986 266.047 389.888 259.308 404.021C251.496 420.379 245.828 437.388 237.871 453.706C229.113 471.677 217.308 488.517 200.645 502.117C181.833 517.448 157.946 527.243 132.569 531.384C121.83 533.111 110.927 533.879 100.042 533.677C99.5841 533.663 99.619 534.267 100.077 534.281L100.062 534.346Z" fill="#B4B4B4"/>
<path d="M96.0316 538.17C143.137 540.29 188.963 523.42 216.41 489.826C241.561 459.045 245.178 421.243 264.966 388.511C283.229 358.267 324.718 345.661 362.106 343.054C381.531 341.673 401.035 342.763 419.968 346.287C439.084 349.881 455.738 357.056 472.718 364.932C490.345 373.109 509.11 381.85 529.724 382.845C551.561 383.899 569.559 374.275 584.284 361.118C614.19 334.439 621.418 299.584 628.275 264.912C631.839 246.943 635.925 228.943 644.275 212.005C653.241 193.605 667.348 177.264 685.36 164.413C704.021 151.101 725.767 140.703 748.422 133.312C758.928 129.803 769.793 127.162 780.863 125.428C793.997 123.474 807.852 124.11 820.964 125.41C846.605 127.964 871.211 134.558 895.99 140.182C920.132 145.648 944.478 149.723 969.627 150.036C1018.82 150.646 1068.55 140.01 1112.4 120.461C1124.16 115.212 1135.51 109.306 1146.36 102.784C1146.74 102.561 1146.32 102.06 1145.97 102.29C1102.06 128.554 1050.91 144.537 997.8 148.592C972.535 150.511 947.145 149.306 922.43 145.015C897.398 140.633 873.17 133.654 848.183 128.89C825.18 124.488 800.099 121.393 776.592 125.571C754.896 129.425 733.935 136.92 714.718 146.388C695.674 155.742 677.482 167.436 663.862 182.249C650.879 196.363 642.034 212.651 636.333 229.743C624.964 263.844 625.376 300.623 606.586 332.981C596.189 350.943 578.719 369.862 556.671 378.17C535.219 386.233 512.696 381.069 492.795 373.112C474.667 365.844 457.898 356.011 438.886 350.264C422.444 345.436 405.211 342.687 387.734 342.104C352.391 340.677 312.575 346.452 284.586 366.731C270.326 377.059 262.247 390.437 255.823 405.092C248.364 422.108 243.217 439.733 235.594 456.718C227.235 475.304 215.589 492.756 198.597 506.763C179.44 522.55 154.801 532.372 128.731 536.06C117.894 537.572 106.917 538.077 95.9967 537.566C95.538 537.544 95.5824 538.147 96.0316 538.17Z" fill="#B4B4B4"/>
<path d="M91.9074 541.994C139.058 545.395 185.692 529.149 213.312 495.407C239.312 463.657 241.615 424.549 260.408 390.285C277.75 358.6 319.66 345.211 357.97 342.559C377.839 341.158 397.784 342.38 417.094 346.18C436.578 350.059 453.333 357.656 470.45 366.081C488.029 374.753 506.753 384.102 527.562 385.667C549.576 387.309 567.874 377.934 582.715 364.633C597.556 351.332 607.874 335.144 614.101 317.747C620.328 300.35 622.781 282.283 625.71 264.383C628.759 245.757 632.382 227.009 640.637 209.422C649.532 190.365 664.049 173.491 682.776 160.444C701.93 147.072 724.29 136.743 747.517 129.691C758.352 126.286 769.563 123.865 780.959 122.468C794.612 120.927 808.882 122.137 822.34 123.982C848.028 127.519 872.533 134.999 897.246 141.45C921.628 147.791 946.326 152.668 972.004 153.557C1021.75 155.249 1072.38 145.174 1116.96 125.64C1129.3 120.242 1141.2 114.109 1152.54 107.288C1152.92 107.064 1152.5 106.564 1152.15 106.786C1107.28 133.697 1054.68 149.574 1000.27 152.624C974.973 154.039 949.638 152.258 925.099 147.34C899.674 142.246 875.248 134.317 850.05 128.54C826.774 123.201 801.05 118.884 776.762 122.396C754.846 125.593 733.57 132.751 714.037 141.874C694.005 151.252 674.732 163.235 660.512 178.688C647.25 193.085 638.489 209.837 633.041 227.358C622.131 262.652 624.325 300.579 605.989 334.341C595.991 352.787 578.717 372.285 556.439 380.913C534.638 389.376 511.659 383.737 491.613 375.248C473.561 367.637 457.022 357.346 438.151 351.058C421.689 345.55 403.961 342.708 386.246 341.755C350.234 339.801 309.267 345.449 280.877 366.364C266.709 376.792 258.796 390.249 252.758 404.987C245.73 422.212 241.167 440.038 234.265 457.296C226.43 476.877 215.191 495.436 197.79 510.274C178.491 526.731 153.312 536.932 126.525 540.427C115.095 541.896 103.526 542.21 92.0615 541.363C91.6118 541.333 91.4554 541.923 91.9055 541.962L91.9074 541.994Z" fill="#B4B4B4"/>
<path d="M87.8759 545.82C136.755 550.599 185.555 533.565 212.904 497.627C237.906 464.764 238.407 424.977 256.934 390.066C274.077 357.755 316.953 344.245 355.738 341.905C375.687 340.675 395.68 342.123 414.977 346.197C434.41 350.346 451 358.227 467.881 367.021C485.646 376.263 504.571 386.448 525.873 388.47C548.44 390.612 567.255 380.941 582.266 367.122C613.336 338.502 618.269 301.204 623.028 264.53C625.521 245.347 628.566 225.986 636.592 207.726C645.097 188.168 659.632 170.82 678.659 157.518C697.729 144.174 720.039 133.969 743.235 127.048C754.602 123.542 766.365 121.099 778.313 119.763C792.002 118.349 806.2 119.805 819.616 121.92C846.546 126.167 872.047 134.874 897.805 142.427C922.68 149.708 947.944 155.481 974.419 156.962C1025.2 159.797 1077.23 150.086 1122.87 130.256C1135.3 124.833 1147.25 118.649 1158.65 111.755C1159.03 111.523 1158.61 111.023 1158.26 111.253C1112.55 138.748 1058.65 154.508 1003.13 156.609C976.325 157.603 949.585 154.974 923.915 148.821C898.558 142.763 874.26 134.092 849.095 127.562C824.907 121.282 798.245 116.228 772.677 119.871C750.719 122.982 729.35 130.023 709.778 139.117C689.592 148.488 670.202 160.574 656.137 176.245C642.616 191.286 634.071 208.801 629.124 227.076C619.315 263.429 622.898 302.309 604.687 337.08C594.903 355.765 577.567 375.678 554.997 384.186C532.902 392.512 509.805 386.162 489.924 377.227C471.803 369.087 455.31 358.277 436.337 351.526C419.582 345.575 401.398 342.429 383.227 341.324C347.277 339.14 306.367 344.607 277.885 365.423C246.405 388.455 243.649 427.46 232.311 458.967C225.071 479.12 214.35 498.399 196.926 513.828C177.643 530.906 152.188 541.446 124.889 544.809C112.649 546.321 100.26 546.476 88.0347 545.27C87.5841 545.223 87.4276 545.814 87.8782 545.86L87.8759 545.82Z" fill="#B4B4B4"/>
<path d="M83.8502 549.646C107.98 552.602 133.212 550.408 155.943 542.205C178.851 533.928 197.969 519.452 211.133 501.54C223.43 484.802 229.946 465.814 235.13 446.862C240.314 427.911 244.075 407.919 253.436 389.841C270.409 357.046 313.812 343.434 352.951 341.291C373.116 340.169 393.3 341.818 412.72 346.174C432.669 350.672 449.449 359.205 466.584 368.589C484.161 378.214 502.909 388.797 524.227 391.254C546.724 393.844 565.681 384.472 580.728 370.626C612.651 341.254 616.705 302.772 620.372 265.168C622.311 245.314 624.732 225.215 632.504 206.194C640.725 185.973 655.37 167.981 674.803 154.228C694.969 140.015 718.16 129.255 743.055 122.561C768.682 115.653 794.103 115.41 820.119 120.332C847.446 125.525 873.068 135.178 899.077 143.597C923.92 151.647 949.258 158.191 975.968 160.303C1028.15 164.431 1082.06 155.111 1129.08 134.676C1141.5 129.275 1153.44 123.097 1164.8 116.195C1165.18 115.972 1164.76 115.471 1164.41 115.693C1117.74 143.859 1062.36 159.515 1005.59 160.592C978.754 161.085 952.077 157.909 926.59 151.185C900.566 144.302 875.847 134.613 850.1 127.084C825.525 119.89 799.138 114.311 772.765 116.547C750.07 118.465 727.76 125.545 707.643 134.783C686.977 144.255 667.158 156.665 652.789 172.675C638.657 188.341 630.116 206.768 625.535 225.927C616.569 263.353 621.682 303.138 603.841 339.051C594.31 358.31 576.773 378.864 553.548 387.418C531.2 395.655 507.867 388.502 488.209 379.159C470.06 370.52 453.604 359.199 434.509 351.995C417.743 345.698 399.408 342.245 381.064 340.948C344.615 338.358 302.821 343.722 274.095 365.085C259.385 376.029 251.51 390.146 246.036 405.739C239.548 424.217 236.039 443.297 229.937 461.866C223.195 482.377 212.898 502.068 195.505 517.874C175.829 535.734 149.367 546.478 121.091 549.445C108.748 550.711 96.2929 550.579 84.0542 549.053C83.6031 548.998 83.4467 549.588 83.8977 549.643L83.8502 549.646Z" fill="#B4B4B4"/>
<path d="M79.8176 553.482C104.49 557.085 130.531 555.207 153.919 546.83C177.111 538.52 196.421 523.725 209.344 505.457C221.787 487.935 227.861 468.052 232.626 448.285C237.229 429.004 240.471 408.937 249.396 390.569C265.865 356.665 310.179 342.644 350.168 340.686C370.965 339.65 391.753 341.595 411.654 346.439C431.628 351.364 448.247 360.407 465.261 370.177C482.67 380.176 501.267 391.13 522.591 394.023C545.644 397.146 565.097 387.462 580.288 373.14C612.706 342.609 615.286 302.686 617.923 264.092C619.31 244.085 621.198 223.846 628.516 204.537C636.495 183.366 651.608 164.538 671.967 150.405C692.207 136.422 715.43 125.916 740.3 119.493C766.589 112.667 792.509 112.807 818.862 118.436C846.603 124.365 872.428 134.878 898.65 144.204C923.54 153.051 948.951 160.536 975.946 163.447C1029.19 169.193 1084.89 160.512 1133.3 139.973C1146.42 134.392 1159 127.931 1170.93 120.655C1171.31 120.423 1170.89 119.922 1170.54 120.152C1122.52 149.213 1065.15 164.759 1006.7 164.551C978.471 164.362 950.576 160.134 924.187 152.045C898.26 144.203 873.573 133.762 847.837 125.602C823.714 117.97 797.678 111.878 771.505 113.618C748.293 115.163 725.443 122.128 704.867 131.344C683.694 140.781 663.453 153.312 648.919 169.615C634.55 185.787 626.176 204.778 622.025 224.461C613.778 263.121 620.567 304.044 602.898 341.263C593.551 360.899 575.897 382.243 552.139 390.65C529.94 398.491 507.066 391.207 487.772 381.721C469.379 372.668 452.918 360.75 433.689 352.884C416.646 345.917 397.748 342.117 378.866 340.585C341.945 337.585 299.316 342.829 270.305 364.709C255.301 376.025 247.54 390.62 242.371 406.696C236.216 425.84 233.24 445.552 227.49 464.771C221.263 485.631 211.382 505.759 194.001 521.928C174.341 540.223 147.564 551.13 118.906 553.918C105.892 555.15 92.7735 554.805 79.9456 552.893C79.8561 552.885 79.7656 552.905 79.6918 552.951C79.618 552.996 79.5662 553.062 79.5467 553.137C79.5271 553.212 79.5412 553.29 79.5861 553.356C79.6311 553.421 79.7037 553.47 79.7896 553.492L79.8176 553.482Z" fill="#B4B4B4"/>
<path d="M75.7897 557.285C100.976 561.544 127.867 560.013 151.91 551.436C175.627 542.975 195.183 527.657 207.965 508.751C220.001 490.953 225.549 470.883 229.791 450.969C234.033 431.054 236.676 410.352 245.399 391.293C261.17 356.671 305.641 342.076 346.077 340.116C367.537 339.041 388.981 341.165 409.433 346.391C430.003 351.733 446.863 361.481 464.199 371.879C481.536 382.277 499.883 393.52 521.218 396.776C544.065 400.299 563.613 390.932 578.799 376.675C612.297 345.209 613.833 303.893 615.434 264.197C616.284 243.292 617.611 222.085 624.953 201.886C632.557 180.531 647.641 161.536 668.177 147.452C688.828 133.282 713.379 122.924 738.708 116.638C750.8 113.638 763.359 111.474 775.918 111.119C790.541 110.701 805.462 113.447 819.374 116.881C873.853 130.153 920.7 159.28 977.593 166.671C1032.01 173.746 1089.47 165.545 1139.21 144.541C1152.42 138.947 1165.09 132.446 1177.08 125.104C1177.46 124.88 1177.04 124.379 1176.69 124.61C1127.78 154.271 1069.04 169.679 1009.51 168.467C980.516 167.774 951.983 162.816 925.178 153.813C898.945 145.133 874.095 133.837 848.024 124.833C823.869 116.484 796.822 108.901 770.184 110.845C746.279 112.591 722.668 119.415 701.267 128.703C679.522 138.132 658.545 150.803 644.059 167.757C630.278 183.895 622.452 202.644 618.724 222.052C611.009 262.151 619.612 304.463 602.101 343.256C592.994 363.427 575.009 385.638 550.548 393.916C527.797 401.603 504.598 393.304 485.347 383.259C466.874 373.629 450.359 361.125 430.844 352.928C413.673 345.702 394.544 341.721 375.419 340.099C338.212 336.93 295.062 342.228 266.12 364.653C251.07 376.302 243.576 391.237 238.768 407.632C232.948 427.443 230.493 447.779 225.087 467.664C219.284 489.097 209.65 509.873 191.961 526.495C171.995 545.26 144.44 556.228 115.097 558.531C101.967 559.535 88.7706 558.925 75.919 556.72C75.8271 556.704 75.7307 556.719 75.6511 556.763C75.5714 556.807 75.515 556.876 75.4942 556.954C75.4735 557.033 75.4901 557.114 75.5404 557.181C75.5908 557.248 75.6707 557.294 75.7626 557.31L75.7897 557.285Z" fill="#B4B4B4"/>
<path d="M71.7623 561.133C97.212 565.991 124.546 564.87 149.089 556.369C173.633 547.868 193.852 531.834 206.567 512.084C218.451 493.633 223.464 472.891 227.225 452.399C230.986 431.907 233.049 410.568 241.78 391C257.665 355.548 303.356 340.955 344.581 339.45C366.03 338.623 387.408 341.022 407.727 346.536C428.538 352.268 445.453 362.626 462.835 373.49C480.217 384.353 498.613 396.103 520.231 399.625C543.321 403.4 563.167 393.758 578.354 379.193C612.176 346.749 612.415 304.248 612.991 263.795C613.296 242.542 614.048 220.94 620.992 200.297C628.423 178.171 643.116 158.864 664.338 144.346C685.56 129.828 710.923 119.35 737.035 113.245C749.259 110.39 761.953 108.421 774.611 108.294C789.85 108.139 805.414 111.462 819.811 115.369C874.648 130.372 921.439 161.173 979.075 169.87C1034.8 178.314 1094.17 170.56 1145.36 149.028C1158.58 143.439 1171.24 136.926 1183.22 129.559C1183.6 129.327 1183.18 128.827 1182.84 129.056C1133.37 159.37 1072.26 174.677 1011.9 172.356C982.059 171.207 953.444 165.337 926.108 155.558C899.833 146.145 875.019 134.153 848.95 124.365C824.752 115.269 797.339 106.624 770.24 107.844C745.707 108.949 721.316 115.648 699.201 124.937C676.789 134.372 654.958 147.27 640.206 164.74C626.013 181.492 618.467 201.121 615.191 221.27C608.553 262.025 618.304 304.731 601.718 344.366C592.943 365.342 574.659 388.789 549.189 397.102C526.114 404.629 502.787 395.603 483.696 385.178C465.47 375.227 449.24 362.52 430.059 353.844C412.816 346.048 393.38 341.69 373.972 339.785C335.932 336.067 291.327 341.247 261.944 364.602C246.874 376.575 239.63 391.875 235.163 408.565C229.678 429.068 227.763 450.002 222.748 470.55C217.35 492.558 207.992 513.988 190.034 531.062C169.716 550.332 141.371 561.329 111.361 563.13C98.1312 563.903 84.8766 563.038 72.0152 560.561C71.9233 560.545 71.8268 560.561 71.7472 560.605C71.6675 560.649 71.6111 560.717 71.5904 560.796C71.5696 560.874 71.5862 560.955 71.6366 561.022C71.6869 561.089 71.7668 561.135 71.8587 561.152L71.7623 561.133Z" fill="#B4B4B4"/>
<path d="M67.7301 564.968C93.4133 570.402 121.249 569.721 146.264 561.289C171.278 552.858 191.851 536.505 204.512 516.338C216.571 497.126 221.155 475.537 224.482 454.303C227.788 433.199 229.262 410.91 238.177 390.717C254.008 354.84 300.18 340.154 341.79 338.878C364.056 338.128 386.213 340.893 407.132 347.032C427.749 353.187 444.386 364.013 461.487 375.135C478.589 386.257 497.397 398.71 519.296 402.473C542.736 406.535 562.794 396.598 577.98 381.687C612.134 348.222 610.978 304.51 610.528 263.293C610.281 241.393 610.496 219.08 617.414 197.654C624.411 175.163 639.894 155.107 661.477 140.58C683.161 125.979 709.158 115.577 735.803 109.797C748.038 107.135 760.736 105.392 773.34 105.494C789.834 105.614 806.521 109.727 821.831 114.437C876.166 131.149 922.339 162.777 979.817 172.88C1036.9 182.917 1098.47 175.706 1151.27 153.58C1164.58 147.983 1177.31 141.438 1189.34 134.018C1189.72 133.786 1189.3 133.286 1188.95 133.516C1137.77 165.027 1073.69 180.151 1011.28 176.026C981.869 174.086 953.862 167.518 927.185 157.265C900.304 146.943 875.053 133.983 848.388 123.277C824.115 113.554 796.556 104.192 769.038 104.936C743.489 105.606 717.888 112.456 694.943 122.076C673.134 131.226 651.877 143.663 637.34 160.555C622.371 177.901 614.756 198.486 611.75 219.508C605.833 261.53 617.25 305.366 600.982 346.372C592.513 367.524 574.564 391.17 549.154 399.85C525.892 407.776 502.38 398.518 483.223 387.774C464.734 377.394 448.502 364.162 429.187 354.815C411.92 346.432 392.213 341.678 372.4 339.53C334.035 335.289 288.897 340.161 259 363.53C243.052 375.982 235.665 392.098 231.401 409.664C226.339 430.554 224.933 451.879 220.408 472.843C215.483 495.606 206.423 517.899 187.959 535.616C167.697 555.044 139.209 566.025 109.123 567.677C95.221 568.4 81.3119 567.298 67.8884 564.41C67.4445 564.315 67.2981 564.913 67.7325 565.009L67.7301 564.968Z" fill="#B4B4B4"/>
<path d="M63.7153 568.795C90.2794 574.961 119.407 574.536 145.39 565.54C171.017 556.662 191.645 539.449 203.779 518.416C215.12 498.802 219.017 477.042 221.811 455.67C224.606 434.297 225.605 411.849 234.131 391.372C249.669 354.05 297.519 339.058 340.339 338.253C362.592 337.761 384.678 340.799 405.461 347.211C426.436 353.805 443.169 365.312 460.444 376.957C477.521 388.476 496.026 401.124 517.928 405.267C541.814 409.795 562.246 399.57 577.589 384.238C612.265 349.58 609.516 304.37 608.059 262.218C607.298 240.162 607.029 217.707 613.447 196.044C620.353 172.754 635.342 152.469 657.708 137.449C679.549 122.758 705.815 112.413 732.658 106.751C745.538 104.036 758.905 102.334 772.142 102.658C788.824 103.074 805.608 107.553 820.968 112.607C876.48 130.898 923.18 164.732 982.241 176.149C1040.22 187.328 1103.27 180.686 1157.2 158.156C1170.6 152.537 1183.42 145.949 1195.51 138.467C1195.88 138.235 1195.47 137.734 1195.12 137.964C1142.96 170.162 1077.47 184.98 1014.03 179.849C983.704 177.396 955.086 169.984 927.832 158.811C900.956 147.762 875.753 134.137 849.114 122.727C823.942 111.959 795.24 101.459 766.275 102.061C740.46 102.585 714.545 109.292 691.316 118.936C668.869 128.252 647.018 141.135 632.482 158.714C617.946 176.293 610.786 196.989 608.297 218.046C603.175 261.305 616.259 306.273 600.087 348.621C591.863 370.203 573.663 394.631 547.621 403.097C523.815 410.837 499.986 400.556 480.915 389.321C462.623 378.535 446.517 365.021 427.362 355.318C409.907 346.477 389.764 341.425 369.605 339.079C330.987 334.579 285.272 339.355 255.224 363.087C239.375 375.599 232.025 391.704 228.029 409.279C223.146 430.804 222.262 452.745 218.242 474.366C213.871 497.647 205.493 520.691 187.057 539.06C166.54 559.496 137.085 570.905 105.921 572.215C91.7023 572.767 77.5131 571.407 63.8803 568.188C63.4454 568.084 63.289 568.674 63.7334 568.778L63.7153 568.795Z" fill="#B4B4B4"/>
<path d="M59.6848 572.62C86.4824 579.362 116.084 579.394 142.566 570.458C168.328 561.766 189.081 544.578 201.233 523.52C212.97 503.188 216.539 480.528 218.936 458.37C221.286 436.563 221.793 413.692 229.865 392.611C244.627 354.051 293.218 338.369 337.016 337.669C360.045 337.219 382.871 340.574 404.221 347.548C425.249 354.551 441.879 366.589 459.089 378.593C476.299 390.597 495.169 403.958 517.603 408.24C541.249 412.726 561.507 402.471 576.63 387.296C612.392 351.316 608.002 304.408 605.54 261.03C604.214 238.095 603.467 214.65 610.129 192.085C617.092 168.622 632.379 148.384 655.046 133.476C677.714 118.568 705.334 108.064 733.33 102.908C747.097 100.376 761.471 98.9386 775.464 100.148C791.229 101.505 806.829 106.101 821.296 111.223C877.263 131.102 923.964 166.446 983.722 179.203C1042.58 191.793 1107.33 185.779 1162.56 162.947C1176.25 157.27 1189.33 150.568 1201.65 142.923C1202.03 142.691 1201.61 142.191 1201.26 142.421C1148.6 175.019 1082.23 189.596 1018.22 183.788C987.265 180.984 958.054 173.041 930.502 161.175C902.951 149.309 877.281 134.71 850.109 122.33C825.493 111.117 797.269 99.8231 768.632 99.1704C742.333 98.5681 715.501 104.916 691.577 114.237C668.278 123.328 645.377 136.183 630.027 154.011C614.676 171.838 607.301 193.274 604.962 214.96C600.211 259.352 614.939 305.048 599.962 348.789C592.335 371.144 574.225 396.793 547.541 405.854C523.568 413.999 499.487 403.474 480.4 391.974C461.855 380.766 445.683 366.772 426.439 356.339C409.234 347.056 389.145 341.622 368.976 338.937C329.552 333.684 282.302 338.129 251.531 362.525C235.275 375.415 227.957 392.084 224.249 410.191C219.647 432.613 219.327 455.409 215.587 477.91C211.697 501.276 203.692 524.5 185.477 543.075C164.778 564.159 134.706 575.773 102.877 576.775C88.26 577.181 73.7083 575.568 59.7919 572C59.3471 571.889 59.2002 572.479 59.6355 572.591L59.6848 572.62Z" fill="#B4B4B4"/>
<path d="M55.6522 576.448C82.6642 583.767 112.75 584.247 139.731 575.379C166.403 566.618 187.743 548.702 199.742 526.797C210.95 506.383 214.083 483.771 215.989 461.691C217.976 439.041 217.892 415.348 225.768 393.35C239.981 353.699 289.537 337.566 334.196 337.09C357.448 336.752 380.462 340.307 401.921 347.553C423.109 354.854 439.703 367.249 456.869 379.643C474.274 392.225 493.309 406.296 516.186 411.004C540.298 415.963 560.933 405.46 576.211 389.825C612.307 352.872 606.547 304.687 603.043 260.594C601.211 237.325 599.891 213.51 606.183 190.482C612.748 166.42 628.07 145.615 651.212 130.348C674.8 114.886 703.447 104.347 732.459 99.4392C746.455 97.0793 761.175 95.8645 775.288 97.4946C791.061 99.3274 806.502 104.143 820.911 109.575C877.33 130.841 924.018 167.761 984.369 182.049C1044.27 196.226 1110.88 191.049 1167.62 167.88C1181.71 162.107 1195.16 155.242 1207.79 147.373C1208.16 147.142 1207.75 146.641 1207.4 146.879C1153.57 180.304 1085.32 194.562 1020.11 187.507C988.384 184.086 958.692 175.242 930.764 162.477C903.152 149.88 877.483 134.651 850.253 121.58C825.326 109.618 796.68 97.436 767.319 96.3084C740.576 95.2797 713.144 101.469 688.715 110.795C664.809 119.929 641.163 133.077 625.751 151.498C610.599 169.629 603.542 191.119 601.581 212.912C597.448 258.762 614.013 305.757 599.184 351.055C591.782 373.664 573.681 399.797 546.724 408.93C522.252 417.169 497.808 405.809 478.693 393.818C460.102 382.161 443.962 367.729 424.638 356.905C407.264 347.171 386.795 341.428 366.226 338.564C326.346 333.023 278.228 337.445 247.343 362.518C230.849 375.898 223.833 393.179 220.469 411.791C216.342 434.686 216.521 457.881 213.199 480.843C209.803 504.511 202.194 528.165 184.04 547.124C163.254 568.851 132.433 580.686 99.9569 581.386C84.9314 581.644 70.0082 579.779 55.7996 575.866C55.3638 575.746 55.2079 576.344 55.6432 576.456L55.6522 576.448Z" fill="#B4B4B4"/>
<path d="M51.6276 580.281C79.522 588.357 110.939 589.123 138.913 579.633C166.019 570.451 187.218 551.736 198.701 529.158C209.577 507.786 211.946 484.322 213.378 461.47C214.811 438.618 214.166 414.126 222.525 391.898C237.556 351.917 288.307 336.321 333.441 336.496C356.91 336.592 380.603 340.413 401.982 348.381C423.361 356.349 439.904 369.675 457.201 382.522C474.498 395.369 493.522 409.585 516.533 414.116C541.152 418.949 561.883 407.31 576.935 391.244C612.443 353.171 604.96 304.036 600.554 259.503C598.223 235.689 596.384 211.298 602.618 187.603C609.081 163.079 624.706 141.917 648.407 126.602C672.444 110.985 701.72 100.611 731.257 96.0606C745.322 93.8906 760.038 92.9424 774.144 94.7829C790.238 96.8798 805.912 102.101 820.515 107.918C877.402 130.546 924.112 168.99 985.065 184.794C1046.02 200.598 1114.38 196.28 1172.68 172.795C1187.18 166.94 1201 159.922 1213.96 151.837C1214.33 151.605 1213.91 151.104 1213.56 151.334C1158.29 185.747 1087.78 199.628 1020.97 191.082C988.822 186.967 958.984 177.26 930.955 163.734C903.377 150.416 877.708 134.517 850.432 120.826C825.393 108.225 796.539 95.2718 766.788 93.4885C739.39 91.8437 711.029 97.9493 685.899 107.348C661.758 116.375 637.911 129.502 622.321 147.973C606.901 166.249 599.93 188.082 598.202 210.103C594.498 257.285 612.817 305.269 598.789 352.055C591.87 375.128 574.259 401.483 547.301 411.416C523.04 420.352 498.438 409.22 479.377 397.178C459.891 384.869 443.303 369.454 423.326 357.707C406.367 347.74 386.3 341.698 365.988 338.505C325.671 332.157 276.662 336.009 244.819 360.992C227.781 374.364 220.292 391.85 217.033 410.803C212.988 434.291 213.686 458.053 210.961 481.618C208.14 506.004 201.321 530.621 183.093 550.456C162.32 573.063 130.869 585.387 97.612 585.922C81.9726 586.112 66.4643 584.004 51.7746 579.691C51.3388 579.571 51.1919 580.161 51.6186 580.29L51.6276 580.281Z" fill="#B4B4B4"/>
<path d="M47.507 584.079C75.3705 592.609 106.908 593.974 135.227 584.835C163.05 575.861 184.962 556.798 196.507 533.652C207.483 511.685 209.471 487.573 210.48 464.156C211.507 440.56 210.318 415.558 218.415 392.595C232.898 351.531 284.68 335.472 330.639 335.906C354.525 336.139 378.652 340.21 400.256 348.601C421.616 356.893 438.076 370.595 455.267 383.755C472.458 396.915 491.685 411.838 514.951 416.83C539.722 422.156 560.774 410.627 575.938 394.336C612.16 355.439 603.587 305.091 598.179 259.865C595.296 235.728 592.834 210.962 598.461 186.825C604.219 162.148 619.125 140.414 642.613 124.699C666.946 108.435 696.984 97.7271 727.202 93.0885C741.579 90.8842 756.565 89.969 770.964 91.7683C787.503 93.8313 803.589 99.4168 818.456 105.525C876.636 129.402 923.565 169.982 985.636 187.497C1047.49 204.912 1117.82 201.53 1177.67 177.729C1192.59 171.785 1206.8 164.601 1220.08 156.285C1220.45 156.054 1220.04 155.553 1219.69 155.783C1163.23 191.055 1090.79 204.547 1022.76 194.708C989.876 189.949 959.606 179.346 931.229 164.92C903.374 150.762 877.481 134.117 849.853 119.615C824.105 106.135 794.409 92.2934 763.4 90.5021C735.919 88.9105 707.537 94.8235 682.234 104.192C657.752 113.27 633.497 126.591 617.97 145.495C602.444 164.399 595.903 186.755 594.672 209.297C592.052 257.087 611.341 305.353 598.386 352.909C591.996 376.379 574.835 403.282 547.851 413.902C523.466 423.508 498.674 412.548 479.397 400.236C459.695 387.649 443.08 371.921 423.315 359.41C406.498 348.756 386.314 342.173 365.727 338.519C324.857 331.331 274.637 334.68 241.891 359.877C224.419 373.322 216.602 391.069 213.477 410.369C209.644 434.055 210.743 457.996 208.707 481.78C206.54 507.08 200.548 532.982 182.077 553.889C161.415 577.264 129.438 590.038 95.5666 590.504C79.244 590.637 63.0828 588.276 47.8567 583.534C47.4299 583.405 47.0992 583.949 47.526 584.078L47.507 584.079Z" fill="#B4B4B4"/>
<path d="M43.4823 587.91C71.8105 597.059 104.221 598.858 133.25 589.476C161.372 580.397 183.313 561.017 194.659 537.543C205.588 514.933 207.08 490.155 207.685 466.172C208.261 441.867 206.416 415.902 214.748 392.223C229.369 350.578 281.975 334.616 328.525 335.363C352.822 335.775 377.331 340.194 399.123 349.043C420.916 357.891 437.34 372.46 454.739 386.092C472.138 399.724 491.617 415.198 515.444 420.005C540.938 425.143 562.19 412.133 577.051 395.222C612.127 355.284 601.963 304.286 595.687 258.9C592.31 234.461 589.361 209.343 594.679 184.797C600.109 159.719 614.959 137.519 638.777 121.584C663.678 104.931 694.626 94.1304 725.566 89.7731C740.463 87.6679 755.9 86.9688 770.78 89.1763C787.573 91.6688 803.826 97.6805 818.867 104.158C877.92 129.777 925.279 172.197 988.78 190.857C1051.12 209.173 1122.36 206.425 1183.07 182.517C1198.27 176.514 1212.73 169.214 1226.22 160.732C1226.6 160.5 1226.18 159.999 1225.83 160.229C1168.34 196.264 1094.23 209.368 1025.12 198.387C991.614 193.059 960.965 181.695 932.297 166.502C904.11 151.556 877.961 134.119 850.023 118.852C824.171 104.747 794.276 90.086 762.84 87.6735C734.687 85.5071 705.422 91.2936 679.418 100.743C654.506 109.798 629.773 123.251 614.111 142.47C598.45 161.688 592.047 184.763 591.206 207.783C589.444 256.411 609.916 305.207 597.961 353.73C592.121 377.483 575.785 404.145 549.4 415.909C524.437 427.042 498.665 415.792 478.808 402.835C458.718 389.794 441.942 373.429 421.929 360.263C405.147 349.219 384.969 342.256 364.226 338.369C322.741 330.595 271.304 333.659 238.049 359.45C220.473 373.079 212.67 391.076 209.777 410.573C206.163 434.932 207.784 459.489 206.195 483.917C204.528 509.794 199.037 536.296 180.511 557.877C159.86 581.929 127.05 594.978 92.5777 595.107C75.8471 595.09 59.3203 592.474 43.8144 587.391C43.3872 587.254 43.056 587.79 43.4837 587.935L43.4823 587.91Z" fill="#B4B4B4"/>
<path d="M39.4537 591.74C68.0111 601.393 100.851 603.683 130.419 594.399C159.593 585.227 182.083 564.944 193.229 540.496C203.821 517.178 204.707 491.798 204.785 467.272C204.888 442.527 202.53 415.937 210.999 391.822C225.959 349.132 280.445 333.368 327.906 334.878C352.482 335.669 377.208 340.537 398.981 350.032C421.027 359.649 437.714 375.301 455.502 389.556C472.669 403.291 492.337 418.915 516.301 423.286C542.031 427.893 563.21 413.774 577.563 396.65C612.052 355.632 600.32 303.731 593.172 257.919C589.341 233.377 585.947 208.148 590.767 183.388C595.769 157.673 610.569 134.774 634.937 118.451C660.176 101.545 691.734 90.7572 723.188 86.5478C738.536 84.4892 754.485 83.9299 769.667 86.4187C786.493 89.1434 802.723 95.4068 817.722 102.145C877.563 129.043 925.079 173.181 989.379 193.467C1052.64 213.425 1125.76 211.658 1188.1 187.438C1203.71 181.356 1218.55 173.899 1232.37 165.192C1232.74 164.961 1232.33 164.46 1231.98 164.69C1173.24 201.596 1097.2 214.246 1026.88 201.955C992.659 195.966 961.596 183.697 932.592 167.636C904.385 152.021 878.23 133.978 850.199 118.103C823.822 103.141 793.249 87.485 760.793 84.7439C732.152 82.3635 702.288 88.0232 675.767 97.5912C650.217 106.812 624.944 120.66 609.327 140.651C594.022 160.252 588.178 183.287 587.757 206.315C586.807 255.793 608.469 305.068 597.517 354.616C592.234 378.611 576.535 405.405 550.525 418.044C525.591 430.177 499.636 419.559 479.403 406.365C458.999 393.011 442.133 376.401 422.381 362.461C405.489 350.52 385.088 342.818 363.678 338.445C321.612 329.857 268.985 332.457 234.862 358.549C216.984 372.227 208.909 390.466 206.144 410.214C202.62 435.448 204.81 460.787 203.688 486.036C202.513 512.353 197.651 539.675 179.051 561.792C158.241 586.565 124.866 599.888 89.6243 599.731C72.4729 599.553 55.573 596.658 39.7939 591.196C39.3662 591.051 39.0356 591.595 39.4632 591.74L39.4537 591.74Z" fill="#B4B4B4"/>
<path d="M35.425 595.566C64.8363 605.976 99.0791 608.638 129.636 598.659C159.081 589.051 181.376 568.044 191.901 543.067C202.066 518.959 202.209 492.927 201.842 467.805C201.476 442.683 198.648 415.386 207.435 390.841C222.791 347.902 278.054 332.392 325.786 334.306C350.773 335.283 375.882 340.5 397.818 350.526C419.931 360.632 436.613 376.857 454.441 391.466C471.718 405.63 491.713 421.962 516.208 426.286C542.205 430.886 563.406 416.006 577.612 398.648C611.905 356.713 598.855 303.936 590.814 257.675C586.516 232.797 582.521 207.223 586.885 182.005C591.287 156.461 605.286 133.213 629.163 116.653C654.618 99.0317 686.949 87.9245 719.062 83.5882C734.674 81.482 750.844 80.9423 766.345 83.3399C783.809 86.0601 800.567 92.7289 816.007 99.8454C876.969 127.986 924.697 173.994 989.943 195.969C1054.4 217.698 1129.88 216.861 1194.02 191.988C1209.7 185.883 1224.6 178.384 1238.47 169.619C1238.84 169.387 1238.42 168.886 1238.09 169.124C1178.12 206.908 1100.1 219.092 1028.62 205.463C993.239 198.733 961.459 185.279 931.808 168.092C903.153 151.478 876.536 132.533 847.888 115.878C821.431 100.525 790.801 84.5252 757.979 81.7165C728.5 79.1989 697.714 85.0491 670.482 95.0296C644.624 104.519 619.439 118.749 604.164 139.358C589.261 159.485 584.165 182.929 584.329 206.19C584.687 256.035 606.977 305.452 597.094 355.527C592.24 380.031 576.917 407.062 550.906 420.516C526.024 433.381 499.73 422.822 479.38 409.409C458.484 395.632 441.37 378.366 421.462 363.701C404.462 351.216 384.049 342.982 362.183 338.28C319.721 329.118 266.111 331.355 231.461 357.735C213.204 371.629 205.017 390.23 202.417 410.356C199.135 435.988 201.74 461.747 201.156 487.409C200.557 513.798 196.65 541.315 178.905 564.037C158.401 590.309 123.918 604.585 87.4315 604.322C69.6197 604.073 52.0971 600.915 35.8222 595.018C35.404 594.873 35.0733 595.417 35.4915 595.562L35.425 595.566Z" fill="#B4B4B4"/>
<path d="M31.3946 599.416C61.5838 610.588 97.0204 613.625 128.525 603.051C157.879 593.206 179.845 571.943 190.079 546.878C200.343 521.666 199.78 494.48 198.878 468.34C198.03 442.632 194.606 414.417 204.059 389.364C220.761 345.144 279.309 330.736 328.24 334.107C353.117 335.817 377.91 341.682 399.269 352.421C421.697 363.703 438.55 381.396 457.099 396.617C474.241 410.74 495.112 427.393 520.204 429.841C546.82 432.468 567.725 414.602 580.607 396.602C612.289 352.363 595.882 298.222 587.214 251.182C582.57 225.92 578.731 199.755 584.171 174.184C589.655 148.401 605.372 126.03 630.273 110.201C656.269 93.6797 688.389 83.376 720.282 79.8598C734.989 78.242 750.075 78.0718 764.593 80.4456C780.948 83.1087 796.554 89.3113 811.061 95.9328C874.322 124.788 922.578 173.156 988.79 197.82C1053.49 221.925 1132.68 221.85 1198.17 197.214C1214.61 191.01 1230.2 183.255 1244.65 174.097C1245.02 173.866 1244.61 173.365 1244.26 173.595C1182.46 212.64 1101.73 223.591 1028.56 208.341C991.853 200.702 959.9 185.724 929.551 167.165C900.309 149.309 872.974 129.315 843.231 112.029C818.094 97.4234 789.266 82.4257 758.305 78.9926C729.357 75.7741 698.882 80.92 671.739 90.1203C645.699 98.9418 619.667 112.511 603.35 132.421C587.327 151.975 581.184 175.431 580.865 198.744C580.171 250.023 603.938 299.75 597.31 351.251C594.037 377.044 580.641 404.117 555.564 420.36C544.449 427.551 531.104 430.955 517.395 428.898C504.301 426.934 492.538 420.945 482.131 414.353C460.267 400.47 442.733 382.542 422.804 366.852C406.044 353.74 385.83 344.187 363.772 338.955C320.398 328.36 264.71 329.764 228.58 356.578C210.104 370.299 201.33 388.973 198.781 409.169C195.435 435.668 198.633 462.29 198.556 488.794C198.483 515.718 195.265 543.938 177.687 567.417C157.213 594.706 121.857 609.524 84.4079 608.937C66.1733 608.538 48.2758 605.113 31.7244 598.856C31.3057 598.703 30.9746 599.238 31.3932 599.392L31.3946 599.416Z" fill="#B4B4B4"/>
</g>
</svg>
