<svg width="404" height="404" viewBox="0 0 404 404" fill="none" xmlns="http://www.w3.org/2000/svg">
<mask id="mask0_1_1238" style="mask-type:alpha" maskUnits="userSpaceOnUse" x="20" y="20" width="363" height="363">
<circle cx="201.516" cy="201.516" r="180.728" transform="rotate(-97.04 201.516 201.516)" fill="#C4C4C4"/>
</mask>
<g mask="url(#mask0_1_1238)">
<path d="M75.3234 432.521C67.1625 393.105 48.1476 358.142 39.7836 318.441C33.8634 290.372 23.8905 263.578 19.4954 235.205C7.64377 158.791 0.42333 81.2889 -8.98587 4.57372" stroke="#D8D8D8" stroke-width="0.75" stroke-miterlimit="10"/>
<path d="M81.4657 431.853C72.7795 392.889 55.961 357.306 47.4436 318.141C41.2238 289.528 30.0535 262.869 25.5322 233.787C13.7149 157.86 6.77616 80.1297 -2.06122 3.75716" stroke="#D8D8D8" stroke-width="0.75" stroke-miterlimit="10"/>
<path d="M86.3975 431.4C77.9535 393.143 64.4867 356.255 55.5131 318.102C48.5444 288.444 34.9004 261.729 30.1807 231.458C25.0752 198.587 26.9558 165.499 23.2352 132.548C18.3393 89.2417 9.91956 46.3707 4.85522 2.95609" stroke="#D8D8D8" stroke-width="0.75" stroke-miterlimit="10"/>
<path d="M90.3286 431.149C82.6402 393.676 73.4539 355.265 63.9142 318.28C55.8411 287.209 38.6806 260.36 33.6821 228.251C28.6182 195.297 34.5411 162.627 31.8349 129.628C28.2993 86.6702 17.0307 44.7838 11.7539 2.05414" stroke="#D8D8D8" stroke-width="0.75" stroke-miterlimit="10"/>
<path d="M93.4692 431.044C86.8834 394.029 82.1608 354.95 72.5803 318.68C63.8677 285.674 41.4353 258.907 36.3114 224.528C31.3432 191.304 42.0568 159.36 40.7577 126.251C39.094 83.9147 24.3598 43.0375 18.6921 1.22143" stroke="#D8D8D8" stroke-width="0.75" stroke-miterlimit="10"/>
<path d="M96.0407 431.062C90.842 394.612 92.1193 354.547 81.4404 319.214C70.9181 284.416 43.4371 257.136 38.2342 220.339C33.5083 186.672 49.4605 155.734 49.8866 122.477C50.4059 81.0846 31.75 40.9758 25.5877 0.38313" stroke="#D8D8D8" stroke-width="0.75" stroke-miterlimit="10"/>
<path d="M98.2454 431.149C94.5583 394.913 102.341 354.717 90.4043 319.758C77.9623 283.324 44.7834 254.979 39.8049 215.816C35.4362 181.485 56.8618 151.782 59.1944 118.38C61.9665 78.0793 39.2174 38.6051 32.5124 -0.525719" stroke="#D8D8D8" stroke-width="0.75" stroke-miterlimit="10"/>
<path d="M100.313 431.256C98.1905 394.827 112.797 355.609 99.4346 320.4C84.9839 282.342 46.4793 252.704 41.1768 211.23C36.7419 176.469 64.3064 147.532 68.5529 114.255C73.5966 75.1973 46.6464 36.216 39.4351 -1.36707" stroke="#D8D8D8" stroke-width="0.75" stroke-miterlimit="10"/>
<path d="M102.429 431.374C101.873 394.35 123.375 357.109 108.432 321.023C92.0901 281.558 47.9568 250.265 42.6542 206.7C38.2933 171.386 71.6943 143.278 77.8977 110.16C84.9984 72.2821 54.0761 33.8689 46.3823 -2.18231" stroke="#D8D8D8" stroke-width="0.75" stroke-miterlimit="10"/>
<path d="M104.822 431.463C105.744 393.65 133.921 359.007 117.331 321.613C99.2756 280.927 49.6378 247.834 44.3777 202.416C40.2164 166.523 79.1918 139.212 87.0721 106.287C95.9711 69.3748 61.3655 31.7781 53.2439 -3.03204" stroke="#D8D8D8" stroke-width="0.75" stroke-miterlimit="10"/>
<path d="M107.726 431.363C109.928 392.721 144.228 360.912 126.097 322.017C106.591 280.257 51.8877 245.465 46.7238 198.42C42.716 161.888 86.7362 135.478 96.1171 102.678C106.491 66.4103 68.6321 29.874 60.18 -3.95258" stroke="#D8D8D8" stroke-width="0.75" stroke-miterlimit="10"/>
<path d="M111.32 431.18C114.441 391.714 154.15 362.71 134.616 322.284C124.692 301.748 107.518 282.843 93.5286 265.147C78.6249 246.323 52.528 220.526 49.8552 195.013C45.9376 157.747 94.3425 132.435 104.867 99.5845C116.376 63.6286 75.775 28.4125 67.1041 -4.7801" stroke="#D8D8D8" stroke-width="0.75" stroke-miterlimit="10"/>
<path d="M115.831 430.8C119.335 390.564 163.377 364.229 142.821 322.327C132.469 301.249 114.259 281.801 99.6594 263.767C84.2695 244.771 56.6775 218.37 54.0135 192.301C50.1258 154.127 101.967 130.29 113.296 97.1586C125.513 61.1799 82.818 27.3073 74.0687 -5.57854" stroke="#D8D8D8" stroke-width="0.75" stroke-miterlimit="10"/>
<path d="M121.455 430.211C124.645 389.213 171.714 365.216 150.635 322.113C140.15 300.69 121.073 280.807 106.12 262.635C90.3458 243.454 62.1529 216.999 59.4578 190.469C55.4843 151.181 109.606 129.284 121.154 95.4154C133.564 59.0125 89.5484 26.5815 80.9187 -6.48702" stroke="#D8D8D8" stroke-width="0.75" stroke-miterlimit="10"/>
<path d="M128.301 429.494C131.548 388.643 178.458 364.408 157.31 321.585C146.686 300.076 127.854 280.085 112.937 261.676C97.3181 242.399 69.2034 215.74 66.2919 189.34C61.9592 149.968 116.799 128.446 128.285 94.5985C140.777 57.811 96.3388 26.0391 87.8509 -7.34398" stroke="#D8D8D8" stroke-width="0.75" stroke-miterlimit="10"/>
<path d="M135.74 429.398C139.23 389.163 182.928 362.754 162.215 321.052C151.505 299.476 133.883 279.349 119.374 260.476C104.45 240.971 76.7424 213.423 73.7443 187.472C69.2926 149.019 123.716 127.058 135.218 94.177C148.081 57.3566 103.228 25.2614 94.7168 -8.20915" stroke="#D8D8D8" stroke-width="0.75" stroke-miterlimit="10"/>
<path d="M143.582 429.93C146.696 389.987 185.768 361.579 166.156 320.839C155.716 299.049 139.379 278.659 125.528 259.047C111.436 239.065 84.6679 210.548 81.8189 184.863C77.6552 147.278 130.973 125.984 142.491 93.9659C155.69 57.2589 110.194 24.3392 101.679 -9.05346" stroke="#D8D8D8" stroke-width="0.75" stroke-miterlimit="10"/>
<path d="M151.779 430.956C153.959 391.193 187.298 360.704 169.16 320.712C159.183 298.697 144.318 277.777 131.361 257.46C118.18 236.797 92.8707 207.234 90.3347 181.679C86.7597 144.887 138.352 125.097 149.885 93.9294C163.376 57.3929 117.093 23.4339 108.559 -9.90472" stroke="#D8D8D8" stroke-width="0.75" stroke-miterlimit="10"/>
<path d="M160.234 432.369C161.089 392.757 187.861 360.017 171.6 320.685C162.374 298.267 149.007 276.826 137.132 255.756C125.022 234.25 101.438 203.7 99.4519 178.102C96.6439 141.977 146.164 124.548 157.516 94.0103C171.105 57.6297 124.091 22.5727 115.479 -10.7693" stroke="#D8D8D8" stroke-width="0.75" stroke-miterlimit="10"/>
<path d="M168.863 434.068C168.156 394.674 187.838 359.53 173.587 320.789C165.189 297.959 153.461 275.889 142.85 254.069C131.925 231.59 110.423 200.124 109.025 174.376C107.111 137.96 155.37 125.169 165.316 94.223C177.509 56.2713 131.503 23.195 122.425 -11.6135" stroke="#D8D8D8" stroke-width="0.75" stroke-miterlimit="10"/>
<path d="M177.588 435.884C175.274 398.949 187.503 362.336 177 326.025C168.279 295.873 154.492 266.955 142.732 237.928C134.831 218.394 120.382 192.902 120.2 171.344C119.909 133.849 165.875 124.66 174.369 91.2716C183.6 54.9514 138.087 21.0651 129.348 -12.4678" stroke="#D8D8D8" stroke-width="0.75" stroke-miterlimit="10"/>
<path d="M186.339 437.751C182.435 400.599 187.657 362.875 178.574 326.35C170.92 295.744 159.634 265.948 149.74 236.032C143.002 215.67 130.414 189.871 130.62 168.006C130.953 131.803 173.954 123.91 182.263 91.7332C191.625 55.5388 145.008 20.1356 136.255 -13.3051" stroke="#D8D8D8" stroke-width="0.75" stroke-miterlimit="10"/>
<path d="M195.018 439.503C189.595 401.971 188.114 363.835 180.359 326.655C173.94 295.599 164.998 265.023 157.089 234.332C151.592 213.146 140.942 187.249 141.481 165.047C142.281 130.22 182.174 123.097 190.171 92.1602C199.535 55.9785 152.047 19.3785 143.176 -14.1768" stroke="#D8D8D8" stroke-width="0.75" stroke-miterlimit="10"/>
<path d="M203.564 441.058C196.768 402.971 189.081 365.085 182.601 326.947C177.274 295.524 170.896 264.27 164.889 232.982C160.678 211.018 152.044 185.234 152.774 162.697C153.803 129.198 190.566 122.359 198.067 92.5292C207.239 56.1517 159.083 18.6398 150.092 -15.0557" stroke="#D8D8D8" stroke-width="0.75" stroke-miterlimit="10"/>
<path d="M211.889 442.288C204.01 403.587 190.763 366.387 185.518 327.154C181.282 295.467 177.326 263.746 173.23 232.042C170.316 209.387 163.682 184.015 164.47 161.11C165.656 128.882 199.082 121.681 205.908 92.8768C214.718 55.9757 166.149 18.2565 157.012 -15.8859" stroke="#D8D8D8" stroke-width="0.75" stroke-miterlimit="10"/>
<path d="M219.905 443.08C211.359 403.789 193.429 367.568 189.344 327.274C183.875 273.371 174.928 214.615 176.623 160.473C177.585 129.462 207.776 121.058 213.684 93.0778C221.649 55.2995 173.322 18.1832 163.961 -16.7322" stroke="#D8D8D8" stroke-width="0.75" stroke-miterlimit="10"/>
<path d="M227.551 443.275C219.319 405.172 198.233 371.111 194.614 331.973C189.436 276.032 188.28 216.366 188.902 160.225C189.24 130.014 218.618 118.483 221.652 90.1341C225.733 51.5439 180.393 18.4241 170.894 -17.598" stroke="#D8D8D8" stroke-width="0.75" stroke-miterlimit="10"/>
<path d="M234.721 442.802C227.087 404.303 203.645 371.242 200.796 331.648C196.778 275.796 202.531 218.325 201.969 162.318C201.676 132.649 227.257 117.983 228.973 89.8361C231.421 49.8333 187.616 18.9002 177.76 -18.4468" stroke="#D8D8D8" stroke-width="0.75" stroke-miterlimit="10"/>
<path d="M241.591 441.505C233.393 403.359 211.514 368.943 208.681 329.683C204.742 275.307 208.227 218.813 208.428 164.287C208.525 134.635 233.273 116.985 234.797 88.5388C236.913 49.0936 194.858 17.4794 184.672 -19.2972" stroke="#D8D8D8" stroke-width="0.75" stroke-miterlimit="10"/>
<path d="M248.365 439.384C239.77 399.699 220.177 362.56 217.651 321.712C214.518 271.033 213.828 218.49 214.509 167.74C214.901 138.181 236.272 118.184 238.866 89.8256C242.527 49.7118 202.001 16.8885 191.586 -20.1827" stroke="#D8D8D8" stroke-width="0.75" stroke-miterlimit="10"/>
<path d="M255.083 436.59C246.963 396.665 231.371 357.947 227.909 317.253C223.808 269.303 220.002 219.34 220.04 171.227C220.061 140.758 239.967 117.262 242.011 87.6922C244.714 47.9807 208.537 16.0669 198.527 -20.9639" stroke="#D8D8D8" stroke-width="0.75" stroke-miterlimit="10"/>
<path d="M261.74 433.266C246.404 347.984 227.266 262.139 225.348 175.07C224.654 143.308 242.808 116.295 244.181 85.1556C245.917 46.0929 214.679 14.9511 205.422 -21.8369" stroke="#D8D8D8" stroke-width="0.75" stroke-miterlimit="10"/>
<path d="M268.359 429.558C262.194 388.32 257.464 346.879 250.767 305.719C244.001 264.22 232.832 221.146 230.616 179.149C228.873 145.901 243.982 115.248 245.705 82.3476C247.677 44.767 220.431 13.0158 212.338 -22.7148" stroke="#D8D8D8" stroke-width="0.75" stroke-miterlimit="10"/>
<path d="M274.945 425.604C270.117 383.684 271.828 340.543 262.942 299.228C254.742 261.069 239.528 222.266 236.041 183.358C232.928 148.536 245.576 114.157 246.828 79.4295C248.077 43.1134 226.126 11.4576 219.259 -23.5463" stroke="#D8D8D8" stroke-width="0.75" stroke-miterlimit="10"/>
<path d="M281.537 421.533C278.147 379.333 286.615 333.601 275.336 292.465C265.76 257.486 246.502 223.482 241.793 187.437C237.041 151.049 247.417 112.921 247.784 76.365C248.148 41.3464 231.805 9.72115 226.167 -24.4272" stroke="#D8D8D8" stroke-width="0.75" stroke-miterlimit="10"/>
<path d="M288.115 417.494C286.136 374.279 301.863 323.531 286.448 282.26C275.315 252.459 252.063 223.443 247.216 191.832C241.691 155.358 248.998 114.548 248.893 77.6115C248.792 42.3919 237.628 9.40386 233.087 -25.2802" stroke="#D8D8D8" stroke-width="0.75" stroke-miterlimit="10"/>
<path d="M294.717 413.629C294.014 370.076 315.201 317.427 298.498 276.083C287.191 248.11 259.88 225.653 254.144 195.417C246.887 157.569 251.84 113.485 250.487 74.8173C249.295 40.9077 243.359 7.58404 240.009 -26.1364" stroke="#D8D8D8" stroke-width="0.75" stroke-miterlimit="10"/>
<path d="M301.352 410.086C301.671 367.491 328.993 310.236 310.161 270.369C297.911 244.386 268.511 227.391 261.969 198.366C253.154 159.198 255.425 112.437 252.723 72.153C250.491 39.121 249.324 6.03494 246.937 -26.9909" stroke="#D8D8D8" stroke-width="0.75" stroke-miterlimit="10"/>
<path d="M308.037 406.999C309.003 365.358 341.607 303.912 321.266 265.329C308.3 240.751 278.02 228.877 270.919 200.45C260.752 159.951 260.037 111.492 255.854 69.6735C252.589 36.9627 255.597 4.84628 253.833 -27.8432" stroke="#D8D8D8" stroke-width="0.75" stroke-miterlimit="10"/>
<path d="M314.781 404.502C315.601 376.737 322.72 352.288 329.567 325.535C334.806 305.206 342.549 280.899 331.602 261.174C318.398 237.388 288.646 229.788 281.192 201.533C270.09 159.536 265.948 110.828 260.187 67.5257C255.792 34.6575 262.285 3.98349 260.773 -28.6468" stroke="#D8D8D8" stroke-width="0.75" stroke-miterlimit="10"/>
<path d="M321.601 402.742C322.294 374.475 330.152 350.155 337.598 323.121C343.088 303.368 351.525 277.775 340.887 258.14C328.073 234.487 300.175 229.77 292.85 201.306C281.602 157.596 273.354 110.261 265.826 65.6138C260.223 32.3781 269.357 3.32803 267.609 -29.5442" stroke="#D8D8D8" stroke-width="0.75" stroke-miterlimit="10"/>
<path d="M328.467 401.868C329.06 373.512 337.04 349.24 344.635 322.163C350.14 302.524 358.539 276.625 348.43 256.887C336.277 233.152 310.068 228.614 303.018 200.284C291.893 155.9 281.321 109.82 272.686 64.7932C266.275 31.2829 276.438 2.72557 274.53 -30.3981" stroke="#D8D8D8" stroke-width="0.75" stroke-miterlimit="10"/>
<path d="M335.517 401.852C336.226 373.817 343.725 349.411 350.884 322.465C356.184 302.632 364.163 277.199 354.277 257.381C342.504 233.793 317.308 227.528 310.046 199.883C298.586 156.238 287.85 111.134 278.663 66.8599C271.525 32.4836 282.716 2.84356 281.497 -31.295" stroke="#D8D8D8" stroke-width="0.75" stroke-miterlimit="10"/>
<path d="M342.608 402.591C343.516 360.169 378.356 299.26 359.306 258.994C348.155 235.419 324.474 226.888 317.082 199.969C305.38 157.503 293.88 114.264 283.775 71.3424C275.373 35.624 288.594 3.58952 288.421 -32.1119" stroke="#D8D8D8" stroke-width="0.75" stroke-miterlimit="10"/>
<path d="M349.75 403.938C350.23 360.976 381.668 302.437 363.716 261.441C353.408 237.788 331.7 226.508 324.139 200.32C312.315 159.367 299.614 118.536 288.374 77.4081C278.276 40.4011 294.27 4.35644 295.323 -33.0204" stroke="#D8D8D8" stroke-width="0.75" stroke-miterlimit="10"/>
<path d="M356.95 405.755C356.732 362.155 384.233 306.453 367.64 264.54C358.272 240.978 339.501 225.873 331.255 201.036C318.397 162.278 305.234 123.557 292.833 84.6386C280.758 46.778 299.957 4.90024 302.253 -33.8182" stroke="#D8D8D8" stroke-width="0.75" stroke-miterlimit="10"/>
<path d="M364.172 407.882C363.142 363.672 386.249 310.876 371.23 268.11C362.92 244.43 346.489 226.105 338.384 201.883C326.008 164.938 310.94 128.79 297.438 92.2417C283.364 54.0983 305.818 4.89625 309.17 -34.6759" stroke="#D8D8D8" stroke-width="0.75" stroke-miterlimit="10"/>
<path d="M371.413 410.164C369.342 366.199 386.887 318.145 375.493 275.034C368.878 250.021 352.817 228.203 344.868 203.264C333.152 166.534 313.126 132.587 301.04 96.0064C288.375 57.6632 312.03 4.07665 316.072 -35.5676" stroke="#D8D8D8" stroke-width="0.75" stroke-miterlimit="10"/>
<path d="M378.673 412.562C375.635 368.613 388.762 322.332 378.753 279.037C372.911 253.8 359.867 229.219 351.889 204.465C340.563 169.327 319.524 137.429 306.926 102.759C299.294 81.7458 306.311 59.7117 310.589 38.2999C315.559 13.3931 320.177 -11.1216 323.011 -36.3845" stroke="#D8D8D8" stroke-width="0.75" stroke-miterlimit="10"/>
<path d="M385.913 414.829C381.948 371.111 390.818 326.118 382.104 282.857C376.95 257.224 366.872 230.418 358.941 205.516C348.194 171.83 323.407 141.894 313.995 107.927C302.08 64.9843 324.86 7.14044 329.918 -37.24" stroke="#D8D8D8" stroke-width="0.75" stroke-miterlimit="10"/>
<path d="M393.137 416.858C388.381 373.535 393.276 329.407 385.722 286.326C380.746 259.309 374.172 232.611 366.033 206.373C355.956 173.302 331.88 144.104 322.613 110.895C310.411 67.1992 332.03 7.16124 336.825 -38.0908" stroke="#D8D8D8" stroke-width="0.75" stroke-miterlimit="10"/>
<path d="M400.263 418.507C391.437 347.558 392.441 276.415 373.124 206.903C363.937 173.813 341.791 144.144 333.063 111.01C321.307 66.3295 339.743 7.18822 343.694 -38.9411" stroke="#D8D8D8" stroke-width="0.75" stroke-miterlimit="10"/>
<path d="M407.428 419.626C398.016 349.162 397.873 275.745 381.092 206.372C372.691 171.699 352.058 139.429 344.735 104.494C335.357 59.9332 348.476 5.52969 350.691 -39.8041" stroke="#D8D8D8" stroke-width="0.75" stroke-miterlimit="10"/>
<path d="M414.485 420.085C404.988 349.141 401.181 276.693 388.081 206.272C381.221 169.342 366.497 133.669 360.332 96.615C352.951 52.3242 358.153 4.19353 357.587 -40.6547" stroke="#D8D8D8" stroke-width="0.75" stroke-miterlimit="10"/>
<path d="M421.454 419.742C402.315 266.015 382.054 112.414 364.493 -41.5072" stroke="#D8D8D8" stroke-width="0.75" stroke-miterlimit="10"/>
</g>
</svg>
